G04 Layer_Color=32896*
%FSLAX44Y44*%
%MOMM*%
G71*
G01*
G75*
%ADD46C,0.2540*%
%ADD74C,0.1270*%
%ADD144C,0.2032*%
D46*
X854494Y296494D02*
Y295578D01*
X853578D01*
Y296494D01*
X854494D01*
X849912D02*
Y295578D01*
X848996D01*
Y296494D01*
X849912D01*
X845330D02*
Y295578D01*
X844414D01*
Y296494D01*
X845330D01*
X840748D02*
Y295578D01*
X839832D01*
Y296494D01*
X840748D01*
X836167D02*
Y295578D01*
X835250D01*
Y296494D01*
X836167D01*
X831585D02*
Y295578D01*
X830668D01*
Y296494D01*
X831585D01*
X827003D02*
Y295578D01*
X826087D01*
Y296494D01*
X827003D01*
X822421D02*
Y295578D01*
X821505D01*
Y296494D01*
X822421D01*
X817839D02*
Y295578D01*
X816923D01*
Y296494D01*
X817839D01*
X813257D02*
Y295578D01*
X812341D01*
Y296494D01*
X813257D01*
X808675D02*
Y295578D01*
X807759D01*
Y296494D01*
X808675D01*
X804094D02*
Y295578D01*
X803177D01*
Y296494D01*
X804094D01*
X799512D02*
Y295578D01*
X798595D01*
Y296494D01*
X799512D01*
X794930D02*
Y295578D01*
X794014D01*
Y296494D01*
X794930D01*
X790348D02*
Y295578D01*
X789432D01*
Y296494D01*
X790348D01*
X785766D02*
Y295578D01*
X784850D01*
Y296494D01*
X785766D01*
X781184D02*
Y295578D01*
X780268D01*
Y296494D01*
X781184D01*
X776602D02*
Y295578D01*
X775686D01*
Y296494D01*
X776602D01*
X772021D02*
Y295578D01*
X771104D01*
Y296494D01*
X772021D01*
X767439D02*
Y295578D01*
X766522D01*
Y296494D01*
X767439D01*
X762857D02*
Y295578D01*
X761941D01*
Y296494D01*
X762857D01*
X758275D02*
Y295578D01*
X757359D01*
Y296494D01*
X758275D01*
X753693D02*
Y295578D01*
X752777D01*
Y296494D01*
X753693D01*
X749111D02*
Y295578D01*
X748195D01*
Y296494D01*
X749111D01*
X744529D02*
Y295578D01*
X743613D01*
Y296494D01*
X744529D01*
X739948D02*
Y295578D01*
X739031D01*
Y296494D01*
X739948D01*
X735366D02*
Y295578D01*
X734449D01*
Y296494D01*
X735366D01*
X730784D02*
Y295578D01*
X729867D01*
Y296494D01*
X730784D01*
X726202D02*
Y295578D01*
X725286D01*
Y296494D01*
X726202D01*
X721620D02*
Y295578D01*
X720704D01*
Y296494D01*
X721620D01*
X717038D02*
Y295578D01*
X716122D01*
Y296494D01*
X717038D01*
X712457D02*
Y295578D01*
X711540D01*
Y296494D01*
X712457D01*
X707875D02*
Y295578D01*
X706958D01*
Y296494D01*
X707875D01*
X703293D02*
Y295578D01*
X702376D01*
Y296494D01*
X703293D01*
X698711D02*
Y295578D01*
X697794D01*
Y296494D01*
X698711D01*
X694129D02*
Y295578D01*
X693213D01*
Y296494D01*
X694129D01*
X689547D02*
Y295578D01*
X688631D01*
Y296494D01*
X689547D01*
X684965D02*
Y295578D01*
X684049D01*
Y296494D01*
X684965D01*
X680384D02*
Y295578D01*
X679467D01*
Y296494D01*
X680384D01*
X675802D02*
Y295578D01*
X674885D01*
Y296494D01*
X675802D01*
X671220D02*
Y295578D01*
X670303D01*
Y296494D01*
X671220D01*
X666638D02*
Y295578D01*
X665722D01*
Y296494D01*
X666638D01*
X662056D02*
Y295578D01*
X661140D01*
Y296494D01*
X662056D01*
X657474D02*
Y295578D01*
X656558D01*
Y296494D01*
X657474D01*
X652892D02*
Y295578D01*
X651976D01*
Y296494D01*
X652892D01*
X648310D02*
Y295578D01*
X647394D01*
Y296494D01*
X648310D01*
X643729D02*
Y295578D01*
X642812D01*
Y296494D01*
X643729D01*
X639147D02*
Y295578D01*
X638230D01*
Y296494D01*
X639147D01*
X634565D02*
Y295578D01*
X633649D01*
Y296494D01*
X634565D01*
X629983D02*
Y295578D01*
X629067D01*
Y296494D01*
X629983D01*
X625401D02*
Y295578D01*
X624485D01*
Y296494D01*
X625401D01*
X620819D02*
Y295578D01*
X619903D01*
Y296494D01*
X620819D01*
X616237D02*
Y295578D01*
X615321D01*
Y296494D01*
X616237D01*
X854494Y324942D02*
Y324026D01*
X853578D01*
Y324942D01*
X854494D01*
X849912D02*
Y324026D01*
X848996D01*
Y324942D01*
X849912D01*
X845330D02*
Y324026D01*
X844414D01*
Y324942D01*
X845330D01*
X840748D02*
Y324026D01*
X839832D01*
Y324942D01*
X840748D01*
X836167D02*
Y324026D01*
X835250D01*
Y324942D01*
X836167D01*
X831585D02*
Y324026D01*
X830668D01*
Y324942D01*
X831585D01*
X827003D02*
Y324026D01*
X826087D01*
Y324942D01*
X827003D01*
X822421D02*
Y324026D01*
X821505D01*
Y324942D01*
X822421D01*
X817839D02*
Y324026D01*
X816923D01*
Y324942D01*
X817839D01*
X813257D02*
Y324026D01*
X812341D01*
Y324942D01*
X813257D01*
X808675D02*
Y324026D01*
X807759D01*
Y324942D01*
X808675D01*
X804094D02*
Y324026D01*
X803177D01*
Y324942D01*
X804094D01*
X799512D02*
Y324026D01*
X798595D01*
Y324942D01*
X799512D01*
X794930D02*
Y324026D01*
X794014D01*
Y324942D01*
X794930D01*
X790348D02*
Y324026D01*
X789432D01*
Y324942D01*
X790348D01*
X785766D02*
Y324026D01*
X784850D01*
Y324942D01*
X785766D01*
X781184D02*
Y324026D01*
X780268D01*
Y324942D01*
X781184D01*
X776602D02*
Y324026D01*
X775686D01*
Y324942D01*
X776602D01*
X772021D02*
Y324026D01*
X771104D01*
Y324942D01*
X772021D01*
X767439D02*
Y324026D01*
X766522D01*
Y324942D01*
X767439D01*
X762857D02*
Y324026D01*
X761941D01*
Y324942D01*
X762857D01*
X758275D02*
Y324026D01*
X757359D01*
Y324942D01*
X758275D01*
X753693D02*
Y324026D01*
X752777D01*
Y324942D01*
X753693D01*
X749111D02*
Y324026D01*
X748195D01*
Y324942D01*
X749111D01*
X744529D02*
Y324026D01*
X743613D01*
Y324942D01*
X744529D01*
X739948D02*
Y324026D01*
X739031D01*
Y324942D01*
X739948D01*
X735366D02*
Y324026D01*
X734449D01*
Y324942D01*
X735366D01*
X730784D02*
Y324026D01*
X729867D01*
Y324942D01*
X730784D01*
X726202D02*
Y324026D01*
X725286D01*
Y324942D01*
X726202D01*
X721620D02*
Y324026D01*
X720704D01*
Y324942D01*
X721620D01*
X717038D02*
Y324026D01*
X716122D01*
Y324942D01*
X717038D01*
X712457D02*
Y324026D01*
X711540D01*
Y324942D01*
X712457D01*
X707875D02*
Y324026D01*
X706958D01*
Y324942D01*
X707875D01*
X703293D02*
Y324026D01*
X702376D01*
Y324942D01*
X703293D01*
X698711D02*
Y324026D01*
X697794D01*
Y324942D01*
X698711D01*
X694129D02*
Y324026D01*
X693213D01*
Y324942D01*
X694129D01*
X689547D02*
Y324026D01*
X688631D01*
Y324942D01*
X689547D01*
X684965D02*
Y324026D01*
X684049D01*
Y324942D01*
X684965D01*
X680384D02*
Y324026D01*
X679467D01*
Y324942D01*
X680384D01*
X675802D02*
Y324026D01*
X674885D01*
Y324942D01*
X675802D01*
X671220D02*
Y324026D01*
X670303D01*
Y324942D01*
X671220D01*
X666638D02*
Y324026D01*
X665722D01*
Y324942D01*
X666638D01*
X662056D02*
Y324026D01*
X661140D01*
Y324942D01*
X662056D01*
X657474D02*
Y324026D01*
X656558D01*
Y324942D01*
X657474D01*
X652892D02*
Y324026D01*
X651976D01*
Y324942D01*
X652892D01*
X648310D02*
Y324026D01*
X647394D01*
Y324942D01*
X648310D01*
X643729D02*
Y324026D01*
X642812D01*
Y324942D01*
X643729D01*
X639147D02*
Y324026D01*
X638230D01*
Y324942D01*
X639147D01*
X634565D02*
Y324026D01*
X633649D01*
Y324942D01*
X634565D01*
X629983D02*
Y324026D01*
X629067D01*
Y324942D01*
X629983D01*
X625401D02*
Y324026D01*
X624485D01*
Y324942D01*
X625401D01*
X620819D02*
Y324026D01*
X619903D01*
Y324942D01*
X620819D01*
X616237D02*
Y324026D01*
X615321D01*
Y324942D01*
X616237D01*
X854494Y369900D02*
Y368984D01*
X853578D01*
Y369900D01*
X854494D01*
X849912D02*
Y368984D01*
X848996D01*
Y369900D01*
X849912D01*
X845330D02*
Y368984D01*
X844414D01*
Y369900D01*
X845330D01*
X840748D02*
Y368984D01*
X839832D01*
Y369900D01*
X840748D01*
X836167D02*
Y368984D01*
X835250D01*
Y369900D01*
X836167D01*
X831585D02*
Y368984D01*
X830668D01*
Y369900D01*
X831585D01*
X827003D02*
Y368984D01*
X826087D01*
Y369900D01*
X827003D01*
X822421D02*
Y368984D01*
X821505D01*
Y369900D01*
X822421D01*
X817839D02*
Y368984D01*
X816923D01*
Y369900D01*
X817839D01*
X813257D02*
Y368984D01*
X812341D01*
Y369900D01*
X813257D01*
X808675D02*
Y368984D01*
X807759D01*
Y369900D01*
X808675D01*
X804094D02*
Y368984D01*
X803177D01*
Y369900D01*
X804094D01*
X799512D02*
Y368984D01*
X798595D01*
Y369900D01*
X799512D01*
X794930D02*
Y368984D01*
X794014D01*
Y369900D01*
X794930D01*
X790348D02*
Y368984D01*
X789432D01*
Y369900D01*
X790348D01*
X785766D02*
Y368984D01*
X784850D01*
Y369900D01*
X785766D01*
X781184D02*
Y368984D01*
X780268D01*
Y369900D01*
X781184D01*
X776602D02*
Y368984D01*
X775686D01*
Y369900D01*
X776602D01*
X772021D02*
Y368984D01*
X771104D01*
Y369900D01*
X772021D01*
X767439D02*
Y368984D01*
X766522D01*
Y369900D01*
X767439D01*
X762857D02*
Y368984D01*
X761941D01*
Y369900D01*
X762857D01*
X758275D02*
Y368984D01*
X757359D01*
Y369900D01*
X758275D01*
X753693D02*
Y368984D01*
X752777D01*
Y369900D01*
X753693D01*
X749111D02*
Y368984D01*
X748195D01*
Y369900D01*
X749111D01*
X744529D02*
Y368984D01*
X743613D01*
Y369900D01*
X744529D01*
X739948D02*
Y368984D01*
X739031D01*
Y369900D01*
X739948D01*
X735366D02*
Y368984D01*
X734449D01*
Y369900D01*
X735366D01*
X730784D02*
Y368984D01*
X729867D01*
Y369900D01*
X730784D01*
X726202D02*
Y368984D01*
X725286D01*
Y369900D01*
X726202D01*
X721620D02*
Y368984D01*
X720704D01*
Y369900D01*
X721620D01*
X717038D02*
Y368984D01*
X716122D01*
Y369900D01*
X717038D01*
X712457D02*
Y368984D01*
X711540D01*
Y369900D01*
X712457D01*
X707875D02*
Y368984D01*
X706958D01*
Y369900D01*
X707875D01*
X703293D02*
Y368984D01*
X702376D01*
Y369900D01*
X703293D01*
X698711D02*
Y368984D01*
X697794D01*
Y369900D01*
X698711D01*
X694129D02*
Y368984D01*
X693213D01*
Y369900D01*
X694129D01*
X689547D02*
Y368984D01*
X688631D01*
Y369900D01*
X689547D01*
X684965D02*
Y368984D01*
X684049D01*
Y369900D01*
X684965D01*
X680384D02*
Y368984D01*
X679467D01*
Y369900D01*
X680384D01*
X675802D02*
Y368984D01*
X674885D01*
Y369900D01*
X675802D01*
X671220D02*
Y368984D01*
X670303D01*
Y369900D01*
X671220D01*
X666638D02*
Y368984D01*
X665722D01*
Y369900D01*
X666638D01*
X662056D02*
Y368984D01*
X661140D01*
Y369900D01*
X662056D01*
X657474D02*
Y368984D01*
X656558D01*
Y369900D01*
X657474D01*
X652892D02*
Y368984D01*
X651976D01*
Y369900D01*
X652892D01*
X648310D02*
Y368984D01*
X647394D01*
Y369900D01*
X648310D01*
X643729D02*
Y368984D01*
X642812D01*
Y369900D01*
X643729D01*
X639147D02*
Y368984D01*
X638230D01*
Y369900D01*
X639147D01*
X634565D02*
Y368984D01*
X633649D01*
Y369900D01*
X634565D01*
X629983D02*
Y368984D01*
X629067D01*
Y369900D01*
X629983D01*
X625401D02*
Y368984D01*
X624485D01*
Y369900D01*
X625401D01*
X620819D02*
Y368984D01*
X619903D01*
Y369900D01*
X620819D01*
X616237D02*
Y368984D01*
X615321D01*
Y369900D01*
X616237D01*
X854494Y391995D02*
Y378028D01*
Y391995D02*
X848508D01*
X846513Y391330D01*
X845848Y390665D01*
X845183Y389335D01*
Y388005D01*
X845848Y386674D01*
X846513Y386009D01*
X848508Y385344D01*
X854494D01*
X849838D02*
X845183Y378028D01*
X842057Y391995D02*
Y382019D01*
X841392Y380023D01*
X840061Y378693D01*
X838066Y378028D01*
X836736D01*
X834741Y378693D01*
X833410Y380023D01*
X832745Y382019D01*
Y391995D01*
X828888D02*
Y378028D01*
Y391995D02*
X823567Y378028D01*
X818246Y391995D02*
X823567Y378028D01*
X818246Y391995D02*
Y378028D01*
X814256Y391995D02*
Y378028D01*
Y391995D02*
X808270D01*
X806275Y391330D01*
X805610Y390665D01*
X804944Y389335D01*
Y388005D01*
X805610Y386674D01*
X806275Y386009D01*
X808270Y385344D01*
X814256D02*
X808270D01*
X806275Y384679D01*
X805610Y384014D01*
X804944Y382684D01*
Y380689D01*
X805610Y379358D01*
X806275Y378693D01*
X808270Y378028D01*
X814256D01*
X791177D02*
X796498Y391995D01*
X801818Y378028D01*
X799823Y382684D02*
X793172D01*
X781932Y390000D02*
Y378028D01*
X787918Y384014D02*
X775946D01*
D74*
X651040Y385138D02*
X647170Y374980D01*
X643301Y385138D02*
X647170Y374980D01*
X641995Y383203D02*
X641027Y383687D01*
X639576Y385138D01*
Y374980D01*
X634062Y375948D02*
X634546Y375464D01*
X634062Y374980D01*
X633578Y375464D01*
X634062Y375948D01*
X628451Y385138D02*
X629902Y384654D01*
X630869Y383203D01*
X631353Y380785D01*
Y379334D01*
X630869Y376915D01*
X629902Y375464D01*
X628451Y374980D01*
X627483D01*
X626032Y375464D01*
X625065Y376915D01*
X624581Y379334D01*
Y380785D01*
X625065Y383203D01*
X626032Y384654D01*
X627483Y385138D01*
X628451D01*
X614569Y374980D02*
X618438Y385138D01*
X622308Y374980D01*
X620857Y378366D02*
X616020D01*
X855764Y407744D02*
Y397586D01*
Y407744D02*
X851411D01*
X849959Y407260D01*
X849476Y406777D01*
X848992Y405809D01*
Y404842D01*
X849476Y403874D01*
X849959Y403391D01*
X851411Y402907D01*
X855764D02*
X851411D01*
X849959Y402423D01*
X849476Y401940D01*
X848992Y400972D01*
Y399521D01*
X849476Y398554D01*
X849959Y398070D01*
X851411Y397586D01*
X855764D01*
X843817Y407744D02*
X844784Y407260D01*
X845751Y406293D01*
X846235Y405326D01*
X846719Y403874D01*
Y401456D01*
X846235Y400005D01*
X845751Y399037D01*
X844784Y398070D01*
X843817Y397586D01*
X841882D01*
X840914Y398070D01*
X839947Y399037D01*
X839463Y400005D01*
X838979Y401456D01*
Y403874D01*
X839463Y405326D01*
X839947Y406293D01*
X840914Y407260D01*
X841882Y407744D01*
X843817D01*
X828870Y397586D02*
X832740Y407744D01*
X836609Y397586D01*
X835158Y400972D02*
X830321D01*
X826500Y407744D02*
Y397586D01*
Y407744D02*
X822146D01*
X820695Y407260D01*
X820212Y406777D01*
X819728Y405809D01*
Y404842D01*
X820212Y403874D01*
X820695Y403391D01*
X822146Y402907D01*
X826500D01*
X823114D02*
X819728Y397586D01*
X817455Y407744D02*
Y397586D01*
Y407744D02*
X814069D01*
X812617Y407260D01*
X811650Y406293D01*
X811166Y405326D01*
X810683Y403874D01*
Y401456D01*
X811166Y400005D01*
X811650Y399037D01*
X812617Y398070D01*
X814069Y397586D01*
X817455D01*
X800428Y407744D02*
Y397586D01*
Y407744D02*
X796558Y397586D01*
X792689Y407744D02*
X796558Y397586D01*
X792689Y407744D02*
Y397586D01*
X786884Y407744D02*
X787852Y407260D01*
X788819Y406293D01*
X789303Y405326D01*
X789787Y403874D01*
Y401456D01*
X789303Y400005D01*
X788819Y399037D01*
X787852Y398070D01*
X786884Y397586D01*
X784949D01*
X783982Y398070D01*
X783015Y399037D01*
X782531Y400005D01*
X782047Y401456D01*
Y403874D01*
X782531Y405326D01*
X783015Y406293D01*
X783982Y407260D01*
X784949Y407744D01*
X786884D01*
X779677D02*
Y397586D01*
Y407744D02*
X776291D01*
X774840Y407260D01*
X773873Y406293D01*
X773389Y405326D01*
X772905Y403874D01*
Y401456D01*
X773389Y400005D01*
X773873Y399037D01*
X774840Y398070D01*
X776291Y397586D01*
X779677D01*
X764344Y407744D02*
X770632D01*
Y397586D01*
X764344D01*
X770632Y402907D02*
X766762D01*
X762651Y407744D02*
Y397586D01*
X756846D01*
D144*
X616242Y414858D02*
X856018D01*
X613956Y263728D02*
X856018D01*
X855002Y315287D02*
Y305130D01*
X851616Y308516D01*
X848231Y305130D01*
Y315287D01*
X844845D02*
Y305130D01*
X841460Y308516D01*
X838074Y305130D01*
Y315287D01*
X834689D02*
Y305130D01*
X831303Y308516D01*
X827917Y305130D01*
Y315287D01*
X824532Y305130D02*
Y306823D01*
X822839D01*
Y305130D01*
X824532D01*
X816068D02*
Y311901D01*
X812682Y315287D01*
X809297Y311901D01*
Y305130D01*
Y310208D01*
X816068D01*
X805911Y315287D02*
Y306823D01*
X804218Y305130D01*
X800833D01*
X799140Y306823D01*
Y315287D01*
X788983Y313594D02*
X790676Y315287D01*
X794062D01*
X795754Y313594D01*
Y311901D01*
X794062Y310208D01*
X790676D01*
X788983Y308516D01*
Y306823D01*
X790676Y305130D01*
X794062D01*
X795754Y306823D01*
X785598Y313594D02*
X783905Y315287D01*
X780519D01*
X778827Y313594D01*
Y311901D01*
X780519Y310208D01*
X782212D01*
X780519D01*
X778827Y308516D01*
Y306823D01*
X780519Y305130D01*
X783905D01*
X785598Y306823D01*
X775441Y315287D02*
Y305130D01*
X770363D01*
X768670Y306823D01*
Y313594D01*
X770363Y315287D01*
X775441D01*
X765284Y305130D02*
Y306823D01*
X763592D01*
Y305130D01*
X765284D01*
X750049Y313594D02*
X751742Y315287D01*
X755127D01*
X756820Y313594D01*
Y306823D01*
X755127Y305130D01*
X751742D01*
X750049Y306823D01*
X741585Y315287D02*
X744971D01*
X746664Y313594D01*
Y306823D01*
X744971Y305130D01*
X741585D01*
X739893Y306823D01*
Y313594D01*
X741585Y315287D01*
X736507Y305130D02*
Y315287D01*
X733121Y311901D01*
X729736Y315287D01*
Y305130D01*
X726350D02*
Y306823D01*
X724657D01*
Y305130D01*
X726350D01*
X717886D02*
Y311901D01*
X714501Y315287D01*
X711115Y311901D01*
Y305130D01*
Y310208D01*
X717886D01*
X707729Y315287D02*
Y306823D01*
X706037Y305130D01*
X702651D01*
X700958Y306823D01*
Y315287D01*
X851955Y359992D02*
X852970Y359484D01*
X853986Y358468D01*
X854494Y357452D01*
X855002Y355929D01*
Y353389D01*
X854494Y351866D01*
X853986Y350850D01*
X852970Y349834D01*
X851955Y349326D01*
X849923D01*
X848907Y349834D01*
X847891Y350850D01*
X847384Y351866D01*
X846876Y353389D01*
Y355929D01*
X847384Y357452D01*
X847891Y358468D01*
X848907Y359484D01*
X849923Y359992D01*
X851955D01*
X844387Y354405D02*
X839816D01*
X838292Y354913D01*
X837785Y355421D01*
X837277Y356437D01*
Y357960D01*
X837785Y358976D01*
X838292Y359484D01*
X839816Y359992D01*
X844387D01*
Y349326D01*
X828287Y359992D02*
X834890D01*
Y349326D01*
X828287D01*
X834890Y354913D02*
X830826D01*
X826509Y359992D02*
Y349326D01*
Y359992D02*
X819399Y349326D01*
Y359992D02*
Y349326D01*
X800962Y358468D02*
X801978Y359484D01*
X803502Y359992D01*
X805533D01*
X807057Y359484D01*
X808073Y358468D01*
Y357452D01*
X807565Y356437D01*
X807057Y355929D01*
X806041Y355421D01*
X802994Y354405D01*
X801978Y353897D01*
X801470Y353389D01*
X800962Y352374D01*
Y350850D01*
X801978Y349834D01*
X803502Y349326D01*
X805533D01*
X807057Y349834D01*
X808073Y350850D01*
X795528Y359992D02*
X796544Y359484D01*
X797560Y358468D01*
X798067Y357452D01*
X798575Y355929D01*
Y353389D01*
X798067Y351866D01*
X797560Y350850D01*
X796544Y349834D01*
X795528Y349326D01*
X793496D01*
X792481Y349834D01*
X791465Y350850D01*
X790957Y351866D01*
X790449Y353389D01*
Y355929D01*
X790957Y357452D01*
X791465Y358468D01*
X792481Y359484D01*
X793496Y359992D01*
X795528D01*
X787960D02*
Y352374D01*
X787452Y350850D01*
X786437Y349834D01*
X784913Y349326D01*
X783897D01*
X782374Y349834D01*
X781358Y350850D01*
X780850Y352374D01*
Y359992D01*
X777904D02*
Y349326D01*
Y359992D02*
X773333D01*
X771809Y359484D01*
X771302Y358976D01*
X770794Y357960D01*
Y356945D01*
X771302Y355929D01*
X771809Y355421D01*
X773333Y354913D01*
X777904D01*
X774349D02*
X770794Y349326D01*
X760788Y357452D02*
X761296Y358468D01*
X762312Y359484D01*
X763328Y359992D01*
X765359D01*
X766375Y359484D01*
X767391Y358468D01*
X767899Y357452D01*
X768407Y355929D01*
Y353389D01*
X767899Y351866D01*
X767391Y350850D01*
X766375Y349834D01*
X765359Y349326D01*
X763328D01*
X762312Y349834D01*
X761296Y350850D01*
X760788Y351866D01*
X751189Y359992D02*
X757792D01*
Y349326D01*
X751189D01*
X757792Y354913D02*
X753728D01*
X855002Y341534D02*
X853309Y343227D01*
X849924D01*
X848231Y341534D01*
Y339841D01*
X849924Y338148D01*
X851616D01*
X849924D01*
X848231Y336456D01*
Y334763D01*
X849924Y333070D01*
X853309D01*
X855002Y334763D01*
X844845Y343227D02*
Y333070D01*
X839767D01*
X838074Y334763D01*
Y341534D01*
X839767Y343227D01*
X844845D01*
X824532Y333070D02*
Y343227D01*
X819454D01*
X817761Y341534D01*
Y338148D01*
X819454Y336456D01*
X824532D01*
X814375Y333070D02*
Y343227D01*
X809297D01*
X807604Y341534D01*
Y338148D01*
X809297Y336456D01*
X814375D01*
X810990D02*
X807604Y333070D01*
X804218Y343227D02*
X800833D01*
X802526D01*
Y333070D01*
X804218D01*
X800833D01*
X795754D02*
Y343227D01*
X788983Y333070D01*
Y343227D01*
X785598D02*
X778827D01*
X782212D01*
Y333070D01*
X768670Y343227D02*
X775441D01*
Y333070D01*
X768670D01*
X775441Y338148D02*
X772055D01*
X765284Y333070D02*
Y343227D01*
X760206D01*
X758513Y341534D01*
Y338148D01*
X760206Y336456D01*
X765284D01*
X761899D02*
X758513Y333070D01*
X738200Y343227D02*
X744971D01*
Y333070D01*
X738200D01*
X744971Y338148D02*
X741585D01*
X734814Y343227D02*
Y333070D01*
X728043D01*
X717886Y343227D02*
X724657D01*
Y333070D01*
X717886D01*
X724657Y338148D02*
X721272D01*
X707729Y341534D02*
X709422Y343227D01*
X712808D01*
X714501Y341534D01*
Y334763D01*
X712808Y333070D01*
X709422D01*
X707729Y334763D01*
X704344Y343227D02*
X697573D01*
X700958D01*
Y333070D01*
X694187D02*
Y343227D01*
X689109D01*
X687416Y341534D01*
Y338148D01*
X689109Y336456D01*
X694187D01*
X690802D02*
X687416Y333070D01*
X678952Y343227D02*
X682338D01*
X684031Y341534D01*
Y334763D01*
X682338Y333070D01*
X678952D01*
X677259Y334763D01*
Y341534D01*
X678952Y343227D01*
X673874Y333070D02*
Y343227D01*
X667103Y333070D01*
Y343227D01*
X663717D02*
X660331D01*
X662024D01*
Y333070D01*
X663717D01*
X660331D01*
X648482Y341534D02*
X650175Y343227D01*
X653560D01*
X655253Y341534D01*
Y334763D01*
X653560Y333070D01*
X650175D01*
X648482Y334763D01*
X638325Y341534D02*
X640018Y343227D01*
X643404D01*
X645096Y341534D01*
Y339841D01*
X643404Y338148D01*
X640018D01*
X638325Y336456D01*
Y334763D01*
X640018Y333070D01*
X643404D01*
X645096Y334763D01*
X855002Y274650D02*
Y284807D01*
X851616Y281421D01*
X848231Y284807D01*
Y274650D01*
X844845D02*
Y281421D01*
X841460Y284807D01*
X838074Y281421D01*
Y274650D01*
Y279729D01*
X844845D01*
X834689Y284807D02*
Y274650D01*
X829610D01*
X827917Y276343D01*
Y283114D01*
X829610Y284807D01*
X834689D01*
X817761D02*
X824532D01*
Y274650D01*
X817761D01*
X824532Y279729D02*
X821146D01*
X804218Y284807D02*
X800833D01*
X802526D01*
Y274650D01*
X804218D01*
X800833D01*
X795754D02*
Y284807D01*
X788983Y274650D01*
Y284807D01*
X768670Y283114D02*
X770363Y284807D01*
X773748D01*
X775441Y283114D01*
Y276343D01*
X773748Y274650D01*
X770363D01*
X768670Y276343D01*
X765284Y284807D02*
Y274650D01*
Y279729D01*
X758513D01*
Y284807D01*
Y274650D01*
X755127Y284807D02*
X751742D01*
X753435D01*
Y274650D01*
X755127D01*
X751742D01*
X746664D02*
Y284807D01*
X739893Y274650D01*
Y284807D01*
X736507Y274650D02*
Y281421D01*
X733121Y284807D01*
X729736Y281421D01*
Y274650D01*
Y279729D01*
X736507D01*
M02*
