M48
;Layer_Color=9474304
;FILE_FORMAT=4:4
METRIC
;TYPE=PLATED
T1F00S00C0.3000
T2F00S00C0.4000
T3F00S00C0.5000
T4F00S00C0.7620
T5F00S00C0.9000
T6F00S00C1.0000
T7F00S00C1.2000
T8F00S00C1.6500
T9F00S00C3.2000
T10F00S00C3.5000
;TYPE=NON_PLATED
T11F00S00C0.9000
%
T01
X00268482Y00119998
X00207810Y00430860
T02
X00195110Y00051384
X00302552Y00050114
X00335064Y00093040
X00300520Y00165430
X00256826Y00227412
X00201718Y00228419
X00103204Y00227660
X00093044Y00253060
X00119390Y00254330
X00111770Y00278460
X00093044Y00283540
X00055890Y00272110
Y00241630
X00045250Y00202260
X00173464Y00139466
X00379514Y00157810
X00403644Y00281000
X00398564Y00289890
X00450380Y00245948
X00458762
X00467398
X00463165Y00239090
X00471716
X00454613
X00446062
X00530136Y00238582
X00538687
X00547239
X00555790
X00551472Y00245440
X00542836
X00534454
X00616242Y00245186
X00624624
X00633260
X00629027Y00238328
X00637578
X00620475
X00611924
X00696506Y00239344
X00705057
X00713609
X00722160
X00717842Y00246202
X00709206
X00700824
X00786930
X00795312
X00803948
X00799715Y00239344
X00808266
X00791163
X00782612
X00961936Y00192608
X00972096
X00982002
X01103668Y00191084
X01117892
X01131100
X01145578
X01159294
X01216190Y00370916
X01243876Y00370922
X01213142Y00438226
Y00448132
Y00458292
X01148626Y00503758
X01281214
X01291120
X01301280
X01326934Y00337896
X01335316
X01343867
X01339718Y00331038
X01331167
X01322616
X01348270
X01138466Y00503758
X01128560
X00996480Y00503504
X00986320
X00976414
X01040676Y00438226
X01050582
X01060742
X00908342Y00438480
X00898182
X00888276
X00842810Y00504774
X00832650
X00822744
X00756450Y00438480
X00746290
X00736384
X00692696Y00504012
X00682536
X00672630
X00603796Y00438480
X00593636
X00583730
X00539534Y00521030
X00529374
X00519468
X00430060Y00575132
X00368846Y00604342
X00391960Y00662508
X00400596Y00654126
X00395262Y00474294
X00400088Y00464642
X00405422Y00455498
X00411772Y00446100
X00376720Y00442798
X00364277Y00445341
X00380530Y00416128
X00373672Y00408508
Y00307924
X00388150Y00308432
X00393230Y00298780
X00380530Y00299288
X00357162Y00309194
X00444030Y00363550
X00346748Y00396570
X00339128Y00413842
X00345131Y00427397
X00337604Y00435432
X00299250Y00430352
X00295694Y00443052
X00298234Y00471500
X00274866Y00421462
X00262928Y00421970
X00239370Y00425327
X00229370Y00427635
X00220510Y00421970
X00222352Y00436139
X00228384Y00387426
X00233718Y00360756
X00246672Y00366598
X00337350Y00301320
X00345478Y00309194
X00104150Y00302590
X00093044Y00314020
X00097800Y00331800
X00093044Y00344500
X00055890Y00333070
Y00363550
Y00302590
X00114338Y00465894
X00135420Y00470230
X00136944Y00458038
X00149898Y00453974
X00186982Y00467436
X00193266Y00478170
X00185966Y00498170
X00207556Y00530428
X00218100Y00528272
X00242354Y00530682
X00258864Y00530936
X00255562Y00575386
X00246164Y00571068
X00236512Y00575862
X00211112Y00594690
Y00604850
Y00614756
X00322872Y00568790
X00134404Y00489788
X00085890Y00510870
T03
X00423837Y00154254
Y00167208
Y00180162
Y00193116
Y00206070
X00480987
Y00193116
Y00180162
Y00167208
Y00154254
X00466699
X00452412
X00438125
X00507911Y00154508
Y00167462
Y00180416
Y00193370
Y00206324
X00565061
Y00193370
Y00180416
Y00167462
Y00154508
X00550774
X00536486
X00522198
X00591731
Y00167462
Y00180416
Y00193370
Y00206324
X00606018Y00154508
X00620306
X01290866Y00239344
Y00252362
Y00265379
Y00278397
Y00291414
X01301026Y00284810
Y00271856
Y00258902
Y00245948
Y00232994
X01315314
Y00245948
X01329601
Y00232994
X01343889
Y00245948
X01358176
Y00258902
Y00271856
Y00284810
X01367066Y00278397
Y00291414
Y00265379
Y00252362
Y00239344
X01358176Y00232994
Y00297764
X01301026
T04
X00133388Y00049860
X00226606Y00027254
X00272326
X00408724Y00254584
X01347762Y00175590
X01367066Y00190830
X01387894Y00176352
X01202982Y00345770
X00286550Y00521284
X00277156Y00604038
X00231436
X00190030Y00425526
T05
X00140754Y00096850
Y00122250
Y00147650
Y00173050
X00170218Y00263728
Y00289128
X00195618
Y00263728
X00221018
Y00289128
X00246418
Y00263728
X00271818
Y00289128
X00297218
Y00263728
X00322618
Y00289128
X00335064Y00229692
Y00204292
X00309664
Y00229692
X00284264
Y00204292
X00040720Y00240360
Y00265760
Y00291160
X00015320
Y00265760
Y00240360
X00353352Y00263728
Y00289128
X00367576Y00229946
Y00204546
X00393484Y00047828
Y00022428
X00661708Y00150444
Y00175844
Y00201244
X00691974Y00144884
X00717374
X00746798Y00150444
Y00175844
Y00201244
X00833158Y00201752
Y00176352
Y00150952
X00803736Y00144880
X00778336
X01231508Y00443962
Y00469362
Y00494762
Y00520162
Y00545562
Y00570962
Y00596362
Y00621762
X01256908
Y00596362
Y00570962
Y00545562
Y00520162
Y00494762
Y00469362
Y00443962
X01383908
Y00469362
Y00494762
Y00520162
Y00545562
Y00570962
Y00596362
Y00621762
X01361478Y00658190
X01336078
X01310678
X01285278
X01209332Y00658444
X01183932
X01158532
X01133132
X01104508Y00621762
X01079108
Y00596362
Y00570962
Y00545562
Y00520162
Y00494762
Y00469362
Y00443962
X01104508
Y00469362
Y00494762
Y00520162
Y00545562
Y00570962
Y00596362
X01056424Y00658698
X01031024
X01005624
X00980224
X00952108Y00621762
X00926792Y00621762
Y00596362
X00952108Y00596362
Y00570962
X00926792Y00570962
Y00545562
X00952108Y00545562
Y00520162
X00926792Y00520162
Y00494762
X00952108Y00494762
Y00469362
X00926792Y00469362
Y00443962
X00952108Y00443962
X00799792Y00443962
X00774392
Y00469362
Y00494762
Y00520162
Y00545562
Y00570962
Y00596362
Y00621762
X00799792
Y00596362
Y00570962
Y00545562
Y00520162
Y00494762
Y00469362
X00830618Y00658952
X00856018
X00881418
X00906818
X00753402Y00658698
X00728002
X00702602
X00677202
X00647392Y00621762
Y00596362
Y00570962
Y00545562
Y00520162
Y00494762
Y00469362
Y00443962
X00621992
Y00469362
Y00494762
Y00520162
Y00545562
Y00570962
Y00596362
Y00621762
X00601256Y00658698
X00575856
X00550456
X00525056
X00494992Y00621762
Y00596362
Y00570962
Y00545562
Y00520162
Y00494762
Y00469362
Y00443962
X00487464Y00390728
X00462064
Y00365328
X00487464
X00512864
Y00390728
X00538264
Y00365328
X00563664
Y00390728
X00454190Y00474040
Y00499440
Y00524840
X00417106Y00523062
Y00548462
X00391706
Y00523062
Y00497662
X00417106
X00354368Y00644220
X00328968
X00066116Y00654380
Y00628980
Y00603580
Y00578180
Y00552780
X00040716
X00015316
Y00578180
X00040716
Y00603580
X00015316
Y00628980
X00040716
Y00654380
X00015316
X00015316Y00527380
X00040716
X00066116
X00066120Y00477850
X00040720
X00015320
Y00452450
X00040720
X00066120
X00091520
Y00477850
Y00427050
X00066120
X00040720
X00015320
Y00401650
X00040720
X00066120
X00091520
X00040720Y00341960
X00015320
Y00316560
X00040720
X00163708Y00699040
Y00724440
X00189108
Y00699040
X00214508
Y00724440
X00239908
Y00699040
X00265308
Y00724440
X00345826
Y00699040
X00371226
X00396626
X00422026
X00447426
Y00724440
X00422026
X00396626
X00371226
T06
X00434938Y00062052
X00469938
X00518758Y00061290
X00553758
X00602578Y00061544
X00637578
X00685890
X00720890
X00770980Y00062052
X00805980
X00733308Y00712440
X00698308
X00663308
X00615808
X00580808
X00545808
X00510808
X00768308
X00815808
X00850808
X00885808
X00920808
X00966430Y00712948
X01001430
X01036430
X01071430
X01118930
X01153930
X01188930
X01223930
X01271430
X01306430
X01341430
X01376430
T07
X01046010Y00060782
X01096010
X01145832
X01195832
X01246162
X01296162
T08
X01034050Y00150040
X01070650
X01115350
X01151950
X01211850
X01248450
X01293150
X01329750
T09
X01362748Y00036144
X00087726Y00713248
T10
X00086652Y00038430
X01360208Y00392252
T11
X00053018Y00113713
Y00157712
M30
