G04 Layer_Color=8421504*
%FSLAX44Y44*%
%MOMM*%
G71*
G01*
G75*
%ADD10R,6.6000X2.8500*%
%ADD11R,2.3500X5.1000*%
G04:AMPARAMS|DCode=12|XSize=2.5mm|YSize=2.2mm|CornerRadius=0.275mm|HoleSize=0mm|Usage=FLASHONLY|Rotation=90.000|XOffset=0mm|YOffset=0mm|HoleType=Round|Shape=RoundedRectangle|*
%AMROUNDEDRECTD12*
21,1,2.5000,1.6500,0,0,90.0*
21,1,1.9500,2.2000,0,0,90.0*
1,1,0.5500,0.8250,0.9750*
1,1,0.5500,0.8250,-0.9750*
1,1,0.5500,-0.8250,-0.9750*
1,1,0.5500,-0.8250,0.9750*
%
%ADD12ROUNDEDRECTD12*%
G04:AMPARAMS|DCode=13|XSize=2.2mm|YSize=1.5mm|CornerRadius=0.1875mm|HoleSize=0mm|Usage=FLASHONLY|Rotation=0.000|XOffset=0mm|YOffset=0mm|HoleType=Round|Shape=RoundedRectangle|*
%AMROUNDEDRECTD13*
21,1,2.2000,1.1250,0,0,0.0*
21,1,1.8250,1.5000,0,0,0.0*
1,1,0.3750,0.9125,-0.5625*
1,1,0.3750,-0.9125,-0.5625*
1,1,0.3750,-0.9125,0.5625*
1,1,0.3750,0.9125,0.5625*
%
%ADD13ROUNDEDRECTD13*%
%ADD14R,1.1000X1.0000*%
%ADD15R,1.0000X1.1000*%
%ADD16R,1.2000X1.2000*%
%ADD17R,1.2000X1.2000*%
%ADD18R,5.0000X2.0000*%
%ADD19R,4.2000X3.2000*%
%ADD20R,0.7000X1.1500*%
%ADD21R,0.7620X1.2700*%
%ADD22R,1.0700X2.1600*%
%ADD23R,10.4100X10.8000*%
%ADD24R,2.5000X2.0000*%
%ADD25R,2.3000X0.5000*%
%ADD26R,1.5000X1.5000*%
%ADD27R,1.3000X1.5000*%
%ADD28R,0.6000X1.1500*%
%ADD29O,1.4000X0.5000*%
%ADD30O,1.6000X0.5000*%
%ADD31O,0.5000X1.4000*%
%ADD32O,0.5000X1.6000*%
%ADD33O,1.8000X0.3000*%
%ADD34O,0.3000X1.8000*%
%ADD35R,1.2500X1.8500*%
%ADD36R,1.8500X1.2500*%
%ADD37R,2.9972X1.3970*%
%ADD38R,1.3970X2.9972*%
%ADD39R,2.7000X1.8000*%
%ADD40R,1.8000X2.7000*%
G04:AMPARAMS|DCode=41|XSize=1.2mm|YSize=1.5mm|CornerRadius=0.3mm|HoleSize=0mm|Usage=FLASHONLY|Rotation=270.000|XOffset=0mm|YOffset=0mm|HoleType=Round|Shape=RoundedRectangle|*
%AMROUNDEDRECTD41*
21,1,1.2000,0.9000,0,0,270.0*
21,1,0.6000,1.5000,0,0,270.0*
1,1,0.6000,-0.4500,-0.3000*
1,1,0.6000,-0.4500,0.3000*
1,1,0.6000,0.4500,0.3000*
1,1,0.6000,0.4500,-0.3000*
%
%ADD41ROUNDEDRECTD41*%
D10*
X970000Y312250D02*
D03*
Y255750D02*
D03*
D11*
X1162750Y242000D02*
D03*
X1121250D02*
D03*
D12*
X890000Y224000D02*
D03*
Y176000D02*
D03*
D13*
X723500Y115000D02*
D03*
X681500D02*
D03*
X558500Y130000D02*
D03*
X516500D02*
D03*
X811000Y115000D02*
D03*
X769000D02*
D03*
X476000Y130000D02*
D03*
X434000D02*
D03*
X636000D02*
D03*
X594000D02*
D03*
X1323500Y192540D02*
D03*
X1281500D02*
D03*
D14*
X66764Y237820D02*
D03*
X83764D02*
D03*
X232076Y239090D02*
D03*
X249076D02*
D03*
X241474Y60274D02*
D03*
X258474D02*
D03*
X1328018Y465850D02*
D03*
X1345018D02*
D03*
X66764Y359740D02*
D03*
X83764D02*
D03*
X203376Y155082D02*
D03*
X186376D02*
D03*
X203482Y106966D02*
D03*
X186482D02*
D03*
X66764Y329260D02*
D03*
X83764D02*
D03*
X66764Y298780D02*
D03*
X83764D02*
D03*
X66764Y268300D02*
D03*
X83764D02*
D03*
X1176116Y466314D02*
D03*
X1193116D02*
D03*
X1024224Y465806D02*
D03*
X1041224D02*
D03*
X872078Y466060D02*
D03*
X889078D02*
D03*
X721710Y467076D02*
D03*
X738710D02*
D03*
X569056D02*
D03*
X586056D02*
D03*
X347336Y70308D02*
D03*
X364336D02*
D03*
X347336Y55308D02*
D03*
X364336D02*
D03*
X347336Y100309D02*
D03*
X364336D02*
D03*
X347336Y85308D02*
D03*
X364336D02*
D03*
X347392Y158573D02*
D03*
X364392D02*
D03*
X284826Y656920D02*
D03*
X301827D02*
D03*
X203482Y139466D02*
D03*
X186482D02*
D03*
X203482Y123236D02*
D03*
X186482D02*
D03*
X215040Y239090D02*
D03*
X198040D02*
D03*
X244780Y637820D02*
D03*
X261780D02*
D03*
X278490Y637518D02*
D03*
X295490D02*
D03*
X347498Y175457D02*
D03*
X364498D02*
D03*
X276056Y60162D02*
D03*
X293056D02*
D03*
X223056D02*
D03*
X206056D02*
D03*
X293060Y75260D02*
D03*
X276060D02*
D03*
X186376Y170082D02*
D03*
X203376D02*
D03*
X203250Y87784D02*
D03*
X186250D02*
D03*
X208200Y374980D02*
D03*
X225200D02*
D03*
X337994Y460324D02*
D03*
X354994D02*
D03*
X319706Y396316D02*
D03*
X336706D02*
D03*
X901958Y269636D02*
D03*
X884958D02*
D03*
X884958Y255158D02*
D03*
X901958D02*
D03*
X227990Y637518D02*
D03*
X210990D02*
D03*
X66764Y344500D02*
D03*
X83764D02*
D03*
X66764Y314020D02*
D03*
X83764D02*
D03*
X66764Y283540D02*
D03*
X83764D02*
D03*
X66764Y253060D02*
D03*
X83764D02*
D03*
X66764Y222580D02*
D03*
X83764D02*
D03*
D15*
X1334466Y510322D02*
D03*
Y493322D02*
D03*
X1271562Y370922D02*
D03*
Y353922D02*
D03*
X1287564Y354035D02*
D03*
Y371035D02*
D03*
X1254036Y370922D02*
D03*
Y353922D02*
D03*
X1182206Y511124D02*
D03*
Y494124D02*
D03*
X1029930Y510882D02*
D03*
Y493882D02*
D03*
X877784Y510882D02*
D03*
Y493882D02*
D03*
X726146Y510882D02*
D03*
Y493882D02*
D03*
X572730Y511644D02*
D03*
Y494644D02*
D03*
X205016Y199348D02*
D03*
Y216348D02*
D03*
X331318Y585790D02*
D03*
Y568790D02*
D03*
X1102398Y333968D02*
D03*
Y350968D02*
D03*
X1187234Y348936D02*
D03*
Y331936D02*
D03*
X36360Y39311D02*
D03*
Y22310D02*
D03*
X1164882Y348936D02*
D03*
Y331936D02*
D03*
X331254Y601684D02*
D03*
Y618685D02*
D03*
X146850Y488890D02*
D03*
Y471890D02*
D03*
X1101890Y315408D02*
D03*
Y298408D02*
D03*
X865002Y253262D02*
D03*
Y270262D02*
D03*
X427512Y284929D02*
D03*
Y267928D02*
D03*
X444022Y284929D02*
D03*
Y267928D02*
D03*
X460531Y267929D02*
D03*
Y284928D02*
D03*
X507271Y284928D02*
D03*
Y267928D02*
D03*
X523780Y284929D02*
D03*
Y267928D02*
D03*
X540290D02*
D03*
Y284928D02*
D03*
X590840D02*
D03*
Y267928D02*
D03*
X607349Y284928D02*
D03*
Y267928D02*
D03*
X623858D02*
D03*
Y284928D02*
D03*
X680504D02*
D03*
Y267928D02*
D03*
X697013Y284928D02*
D03*
Y267928D02*
D03*
X713523D02*
D03*
Y284928D02*
D03*
X762292D02*
D03*
Y267928D02*
D03*
X792010D02*
D03*
Y284928D02*
D03*
X777024D02*
D03*
Y267928D02*
D03*
D16*
X344891Y118572D02*
D03*
X365892D02*
D03*
X240830Y658444D02*
D03*
X261831D02*
D03*
X344891Y139656D02*
D03*
X365892D02*
D03*
D17*
X17056Y22941D02*
D03*
Y43942D02*
D03*
X1305598Y352455D02*
D03*
Y373456D02*
D03*
X556581Y265588D02*
D03*
Y286588D02*
D03*
X477558Y265588D02*
D03*
Y286588D02*
D03*
X639896Y265588D02*
D03*
Y286589D02*
D03*
X727782Y265588D02*
D03*
Y286589D02*
D03*
X809790Y265588D02*
D03*
Y286588D02*
D03*
D18*
X1328966Y263474D02*
D03*
X536486Y170764D02*
D03*
X703117Y171394D02*
D03*
X452438D02*
D03*
X788962D02*
D03*
X618287D02*
D03*
D19*
X1329220Y289354D02*
D03*
X536740Y196644D02*
D03*
X703371Y197274D02*
D03*
X452692D02*
D03*
X789216D02*
D03*
X618541D02*
D03*
D20*
X1310170Y319354D02*
D03*
X1322870D02*
D03*
X1335570D02*
D03*
X1348270D02*
D03*
X517690Y226644D02*
D03*
X530390D02*
D03*
X543090D02*
D03*
X555790D02*
D03*
X684321Y227274D02*
D03*
X697021D02*
D03*
X709721D02*
D03*
X722421D02*
D03*
X433642D02*
D03*
X446342D02*
D03*
X459042D02*
D03*
X471742D02*
D03*
X770166D02*
D03*
X782866D02*
D03*
X795566D02*
D03*
X808266D02*
D03*
X599491D02*
D03*
X612191D02*
D03*
X624891D02*
D03*
X637591D02*
D03*
D21*
X829160Y465840D02*
D03*
X841860D02*
D03*
X854560D02*
D03*
X829160Y542040D02*
D03*
X841860D02*
D03*
X854560D02*
D03*
X702160D02*
D03*
X689460D02*
D03*
X676760D02*
D03*
X702160Y465840D02*
D03*
X689460D02*
D03*
X676760D02*
D03*
X524360D02*
D03*
X537060D02*
D03*
X549760D02*
D03*
X524360Y542040D02*
D03*
X537060D02*
D03*
X549760D02*
D03*
X1159280Y542040D02*
D03*
X1146580D02*
D03*
X1133880D02*
D03*
X1159280Y465840D02*
D03*
X1146580D02*
D03*
X1133880D02*
D03*
X981480Y465840D02*
D03*
X994180D02*
D03*
X1006880D02*
D03*
X981480Y542040D02*
D03*
X994180D02*
D03*
X1006880D02*
D03*
X1311680Y542036D02*
D03*
X1298980D02*
D03*
X1286280D02*
D03*
X1311680Y465836D02*
D03*
X1298980D02*
D03*
X1286280D02*
D03*
D22*
X958860Y140736D02*
D03*
X941860D02*
D03*
X924860D02*
D03*
X907860D02*
D03*
X890860D02*
D03*
D23*
X924860Y58412D02*
D03*
D24*
X78018Y91212D02*
D03*
Y180212D02*
D03*
X23018D02*
D03*
Y91212D02*
D03*
D25*
X79018Y119713D02*
D03*
Y127713D02*
D03*
Y135713D02*
D03*
Y143713D02*
D03*
Y151712D02*
D03*
D26*
X383432Y607898D02*
D03*
X460432D02*
D03*
D27*
X178194Y205054D02*
D03*
X159194D02*
D03*
D28*
X1134402Y328436D02*
D03*
X1124902Y328686D02*
D03*
Y352186D02*
D03*
X1134402D02*
D03*
X1143902D02*
D03*
Y328436D02*
D03*
D29*
X229982Y110237D02*
D03*
Y166236D02*
D03*
X314982D02*
D03*
Y110237D02*
D03*
D30*
X230982Y118237D02*
D03*
Y126236D02*
D03*
Y134236D02*
D03*
Y142236D02*
D03*
Y150236D02*
D03*
Y158236D02*
D03*
X313982D02*
D03*
Y150236D02*
D03*
Y142236D02*
D03*
Y134236D02*
D03*
Y126236D02*
D03*
Y118237D02*
D03*
D31*
X244482Y180736D02*
D03*
X300482D02*
D03*
Y95737D02*
D03*
X244482D02*
D03*
D32*
X252482Y179736D02*
D03*
X260482D02*
D03*
X268482D02*
D03*
X276482D02*
D03*
X284482D02*
D03*
X292482D02*
D03*
Y96736D02*
D03*
X284482D02*
D03*
X276482D02*
D03*
X268482D02*
D03*
X260482D02*
D03*
X252482D02*
D03*
D33*
X318600Y418170D02*
D03*
Y423171D02*
D03*
Y428170D02*
D03*
Y433171D02*
D03*
Y438170D02*
D03*
Y443171D02*
D03*
Y448170D02*
D03*
Y453171D02*
D03*
Y458170D02*
D03*
Y463171D02*
D03*
Y468170D02*
D03*
Y473171D02*
D03*
Y478170D02*
D03*
Y483171D02*
D03*
Y488170D02*
D03*
Y493171D02*
D03*
Y498170D02*
D03*
Y503170D02*
D03*
Y508170D02*
D03*
Y513170D02*
D03*
Y518170D02*
D03*
Y523170D02*
D03*
Y528170D02*
D03*
Y533170D02*
D03*
Y538170D02*
D03*
X167600D02*
D03*
Y533170D02*
D03*
Y528170D02*
D03*
Y523170D02*
D03*
Y518170D02*
D03*
Y513170D02*
D03*
Y508170D02*
D03*
Y503170D02*
D03*
Y498170D02*
D03*
Y493171D02*
D03*
Y488170D02*
D03*
Y483171D02*
D03*
Y478170D02*
D03*
Y473171D02*
D03*
Y468170D02*
D03*
Y463171D02*
D03*
Y458170D02*
D03*
Y453171D02*
D03*
Y448170D02*
D03*
Y443171D02*
D03*
Y438170D02*
D03*
Y433171D02*
D03*
Y428170D02*
D03*
Y423171D02*
D03*
Y418170D02*
D03*
D34*
X303100Y553670D02*
D03*
X298100D02*
D03*
X293100D02*
D03*
X288100D02*
D03*
X283100D02*
D03*
X278100D02*
D03*
X273100D02*
D03*
X268100D02*
D03*
X263100D02*
D03*
X258100D02*
D03*
X253100D02*
D03*
X248100D02*
D03*
X243100D02*
D03*
X238100D02*
D03*
X233100D02*
D03*
X228100D02*
D03*
X223100D02*
D03*
X218100D02*
D03*
X213100D02*
D03*
X208100D02*
D03*
X203100D02*
D03*
X198100D02*
D03*
X193100D02*
D03*
X188100D02*
D03*
X183100D02*
D03*
Y402670D02*
D03*
X188100D02*
D03*
X193100D02*
D03*
X198100D02*
D03*
X203100D02*
D03*
X208100D02*
D03*
X213100D02*
D03*
X218100D02*
D03*
X223100D02*
D03*
X228100D02*
D03*
X233100D02*
D03*
X238100D02*
D03*
X243100D02*
D03*
X248100D02*
D03*
X253100D02*
D03*
X258100D02*
D03*
X263100D02*
D03*
X268100D02*
D03*
X273100D02*
D03*
X278100D02*
D03*
X283100D02*
D03*
X288100D02*
D03*
X293100D02*
D03*
X298100D02*
D03*
X303100D02*
D03*
D35*
X1179620Y306654D02*
D03*
X1212120D02*
D03*
X256826Y205054D02*
D03*
X224326D02*
D03*
D36*
X353242Y572171D02*
D03*
Y604670D02*
D03*
D37*
X910506Y318000D02*
D03*
X862500D02*
D03*
D38*
X960412Y218016D02*
D03*
Y170010D02*
D03*
X1334222Y612102D02*
D03*
Y564096D02*
D03*
X1182076Y563588D02*
D03*
Y611594D02*
D03*
X1029676Y611848D02*
D03*
Y563842D02*
D03*
X879562Y564604D02*
D03*
Y612610D02*
D03*
X726654Y612864D02*
D03*
Y564858D02*
D03*
X573736Y564840D02*
D03*
Y612846D02*
D03*
X1214412Y272610D02*
D03*
Y224604D02*
D03*
X1057948Y359240D02*
D03*
Y311234D02*
D03*
D39*
X1367574Y176508D02*
D03*
Y132508D02*
D03*
D40*
X1037217Y223596D02*
D03*
X1081218D02*
D03*
X1037980Y266776D02*
D03*
X1081981D02*
D03*
D41*
X1124000Y301000D02*
D03*
X1146000D02*
D03*
M02*
