G04 Layer_Color=16711935*
%FSLAX44Y44*%
%MOMM*%
G71*
G01*
G75*
%ADD43C,0.2000*%
%ADD47C,0.2540*%
%ADD69C,0.1524*%
%ADD72C,0.1000*%
%ADD139C,0.0300*%
D43*
X1010000Y244000D02*
Y324000D01*
X930000D02*
X1010000D01*
X930000Y244000D02*
Y324000D01*
Y244000D02*
X1010000D01*
X1112000Y212000D02*
X1172000D01*
Y272000D01*
X1112000D02*
X1172000D01*
X1112000Y212000D02*
Y272000D01*
X1344800Y126040D02*
Y174040D01*
X1196800Y126040D02*
Y174040D01*
Y126040D02*
X1344800D01*
X1196800Y174040D02*
X1344800D01*
X1019000Y126040D02*
Y174040D01*
X1167000Y126040D02*
Y174040D01*
X1019000D02*
X1167000D01*
X1019000Y126040D02*
X1167000D01*
D47*
X1400000Y753810D02*
Y792810D01*
X0Y753810D02*
Y792810D01*
X740627Y790270D02*
X1400000D01*
X0D02*
X651245D01*
X1384760Y795350D02*
X1400000Y790270D01*
X1384760Y785190D02*
X1400000Y790270D01*
X0D02*
X15240Y785190D01*
X0Y790270D02*
X15240Y795350D01*
X-38316Y0D02*
X-3810D01*
X-38316Y750000D02*
X-3810D01*
X-35776Y0D02*
Y332593D01*
Y409279D02*
Y750000D01*
Y0D02*
X-30696Y15240D01*
X-40856D02*
X-35776Y0D01*
X-40856Y734760D02*
X-35776Y750000D01*
X-30696Y734760D01*
D69*
X655309Y781129D02*
X660388D01*
X657848D01*
Y796364D01*
X655309Y793824D01*
X675623Y781129D02*
Y796364D01*
X668005Y788746D01*
X678162D01*
X683240Y793824D02*
X685779Y796364D01*
X690858D01*
X693397Y793824D01*
Y783668D01*
X690858Y781129D01*
X685779D01*
X683240Y783668D01*
Y793824D01*
X698475Y781129D02*
Y783668D01*
X701014D01*
Y781129D01*
X698475D01*
X711171Y793824D02*
X713710Y796364D01*
X718789D01*
X721328Y793824D01*
Y783668D01*
X718789Y781129D01*
X713710D01*
X711171Y783668D01*
Y793824D01*
X726406D02*
X728945Y796364D01*
X734024D01*
X736563Y793824D01*
Y783668D01*
X734024Y781129D01*
X728945D01*
X726406Y783668D01*
Y793824D01*
X-41870Y336657D02*
Y346814D01*
X-39330D01*
X-29174Y336657D01*
X-26635D01*
X-41870Y362049D02*
Y351892D01*
X-34252D01*
X-36791Y356970D01*
Y359510D01*
X-34252Y362049D01*
X-29174D01*
X-26635Y359510D01*
Y354431D01*
X-29174Y351892D01*
X-26635Y367127D02*
X-29174D01*
Y369666D01*
X-26635D01*
Y367127D01*
X-39330Y379823D02*
X-41870Y382362D01*
Y387441D01*
X-39330Y389980D01*
X-29174D01*
X-26635Y387441D01*
Y382362D01*
X-29174Y379823D01*
X-39330D01*
Y395058D02*
X-41870Y397597D01*
Y402676D01*
X-39330Y405215D01*
X-29174D01*
X-26635Y402676D01*
Y397597D01*
X-29174Y395058D01*
X-39330D01*
D72*
X518Y86213D02*
Y185213D01*
D139*
X-3804Y176077D02*
X-1305D01*
Y174827D01*
X-1722Y174410D01*
X-2555D01*
X-2971Y174827D01*
Y176077D01*
X-1722Y171911D02*
X-1305Y172328D01*
Y173161D01*
X-1722Y173577D01*
X-3388D01*
X-3804Y173161D01*
Y172328D01*
X-3388Y171911D01*
X-1305Y171078D02*
X-3804D01*
Y169829D01*
X-3388Y169412D01*
X-2971D01*
X-2555Y169829D01*
Y171078D01*
Y169829D01*
X-2138Y169412D01*
X-1722D01*
X-1305Y169829D01*
Y171078D01*
Y164414D02*
Y166080D01*
X-3804D01*
Y164414D01*
X-2555Y166080D02*
Y165247D01*
X-1305Y161915D02*
X-3804D01*
Y163164D01*
X-3388Y163581D01*
X-2555D01*
X-2138Y163164D01*
Y161915D01*
X-4637Y160248D02*
Y159832D01*
X-4221Y159415D01*
X-2138D01*
Y160665D01*
X-2555Y161082D01*
X-3388D01*
X-3804Y160665D01*
Y159415D01*
Y157333D02*
Y158166D01*
X-3388Y158582D01*
X-2555D01*
X-2138Y158166D01*
Y157333D01*
X-2555Y156916D01*
X-2971D01*
Y158582D01*
M02*
