G04 Layer_Physical_Order=2*
G04 Layer_Color=16711680*
%FSLAX44Y44*%
%MOMM*%
G71*
G01*
G75*
%ADD26R,1.5000X1.5000*%
%ADD43C,1.0000*%
%ADD45C,1.3000*%
%ADD46C,0.2540*%
%ADD47C,0.2000*%
%ADD48C,2.0000*%
%ADD50C,0.5000*%
%ADD51C,0.6000*%
%ADD54C,3.0000*%
%ADD55O,2.0000X2.6000*%
%ADD56C,2.0320*%
%ADD57C,1.0000*%
%ADD58C,1.5240*%
%ADD59C,0.6000*%
%ADD60C,2.4000*%
%ADD61C,1.5096*%
%ADD62O,3.0000X4.0000*%
%ADD63R,1.5000X1.5000*%
%ADD64C,1.5000*%
%ADD65C,0.8000*%
%ADD66C,0.3000*%
%ADD67R,39.0906X2.3137*%
%ADD68R,4.9276X2.6416*%
G36*
X1396666Y408839D02*
X1395421Y408591D01*
X1394872Y409915D01*
X1391682Y415120D01*
X1387718Y419762D01*
X1383075Y423727D01*
X1377870Y426917D01*
X1372230Y429253D01*
X1366293Y430679D01*
X1360207Y431158D01*
X1354121Y430679D01*
X1348185Y429253D01*
X1342545Y426917D01*
X1337339Y423727D01*
X1332697Y419762D01*
X1328732Y415120D01*
X1325542Y409915D01*
X1323206Y404275D01*
X1321781Y398338D01*
X1321302Y392252D01*
X1321781Y386166D01*
X1323206Y380230D01*
X1325542Y374590D01*
X1328732Y369384D01*
X1332697Y364742D01*
X1337339Y360777D01*
X1342545Y357587D01*
X1348185Y355251D01*
X1354121Y353826D01*
X1360207Y353347D01*
X1366293Y353826D01*
X1372230Y355251D01*
X1377870Y357587D01*
X1383075Y360777D01*
X1387718Y364742D01*
X1391682Y369384D01*
X1394872Y374590D01*
X1395421Y375913D01*
X1396666Y375665D01*
Y183585D01*
X1395464Y183177D01*
X1395140Y183598D01*
X1393018Y185227D01*
X1390546Y186251D01*
X1389164Y186433D01*
Y176352D01*
X1387894D01*
Y175082D01*
X1377814D01*
X1377995Y173700D01*
X1378539Y172387D01*
X1377834Y171331D01*
X1358138D01*
X1357432Y172387D01*
X1357661Y172938D01*
X1357843Y174320D01*
X1347762D01*
Y176860D01*
X1357843D01*
X1357661Y178242D01*
X1356890Y180103D01*
X1357637Y181373D01*
X1358990D01*
X1359770Y181529D01*
X1360432Y181971D01*
X1361936Y181960D01*
X1361942Y181955D01*
X1364414Y180932D01*
X1365796Y180750D01*
Y190830D01*
X1368336D01*
Y180750D01*
X1369718Y180932D01*
X1372190Y181955D01*
X1372203Y181966D01*
X1372536Y182039D01*
X1373339Y181990D01*
X1373756Y181879D01*
X1374044Y181713D01*
X1374320Y181529D01*
X1374387Y181515D01*
X1374445Y181482D01*
X1374775Y181438D01*
X1375101Y181373D01*
X1377834D01*
X1378539Y180317D01*
X1377995Y179004D01*
X1377814Y177622D01*
X1386624D01*
Y186433D01*
X1385242Y186251D01*
X1383040Y185339D01*
X1382991Y185328D01*
X1382777Y185351D01*
X1382185Y185562D01*
X1381576Y185911D01*
X1381537Y186005D01*
X1381349Y187434D01*
Y304811D01*
X1381194Y305591D01*
X1380751Y306253D01*
X1380090Y306695D01*
X1379310Y306850D01*
X1253429D01*
X1253374Y306890D01*
X1253087Y307112D01*
X1253052Y307121D01*
X1253023Y307143D01*
X1252669Y307226D01*
X1252319Y307321D01*
X1252283Y307316D01*
X1252248Y307325D01*
X1251890Y307266D01*
X1251530Y307220D01*
X1251499Y307202D01*
X1251463Y307197D01*
X1250274Y306752D01*
X1250243Y306733D01*
X1250208Y306726D01*
X1249906Y306524D01*
X1249597Y306333D01*
X1249576Y306304D01*
X1249546Y306284D01*
X1249344Y305982D01*
X1249132Y305687D01*
X1249124Y305652D01*
X1249104Y305622D01*
X1249033Y305266D01*
X1248950Y304912D01*
X1248956Y304877D01*
X1248949Y304842D01*
Y164599D01*
X1248450Y164161D01*
X1244795Y163680D01*
X1241390Y162269D01*
X1238465Y160025D01*
X1236221Y157101D01*
X1234810Y153695D01*
X1234329Y150040D01*
X1234810Y146385D01*
X1236221Y142980D01*
X1238465Y140055D01*
X1241390Y137811D01*
X1244795Y136400D01*
X1248450Y135919D01*
X1248949Y135482D01*
Y83535D01*
X1248008Y82683D01*
X1246162Y82864D01*
X1242829Y82536D01*
X1239625Y81564D01*
X1236672Y79985D01*
X1234083Y77861D01*
X1231959Y75273D01*
X1230380Y72319D01*
X1229408Y69115D01*
X1229080Y65782D01*
Y55782D01*
X1229408Y52450D01*
X1230380Y49245D01*
X1231959Y46292D01*
X1234083Y43703D01*
X1236672Y41579D01*
X1239625Y40000D01*
X1242829Y39028D01*
X1246162Y38700D01*
X1249495Y39028D01*
X1252699Y40000D01*
X1255652Y41579D01*
X1258241Y43703D01*
X1259071Y44715D01*
X1280476D01*
X1280722Y44764D01*
X1280972Y44776D01*
X1281109Y44841D01*
X1281257Y44870D01*
X1281465Y45009D01*
X1281691Y45116D01*
X1282574Y45072D01*
X1283061Y44894D01*
X1283152Y44837D01*
X1284083Y43703D01*
X1286671Y41579D01*
X1289625Y40000D01*
X1292829Y39028D01*
X1296162Y38700D01*
X1299494Y39028D01*
X1302699Y40000D01*
X1305652Y41579D01*
X1308241Y43703D01*
X1309171Y44837D01*
X1309263Y44894D01*
X1309749Y45072D01*
X1310633Y45116D01*
X1310859Y45009D01*
X1311067Y44870D01*
X1311215Y44841D01*
X1311352Y44776D01*
X1311602Y44764D01*
X1311848Y44715D01*
X1323892D01*
X1324678Y43717D01*
X1324321Y42230D01*
X1323842Y36144D01*
X1324321Y30058D01*
X1325746Y24122D01*
X1328082Y18482D01*
X1331272Y13276D01*
X1335237Y8634D01*
X1339879Y4669D01*
X1340063Y4556D01*
X1339719Y3334D01*
X105164D01*
X104805Y4604D01*
X109057Y7209D01*
X113699Y11174D01*
X117664Y15816D01*
X120854Y21021D01*
X123190Y26662D01*
X124615Y32598D01*
X125094Y38684D01*
X124735Y43249D01*
X125971Y43723D01*
X126527Y42999D01*
X128537Y41457D01*
X130877Y40488D01*
X133388Y40157D01*
X135899Y40488D01*
X138239Y41457D01*
X140249Y42999D01*
X141791Y45009D01*
X142760Y47349D01*
X143091Y49860D01*
X142760Y52372D01*
X141791Y54712D01*
X140249Y56721D01*
X138239Y58263D01*
X137976Y58372D01*
Y67132D01*
X137627Y68888D01*
X136632Y70377D01*
X122228Y84781D01*
Y148036D01*
X138071Y163879D01*
X138274Y163795D01*
X140754Y163468D01*
X143234Y163795D01*
X145545Y164752D01*
X147529Y166275D01*
X149052Y168259D01*
X150009Y170570D01*
X150336Y173050D01*
X150009Y175530D01*
X149052Y177841D01*
X147529Y179826D01*
X145545Y181348D01*
X143234Y182306D01*
X140754Y182632D01*
X138274Y182306D01*
X135963Y181348D01*
X133979Y179826D01*
X132456Y177841D01*
X131498Y175530D01*
X131172Y173050D01*
X131498Y170570D01*
X131583Y170367D01*
X114396Y153181D01*
X113401Y151692D01*
X113052Y149936D01*
Y82880D01*
X113401Y81124D01*
X114396Y79636D01*
X128800Y65232D01*
Y58372D01*
X128537Y58263D01*
X126527Y56721D01*
X124985Y54712D01*
X124016Y52372D01*
X123982Y52113D01*
X122678Y51942D01*
X120854Y56347D01*
X117664Y61552D01*
X113699Y66194D01*
X109057Y70159D01*
X103851Y73349D01*
X98211Y75685D01*
X92275Y77111D01*
X86189Y77590D01*
X80102Y77111D01*
X74166Y75685D01*
X68526Y73349D01*
X63321Y70159D01*
X58678Y66194D01*
X54714Y61552D01*
X51524Y56347D01*
X49187Y50707D01*
X47762Y44770D01*
X47283Y38684D01*
X47762Y32598D01*
X49187Y26662D01*
X51524Y21021D01*
X54714Y15816D01*
X58678Y11174D01*
X63321Y7209D01*
X67572Y4604D01*
X67214Y3334D01*
X3334D01*
Y746666D01*
X65688D01*
X66033Y745444D01*
X64857Y744723D01*
X60215Y740758D01*
X56250Y736116D01*
X53060Y730911D01*
X50724Y725270D01*
X49299Y719334D01*
X48820Y713248D01*
X49299Y707162D01*
X50724Y701226D01*
X53060Y695585D01*
X56250Y690380D01*
X60215Y685738D01*
X64857Y681773D01*
X70063Y678583D01*
X72427Y677604D01*
X72179Y676358D01*
X32196D01*
X30245Y675970D01*
X28592Y674865D01*
X17413Y663686D01*
X15316Y663962D01*
X12836Y663636D01*
X10525Y662678D01*
X8540Y661156D01*
X7018Y659171D01*
X6061Y656860D01*
X5734Y654380D01*
X6061Y651900D01*
X7018Y649589D01*
X8540Y647605D01*
X10218Y646318D01*
Y637043D01*
X8540Y635756D01*
X7018Y633771D01*
X6061Y631460D01*
X5734Y628980D01*
X6061Y626500D01*
X7018Y624189D01*
X8540Y622205D01*
X10218Y620918D01*
Y611643D01*
X8540Y610356D01*
X7018Y608371D01*
X6061Y606060D01*
X5734Y603580D01*
X6061Y601100D01*
X7018Y598789D01*
X8540Y596805D01*
X10218Y595518D01*
Y586243D01*
X8540Y584956D01*
X7018Y582971D01*
X6061Y580660D01*
X5734Y578180D01*
X6061Y575700D01*
X7018Y573389D01*
X8540Y571405D01*
X10218Y570117D01*
Y560843D01*
X8540Y559556D01*
X7018Y557571D01*
X6061Y555260D01*
X5734Y552780D01*
X6061Y550300D01*
X7018Y547989D01*
X8540Y546005D01*
X10218Y544717D01*
Y535443D01*
X8541Y534156D01*
X7018Y532171D01*
X6061Y529860D01*
X5734Y527380D01*
X6061Y524900D01*
X7018Y522589D01*
X8541Y520605D01*
X10218Y519318D01*
Y485910D01*
X8545Y484626D01*
X7022Y482641D01*
X6065Y480330D01*
X5738Y477850D01*
X6065Y475370D01*
X7022Y473059D01*
X8545Y471075D01*
X10218Y469791D01*
Y460510D01*
X8545Y459226D01*
X7022Y457241D01*
X6065Y454930D01*
X5738Y452450D01*
X6065Y449970D01*
X7022Y447659D01*
X8545Y445675D01*
X10218Y444391D01*
Y435110D01*
X8545Y433826D01*
X7022Y431841D01*
X6065Y429530D01*
X5738Y427050D01*
X6065Y424570D01*
X7022Y422259D01*
X8545Y420275D01*
X10218Y418991D01*
Y409710D01*
X8545Y408426D01*
X7022Y406441D01*
X6065Y404130D01*
X5738Y401650D01*
X6065Y399170D01*
X7022Y396859D01*
X8545Y394875D01*
X10529Y393352D01*
X12840Y392395D01*
X15320Y392068D01*
X17416Y392344D01*
X35845Y373915D01*
X37499Y372810D01*
X39450Y372422D01*
X62538D01*
X67178Y367782D01*
X66692Y366609D01*
X61062D01*
X60216Y367876D01*
X58231Y369202D01*
X55890Y369668D01*
X53549Y369202D01*
X51564Y367876D01*
X50238Y365891D01*
X49772Y363550D01*
X50238Y361209D01*
X51564Y359225D01*
X53549Y357898D01*
X55890Y357433D01*
X58231Y357898D01*
X60216Y359225D01*
X61062Y360491D01*
X73522D01*
Y336129D01*
X61062D01*
X60216Y337396D01*
X58231Y338722D01*
X55890Y339188D01*
X53549Y338722D01*
X51564Y337396D01*
X50238Y335411D01*
X49772Y333070D01*
X50238Y330729D01*
X51564Y328745D01*
X53549Y327418D01*
X55890Y326953D01*
X58231Y327418D01*
X60216Y328745D01*
X61062Y330011D01*
X73522D01*
Y305649D01*
X61062D01*
X60216Y306916D01*
X58231Y308242D01*
X55890Y308708D01*
X53549Y308242D01*
X51564Y306916D01*
X50238Y304931D01*
X49772Y302590D01*
X50238Y300249D01*
X51564Y298265D01*
X53549Y296938D01*
X55890Y296473D01*
X58231Y296938D01*
X60216Y298265D01*
X61062Y299531D01*
X73522D01*
Y275169D01*
X61062D01*
X60216Y276436D01*
X58231Y277762D01*
X55890Y278228D01*
X53549Y277762D01*
X51564Y276436D01*
X50238Y274451D01*
X49772Y272110D01*
X49895Y271495D01*
X48707Y270957D01*
X47495Y272536D01*
X45511Y274058D01*
X43200Y275016D01*
X40720Y275342D01*
X38240Y275016D01*
X35929Y274058D01*
X33945Y272536D01*
X32422Y270551D01*
X31465Y268240D01*
X31138Y265760D01*
X31465Y263280D01*
X32422Y260969D01*
X33945Y258985D01*
X35929Y257462D01*
X38240Y256505D01*
X40720Y256178D01*
X43200Y256505D01*
X45511Y257462D01*
X47495Y258985D01*
X49018Y260969D01*
X49976Y263280D01*
X50302Y265760D01*
X50035Y267787D01*
X51256Y268246D01*
X51564Y267785D01*
X53549Y266458D01*
X55890Y265993D01*
X58231Y266458D01*
X60216Y267785D01*
X61062Y269051D01*
X73522D01*
Y244689D01*
X61062D01*
X60216Y245956D01*
X58231Y247282D01*
X55890Y247748D01*
X53549Y247282D01*
X51564Y245956D01*
X50635Y244566D01*
X49202Y244707D01*
X49018Y245151D01*
X47495Y247136D01*
X45511Y248658D01*
X43200Y249616D01*
X40720Y249942D01*
X38240Y249616D01*
X35929Y248658D01*
X33945Y247136D01*
X32422Y245151D01*
X31465Y242840D01*
X31138Y240360D01*
X31465Y237880D01*
X32422Y235569D01*
X33945Y233585D01*
X35929Y232062D01*
X38240Y231105D01*
X40720Y230778D01*
X43200Y231105D01*
X45511Y232062D01*
X47495Y233585D01*
X49018Y235569D01*
X49852Y237581D01*
X50754Y237821D01*
X51244Y237784D01*
X51564Y237304D01*
X53549Y235978D01*
X55890Y235513D01*
X58231Y235978D01*
X60216Y237304D01*
X61062Y238571D01*
X73522D01*
Y234464D01*
X73910Y232513D01*
X75015Y230860D01*
X84142Y221732D01*
X83656Y220559D01*
X60490D01*
X59320Y220326D01*
X58327Y219663D01*
X46744Y208081D01*
X45250Y208378D01*
X42909Y207912D01*
X40924Y206586D01*
X39598Y204601D01*
X39132Y202260D01*
X39598Y199919D01*
X40924Y197934D01*
X42909Y196608D01*
X45250Y196143D01*
X47591Y196608D01*
X49576Y197934D01*
X50902Y199919D01*
X51368Y202260D01*
X51070Y203755D01*
X61757Y214441D01*
X91433D01*
X91979Y213895D01*
X93633Y212790D01*
X95584Y212402D01*
X249963D01*
Y135458D01*
X249963Y135458D01*
X250196Y134288D01*
X250859Y133295D01*
X263512Y120642D01*
X263384Y119998D01*
X263772Y118047D01*
X264877Y116393D01*
X266531Y115288D01*
X268482Y114900D01*
X270433Y115288D01*
X272087Y116393D01*
X272452Y116939D01*
X305315D01*
X328991Y93264D01*
X328946Y93040D01*
X329412Y90699D01*
X330738Y88715D01*
X332723Y87388D01*
X335064Y86923D01*
X337405Y87388D01*
X339390Y88715D01*
X340716Y90699D01*
X341181Y93040D01*
X340716Y95381D01*
X339390Y97366D01*
X337405Y98692D01*
X335064Y99158D01*
X332723Y98692D01*
X332418Y98488D01*
X308745Y122161D01*
X307752Y122824D01*
X306582Y123057D01*
X306582Y123057D01*
X272452D01*
X272087Y123603D01*
X270433Y124708D01*
X268482Y125096D01*
X267838Y124968D01*
X256081Y136725D01*
Y212402D01*
X272072D01*
X273494Y212685D01*
X274764Y211874D01*
Y194792D01*
X293764D01*
Y211772D01*
X295034Y212438D01*
X296764Y212094D01*
X302320D01*
X302702Y210824D01*
X301366Y209083D01*
X300408Y206772D01*
X300082Y204292D01*
X300408Y201812D01*
X301366Y199501D01*
X302889Y197517D01*
X304873Y195994D01*
X307184Y195037D01*
X309664Y194710D01*
X312144Y195037D01*
X314455Y195994D01*
X316439Y197517D01*
X317962Y199501D01*
X318920Y201812D01*
X319246Y204292D01*
X318920Y206772D01*
X317962Y209083D01*
X316626Y210824D01*
X317008Y212094D01*
X327720D01*
X328102Y210824D01*
X326766Y209083D01*
X325808Y206772D01*
X325482Y204292D01*
X325808Y201812D01*
X326412Y200355D01*
X321022Y194966D01*
X320300Y193884D01*
X320046Y192608D01*
Y189417D01*
X301902Y171273D01*
X300520Y171548D01*
X298179Y171082D01*
X296194Y169756D01*
X294868Y167771D01*
X294403Y165430D01*
X294868Y163089D01*
X296194Y161105D01*
X298179Y159778D01*
X300520Y159313D01*
X302861Y159778D01*
X304846Y161105D01*
X306172Y163089D01*
X306637Y165430D01*
X306447Y166388D01*
X325737Y185679D01*
X326460Y186760D01*
X326714Y188036D01*
Y191227D01*
X331127Y195640D01*
X332584Y195037D01*
X335064Y194710D01*
X337544Y195037D01*
X339855Y195994D01*
X341839Y197517D01*
X343362Y199501D01*
X344319Y201812D01*
X344646Y204292D01*
X344319Y206772D01*
X343362Y209083D01*
X342026Y210824D01*
X342408Y212094D01*
X352818D01*
X361124Y203789D01*
Y194792D01*
X380124D01*
Y213792D01*
X365540D01*
X358535Y220797D01*
X356881Y221902D01*
X354930Y222290D01*
X343640D01*
X343014Y223560D01*
X343834Y224629D01*
X344846Y227071D01*
X345023Y228422D01*
X325105D01*
X325282Y227071D01*
X326294Y224629D01*
X327114Y223560D01*
X326488Y222290D01*
X317560D01*
X316933Y223560D01*
X317962Y224901D01*
X318920Y227212D01*
X319246Y229692D01*
X318920Y232172D01*
X317962Y234483D01*
X316439Y236468D01*
X314455Y237990D01*
X312144Y238948D01*
X309664Y239274D01*
X307184Y238948D01*
X304873Y237990D01*
X302889Y236468D01*
X301366Y234483D01*
X300408Y232172D01*
X300082Y229692D01*
X300408Y227212D01*
X301366Y224901D01*
X302395Y223560D01*
X301768Y222290D01*
X298876D01*
X293570Y227596D01*
X293846Y229692D01*
X293519Y232172D01*
X292562Y234483D01*
X291039Y236468D01*
X289055Y237990D01*
X286744Y238948D01*
X284264Y239274D01*
X281784Y238948D01*
X279473Y237990D01*
X277488Y236468D01*
X275966Y234483D01*
X275009Y232172D01*
X274682Y229692D01*
X274958Y227596D01*
X269960Y222598D01*
X262353D01*
X261674Y223868D01*
X262478Y225071D01*
X262943Y227412D01*
X262478Y229753D01*
X261152Y231738D01*
X259167Y233064D01*
X256826Y233530D01*
X254485Y233064D01*
X252500Y231738D01*
X251174Y229753D01*
X250708Y227412D01*
X251174Y225071D01*
X251978Y223868D01*
X251299Y222598D01*
X206092D01*
X205707Y223868D01*
X206043Y224093D01*
X207369Y226077D01*
X207835Y228419D01*
X207369Y230760D01*
X206043Y232744D01*
X204059Y234070D01*
X201718Y234536D01*
X199377Y234070D01*
X197392Y232744D01*
X196066Y230760D01*
X195600Y228419D01*
X196066Y226077D01*
X197392Y224093D01*
X197728Y223868D01*
X197343Y222598D01*
X97696D01*
X83718Y236576D01*
Y241630D01*
Y272110D01*
Y302590D01*
Y358452D01*
X89570D01*
X91521Y358840D01*
X93175Y359945D01*
X112225Y378995D01*
X113330Y380649D01*
X113718Y382600D01*
Y414987D01*
X119159Y420428D01*
X181816D01*
X183169Y418665D01*
X185179Y417123D01*
X187519Y416154D01*
X190030Y415823D01*
X192541Y416154D01*
X194881Y417123D01*
X196891Y418665D01*
X198433Y420675D01*
X199402Y423015D01*
X199733Y425526D01*
X199402Y428037D01*
X198433Y430378D01*
X196891Y432387D01*
X194881Y433929D01*
X192541Y434899D01*
X190030Y435229D01*
X187519Y434899D01*
X185179Y433929D01*
X183169Y432387D01*
X181816Y430624D01*
X117047D01*
X115096Y430236D01*
X113442Y429131D01*
X105015Y420704D01*
X103910Y419050D01*
X103522Y417099D01*
Y384712D01*
X87458Y368648D01*
X80732D01*
X68255Y381125D01*
X66601Y382230D01*
X64650Y382618D01*
X41562D01*
X24626Y399554D01*
X24902Y401650D01*
X24576Y404130D01*
X23618Y406441D01*
X22095Y408426D01*
X20414Y409716D01*
Y418984D01*
X22095Y420275D01*
X23618Y422259D01*
X24576Y424570D01*
X24902Y427050D01*
X24576Y429530D01*
X23618Y431841D01*
X22095Y433826D01*
X20414Y435116D01*
Y444384D01*
X22095Y445675D01*
X23618Y447659D01*
X24576Y449970D01*
X24902Y452450D01*
X24576Y454930D01*
X23618Y457241D01*
X22095Y459226D01*
X20414Y460516D01*
Y469785D01*
X22095Y471075D01*
X23618Y473059D01*
X24576Y475370D01*
X24902Y477850D01*
X24576Y480330D01*
X23618Y482641D01*
X22095Y484626D01*
X20414Y485916D01*
Y519318D01*
X22092Y520605D01*
X23614Y522589D01*
X24571Y524900D01*
X24898Y527380D01*
X24571Y529860D01*
X23614Y532171D01*
X22092Y534156D01*
X20414Y535443D01*
Y544718D01*
X22091Y546005D01*
X23614Y547989D01*
X24571Y550300D01*
X24898Y552780D01*
X24571Y555260D01*
X23614Y557571D01*
X22091Y559556D01*
X20414Y560843D01*
Y570118D01*
X22091Y571405D01*
X23614Y573389D01*
X24571Y575700D01*
X24898Y578180D01*
X24571Y580660D01*
X23614Y582971D01*
X22091Y584956D01*
X20414Y586243D01*
Y595518D01*
X22091Y596805D01*
X23614Y598789D01*
X24571Y601100D01*
X24898Y603580D01*
X24571Y606060D01*
X23614Y608371D01*
X22091Y610356D01*
X20414Y611643D01*
Y620918D01*
X22091Y622205D01*
X23614Y624189D01*
X24571Y626500D01*
X24898Y628980D01*
X24571Y631460D01*
X23614Y633771D01*
X22091Y635756D01*
X20414Y637043D01*
Y646318D01*
X22091Y647605D01*
X23614Y649589D01*
X24571Y651900D01*
X24898Y654380D01*
X24622Y656476D01*
X34308Y666162D01*
X120042D01*
X121993Y666551D01*
X123647Y667656D01*
X149934Y693942D01*
X155645D01*
X156932Y692265D01*
X158917Y690742D01*
X161228Y689785D01*
X163708Y689458D01*
X166188Y689785D01*
X168499Y690742D01*
X170483Y692265D01*
X172006Y694249D01*
X172963Y696560D01*
X173290Y699040D01*
X172963Y701520D01*
X172006Y703831D01*
X170483Y705816D01*
X168499Y707338D01*
X166188Y708296D01*
X163708Y708622D01*
X161228Y708296D01*
X158917Y707338D01*
X156932Y705816D01*
X155645Y704138D01*
X147822D01*
X145871Y703750D01*
X144217Y702645D01*
X117931Y676358D01*
X103272D01*
X103024Y677604D01*
X105388Y678583D01*
X110593Y681773D01*
X115236Y685738D01*
X119200Y690380D01*
X122390Y695585D01*
X124727Y701226D01*
X126152Y707162D01*
X126631Y713248D01*
X126152Y719334D01*
X124727Y725270D01*
X122390Y730911D01*
X119200Y736116D01*
X115236Y740758D01*
X110593Y744723D01*
X109418Y745444D01*
X109762Y746666D01*
X1396666D01*
Y408839D01*
D02*
G37*
G36*
X1252591Y304811D02*
X1379310D01*
Y187300D01*
X1379550Y185473D01*
X1379878Y184683D01*
X1379029Y183413D01*
X1375101D01*
X1374474Y184683D01*
X1375469Y185979D01*
X1376438Y188319D01*
X1376769Y190830D01*
X1376438Y193342D01*
X1375469Y195682D01*
X1373927Y197691D01*
X1371918Y199233D01*
X1369577Y200203D01*
X1367066Y200533D01*
X1364555Y200203D01*
X1362215Y199233D01*
X1360205Y197691D01*
X1358663Y195682D01*
X1357694Y193342D01*
X1357363Y190830D01*
X1357694Y188319D01*
X1358663Y185979D01*
X1358990Y185553D01*
Y183413D01*
X1353370D01*
X1352614Y183993D01*
X1350273Y184963D01*
X1347762Y185293D01*
X1345251Y184963D01*
X1342910Y183993D01*
X1340901Y182451D01*
X1339359Y180442D01*
X1338390Y178102D01*
X1338059Y175590D01*
X1338390Y173079D01*
X1339359Y170739D01*
X1340901Y168729D01*
X1342910Y167187D01*
X1345251Y166218D01*
X1347762Y165887D01*
X1350273Y166218D01*
X1352614Y167187D01*
X1354623Y168729D01*
X1355055Y169292D01*
X1381293D01*
X1383042Y167949D01*
X1385383Y166980D01*
X1387894Y166649D01*
X1390405Y166980D01*
X1392746Y167949D01*
X1394755Y169491D01*
X1395396Y170327D01*
X1396666Y169895D01*
Y57364D01*
X1395444Y57019D01*
X1394223Y59012D01*
X1390258Y63654D01*
X1385615Y67619D01*
X1380410Y70809D01*
X1374770Y73145D01*
X1368833Y74571D01*
X1362747Y75050D01*
X1356661Y74571D01*
X1350725Y73145D01*
X1345085Y70809D01*
X1339879Y67619D01*
X1335237Y63654D01*
X1331272Y59012D01*
X1328082Y53807D01*
X1325746Y48167D01*
X1325407Y46754D01*
X1311848D01*
X1311195Y47843D01*
X1311944Y49245D01*
X1312916Y52450D01*
X1313244Y55782D01*
Y65782D01*
X1312916Y69115D01*
X1311944Y72319D01*
X1310365Y75273D01*
X1308241Y77861D01*
X1305652Y79985D01*
X1302699Y81564D01*
X1299494Y82536D01*
X1296162Y82864D01*
X1292829Y82536D01*
X1289625Y81564D01*
X1286671Y79985D01*
X1284083Y77861D01*
X1281958Y75273D01*
X1280380Y72319D01*
X1279408Y69115D01*
X1279080Y65782D01*
Y55782D01*
X1279408Y52450D01*
X1280380Y49245D01*
X1281129Y47843D01*
X1280476Y46754D01*
X1250988D01*
Y136253D01*
X1252105Y136400D01*
X1255510Y137811D01*
X1258435Y140055D01*
X1260679Y142980D01*
X1262090Y146385D01*
X1262571Y150040D01*
X1262090Y153695D01*
X1260679Y157101D01*
X1258435Y160025D01*
X1255510Y162269D01*
X1252105Y163680D01*
X1250988Y163827D01*
Y304842D01*
X1252178Y305287D01*
X1252591Y304811D01*
D02*
G37*
%LPC*%
G36*
X164978Y734399D02*
Y725710D01*
X173667D01*
X173489Y727061D01*
X172478Y729503D01*
X170868Y731601D01*
X168771Y733210D01*
X166329Y734222D01*
X164978Y734399D01*
D02*
G37*
G36*
X347096D02*
Y725710D01*
X355785D01*
X355607Y727061D01*
X354596Y729503D01*
X352986Y731601D01*
X350889Y733210D01*
X348447Y734222D01*
X347096Y734399D01*
D02*
G37*
G36*
X162438D02*
X161087Y734222D01*
X158644Y733210D01*
X156547Y731601D01*
X154938Y729503D01*
X153926Y727061D01*
X153748Y725710D01*
X162438D01*
Y734399D01*
D02*
G37*
G36*
X344556D02*
X343205Y734222D01*
X340762Y733210D01*
X338665Y731601D01*
X337056Y729503D01*
X336044Y727061D01*
X335866Y725710D01*
X344556D01*
Y734399D01*
D02*
G37*
G36*
X274808Y733940D02*
X255808D01*
Y714940D01*
X274808D01*
Y733940D01*
D02*
G37*
G36*
X396626Y734022D02*
X394146Y733696D01*
X391835Y732738D01*
X389850Y731216D01*
X388327Y729231D01*
X387370Y726920D01*
X387044Y724440D01*
X387370Y721960D01*
X388327Y719649D01*
X389850Y717665D01*
X391835Y716142D01*
X394146Y715185D01*
X396626Y714858D01*
X399106Y715185D01*
X401417Y716142D01*
X403401Y717665D01*
X404924Y719649D01*
X405881Y721960D01*
X406208Y724440D01*
X405881Y726920D01*
X404924Y729231D01*
X403401Y731216D01*
X401417Y732738D01*
X399106Y733696D01*
X396626Y734022D01*
D02*
G37*
G36*
X371226D02*
X368746Y733696D01*
X366435Y732738D01*
X364450Y731216D01*
X362928Y729231D01*
X361970Y726920D01*
X361644Y724440D01*
X361970Y721960D01*
X362574Y720503D01*
X355059Y712988D01*
X354336Y711906D01*
X354082Y710630D01*
Y705861D01*
X352879Y705453D01*
X352601Y705816D01*
X350617Y707338D01*
X348306Y708296D01*
X345826Y708622D01*
X343346Y708296D01*
X341035Y707338D01*
X339050Y705816D01*
X337528Y703831D01*
X336924Y702374D01*
X306826D01*
X305550Y702120D01*
X304468Y701397D01*
X243806Y640736D01*
X243084Y639654D01*
X242830Y638378D01*
Y611251D01*
X241560Y610820D01*
X240109Y612711D01*
X237568Y614660D01*
X234611Y615885D01*
X231436Y616303D01*
X228262Y615885D01*
X225304Y614660D01*
X222764Y612711D01*
X220814Y610171D01*
X219589Y607213D01*
X219171Y604038D01*
X219589Y600864D01*
X220814Y597906D01*
X222764Y595366D01*
X225304Y593417D01*
X228262Y592191D01*
X231436Y591773D01*
X234611Y592191D01*
X237568Y593417D01*
X240109Y595366D01*
X241560Y597257D01*
X242830Y596826D01*
Y579493D01*
X241560Y579107D01*
X240838Y580188D01*
X238853Y581514D01*
X236512Y581980D01*
X234171Y581514D01*
X232186Y580188D01*
X230860Y578204D01*
X230394Y575862D01*
X230860Y573521D01*
X232186Y571537D01*
X233178Y570874D01*
Y563702D01*
X233432Y562426D01*
X234154Y561345D01*
X237456Y558043D01*
X238538Y557320D01*
X239814Y557066D01*
X259118D01*
X260394Y557320D01*
X261476Y558043D01*
X311260Y607827D01*
X311982Y608908D01*
X312236Y610184D01*
Y632679D01*
X318295Y638738D01*
X319468Y638252D01*
Y634720D01*
X338468D01*
Y653720D01*
X319468D01*
Y647554D01*
X319062D01*
X317786Y647300D01*
X316704Y646578D01*
X306544Y636418D01*
X305822Y635336D01*
X305568Y634060D01*
Y611565D01*
X257737Y563734D01*
X247046D01*
X246952Y563812D01*
X247038Y564685D01*
X247269Y565171D01*
X248505Y565416D01*
X250490Y566743D01*
X251816Y568727D01*
X251935Y569324D01*
X253108Y569810D01*
X253221Y569734D01*
X255562Y569269D01*
X257903Y569734D01*
X259888Y571060D01*
X261214Y573045D01*
X261679Y575386D01*
X261214Y577727D01*
X259888Y579712D01*
X258896Y580375D01*
Y626075D01*
X309013Y676192D01*
X348780D01*
X350056Y676446D01*
X351138Y677169D01*
X359774Y685805D01*
X360496Y686886D01*
X360750Y688162D01*
Y696327D01*
X361970Y696560D01*
X362928Y694249D01*
X364450Y692265D01*
X366435Y690742D01*
X368746Y689785D01*
X371226Y689458D01*
X373706Y689785D01*
X376017Y690742D01*
X378001Y692265D01*
X379524Y694249D01*
X380481Y696560D01*
X380808Y699040D01*
X380481Y701520D01*
X379524Y703831D01*
X378001Y705816D01*
X376017Y707338D01*
X373706Y708296D01*
X371226Y708622D01*
X368746Y708296D01*
X366435Y707338D01*
X364450Y705816D01*
X362928Y703831D01*
X361970Y701520D01*
X360750Y701753D01*
Y709249D01*
X367289Y715788D01*
X368746Y715185D01*
X371226Y714858D01*
X373706Y715185D01*
X376017Y716142D01*
X378001Y717665D01*
X379524Y719649D01*
X380481Y721960D01*
X380808Y724440D01*
X380481Y726920D01*
X379524Y729231D01*
X378001Y731216D01*
X376017Y732738D01*
X373706Y733696D01*
X371226Y734022D01*
D02*
G37*
G36*
X239908D02*
X237428Y733696D01*
X235117Y732738D01*
X233132Y731216D01*
X231609Y729231D01*
X230652Y726920D01*
X230326Y724440D01*
X230652Y721960D01*
X231609Y719649D01*
X233132Y717665D01*
X235117Y716142D01*
X237428Y715185D01*
X239908Y714858D01*
X242388Y715185D01*
X244699Y716142D01*
X246683Y717665D01*
X248206Y719649D01*
X249163Y721960D01*
X249490Y724440D01*
X249163Y726920D01*
X248206Y729231D01*
X246683Y731216D01*
X244699Y732738D01*
X242388Y733696D01*
X239908Y734022D01*
D02*
G37*
G36*
X214508D02*
X212028Y733696D01*
X209717Y732738D01*
X207732Y731216D01*
X206210Y729231D01*
X205252Y726920D01*
X204926Y724440D01*
X205252Y721960D01*
X206210Y719649D01*
X207732Y717665D01*
X209717Y716142D01*
X212028Y715185D01*
X214508Y714858D01*
X216988Y715185D01*
X219299Y716142D01*
X221283Y717665D01*
X222806Y719649D01*
X223763Y721960D01*
X224090Y724440D01*
X223763Y726920D01*
X222806Y729231D01*
X221283Y731216D01*
X219299Y732738D01*
X216988Y733696D01*
X214508Y734022D01*
D02*
G37*
G36*
X189108D02*
X186628Y733696D01*
X184317Y732738D01*
X182332Y731216D01*
X180809Y729231D01*
X179852Y726920D01*
X179526Y724440D01*
X179852Y721960D01*
X180809Y719649D01*
X182332Y717665D01*
X184317Y716142D01*
X186628Y715185D01*
X189108Y714858D01*
X191588Y715185D01*
X193899Y716142D01*
X195883Y717665D01*
X197406Y719649D01*
X198363Y721960D01*
X198690Y724440D01*
X198363Y726920D01*
X197406Y729231D01*
X195883Y731216D01*
X193899Y732738D01*
X191588Y733696D01*
X189108Y734022D01*
D02*
G37*
G36*
X355785Y723170D02*
X347096D01*
Y714481D01*
X348447Y714659D01*
X350889Y715670D01*
X352986Y717280D01*
X354596Y719377D01*
X355607Y721819D01*
X355785Y723170D01*
D02*
G37*
G36*
X173667D02*
X164978D01*
Y714481D01*
X166329Y714659D01*
X168771Y715670D01*
X170868Y717280D01*
X172478Y719377D01*
X173489Y721819D01*
X173667Y723170D01*
D02*
G37*
G36*
X344556D02*
X335866D01*
X336044Y721819D01*
X337056Y719377D01*
X338665Y717280D01*
X340762Y715670D01*
X343205Y714659D01*
X344556Y714481D01*
Y723170D01*
D02*
G37*
G36*
X162438D02*
X153748D01*
X153926Y721819D01*
X154938Y719377D01*
X156547Y717280D01*
X158644Y715670D01*
X161087Y714659D01*
X162438Y714481D01*
Y723170D01*
D02*
G37*
G36*
X422026Y734022D02*
X419546Y733696D01*
X417235Y732738D01*
X415250Y731216D01*
X413727Y729231D01*
X412770Y726920D01*
X412444Y724440D01*
X412770Y721960D01*
X413374Y720503D01*
X406875Y714004D01*
X406152Y712922D01*
X405898Y711646D01*
Y704648D01*
X404628Y704217D01*
X403401Y705816D01*
X401417Y707338D01*
X399106Y708296D01*
X396626Y708622D01*
X394146Y708296D01*
X391835Y707338D01*
X389850Y705816D01*
X388327Y703831D01*
X387370Y701520D01*
X387044Y699040D01*
X387370Y696560D01*
X388327Y694249D01*
X389850Y692265D01*
X391835Y690742D01*
X394146Y689785D01*
X396626Y689458D01*
X399106Y689785D01*
X401417Y690742D01*
X403401Y692265D01*
X404628Y693863D01*
X405898Y693432D01*
Y689289D01*
X389603Y672994D01*
X388880Y671912D01*
X388626Y670636D01*
Y667497D01*
X387634Y666834D01*
X386308Y664849D01*
X385843Y662508D01*
X386308Y660167D01*
X387634Y658183D01*
X389619Y656856D01*
X391960Y656391D01*
X393715Y656740D01*
X394782Y655807D01*
X394803Y655760D01*
X394478Y654126D01*
X394944Y651785D01*
X396270Y649800D01*
X398255Y648474D01*
X400596Y648009D01*
X402937Y648474D01*
X404922Y649800D01*
X406248Y651785D01*
X406713Y654126D01*
X406270Y656355D01*
X436735Y686821D01*
X437458Y687902D01*
X437712Y689178D01*
Y694348D01*
X438982Y694600D01*
X439128Y694249D01*
X440650Y692265D01*
X442635Y690742D01*
X444946Y689785D01*
X447426Y689458D01*
X449906Y689785D01*
X452217Y690742D01*
X454201Y692265D01*
X455724Y694249D01*
X456681Y696560D01*
X457008Y699040D01*
X456681Y701520D01*
X455724Y703831D01*
X454201Y705816D01*
X452217Y707338D01*
X449906Y708296D01*
X447426Y708622D01*
X444946Y708296D01*
X442635Y707338D01*
X440650Y705816D01*
X439128Y703831D01*
X438982Y703480D01*
X437712Y703733D01*
Y710012D01*
X442641Y714940D01*
X456926D01*
Y733940D01*
X437926D01*
Y719655D01*
X432020Y713750D01*
X431298Y712668D01*
X431044Y711393D01*
Y704979D01*
X429774Y704548D01*
X428801Y705816D01*
X426817Y707338D01*
X424506Y708296D01*
X422026Y708622D01*
X419546Y708296D01*
X417235Y707338D01*
X415250Y705816D01*
X413836Y703973D01*
X413346Y703995D01*
X412566Y704329D01*
Y710266D01*
X418089Y715788D01*
X419546Y715185D01*
X422026Y714858D01*
X424506Y715185D01*
X426817Y716142D01*
X428801Y717665D01*
X430324Y719649D01*
X431281Y721960D01*
X431608Y724440D01*
X431281Y726920D01*
X430324Y729231D01*
X428801Y731216D01*
X426817Y732738D01*
X424506Y733696D01*
X422026Y734022D01*
D02*
G37*
G36*
X1376430Y728052D02*
X1373297Y727639D01*
X1370378Y726430D01*
X1367872Y724507D01*
X1365948Y722000D01*
X1364739Y719081D01*
X1364326Y715948D01*
Y709948D01*
X1364739Y706815D01*
X1365948Y703896D01*
X1367872Y701389D01*
X1370378Y699466D01*
X1373297Y698257D01*
X1376430Y697844D01*
X1379563Y698257D01*
X1382482Y699466D01*
X1384989Y701389D01*
X1386912Y703896D01*
X1388121Y706815D01*
X1388533Y709948D01*
Y715948D01*
X1388121Y719081D01*
X1386912Y722000D01*
X1384989Y724507D01*
X1382482Y726430D01*
X1379563Y727639D01*
X1376430Y728052D01*
D02*
G37*
G36*
X1341430D02*
X1338297Y727639D01*
X1335378Y726430D01*
X1332871Y724507D01*
X1330948Y722000D01*
X1329739Y719081D01*
X1329326Y715948D01*
Y709948D01*
X1329739Y706815D01*
X1330948Y703896D01*
X1332871Y701389D01*
X1335378Y699466D01*
X1338297Y698257D01*
X1341430Y697844D01*
X1344562Y698257D01*
X1347482Y699466D01*
X1349988Y701389D01*
X1351912Y703896D01*
X1353121Y706815D01*
X1353533Y709948D01*
Y715948D01*
X1353121Y719081D01*
X1351912Y722000D01*
X1349988Y724507D01*
X1347482Y726430D01*
X1344562Y727639D01*
X1341430Y728052D01*
D02*
G37*
G36*
X1306430D02*
X1303297Y727639D01*
X1300378Y726430D01*
X1297871Y724507D01*
X1295948Y722000D01*
X1294738Y719081D01*
X1294326Y715948D01*
Y709948D01*
X1294738Y706815D01*
X1295948Y703896D01*
X1297871Y701389D01*
X1300378Y699466D01*
X1303297Y698257D01*
X1306430Y697844D01*
X1309562Y698257D01*
X1312481Y699466D01*
X1314988Y701389D01*
X1316912Y703896D01*
X1318121Y706815D01*
X1318533Y709948D01*
Y715948D01*
X1318121Y719081D01*
X1316912Y722000D01*
X1314988Y724507D01*
X1312481Y726430D01*
X1309562Y727639D01*
X1306430Y728052D01*
D02*
G37*
G36*
X1271430D02*
X1268297Y727639D01*
X1265378Y726430D01*
X1262871Y724507D01*
X1260948Y722000D01*
X1259739Y719081D01*
X1259326Y715948D01*
Y709948D01*
X1259739Y706815D01*
X1260948Y703896D01*
X1262871Y701389D01*
X1265378Y699466D01*
X1268297Y698257D01*
X1271430Y697844D01*
X1274563Y698257D01*
X1277482Y699466D01*
X1279988Y701389D01*
X1281912Y703896D01*
X1283121Y706815D01*
X1283533Y709948D01*
Y715948D01*
X1283121Y719081D01*
X1281912Y722000D01*
X1279988Y724507D01*
X1277482Y726430D01*
X1274563Y727639D01*
X1271430Y728052D01*
D02*
G37*
G36*
X1223930D02*
X1220797Y727639D01*
X1217878Y726430D01*
X1215371Y724507D01*
X1213448Y722000D01*
X1212239Y719081D01*
X1211826Y715948D01*
Y709948D01*
X1212239Y706815D01*
X1213448Y703896D01*
X1215371Y701389D01*
X1217878Y699466D01*
X1220797Y698257D01*
X1223930Y697844D01*
X1227063Y698257D01*
X1229982Y699466D01*
X1232488Y701389D01*
X1234412Y703896D01*
X1235621Y706815D01*
X1236033Y709948D01*
Y715948D01*
X1235621Y719081D01*
X1234412Y722000D01*
X1232488Y724507D01*
X1229982Y726430D01*
X1227063Y727639D01*
X1223930Y728052D01*
D02*
G37*
G36*
X1188930D02*
X1185797Y727639D01*
X1182878Y726430D01*
X1180371Y724507D01*
X1178448Y722000D01*
X1177239Y719081D01*
X1176826Y715948D01*
Y709948D01*
X1177239Y706815D01*
X1178448Y703896D01*
X1180371Y701389D01*
X1182878Y699466D01*
X1185797Y698257D01*
X1188930Y697844D01*
X1192062Y698257D01*
X1194982Y699466D01*
X1197488Y701389D01*
X1199412Y703896D01*
X1200621Y706815D01*
X1201033Y709948D01*
Y715948D01*
X1200621Y719081D01*
X1199412Y722000D01*
X1197488Y724507D01*
X1194982Y726430D01*
X1192062Y727639D01*
X1188930Y728052D01*
D02*
G37*
G36*
X1153930D02*
X1150797Y727639D01*
X1147878Y726430D01*
X1145371Y724507D01*
X1143448Y722000D01*
X1142239Y719081D01*
X1141826Y715948D01*
Y709948D01*
X1142239Y706815D01*
X1143448Y703896D01*
X1145371Y701389D01*
X1147878Y699466D01*
X1150797Y698257D01*
X1153930Y697844D01*
X1157063Y698257D01*
X1159982Y699466D01*
X1162488Y701389D01*
X1164412Y703896D01*
X1165621Y706815D01*
X1166034Y709948D01*
Y715948D01*
X1165621Y719081D01*
X1164412Y722000D01*
X1162488Y724507D01*
X1159982Y726430D01*
X1157063Y727639D01*
X1153930Y728052D01*
D02*
G37*
G36*
X1118930D02*
X1115797Y727639D01*
X1112878Y726430D01*
X1110371Y724507D01*
X1108448Y722000D01*
X1107239Y719081D01*
X1106826Y715948D01*
Y709948D01*
X1107239Y706815D01*
X1108448Y703896D01*
X1110371Y701389D01*
X1112878Y699466D01*
X1115797Y698257D01*
X1118930Y697844D01*
X1122063Y698257D01*
X1124982Y699466D01*
X1127488Y701389D01*
X1129412Y703896D01*
X1130621Y706815D01*
X1131033Y709948D01*
Y715948D01*
X1130621Y719081D01*
X1129412Y722000D01*
X1127488Y724507D01*
X1124982Y726430D01*
X1122063Y727639D01*
X1118930Y728052D01*
D02*
G37*
G36*
X1071430D02*
X1068297Y727639D01*
X1065378Y726430D01*
X1062871Y724507D01*
X1060948Y722000D01*
X1059739Y719081D01*
X1059326Y715948D01*
Y709948D01*
X1059739Y706815D01*
X1060948Y703896D01*
X1062871Y701389D01*
X1065378Y699466D01*
X1068297Y698257D01*
X1071430Y697844D01*
X1074562Y698257D01*
X1077482Y699466D01*
X1079988Y701389D01*
X1081912Y703896D01*
X1083121Y706815D01*
X1083533Y709948D01*
Y715948D01*
X1083121Y719081D01*
X1081912Y722000D01*
X1079988Y724507D01*
X1077482Y726430D01*
X1074562Y727639D01*
X1071430Y728052D01*
D02*
G37*
G36*
X1036430D02*
X1033297Y727639D01*
X1030378Y726430D01*
X1027871Y724507D01*
X1025948Y722000D01*
X1024738Y719081D01*
X1024326Y715948D01*
Y709948D01*
X1024738Y706815D01*
X1025948Y703896D01*
X1027871Y701389D01*
X1030378Y699466D01*
X1033297Y698257D01*
X1036430Y697844D01*
X1039562Y698257D01*
X1042481Y699466D01*
X1044988Y701389D01*
X1046912Y703896D01*
X1048121Y706815D01*
X1048533Y709948D01*
Y715948D01*
X1048121Y719081D01*
X1046912Y722000D01*
X1044988Y724507D01*
X1042481Y726430D01*
X1039562Y727639D01*
X1036430Y728052D01*
D02*
G37*
G36*
X1001430D02*
X998297Y727639D01*
X995378Y726430D01*
X992871Y724507D01*
X990948Y722000D01*
X989739Y719081D01*
X989326Y715948D01*
Y709948D01*
X989739Y706815D01*
X990948Y703896D01*
X992871Y701389D01*
X995378Y699466D01*
X998297Y698257D01*
X1001430Y697844D01*
X1004563Y698257D01*
X1007482Y699466D01*
X1009988Y701389D01*
X1011912Y703896D01*
X1013121Y706815D01*
X1013533Y709948D01*
Y715948D01*
X1013121Y719081D01*
X1011912Y722000D01*
X1009988Y724507D01*
X1007482Y726430D01*
X1004563Y727639D01*
X1001430Y728052D01*
D02*
G37*
G36*
X966430D02*
X963297Y727639D01*
X960378Y726430D01*
X957871Y724507D01*
X955948Y722000D01*
X954739Y719081D01*
X954326Y715948D01*
Y709948D01*
X954739Y706815D01*
X955948Y703896D01*
X957871Y701389D01*
X960378Y699466D01*
X963297Y698257D01*
X966430Y697844D01*
X969562Y698257D01*
X972482Y699466D01*
X974988Y701389D01*
X976912Y703896D01*
X978121Y706815D01*
X978533Y709948D01*
Y715948D01*
X978121Y719081D01*
X976912Y722000D01*
X974988Y724507D01*
X972482Y726430D01*
X969562Y727639D01*
X966430Y728052D01*
D02*
G37*
G36*
X920808Y727544D02*
X917675Y727131D01*
X914756Y725922D01*
X912249Y723998D01*
X910326Y721492D01*
X909117Y718573D01*
X908704Y715440D01*
Y709440D01*
X909117Y706307D01*
X910326Y703388D01*
X912249Y700882D01*
X914756Y698958D01*
X917675Y697749D01*
X920808Y697337D01*
X923940Y697749D01*
X926860Y698958D01*
X929366Y700882D01*
X931290Y703388D01*
X932499Y706307D01*
X932911Y709440D01*
Y715440D01*
X932499Y718573D01*
X931290Y721492D01*
X929366Y723998D01*
X926860Y725922D01*
X923940Y727131D01*
X920808Y727544D01*
D02*
G37*
G36*
X885808D02*
X882675Y727131D01*
X879756Y725922D01*
X877249Y723998D01*
X875326Y721492D01*
X874117Y718573D01*
X873704Y715440D01*
Y709440D01*
X874117Y706307D01*
X875326Y703388D01*
X877249Y700882D01*
X879756Y698958D01*
X882675Y697749D01*
X885808Y697337D01*
X888940Y697749D01*
X891859Y698958D01*
X894366Y700882D01*
X896290Y703388D01*
X897499Y706307D01*
X897911Y709440D01*
Y715440D01*
X897499Y718573D01*
X896290Y721492D01*
X894366Y723998D01*
X891859Y725922D01*
X888940Y727131D01*
X885808Y727544D01*
D02*
G37*
G36*
X850808D02*
X847675Y727131D01*
X844756Y725922D01*
X842249Y723998D01*
X840326Y721492D01*
X839117Y718573D01*
X838704Y715440D01*
Y709440D01*
X839117Y706307D01*
X840326Y703388D01*
X842249Y700882D01*
X844756Y698958D01*
X847675Y697749D01*
X850808Y697337D01*
X853941Y697749D01*
X856860Y698958D01*
X859367Y700882D01*
X861290Y703388D01*
X862499Y706307D01*
X862912Y709440D01*
Y715440D01*
X862499Y718573D01*
X861290Y721492D01*
X859367Y723998D01*
X856860Y725922D01*
X853941Y727131D01*
X850808Y727544D01*
D02*
G37*
G36*
X815808D02*
X812675Y727131D01*
X809756Y725922D01*
X807249Y723998D01*
X805326Y721492D01*
X804117Y718573D01*
X803704Y715440D01*
Y709440D01*
X804117Y706307D01*
X805326Y703388D01*
X807249Y700882D01*
X809756Y698958D01*
X812675Y697749D01*
X815808Y697337D01*
X818940Y697749D01*
X821860Y698958D01*
X824366Y700882D01*
X826290Y703388D01*
X827499Y706307D01*
X827911Y709440D01*
Y715440D01*
X827499Y718573D01*
X826290Y721492D01*
X824366Y723998D01*
X821860Y725922D01*
X818940Y727131D01*
X815808Y727544D01*
D02*
G37*
G36*
X768308D02*
X765175Y727131D01*
X762256Y725922D01*
X759749Y723998D01*
X757826Y721492D01*
X756617Y718573D01*
X756204Y715440D01*
Y709440D01*
X756617Y706307D01*
X757826Y703388D01*
X759749Y700882D01*
X762256Y698958D01*
X765175Y697749D01*
X768308Y697337D01*
X771440Y697749D01*
X774360Y698958D01*
X776866Y700882D01*
X778790Y703388D01*
X779999Y706307D01*
X780411Y709440D01*
Y715440D01*
X779999Y718573D01*
X778790Y721492D01*
X776866Y723998D01*
X774360Y725922D01*
X771440Y727131D01*
X768308Y727544D01*
D02*
G37*
G36*
X733308D02*
X730175Y727131D01*
X727256Y725922D01*
X724749Y723998D01*
X722826Y721492D01*
X721616Y718573D01*
X721204Y715440D01*
Y709440D01*
X721616Y706307D01*
X722826Y703388D01*
X724749Y700882D01*
X727256Y698958D01*
X730175Y697749D01*
X733308Y697337D01*
X736440Y697749D01*
X739359Y698958D01*
X741866Y700882D01*
X743790Y703388D01*
X744999Y706307D01*
X745411Y709440D01*
Y715440D01*
X744999Y718573D01*
X743790Y721492D01*
X741866Y723998D01*
X739359Y725922D01*
X736440Y727131D01*
X733308Y727544D01*
D02*
G37*
G36*
X698308D02*
X695175Y727131D01*
X692256Y725922D01*
X689749Y723998D01*
X687826Y721492D01*
X686617Y718573D01*
X686204Y715440D01*
Y709440D01*
X686617Y706307D01*
X687826Y703388D01*
X689749Y700882D01*
X692256Y698958D01*
X695175Y697749D01*
X698308Y697337D01*
X701441Y697749D01*
X704360Y698958D01*
X706866Y700882D01*
X708790Y703388D01*
X709999Y706307D01*
X710411Y709440D01*
Y715440D01*
X709999Y718573D01*
X708790Y721492D01*
X706866Y723998D01*
X704360Y725922D01*
X701441Y727131D01*
X698308Y727544D01*
D02*
G37*
G36*
X663308D02*
X660175Y727131D01*
X657256Y725922D01*
X654749Y723998D01*
X652826Y721492D01*
X651617Y718573D01*
X651204Y715440D01*
Y709440D01*
X651617Y706307D01*
X652826Y703388D01*
X654749Y700882D01*
X657256Y698958D01*
X660175Y697749D01*
X663308Y697337D01*
X666440Y697749D01*
X669360Y698958D01*
X671866Y700882D01*
X673790Y703388D01*
X674999Y706307D01*
X675411Y709440D01*
Y715440D01*
X674999Y718573D01*
X673790Y721492D01*
X671866Y723998D01*
X669360Y725922D01*
X666440Y727131D01*
X663308Y727544D01*
D02*
G37*
G36*
X615808D02*
X612675Y727131D01*
X609756Y725922D01*
X607249Y723998D01*
X605326Y721492D01*
X604117Y718573D01*
X603704Y715440D01*
Y709440D01*
X604117Y706307D01*
X605326Y703388D01*
X607249Y700882D01*
X609756Y698958D01*
X612675Y697749D01*
X615808Y697337D01*
X618940Y697749D01*
X621859Y698958D01*
X624366Y700882D01*
X626290Y703388D01*
X627499Y706307D01*
X627911Y709440D01*
Y715440D01*
X627499Y718573D01*
X626290Y721492D01*
X624366Y723998D01*
X621859Y725922D01*
X618940Y727131D01*
X615808Y727544D01*
D02*
G37*
G36*
X580808D02*
X577675Y727131D01*
X574756Y725922D01*
X572249Y723998D01*
X570326Y721492D01*
X569117Y718573D01*
X568704Y715440D01*
Y709440D01*
X569117Y706307D01*
X570326Y703388D01*
X572249Y700882D01*
X574756Y698958D01*
X577675Y697749D01*
X580808Y697337D01*
X583941Y697749D01*
X586860Y698958D01*
X589366Y700882D01*
X591290Y703388D01*
X592499Y706307D01*
X592911Y709440D01*
Y715440D01*
X592499Y718573D01*
X591290Y721492D01*
X589366Y723998D01*
X586860Y725922D01*
X583941Y727131D01*
X580808Y727544D01*
D02*
G37*
G36*
X545808D02*
X542675Y727131D01*
X539756Y725922D01*
X537249Y723998D01*
X535326Y721492D01*
X534117Y718573D01*
X533704Y715440D01*
Y709440D01*
X534117Y706307D01*
X535326Y703388D01*
X537249Y700882D01*
X539756Y698958D01*
X542675Y697749D01*
X545808Y697337D01*
X548940Y697749D01*
X551860Y698958D01*
X554366Y700882D01*
X556290Y703388D01*
X557499Y706307D01*
X557911Y709440D01*
Y715440D01*
X557499Y718573D01*
X556290Y721492D01*
X554366Y723998D01*
X551860Y725922D01*
X548940Y727131D01*
X545808Y727544D01*
D02*
G37*
G36*
X510808D02*
X507675Y727131D01*
X504756Y725922D01*
X502249Y723998D01*
X500326Y721492D01*
X499117Y718573D01*
X498704Y715440D01*
Y709440D01*
X499117Y706307D01*
X500326Y703388D01*
X502249Y700882D01*
X504756Y698958D01*
X507675Y697749D01*
X510808Y697337D01*
X513940Y697749D01*
X516859Y698958D01*
X519366Y700882D01*
X521290Y703388D01*
X522499Y706307D01*
X522911Y709440D01*
Y715440D01*
X522499Y718573D01*
X521290Y721492D01*
X519366Y723998D01*
X516859Y725922D01*
X513940Y727131D01*
X510808Y727544D01*
D02*
G37*
G36*
X265308Y708622D02*
X262828Y708296D01*
X260517Y707338D01*
X258532Y705816D01*
X257010Y703831D01*
X256052Y701520D01*
X255726Y699040D01*
X256052Y696560D01*
X257010Y694249D01*
X258532Y692265D01*
X260517Y690742D01*
X262828Y689785D01*
X265308Y689458D01*
X267788Y689785D01*
X270099Y690742D01*
X272083Y692265D01*
X273606Y694249D01*
X274563Y696560D01*
X274890Y699040D01*
X274563Y701520D01*
X273606Y703831D01*
X272083Y705816D01*
X270099Y707338D01*
X267788Y708296D01*
X265308Y708622D01*
D02*
G37*
G36*
X239908D02*
X237428Y708296D01*
X235117Y707338D01*
X233132Y705816D01*
X231609Y703831D01*
X230652Y701520D01*
X230326Y699040D01*
X230652Y696560D01*
X231609Y694249D01*
X233132Y692265D01*
X235117Y690742D01*
X237428Y689785D01*
X239908Y689458D01*
X242388Y689785D01*
X244699Y690742D01*
X246683Y692265D01*
X248206Y694249D01*
X249163Y696560D01*
X249490Y699040D01*
X249163Y701520D01*
X248206Y703831D01*
X246683Y705816D01*
X244699Y707338D01*
X242388Y708296D01*
X239908Y708622D01*
D02*
G37*
G36*
X214508D02*
X212028Y708296D01*
X209717Y707338D01*
X207732Y705816D01*
X206210Y703831D01*
X205252Y701520D01*
X204926Y699040D01*
X205252Y696560D01*
X206210Y694249D01*
X207732Y692265D01*
X209717Y690742D01*
X212028Y689785D01*
X214508Y689458D01*
X216988Y689785D01*
X219299Y690742D01*
X221283Y692265D01*
X222806Y694249D01*
X223763Y696560D01*
X224090Y699040D01*
X223763Y701520D01*
X222806Y703831D01*
X221283Y705816D01*
X219299Y707338D01*
X216988Y708296D01*
X214508Y708622D01*
D02*
G37*
G36*
X189108D02*
X186628Y708296D01*
X184317Y707338D01*
X182332Y705816D01*
X180809Y703831D01*
X179852Y701520D01*
X179526Y699040D01*
X179852Y696560D01*
X180809Y694249D01*
X182332Y692265D01*
X184317Y690742D01*
X186628Y689785D01*
X189108Y689458D01*
X191588Y689785D01*
X193899Y690742D01*
X195883Y692265D01*
X197406Y694249D01*
X198363Y696560D01*
X198690Y699040D01*
X198363Y701520D01*
X197406Y703831D01*
X195883Y705816D01*
X193899Y707338D01*
X191588Y708296D01*
X189108Y708622D01*
D02*
G37*
G36*
X41986Y664340D02*
Y655650D01*
X50675D01*
X50497Y657001D01*
X49486Y659444D01*
X47877Y661541D01*
X45779Y663150D01*
X43337Y664162D01*
X41986Y664340D01*
D02*
G37*
G36*
X39446D02*
X38095Y664162D01*
X35653Y663150D01*
X33555Y661541D01*
X31946Y659444D01*
X30934Y657001D01*
X30757Y655650D01*
X39446D01*
Y664340D01*
D02*
G37*
G36*
X355638Y654180D02*
Y645490D01*
X364327D01*
X364150Y646841D01*
X363138Y649284D01*
X361529Y651381D01*
X359431Y652990D01*
X356989Y654002D01*
X355638Y654180D01*
D02*
G37*
G36*
X353098D02*
X351747Y654002D01*
X349305Y652990D01*
X347207Y651381D01*
X345598Y649284D01*
X344586Y646841D01*
X344409Y645490D01*
X353098D01*
Y654180D01*
D02*
G37*
G36*
X75616Y663880D02*
X56616D01*
Y644880D01*
X75616D01*
Y663880D01*
D02*
G37*
G36*
X50675Y653110D02*
X41986D01*
Y644421D01*
X43337Y644599D01*
X45779Y645610D01*
X47877Y647220D01*
X49486Y649317D01*
X50497Y651759D01*
X50675Y653110D01*
D02*
G37*
G36*
X39446D02*
X30757D01*
X30934Y651759D01*
X31946Y649317D01*
X33555Y647220D01*
X35653Y645610D01*
X38095Y644599D01*
X39446Y644421D01*
Y653110D01*
D02*
G37*
G36*
X364327Y642950D02*
X355638D01*
Y634261D01*
X356989Y634439D01*
X359431Y635450D01*
X361529Y637060D01*
X363138Y639157D01*
X364150Y641599D01*
X364327Y642950D01*
D02*
G37*
G36*
X353098D02*
X344409D01*
X344586Y641599D01*
X345598Y639157D01*
X347207Y637060D01*
X349305Y635450D01*
X351747Y634439D01*
X353098Y634261D01*
Y642950D01*
D02*
G37*
G36*
X41986Y638940D02*
Y630250D01*
X50675D01*
X50497Y631601D01*
X49486Y634044D01*
X47877Y636141D01*
X45779Y637750D01*
X43337Y638762D01*
X41986Y638940D01*
D02*
G37*
G36*
X39446D02*
X38095Y638762D01*
X35653Y637750D01*
X33555Y636141D01*
X31946Y634044D01*
X30934Y631601D01*
X30757Y630250D01*
X39446D01*
Y638940D01*
D02*
G37*
G36*
X75616Y638480D02*
X56616D01*
Y619480D01*
X75616D01*
Y638480D01*
D02*
G37*
G36*
X50675Y627710D02*
X41986D01*
Y619021D01*
X43337Y619199D01*
X45779Y620210D01*
X47877Y621820D01*
X49486Y623917D01*
X50497Y626359D01*
X50675Y627710D01*
D02*
G37*
G36*
X39446D02*
X30757D01*
X30934Y626359D01*
X31946Y623917D01*
X33555Y621820D01*
X35653Y620210D01*
X38095Y619199D01*
X39446Y619021D01*
Y627710D01*
D02*
G37*
G36*
X799792Y631393D02*
X797299Y631064D01*
X794977Y630102D01*
X792982Y628572D01*
X791452Y626577D01*
X790490Y624255D01*
X790161Y621762D01*
X790490Y619270D01*
X791452Y616947D01*
X792982Y614953D01*
X794977Y613422D01*
X797299Y612460D01*
X799792Y612132D01*
X802284Y612460D01*
X804607Y613422D01*
X806601Y614953D01*
X808132Y616947D01*
X809094Y619270D01*
X809422Y621762D01*
X809094Y624255D01*
X808132Y626577D01*
X806601Y628572D01*
X804607Y630102D01*
X802284Y631064D01*
X799792Y631393D01*
D02*
G37*
G36*
X647392D02*
X644899Y631064D01*
X642577Y630102D01*
X640582Y628572D01*
X639052Y626577D01*
X638089Y624255D01*
X637761Y621762D01*
X638089Y619270D01*
X639052Y616947D01*
X640582Y614953D01*
X642577Y613422D01*
X644899Y612460D01*
X647392Y612132D01*
X649884Y612460D01*
X652207Y613422D01*
X654202Y614953D01*
X655732Y616947D01*
X656694Y619270D01*
X657022Y621762D01*
X656694Y624255D01*
X655732Y626577D01*
X654202Y628572D01*
X652207Y630102D01*
X649884Y631064D01*
X647392Y631393D01*
D02*
G37*
G36*
X494992D02*
X492499Y631064D01*
X490177Y630102D01*
X488182Y628572D01*
X486652Y626577D01*
X485690Y624255D01*
X485361Y621762D01*
X485690Y619270D01*
X486652Y616947D01*
X488182Y614953D01*
X490177Y613422D01*
X492499Y612460D01*
X494992Y612132D01*
X497484Y612460D01*
X499807Y613422D01*
X501801Y614953D01*
X503332Y616947D01*
X504294Y619270D01*
X504622Y621762D01*
X504294Y624255D01*
X503332Y626577D01*
X501801Y628572D01*
X499807Y630102D01*
X497484Y631064D01*
X494992Y631393D01*
D02*
G37*
G36*
X1376972Y686079D02*
X636308D01*
X634481Y685838D01*
X632778Y685133D01*
X631316Y684011D01*
X616999Y669694D01*
X615877Y668232D01*
X615172Y666529D01*
X614931Y664702D01*
Y628245D01*
X613652Y626577D01*
X612690Y624255D01*
X612361Y621762D01*
X612690Y619270D01*
X613652Y616947D01*
X615182Y614953D01*
X617177Y613422D01*
X619499Y612460D01*
X621992Y612132D01*
X624484Y612460D01*
X626807Y613422D01*
X628801Y614953D01*
X630332Y616947D01*
X631294Y619270D01*
X631622Y621762D01*
X631294Y624255D01*
X630332Y626577D01*
X629052Y628246D01*
Y661777D01*
X639232Y671958D01*
X767331D01*
Y628245D01*
X766052Y626577D01*
X765089Y624255D01*
X764761Y621762D01*
X765089Y619270D01*
X766052Y616947D01*
X767582Y614953D01*
X769577Y613422D01*
X771899Y612460D01*
X774392Y612132D01*
X776884Y612460D01*
X779207Y613422D01*
X781201Y614953D01*
X782732Y616947D01*
X783694Y619270D01*
X784022Y621762D01*
X783694Y624255D01*
X782732Y626577D01*
X781452Y628246D01*
Y671958D01*
X919731D01*
Y628245D01*
X918452Y626577D01*
X917489Y624255D01*
X917161Y621762D01*
X917489Y619270D01*
X918452Y616947D01*
X919982Y614953D01*
X921977Y613422D01*
X924299Y612460D01*
X926792Y612132D01*
X929284Y612460D01*
X931607Y613422D01*
X933602Y614953D01*
X935132Y616947D01*
X936094Y619270D01*
X936422Y621762D01*
X936094Y624255D01*
X935132Y626577D01*
X933852Y628246D01*
Y671958D01*
X1072047D01*
Y628245D01*
X1070768Y626577D01*
X1069806Y624255D01*
X1069477Y621762D01*
X1069806Y619269D01*
X1070768Y616947D01*
X1072298Y614952D01*
X1074293Y613422D01*
X1076615Y612460D01*
X1079108Y612132D01*
X1081600Y612460D01*
X1083923Y613422D01*
X1085918Y614952D01*
X1087448Y616947D01*
X1088410Y619269D01*
X1088738Y621762D01*
X1088410Y624255D01*
X1087448Y626577D01*
X1086168Y628245D01*
Y671958D01*
X1224447D01*
Y628245D01*
X1223168Y626577D01*
X1222206Y624255D01*
X1221877Y621762D01*
X1222206Y619269D01*
X1223168Y616947D01*
X1224698Y614952D01*
X1226693Y613422D01*
X1229015Y612460D01*
X1231508Y612132D01*
X1234000Y612460D01*
X1236323Y613422D01*
X1238317Y614952D01*
X1239848Y616947D01*
X1240810Y619269D01*
X1241138Y621762D01*
X1240810Y624255D01*
X1239848Y626577D01*
X1238568Y628245D01*
Y671958D01*
X1374048D01*
X1376847Y669158D01*
Y628245D01*
X1375568Y626577D01*
X1374606Y624255D01*
X1374277Y621762D01*
X1374606Y619269D01*
X1375568Y616947D01*
X1377098Y614952D01*
X1379093Y613422D01*
X1381415Y612460D01*
X1383908Y612132D01*
X1386400Y612460D01*
X1388723Y613422D01*
X1390717Y614952D01*
X1392248Y616947D01*
X1393210Y619269D01*
X1393538Y621762D01*
X1393210Y624255D01*
X1392248Y626577D01*
X1390968Y628245D01*
Y672083D01*
X1390728Y673910D01*
X1390022Y675613D01*
X1388900Y677075D01*
X1381964Y684011D01*
X1380502Y685133D01*
X1378799Y685838D01*
X1376972Y686079D01*
D02*
G37*
G36*
X1256908Y631392D02*
X1254415Y631064D01*
X1252093Y630102D01*
X1250098Y628572D01*
X1248568Y626577D01*
X1247606Y624255D01*
X1247277Y621762D01*
X1247606Y619269D01*
X1248568Y616947D01*
X1250098Y614952D01*
X1252093Y613422D01*
X1254415Y612460D01*
X1256908Y612132D01*
X1259400Y612460D01*
X1261723Y613422D01*
X1263717Y614952D01*
X1265248Y616947D01*
X1266210Y619269D01*
X1266538Y621762D01*
X1266210Y624255D01*
X1265248Y626577D01*
X1263717Y628572D01*
X1261723Y630102D01*
X1259400Y631064D01*
X1256908Y631392D01*
D02*
G37*
G36*
X1104508D02*
X1102015Y631064D01*
X1099693Y630102D01*
X1097698Y628572D01*
X1096168Y626577D01*
X1095206Y624255D01*
X1094877Y621762D01*
X1095206Y619269D01*
X1096168Y616947D01*
X1097698Y614952D01*
X1099693Y613422D01*
X1102015Y612460D01*
X1104508Y612132D01*
X1107000Y612460D01*
X1109323Y613422D01*
X1111318Y614952D01*
X1112848Y616947D01*
X1113810Y619269D01*
X1114138Y621762D01*
X1113810Y624255D01*
X1112848Y626577D01*
X1111318Y628572D01*
X1109323Y630102D01*
X1107000Y631064D01*
X1104508Y631392D01*
D02*
G37*
G36*
X952108D02*
X949615Y631064D01*
X947293Y630102D01*
X945298Y628572D01*
X943768Y626577D01*
X942805Y624255D01*
X942477Y621762D01*
X942805Y619269D01*
X943768Y616947D01*
X945298Y614952D01*
X947293Y613422D01*
X949615Y612460D01*
X952108Y612132D01*
X954600Y612460D01*
X956923Y613422D01*
X958917Y614952D01*
X960448Y616947D01*
X961410Y619269D01*
X961738Y621762D01*
X961410Y624255D01*
X960448Y626577D01*
X958917Y628572D01*
X956923Y630102D01*
X954600Y631064D01*
X952108Y631392D01*
D02*
G37*
G36*
X41986Y613540D02*
Y604850D01*
X50675D01*
X50497Y606201D01*
X49486Y608643D01*
X47877Y610741D01*
X45779Y612350D01*
X43337Y613362D01*
X41986Y613540D01*
D02*
G37*
G36*
X39446D02*
X38095Y613362D01*
X35653Y612350D01*
X33555Y610741D01*
X31946Y608643D01*
X30934Y606201D01*
X30757Y604850D01*
X39446D01*
Y613540D01*
D02*
G37*
G36*
X928062Y606370D02*
Y597632D01*
X936800D01*
X936620Y598996D01*
X935604Y601450D01*
X933987Y603557D01*
X931879Y605174D01*
X929425Y606191D01*
X928062Y606370D01*
D02*
G37*
G36*
X925522D02*
X924158Y606191D01*
X921704Y605174D01*
X919597Y603557D01*
X917980Y601450D01*
X916963Y598996D01*
X916784Y597632D01*
X925522D01*
Y606370D01*
D02*
G37*
G36*
X775662D02*
Y597632D01*
X784400D01*
X784220Y598996D01*
X783204Y601450D01*
X781587Y603557D01*
X779479Y605174D01*
X777025Y606191D01*
X775662Y606370D01*
D02*
G37*
G36*
X773122D02*
X771758Y606191D01*
X769304Y605174D01*
X767197Y603557D01*
X765580Y601450D01*
X764563Y598996D01*
X764384Y597632D01*
X773122D01*
Y606370D01*
D02*
G37*
G36*
X623262D02*
Y597632D01*
X632000D01*
X631820Y598996D01*
X630804Y601450D01*
X629187Y603557D01*
X627079Y605174D01*
X624625Y606191D01*
X623262Y606370D01*
D02*
G37*
G36*
X620722D02*
X619358Y606191D01*
X616904Y605174D01*
X614797Y603557D01*
X613180Y601450D01*
X612163Y598996D01*
X611984Y597632D01*
X620722D01*
Y606370D01*
D02*
G37*
G36*
X1385178Y606370D02*
Y597632D01*
X1393916D01*
X1393736Y598996D01*
X1392720Y601450D01*
X1391103Y603557D01*
X1388995Y605174D01*
X1386541Y606190D01*
X1385178Y606370D01*
D02*
G37*
G36*
X1382638D02*
X1381274Y606190D01*
X1378820Y605174D01*
X1376713Y603557D01*
X1375096Y601450D01*
X1374079Y598996D01*
X1373900Y597632D01*
X1382638D01*
Y606370D01*
D02*
G37*
G36*
X1232778D02*
Y597632D01*
X1241516D01*
X1241336Y598996D01*
X1240320Y601450D01*
X1238703Y603557D01*
X1236595Y605174D01*
X1234141Y606190D01*
X1232778Y606370D01*
D02*
G37*
G36*
X1230238D02*
X1228874Y606190D01*
X1226420Y605174D01*
X1224313Y603557D01*
X1222696Y601450D01*
X1221679Y598996D01*
X1221500Y597632D01*
X1230238D01*
Y606370D01*
D02*
G37*
G36*
X1080378D02*
Y597632D01*
X1089116D01*
X1088936Y598996D01*
X1087920Y601450D01*
X1086303Y603557D01*
X1084195Y605174D01*
X1081741Y606190D01*
X1080378Y606370D01*
D02*
G37*
G36*
X1077838D02*
X1076474Y606190D01*
X1074020Y605174D01*
X1071913Y603557D01*
X1070296Y601450D01*
X1069279Y598996D01*
X1069100Y597632D01*
X1077838D01*
Y606370D01*
D02*
G37*
G36*
X75616Y613080D02*
X56616D01*
Y594080D01*
X75616D01*
Y613080D01*
D02*
G37*
G36*
X50675Y602310D02*
X41986D01*
Y593621D01*
X43337Y593799D01*
X45779Y594810D01*
X47877Y596420D01*
X49486Y598517D01*
X50497Y600959D01*
X50675Y602310D01*
D02*
G37*
G36*
X39446D02*
X30757D01*
X30934Y600959D01*
X31946Y598517D01*
X33555Y596420D01*
X35653Y594810D01*
X38095Y593799D01*
X39446Y593621D01*
Y602310D01*
D02*
G37*
G36*
X277156Y616303D02*
X273982Y615885D01*
X271024Y614660D01*
X268484Y612711D01*
X266534Y610171D01*
X265309Y607213D01*
X264891Y604038D01*
X265309Y600864D01*
X266534Y597906D01*
X268484Y595366D01*
X271024Y593417D01*
X273982Y592191D01*
X277156Y591773D01*
X280331Y592191D01*
X283288Y593417D01*
X285829Y595366D01*
X287778Y597906D01*
X289003Y600864D01*
X289421Y604038D01*
X289003Y607213D01*
X287778Y610171D01*
X285829Y612711D01*
X283288Y614660D01*
X280331Y615885D01*
X277156Y616303D01*
D02*
G37*
G36*
X799792Y605993D02*
X797299Y605664D01*
X794977Y604702D01*
X792982Y603172D01*
X791452Y601177D01*
X790490Y598855D01*
X790161Y596362D01*
X790490Y593870D01*
X791452Y591547D01*
X792982Y589552D01*
X794977Y588022D01*
X797299Y587060D01*
X799792Y586732D01*
X802284Y587060D01*
X804607Y588022D01*
X806601Y589552D01*
X808132Y591547D01*
X809094Y593870D01*
X809422Y596362D01*
X809094Y598855D01*
X808132Y601177D01*
X806601Y603172D01*
X804607Y604702D01*
X802284Y605664D01*
X799792Y605993D01*
D02*
G37*
G36*
X647392D02*
X644899Y605664D01*
X642577Y604702D01*
X640582Y603172D01*
X639052Y601177D01*
X638089Y598855D01*
X637761Y596362D01*
X638089Y593870D01*
X639052Y591547D01*
X640582Y589552D01*
X642577Y588022D01*
X644899Y587060D01*
X647392Y586732D01*
X649884Y587060D01*
X652207Y588022D01*
X654202Y589552D01*
X655732Y591547D01*
X656694Y593870D01*
X657022Y596362D01*
X656694Y598855D01*
X655732Y601177D01*
X654202Y603172D01*
X652207Y604702D01*
X649884Y605664D01*
X647392Y605993D01*
D02*
G37*
G36*
X494992D02*
X492499Y605664D01*
X490177Y604702D01*
X488182Y603172D01*
X486652Y601177D01*
X485690Y598855D01*
X485361Y596362D01*
X485690Y593870D01*
X486652Y591547D01*
X488182Y589552D01*
X490177Y588022D01*
X492499Y587060D01*
X494992Y586732D01*
X497484Y587060D01*
X499807Y588022D01*
X501801Y589552D01*
X503332Y591547D01*
X504294Y593870D01*
X504622Y596362D01*
X504294Y598855D01*
X503332Y601177D01*
X501801Y603172D01*
X499807Y604702D01*
X497484Y605664D01*
X494992Y605993D01*
D02*
G37*
G36*
X1256908Y605992D02*
X1254415Y605664D01*
X1252093Y604702D01*
X1250098Y603172D01*
X1248568Y601177D01*
X1247606Y598855D01*
X1247277Y596362D01*
X1247606Y593870D01*
X1248568Y591547D01*
X1250098Y589552D01*
X1252093Y588022D01*
X1254415Y587060D01*
X1256908Y586732D01*
X1259400Y587060D01*
X1261723Y588022D01*
X1263717Y589552D01*
X1265248Y591547D01*
X1266210Y593870D01*
X1266538Y596362D01*
X1266210Y598855D01*
X1265248Y601177D01*
X1263717Y603172D01*
X1261723Y604702D01*
X1259400Y605664D01*
X1256908Y605992D01*
D02*
G37*
G36*
X1104508D02*
X1102015Y605664D01*
X1099693Y604702D01*
X1097698Y603172D01*
X1096168Y601177D01*
X1095206Y598855D01*
X1094877Y596362D01*
X1095206Y593870D01*
X1096168Y591547D01*
X1097698Y589552D01*
X1099693Y588022D01*
X1102015Y587060D01*
X1104508Y586732D01*
X1107000Y587060D01*
X1109323Y588022D01*
X1111318Y589552D01*
X1112848Y591547D01*
X1113810Y593870D01*
X1114138Y596362D01*
X1113810Y598855D01*
X1112848Y601177D01*
X1111318Y603172D01*
X1109323Y604702D01*
X1107000Y605664D01*
X1104508Y605992D01*
D02*
G37*
G36*
X952108D02*
X949615Y605664D01*
X947293Y604702D01*
X945298Y603172D01*
X943768Y601177D01*
X942805Y598855D01*
X942477Y596362D01*
X942805Y593870D01*
X943768Y591547D01*
X945298Y589552D01*
X947293Y588022D01*
X949615Y587060D01*
X952108Y586732D01*
X954600Y587060D01*
X956923Y588022D01*
X958917Y589552D01*
X960448Y591547D01*
X961410Y593870D01*
X961738Y596362D01*
X961410Y598855D01*
X960448Y601177D01*
X958917Y603172D01*
X956923Y604702D01*
X954600Y605664D01*
X952108Y605992D01*
D02*
G37*
G36*
X936800Y595092D02*
X928062D01*
Y586354D01*
X929425Y586534D01*
X931879Y587550D01*
X933987Y589167D01*
X935604Y591275D01*
X936620Y593729D01*
X936800Y595092D01*
D02*
G37*
G36*
X784400D02*
X775662D01*
Y586354D01*
X777025Y586534D01*
X779479Y587550D01*
X781587Y589167D01*
X783204Y591275D01*
X784220Y593729D01*
X784400Y595092D01*
D02*
G37*
G36*
X632000D02*
X623262D01*
Y586354D01*
X624625Y586534D01*
X627079Y587550D01*
X629187Y589167D01*
X630804Y591275D01*
X631820Y593729D01*
X632000Y595092D01*
D02*
G37*
G36*
X1393916Y595092D02*
X1385178D01*
Y586354D01*
X1386541Y586534D01*
X1388995Y587550D01*
X1391103Y589167D01*
X1392720Y591274D01*
X1393736Y593728D01*
X1393916Y595092D01*
D02*
G37*
G36*
X1370978Y667690D02*
X1351978D01*
Y648690D01*
X1354418D01*
Y593392D01*
X1354658Y591564D01*
X1355363Y589862D01*
X1356486Y588399D01*
X1374331Y570554D01*
X1374606Y568470D01*
X1375568Y566147D01*
X1377098Y564152D01*
X1379093Y562622D01*
X1381415Y561660D01*
X1383908Y561332D01*
X1386400Y561660D01*
X1388723Y562622D01*
X1390717Y564152D01*
X1392248Y566147D01*
X1393210Y568470D01*
X1393538Y570962D01*
X1393210Y573455D01*
X1392248Y575777D01*
X1390717Y577772D01*
X1388723Y579302D01*
X1386400Y580264D01*
X1384316Y580539D01*
X1378579Y586275D01*
X1379299Y587352D01*
X1381274Y586534D01*
X1382638Y586354D01*
Y595092D01*
X1373900D01*
X1374079Y593728D01*
X1374898Y591753D01*
X1373821Y591034D01*
X1368538Y596316D01*
Y648690D01*
X1370978D01*
Y667690D01*
D02*
G37*
G36*
X1241516Y595092D02*
X1232778D01*
Y586354D01*
X1234141Y586534D01*
X1236595Y587550D01*
X1238703Y589167D01*
X1240320Y591274D01*
X1241336Y593728D01*
X1241516Y595092D01*
D02*
G37*
G36*
X1218832Y667944D02*
X1199832D01*
Y648944D01*
X1202272D01*
Y593138D01*
X1202512Y591310D01*
X1203217Y589608D01*
X1204340Y588145D01*
X1221931Y570554D01*
X1222206Y568470D01*
X1223168Y566147D01*
X1224698Y564152D01*
X1226693Y562622D01*
X1229015Y561660D01*
X1231508Y561332D01*
X1234000Y561660D01*
X1236323Y562622D01*
X1238317Y564152D01*
X1239848Y566147D01*
X1240810Y568470D01*
X1241138Y570962D01*
X1240810Y573455D01*
X1239848Y575777D01*
X1238317Y577772D01*
X1236323Y579302D01*
X1234000Y580264D01*
X1231916Y580539D01*
X1226179Y586275D01*
X1226899Y587352D01*
X1228874Y586534D01*
X1230238Y586354D01*
Y595092D01*
X1221500D01*
X1221679Y593728D01*
X1222498Y591753D01*
X1221421Y591034D01*
X1216392Y596062D01*
Y648944D01*
X1218832D01*
Y667944D01*
D02*
G37*
G36*
X1089116Y595092D02*
X1080378D01*
Y586354D01*
X1081741Y586534D01*
X1084195Y587550D01*
X1086303Y589167D01*
X1087920Y591274D01*
X1088936Y593728D01*
X1089116Y595092D01*
D02*
G37*
G36*
X1065924Y668198D02*
X1046924D01*
Y649198D01*
X1049364D01*
Y593646D01*
X1049604Y591818D01*
X1050310Y590116D01*
X1051432Y588653D01*
X1069531Y570554D01*
X1069806Y568470D01*
X1070768Y566147D01*
X1072298Y564152D01*
X1074293Y562622D01*
X1076615Y561660D01*
X1079108Y561332D01*
X1081600Y561660D01*
X1083923Y562622D01*
X1085918Y564152D01*
X1087448Y566147D01*
X1088410Y568470D01*
X1088738Y570962D01*
X1088410Y573455D01*
X1087448Y575777D01*
X1085918Y577772D01*
X1083923Y579302D01*
X1081600Y580264D01*
X1079516Y580539D01*
X1073779Y586275D01*
X1074499Y587352D01*
X1076474Y586534D01*
X1077838Y586354D01*
Y595092D01*
X1069100D01*
X1069279Y593728D01*
X1070098Y591753D01*
X1069021Y591034D01*
X1063484Y596570D01*
Y649198D01*
X1065924D01*
Y668198D01*
D02*
G37*
G36*
X41986Y588140D02*
Y579450D01*
X50675D01*
X50497Y580801D01*
X49486Y583243D01*
X47877Y585341D01*
X45779Y586950D01*
X43337Y587962D01*
X41986Y588140D01*
D02*
G37*
G36*
X39446D02*
X38095Y587962D01*
X35653Y586950D01*
X33555Y585341D01*
X31946Y583243D01*
X30934Y580801D01*
X30757Y579450D01*
X39446D01*
Y588140D01*
D02*
G37*
G36*
X426250Y629506D02*
X357670D01*
X355719Y629118D01*
X354065Y628013D01*
X310123Y584071D01*
X309018Y582417D01*
X308630Y580466D01*
Y550574D01*
X288753Y530697D01*
X286550Y530987D01*
X284039Y530657D01*
X281698Y529687D01*
X279689Y528145D01*
X278147Y526136D01*
X277178Y523796D01*
X276847Y521284D01*
X277178Y518773D01*
X278147Y516433D01*
X279689Y514423D01*
X281698Y512881D01*
X284039Y511912D01*
X286550Y511581D01*
X289061Y511912D01*
X291402Y512881D01*
X293411Y514423D01*
X294953Y516433D01*
X295922Y518773D01*
X296253Y521284D01*
X295963Y523488D01*
X317333Y544857D01*
X318438Y546511D01*
X318826Y548462D01*
Y562931D01*
X319946Y563529D01*
X320531Y563138D01*
X322872Y562673D01*
X325213Y563138D01*
X327198Y564465D01*
X328524Y566449D01*
X328989Y568790D01*
X328524Y571131D01*
X327198Y573116D01*
X325213Y574442D01*
X322872Y574908D01*
X320531Y574442D01*
X319946Y574051D01*
X318826Y574650D01*
Y578355D01*
X359782Y619310D01*
X424138D01*
X438932Y604516D01*
Y565560D01*
X434837Y561465D01*
X433732Y559811D01*
X433344Y557860D01*
Y552031D01*
X425911D01*
X425404Y553253D01*
X423881Y555238D01*
X421897Y556760D01*
X419586Y557718D01*
X417106Y558044D01*
X414626Y557718D01*
X412315Y556760D01*
X410534Y555394D01*
X409264Y555737D01*
Y567147D01*
X413915Y571798D01*
X425072D01*
X425734Y570807D01*
X427719Y569480D01*
X430060Y569015D01*
X432401Y569480D01*
X434386Y570807D01*
X435712Y572791D01*
X436177Y575132D01*
X435712Y577473D01*
X434386Y579458D01*
X432401Y580784D01*
X430060Y581250D01*
X427719Y580784D01*
X425734Y579458D01*
X425072Y578466D01*
X412534D01*
X411258Y578213D01*
X410177Y577490D01*
X403573Y570886D01*
X402850Y569804D01*
X402596Y568528D01*
Y533333D01*
X399062Y529800D01*
X398481Y529838D01*
X396497Y531360D01*
X394186Y532318D01*
X391706Y532644D01*
X389226Y532318D01*
X386915Y531360D01*
X384930Y529838D01*
X383408Y527853D01*
X382450Y525542D01*
X382124Y523062D01*
X382450Y520582D01*
X383408Y518271D01*
X384930Y516287D01*
X386915Y514764D01*
X389226Y513807D01*
X391706Y513480D01*
X394186Y513807D01*
X396497Y514764D01*
X398481Y516287D01*
X400004Y518271D01*
X400961Y520582D01*
X401217Y522524D01*
X408288Y529595D01*
X409010Y530676D01*
X409264Y531952D01*
Y541187D01*
X410534Y541531D01*
X412315Y540164D01*
X414626Y539207D01*
X417106Y538880D01*
X419586Y539207D01*
X421897Y540164D01*
X423881Y541687D01*
X425404Y543671D01*
X425911Y544894D01*
X433344D01*
Y507314D01*
X433732Y505363D01*
X434837Y503709D01*
X442711Y495835D01*
X444365Y494730D01*
X446093Y494386D01*
X447415Y492665D01*
X449163Y491323D01*
X448985Y490351D01*
X448829Y490053D01*
X427774D01*
X427774Y490053D01*
X426604Y489820D01*
X425611Y489157D01*
X425611Y489157D01*
X421427Y484973D01*
X387399D01*
Y487789D01*
X388669Y488638D01*
X389226Y488407D01*
X391706Y488080D01*
X394186Y488407D01*
X396497Y489364D01*
X398481Y490887D01*
X400004Y492871D01*
X400961Y495182D01*
X401288Y497662D01*
X400961Y500142D01*
X400004Y502453D01*
X398481Y504438D01*
X396497Y505960D01*
X394186Y506918D01*
X391706Y507244D01*
X389226Y506918D01*
X387494Y506200D01*
X371905Y521789D01*
Y599170D01*
X373172Y600017D01*
X374498Y602001D01*
X374963Y604342D01*
X374498Y606683D01*
X373172Y608668D01*
X371187Y609994D01*
X368846Y610460D01*
X366505Y609994D01*
X364520Y608668D01*
X363194Y606683D01*
X362729Y604342D01*
X363194Y602001D01*
X364520Y600017D01*
X365787Y599170D01*
Y520522D01*
X365787Y520522D01*
X366020Y519352D01*
X366683Y518359D01*
X383168Y501874D01*
X382450Y500142D01*
X382124Y497662D01*
X382450Y495182D01*
X383168Y493450D01*
X382177Y492459D01*
X381514Y491467D01*
X381281Y490296D01*
X381281Y490296D01*
Y481914D01*
Y448494D01*
X380011Y447815D01*
X379061Y448450D01*
X376720Y448916D01*
X375225Y448619D01*
X361418Y462426D01*
X360425Y463089D01*
X359255Y463322D01*
X359255Y463322D01*
X279565D01*
X261923Y480964D01*
Y525764D01*
X263190Y526610D01*
X264516Y528595D01*
X264981Y530936D01*
X264516Y533277D01*
X263190Y535262D01*
X261205Y536588D01*
X258864Y537054D01*
X256523Y536588D01*
X254538Y535262D01*
X253212Y533277D01*
X252747Y530936D01*
X253212Y528595D01*
X254538Y526610D01*
X255805Y525764D01*
Y483084D01*
X254632Y482598D01*
X245413Y491817D01*
Y525510D01*
X246680Y526357D01*
X248006Y528341D01*
X248472Y530682D01*
X248006Y533023D01*
X246680Y535008D01*
X244695Y536334D01*
X242354Y536800D01*
X240013Y536334D01*
X238028Y535008D01*
X236702Y533023D01*
X236236Y530682D01*
X236702Y528341D01*
X238028Y526357D01*
X239295Y525510D01*
Y490550D01*
X239295Y490550D01*
X239528Y489380D01*
X240191Y488387D01*
X274478Y454101D01*
X274478Y454101D01*
X275470Y453438D01*
X276641Y453205D01*
X352088D01*
X358457Y446836D01*
X358160Y445341D01*
X358625Y443000D01*
X359952Y441016D01*
X361936Y439690D01*
X364277Y439224D01*
X366618Y439690D01*
X368603Y441016D01*
X369419Y442237D01*
X370767Y441969D01*
X371068Y440457D01*
X372394Y438473D01*
X374379Y437146D01*
X376469Y436731D01*
X377093Y435558D01*
X364963Y423429D01*
X363585Y423847D01*
X363506Y424243D01*
X362784Y425324D01*
X350318Y437790D01*
X349237Y438512D01*
X347961Y438766D01*
X342592D01*
X341930Y439758D01*
X339945Y441084D01*
X337604Y441550D01*
X335263Y441084D01*
X333278Y439758D01*
X331952Y437773D01*
X331487Y435432D01*
X331952Y433091D01*
X333278Y431106D01*
X335263Y429780D01*
X337604Y429315D01*
X338348Y429463D01*
X339246Y428565D01*
X339014Y427397D01*
X339479Y425056D01*
X340806Y423071D01*
X342790Y421745D01*
X345131Y421279D01*
X347472Y421745D01*
X349457Y423071D01*
X349912Y423116D01*
X352071Y420957D01*
Y328415D01*
X346325Y322669D01*
X345662Y321677D01*
X345429Y320506D01*
X345429Y320506D01*
Y314798D01*
X344162Y313952D01*
X342836Y311967D01*
X342370Y309626D01*
X342836Y307285D01*
X343090Y306905D01*
X342427Y305612D01*
X341715Y305587D01*
X341676Y305646D01*
X339691Y306972D01*
X337350Y307438D01*
X335009Y306972D01*
X333024Y305646D01*
X331698Y303661D01*
X331232Y301320D01*
X331515Y299898D01*
X330521Y298628D01*
X313118D01*
Y279628D01*
X330201D01*
X348678Y261152D01*
Y254228D01*
X367678D01*
Y258378D01*
X369486D01*
X404972Y222892D01*
X406460Y221897D01*
X408216Y221548D01*
X737532D01*
X742210Y216870D01*
Y209818D01*
X665835D01*
X664188Y210500D01*
X663747Y210826D01*
Y214706D01*
X663592Y215487D01*
X663150Y216148D01*
X662488Y216590D01*
X661708Y216745D01*
X580174D01*
X579394Y216590D01*
X578904Y216263D01*
X578414Y216590D01*
X577634Y216745D01*
X495338D01*
X494558Y216590D01*
X494128Y216303D01*
X494079Y216336D01*
X493299Y216491D01*
X414312D01*
X413532Y216336D01*
X412870Y215894D01*
X412428Y215233D01*
X412273Y214452D01*
Y78054D01*
X412428Y77274D01*
X412870Y76612D01*
X413532Y76170D01*
X414312Y76015D01*
X422834D01*
Y62052D01*
X422834Y62052D01*
Y59052D01*
X423247Y55920D01*
X424456Y53000D01*
X426379Y50494D01*
X428886Y48570D01*
X431805Y47361D01*
X434938Y46949D01*
X438070Y47361D01*
X440990Y48570D01*
X443496Y50494D01*
X445420Y53000D01*
X446629Y55920D01*
X447041Y59052D01*
Y65052D01*
X447041Y65053D01*
Y76015D01*
X462427D01*
X462858Y74745D01*
X461380Y73611D01*
X459456Y71104D01*
X458247Y68185D01*
X457834Y65052D01*
Y62053D01*
X457834Y62052D01*
Y34532D01*
X393484D01*
X390351Y34119D01*
X387432Y32910D01*
X386152Y31928D01*
X383984D01*
Y29760D01*
X383002Y28480D01*
X381793Y25561D01*
X381380Y22428D01*
X381793Y19296D01*
X383002Y16376D01*
X383984Y15097D01*
Y12928D01*
X386152D01*
X387432Y11946D01*
X390351Y10737D01*
X393484Y10325D01*
X906438D01*
X909571Y10737D01*
X912490Y11946D01*
X914996Y13870D01*
X1037501Y136374D01*
X1037705Y136400D01*
X1041110Y137811D01*
X1041274Y137937D01*
X1063426D01*
X1063590Y137811D01*
X1066995Y136400D01*
X1070650Y135919D01*
X1074305Y136400D01*
X1077710Y137811D01*
X1080635Y140055D01*
X1082879Y142980D01*
X1084290Y146385D01*
X1084771Y150040D01*
X1084290Y153695D01*
X1082879Y157101D01*
X1080635Y160025D01*
X1077710Y162269D01*
X1074305Y163680D01*
X1070650Y164161D01*
X1066995Y163680D01*
X1063590Y162269D01*
X1063426Y162144D01*
X1041274D01*
X1041110Y162269D01*
X1037705Y163680D01*
X1034050Y164161D01*
X1030395Y163680D01*
X1026990Y162269D01*
X1024065Y160025D01*
X1021821Y157101D01*
X1020410Y153695D01*
X1020384Y153491D01*
X901425Y34532D01*
X841731D01*
Y141452D01*
X842658D01*
Y160452D01*
X823658D01*
Y141452D01*
X824585D01*
Y34532D01*
X755371D01*
Y140944D01*
X756298D01*
Y159944D01*
X737298D01*
Y140944D01*
X738225D01*
Y34532D01*
X670281D01*
Y140944D01*
X671208D01*
Y159944D01*
X652208D01*
Y140944D01*
X653135D01*
Y34532D01*
X565862D01*
Y58290D01*
X565862Y58290D01*
Y64290D01*
X565449Y67423D01*
X564240Y70342D01*
X562317Y72849D01*
X559845Y74745D01*
X559832Y74861D01*
X560128Y76015D01*
X577634D01*
X578414Y76170D01*
X578904Y76497D01*
X579394Y76170D01*
X580174Y76015D01*
X590474D01*
Y64544D01*
Y58544D01*
X590887Y55412D01*
X592096Y52492D01*
X594019Y49986D01*
X596526Y48062D01*
X599445Y46853D01*
X602578Y46441D01*
X605710Y46853D01*
X608630Y48062D01*
X611136Y49986D01*
X613060Y52492D01*
X614269Y55412D01*
X614681Y58544D01*
Y64544D01*
Y76015D01*
X630518D01*
Y74252D01*
X629020Y73103D01*
X627096Y70596D01*
X625887Y67677D01*
X625474Y64544D01*
Y58544D01*
X625887Y55412D01*
X627096Y52492D01*
X629020Y49986D01*
X631526Y48062D01*
X634445Y46853D01*
X637578Y46441D01*
X640711Y46853D01*
X643630Y48062D01*
X646136Y49986D01*
X648060Y52492D01*
X649269Y55412D01*
X649682Y58544D01*
Y64544D01*
X649269Y67677D01*
X648060Y70596D01*
X646136Y73103D01*
X644638Y74252D01*
Y157680D01*
X655552Y168593D01*
X656917Y167546D01*
X659228Y166589D01*
X661708Y166262D01*
X664188Y166589D01*
X666499Y167546D01*
X668483Y169069D01*
X670006Y171053D01*
X670964Y173364D01*
X671290Y175844D01*
X670964Y178324D01*
X670006Y180635D01*
X668483Y182620D01*
X666499Y184142D01*
X664188Y185100D01*
X663747Y185426D01*
Y191662D01*
X663960Y191959D01*
X664188Y191989D01*
X665835Y192671D01*
X742671D01*
X744318Y191989D01*
X746798Y191662D01*
X749278Y191989D01*
X750925Y192671D01*
X830258D01*
X830678Y192497D01*
X833158Y192170D01*
X835638Y192497D01*
X837949Y193454D01*
X839933Y194977D01*
X841456Y196961D01*
X842413Y199272D01*
X842740Y201752D01*
X842413Y204232D01*
X841456Y206543D01*
X839933Y208528D01*
X837949Y210050D01*
X835638Y211008D01*
X833158Y211334D01*
X830678Y211008D01*
X828367Y210050D01*
X828064Y209818D01*
X751386D01*
Y218770D01*
X751037Y220526D01*
X750042Y222015D01*
X742676Y229380D01*
X741188Y230375D01*
X739432Y230724D01*
X410117D01*
X374630Y266210D01*
X373142Y267205D01*
X371386Y267554D01*
X367678D01*
Y273228D01*
X349579D01*
X332118Y290689D01*
Y296239D01*
X333388Y296751D01*
X335009Y295668D01*
X337350Y295203D01*
X339691Y295668D01*
X341676Y296994D01*
X342937Y298881D01*
X352310D01*
X352741Y297611D01*
X351017Y296289D01*
X349408Y294191D01*
X348396Y291749D01*
X348219Y290398D01*
X358178D01*
X368137D01*
X367960Y291749D01*
X366948Y294191D01*
X365339Y296289D01*
X363492Y297706D01*
X363560Y298624D01*
X363747Y299051D01*
X364064Y299114D01*
X365057Y299777D01*
X370932Y305653D01*
X372406Y305732D01*
X372864Y305046D01*
X374849Y303720D01*
X377190Y303255D01*
X378405Y303496D01*
X379486Y302416D01*
X379454Y302260D01*
X379920Y299919D01*
X381246Y297934D01*
X383231Y296608D01*
X385572Y296143D01*
X387913Y296608D01*
X389111Y295881D01*
X389318Y294839D01*
X390644Y292854D01*
X392629Y291528D01*
X394970Y291063D01*
X397311Y291528D01*
X399296Y292854D01*
X400622Y294839D01*
X400652Y294988D01*
X401825Y295474D01*
X402789Y294830D01*
X405130Y294364D01*
X407471Y294830D01*
X408295Y295381D01*
X409188Y295011D01*
X409572Y294707D01*
X410804Y292863D01*
X412789Y291537D01*
X415130Y291071D01*
X417471Y291537D01*
X419456Y292863D01*
X420782Y294848D01*
X421247Y297189D01*
X420782Y299530D01*
X419456Y301515D01*
X417471Y302841D01*
X415189Y303295D01*
Y441167D01*
X416098Y441774D01*
X417424Y443759D01*
X417890Y446100D01*
X417424Y448441D01*
X416098Y450426D01*
X414113Y451752D01*
X411950Y452182D01*
X411530Y452650D01*
X411119Y453383D01*
X411539Y455498D01*
X411074Y457839D01*
X409748Y459824D01*
X407763Y461150D01*
X406647Y461372D01*
X405740Y462301D01*
X406205Y464642D01*
X405740Y466983D01*
X404414Y468968D01*
X402429Y470294D01*
X401234Y470532D01*
X400748Y471705D01*
X400914Y471953D01*
X401380Y474294D01*
X400914Y476635D01*
X400279Y477585D01*
X400958Y478855D01*
X422694D01*
X422694Y478855D01*
X423865Y479088D01*
X424857Y479751D01*
X429041Y483935D01*
X449936D01*
X450188Y482665D01*
X449399Y482338D01*
X447415Y480816D01*
X445892Y478831D01*
X444935Y476520D01*
X444608Y474040D01*
X444935Y471560D01*
X445019Y471357D01*
X428848Y455187D01*
X427853Y453698D01*
X427504Y451942D01*
Y279853D01*
X411499Y263848D01*
X411235Y263957D01*
X408724Y264287D01*
X406213Y263957D01*
X403872Y262987D01*
X401863Y261445D01*
X400321Y259436D01*
X399352Y257096D01*
X399021Y254584D01*
X399352Y252073D01*
X400321Y249733D01*
X401863Y247723D01*
X403872Y246181D01*
X406213Y245212D01*
X408724Y244881D01*
X411235Y245212D01*
X413576Y246181D01*
X415585Y247723D01*
X417127Y249733D01*
X418096Y252073D01*
X418427Y254584D01*
X418096Y257096D01*
X417987Y257359D01*
X435336Y274708D01*
X436331Y276196D01*
X436680Y277952D01*
Y362589D01*
X436786Y362706D01*
X437594Y362618D01*
X438155Y362331D01*
X438378Y361209D01*
X439704Y359225D01*
X441689Y357898D01*
X444030Y357433D01*
X446371Y357898D01*
X448356Y359225D01*
X449682Y361209D01*
X450148Y363550D01*
X449682Y365891D01*
X448356Y367876D01*
X447089Y368722D01*
Y378790D01*
X447089Y378790D01*
X446878Y379852D01*
X452638Y385612D01*
X454197Y385375D01*
X455289Y383953D01*
X457273Y382430D01*
X459584Y381473D01*
X462064Y381146D01*
X464544Y381473D01*
X466855Y382430D01*
X468839Y383953D01*
X470362Y385937D01*
X471320Y388248D01*
X471451Y389249D01*
X472721Y389166D01*
Y386156D01*
X472721Y386156D01*
X472954Y384986D01*
X473617Y383993D01*
X482628Y374982D01*
X482652Y374248D01*
X482565Y373694D01*
X482443Y373450D01*
X480689Y372104D01*
X479166Y370119D01*
X478209Y367808D01*
X477882Y365328D01*
X478209Y362848D01*
X479166Y360537D01*
X480689Y358553D01*
X482673Y357030D01*
X484984Y356073D01*
X487464Y355746D01*
X489944Y356073D01*
X492255Y357030D01*
X494239Y358553D01*
X495762Y360537D01*
X496720Y362848D01*
X497046Y365328D01*
X496720Y367808D01*
X495762Y370119D01*
X494239Y372104D01*
X493815Y372429D01*
X494246Y373699D01*
X505247D01*
X506135Y372812D01*
X506088Y372104D01*
X504566Y370119D01*
X503609Y367808D01*
X503282Y365328D01*
X503609Y362848D01*
X504566Y360537D01*
X506088Y358553D01*
X508073Y357030D01*
X510384Y356073D01*
X512864Y355746D01*
X515344Y356073D01*
X517655Y357030D01*
X519639Y358553D01*
X521162Y360537D01*
X522119Y362848D01*
X522446Y365328D01*
X522119Y367808D01*
X521162Y370119D01*
X519639Y372104D01*
X517655Y373626D01*
X515344Y374584D01*
X512864Y374910D01*
X512708Y374890D01*
X508677Y378921D01*
X507685Y379584D01*
X506514Y379817D01*
X506514Y379817D01*
X487547D01*
X487478Y379928D01*
X488159Y381238D01*
X489944Y381473D01*
X492255Y382430D01*
X494239Y383953D01*
X495762Y385937D01*
X496720Y388248D01*
X497046Y390728D01*
X496720Y393208D01*
X495762Y395519D01*
X494239Y397504D01*
X492255Y399026D01*
X491539Y399323D01*
Y403925D01*
X520233D01*
X523521Y400637D01*
Y392290D01*
X522251Y392207D01*
X522119Y393208D01*
X521162Y395519D01*
X519639Y397504D01*
X517655Y399026D01*
X515344Y399984D01*
X512864Y400310D01*
X510384Y399984D01*
X508073Y399026D01*
X506088Y397504D01*
X504566Y395519D01*
X503609Y393208D01*
X503282Y390728D01*
X503609Y388248D01*
X504566Y385937D01*
X506088Y383953D01*
X508073Y382430D01*
X510384Y381473D01*
X512864Y381146D01*
X515344Y381473D01*
X517655Y382430D01*
X519639Y383953D01*
X521162Y385937D01*
X522119Y388248D01*
X522251Y389249D01*
X523521Y389166D01*
Y382092D01*
X523521Y382092D01*
X523754Y380922D01*
X524417Y379929D01*
X531535Y372812D01*
X531488Y372104D01*
X529966Y370119D01*
X529008Y367808D01*
X528682Y365328D01*
X529008Y362848D01*
X529966Y360537D01*
X531488Y358553D01*
X533473Y357030D01*
X535784Y356073D01*
X538264Y355746D01*
X540744Y356073D01*
X543055Y357030D01*
X545039Y358553D01*
X546562Y360537D01*
X547519Y362848D01*
X547846Y365328D01*
X547519Y367808D01*
X546562Y370119D01*
X545039Y372104D01*
X543055Y373626D01*
X540744Y374584D01*
X538264Y374910D01*
X538108Y374890D01*
X529915Y383083D01*
X530014Y383788D01*
X531346Y384138D01*
X531488Y383953D01*
X533473Y382430D01*
X535784Y381473D01*
X538264Y381146D01*
X540744Y381473D01*
X543055Y382430D01*
X545039Y383953D01*
X546562Y385937D01*
X547519Y388248D01*
X547846Y390728D01*
X547519Y393208D01*
X546562Y395519D01*
X545039Y397504D01*
X543055Y399026D01*
X540744Y399984D01*
X538264Y400310D01*
X535784Y399984D01*
X533473Y399026D01*
X531488Y397504D01*
X530909Y396748D01*
X529639Y397179D01*
Y401904D01*
X529639Y401904D01*
X529406Y403075D01*
X528743Y404067D01*
X528743Y404067D01*
X523663Y409147D01*
X522671Y409810D01*
X521500Y410043D01*
X521500Y410043D01*
X489747D01*
X481125Y418665D01*
Y488518D01*
X481125Y488518D01*
X480892Y489689D01*
X480229Y490681D01*
X469307Y501603D01*
X468315Y502266D01*
X467144Y502499D01*
X467144Y502499D01*
X463206D01*
X462488Y504231D01*
X460965Y506216D01*
X458981Y507738D01*
X456670Y508696D01*
X454190Y509022D01*
X451710Y508696D01*
X449399Y507738D01*
X447415Y506216D01*
X446791Y506175D01*
X443540Y509426D01*
Y515051D01*
X444690Y515340D01*
X444810Y515340D01*
X463690D01*
Y520252D01*
X464990D01*
X480410Y504832D01*
X481898Y503837D01*
X483654Y503488D01*
X488593D01*
X489024Y502218D01*
X488182Y501572D01*
X486652Y499577D01*
X485690Y497255D01*
X485361Y494762D01*
X485690Y492270D01*
X486652Y489947D01*
X488182Y487952D01*
X490177Y486422D01*
X492499Y485460D01*
X494992Y485132D01*
X497484Y485460D01*
X499807Y486422D01*
X501801Y487952D01*
X503332Y489947D01*
X504294Y492270D01*
X504622Y494762D01*
X504294Y497255D01*
X503332Y499577D01*
X501801Y501572D01*
X500960Y502218D01*
X501391Y503488D01*
X512995D01*
X549682Y466801D01*
X551171Y465807D01*
X552926Y465458D01*
X613274D01*
X613652Y464547D01*
X615182Y462552D01*
X617177Y461022D01*
X619499Y460060D01*
X621992Y459732D01*
X624484Y460060D01*
X626807Y461022D01*
X628801Y462552D01*
X630332Y464547D01*
X631294Y466870D01*
X631622Y469362D01*
X631294Y471855D01*
X631000Y472565D01*
X636522Y478088D01*
X640993D01*
X641424Y476818D01*
X640582Y476172D01*
X639052Y474178D01*
X638089Y471855D01*
X637761Y469362D01*
X638089Y466870D01*
X639052Y464547D01*
X640582Y462552D01*
X642577Y461022D01*
X644899Y460060D01*
X647392Y459732D01*
X649884Y460060D01*
X652207Y461022D01*
X654202Y462552D01*
X655732Y464547D01*
X656694Y466870D01*
X657022Y469362D01*
X656694Y471855D01*
X655732Y474178D01*
X654202Y476172D01*
X653360Y476818D01*
X653791Y478088D01*
X657775D01*
X669062Y466801D01*
X670551Y465807D01*
X672306Y465458D01*
X765674D01*
X766052Y464547D01*
X767582Y462552D01*
X769577Y461022D01*
X771899Y460060D01*
X774392Y459732D01*
X776884Y460060D01*
X779207Y461022D01*
X781201Y462552D01*
X782732Y464547D01*
X783694Y466870D01*
X784022Y469362D01*
X783694Y471855D01*
X783400Y472565D01*
X788922Y478088D01*
X793393D01*
X793824Y476818D01*
X792982Y476172D01*
X791452Y474178D01*
X790490Y471855D01*
X790161Y469362D01*
X790490Y466870D01*
X791452Y464547D01*
X792982Y462552D01*
X794977Y461022D01*
X797299Y460060D01*
X799792Y459732D01*
X802284Y460060D01*
X804607Y461022D01*
X806601Y462552D01*
X808132Y464547D01*
X809094Y466870D01*
X809422Y469362D01*
X809094Y471855D01*
X808132Y474178D01*
X806601Y476172D01*
X805760Y476818D01*
X806191Y478088D01*
X810175D01*
X821462Y466801D01*
X822951Y465807D01*
X824706Y465458D01*
X918074D01*
X918452Y464547D01*
X919982Y462552D01*
X921977Y461022D01*
X924299Y460060D01*
X926792Y459732D01*
X929284Y460060D01*
X931607Y461022D01*
X933602Y462552D01*
X935132Y464547D01*
X936094Y466870D01*
X936422Y469362D01*
X936094Y471855D01*
X935800Y472565D01*
X941322Y478088D01*
X945709D01*
X946140Y476818D01*
X945298Y476172D01*
X943768Y474177D01*
X942805Y471855D01*
X942477Y469362D01*
X942805Y466870D01*
X943768Y464547D01*
X945298Y462552D01*
X947293Y461022D01*
X949615Y460060D01*
X952108Y459732D01*
X954600Y460060D01*
X956923Y461022D01*
X958917Y462552D01*
X960448Y464547D01*
X961410Y466870D01*
X961738Y469362D01*
X961410Y471855D01*
X960448Y474177D01*
X958917Y476172D01*
X958075Y476818D01*
X958506Y478088D01*
X962576D01*
X973862Y466801D01*
X975351Y465807D01*
X977106Y465458D01*
X1070390D01*
X1070768Y464547D01*
X1072298Y462552D01*
X1074293Y461022D01*
X1076615Y460060D01*
X1079108Y459732D01*
X1081600Y460060D01*
X1083923Y461022D01*
X1085918Y462552D01*
X1087448Y464547D01*
X1088410Y466870D01*
X1088738Y469362D01*
X1088410Y471855D01*
X1088140Y472506D01*
X1093722Y478088D01*
X1098109D01*
X1098540Y476818D01*
X1097698Y476172D01*
X1096168Y474177D01*
X1095206Y471855D01*
X1094877Y469362D01*
X1095206Y466870D01*
X1096168Y464547D01*
X1097698Y462552D01*
X1099693Y461022D01*
X1102015Y460060D01*
X1104508Y459732D01*
X1107000Y460060D01*
X1109323Y461022D01*
X1111318Y462552D01*
X1112848Y464547D01*
X1113810Y466870D01*
X1114138Y469362D01*
X1113810Y471855D01*
X1112848Y474177D01*
X1111318Y476172D01*
X1110475Y476818D01*
X1110906Y478088D01*
X1114976D01*
X1126262Y466801D01*
X1127751Y465807D01*
X1129506Y465458D01*
X1198394D01*
Y354282D01*
X1198130Y354173D01*
X1196121Y352631D01*
X1194579Y350622D01*
X1193610Y348282D01*
X1193279Y345770D01*
X1193610Y343259D01*
X1194579Y340919D01*
X1196121Y338909D01*
X1198130Y337367D01*
X1200471Y336398D01*
X1202982Y336067D01*
X1205493Y336398D01*
X1207833Y337367D01*
X1209843Y338909D01*
X1211385Y340919D01*
X1212354Y343259D01*
X1212685Y345770D01*
X1212354Y348282D01*
X1211385Y350622D01*
X1209843Y352631D01*
X1207833Y354173D01*
X1207570Y354282D01*
Y465458D01*
X1222790D01*
X1223168Y464547D01*
X1224698Y462552D01*
X1226693Y461022D01*
X1229015Y460060D01*
X1231508Y459732D01*
X1234000Y460060D01*
X1236323Y461022D01*
X1238317Y462552D01*
X1239848Y464547D01*
X1240810Y466870D01*
X1241138Y469362D01*
X1240810Y471855D01*
X1240716Y472082D01*
X1246039Y477404D01*
X1249729D01*
X1250002Y476598D01*
X1250069Y476134D01*
X1248568Y474177D01*
X1247606Y471855D01*
X1247277Y469362D01*
X1247606Y466870D01*
X1248568Y464547D01*
X1250098Y462552D01*
X1252093Y461022D01*
X1254415Y460060D01*
X1256908Y459732D01*
X1259400Y460060D01*
X1261723Y461022D01*
X1263717Y462552D01*
X1265248Y464547D01*
X1266210Y466870D01*
X1266538Y469362D01*
X1266210Y471855D01*
X1265248Y474177D01*
X1263746Y476134D01*
X1263813Y476598D01*
X1264087Y477404D01*
X1267292D01*
X1278578Y466118D01*
X1280067Y465123D01*
X1281823Y464774D01*
X1375474D01*
X1375568Y464547D01*
X1377098Y462552D01*
X1379093Y461022D01*
X1381415Y460060D01*
X1383908Y459732D01*
X1386400Y460060D01*
X1388723Y461022D01*
X1390717Y462552D01*
X1392248Y464547D01*
X1393210Y466870D01*
X1393538Y469362D01*
X1393210Y471855D01*
X1392248Y474177D01*
X1390717Y476172D01*
X1388723Y477702D01*
X1386400Y478664D01*
X1383908Y478992D01*
X1381415Y478664D01*
X1379093Y477702D01*
X1377098Y476172D01*
X1375568Y474177D01*
X1375474Y473950D01*
X1283723D01*
X1272437Y485237D01*
X1270948Y486231D01*
X1269192Y486581D01*
X1263905D01*
X1263497Y487783D01*
X1263717Y487952D01*
X1265248Y489947D01*
X1266210Y492270D01*
X1266538Y494762D01*
X1266210Y497255D01*
X1265248Y499577D01*
X1263717Y501572D01*
X1261723Y503102D01*
X1259400Y504064D01*
X1256908Y504392D01*
X1254415Y504064D01*
X1252093Y503102D01*
X1250098Y501572D01*
X1248568Y499577D01*
X1247606Y497255D01*
X1247277Y494762D01*
X1247606Y492270D01*
X1248568Y489947D01*
X1250098Y487952D01*
X1250319Y487783D01*
X1249910Y486581D01*
X1244138D01*
X1242382Y486231D01*
X1240894Y485237D01*
X1234227Y478570D01*
X1234000Y478664D01*
X1231508Y478992D01*
X1229015Y478664D01*
X1226693Y477702D01*
X1224698Y476172D01*
X1223518Y474634D01*
X1131407D01*
X1120120Y485920D01*
X1118632Y486915D01*
X1116876Y487264D01*
X1112390D01*
X1111764Y488534D01*
X1112848Y489947D01*
X1113810Y492270D01*
X1114138Y494762D01*
X1113810Y497255D01*
X1112848Y499577D01*
X1111318Y501572D01*
X1109323Y503102D01*
X1107000Y504064D01*
X1104508Y504392D01*
X1102015Y504064D01*
X1099693Y503102D01*
X1097698Y501572D01*
X1096168Y499577D01*
X1095206Y497255D01*
X1094877Y494762D01*
X1095206Y492270D01*
X1096168Y489947D01*
X1097251Y488534D01*
X1096625Y487264D01*
X1091822D01*
X1090066Y486915D01*
X1088578Y485920D01*
X1081354Y478697D01*
X1079108Y478992D01*
X1076615Y478664D01*
X1074293Y477702D01*
X1072298Y476172D01*
X1071118Y474634D01*
X979007D01*
X967720Y485920D01*
X966232Y486915D01*
X964476Y487264D01*
X959990D01*
X959364Y488534D01*
X960448Y489947D01*
X961410Y492270D01*
X961738Y494762D01*
X961410Y497255D01*
X960448Y499577D01*
X958917Y501572D01*
X956923Y503102D01*
X954600Y504064D01*
X952108Y504392D01*
X949615Y504064D01*
X947293Y503102D01*
X945298Y501572D01*
X943768Y499577D01*
X942805Y497255D01*
X942477Y494762D01*
X942805Y492270D01*
X943768Y489947D01*
X944851Y488534D01*
X944225Y487264D01*
X939422D01*
X937666Y486915D01*
X936178Y485920D01*
X928964Y478707D01*
X926792Y478993D01*
X924299Y478665D01*
X921977Y477702D01*
X919982Y476172D01*
X918802Y474634D01*
X826607D01*
X815320Y485920D01*
X813832Y486915D01*
X812076Y487264D01*
X807674D01*
X807048Y488534D01*
X808132Y489947D01*
X809094Y492270D01*
X809422Y494762D01*
X809094Y497255D01*
X808132Y499577D01*
X806601Y501572D01*
X804607Y503102D01*
X802284Y504064D01*
X799792Y504393D01*
X797299Y504064D01*
X794977Y503102D01*
X792982Y501572D01*
X791452Y499577D01*
X790490Y497255D01*
X790161Y494762D01*
X790490Y492270D01*
X791452Y489947D01*
X792536Y488534D01*
X791909Y487264D01*
X787022D01*
X785266Y486915D01*
X783778Y485920D01*
X776564Y478707D01*
X774392Y478993D01*
X771899Y478665D01*
X769577Y477702D01*
X767582Y476172D01*
X766402Y474634D01*
X674207D01*
X662920Y485920D01*
X661432Y486915D01*
X659676Y487264D01*
X655274D01*
X654648Y488534D01*
X655732Y489947D01*
X656694Y492270D01*
X657022Y494762D01*
X656694Y497255D01*
X655732Y499577D01*
X654202Y501572D01*
X652207Y503102D01*
X649884Y504064D01*
X647392Y504393D01*
X644899Y504064D01*
X642577Y503102D01*
X640582Y501572D01*
X639052Y499577D01*
X638089Y497255D01*
X637761Y494762D01*
X638089Y492270D01*
X639052Y489947D01*
X640136Y488534D01*
X639509Y487264D01*
X634622D01*
X632866Y486915D01*
X631378Y485920D01*
X624164Y478707D01*
X621992Y478993D01*
X619499Y478665D01*
X617177Y477702D01*
X615182Y476172D01*
X614002Y474634D01*
X554827D01*
X518140Y511320D01*
X516652Y512315D01*
X514896Y512664D01*
X502874D01*
X502248Y513934D01*
X503332Y515347D01*
X504294Y517670D01*
X504622Y520162D01*
X504294Y522655D01*
X503332Y524977D01*
X501801Y526972D01*
X499807Y528502D01*
X497484Y529464D01*
X494992Y529793D01*
X492499Y529464D01*
X490177Y528502D01*
X488182Y526972D01*
X486652Y524977D01*
X485690Y522655D01*
X485361Y520162D01*
X485690Y517670D01*
X486652Y515347D01*
X487736Y513934D01*
X487109Y512664D01*
X485555D01*
X470134Y528084D01*
X468646Y529079D01*
X466890Y529428D01*
X463690D01*
Y534340D01*
X444810D01*
X444690Y534340D01*
X443540Y534630D01*
Y549478D01*
Y555749D01*
X447635Y559843D01*
X448740Y561497D01*
X449128Y563448D01*
Y606628D01*
X448740Y608579D01*
X447635Y610233D01*
X429855Y628013D01*
X428201Y629118D01*
X426250Y629506D01*
D02*
G37*
G36*
X75616Y587680D02*
X56616D01*
Y568680D01*
X75616D01*
Y587680D01*
D02*
G37*
G36*
X50675Y576910D02*
X41986D01*
Y568221D01*
X43337Y568399D01*
X45779Y569410D01*
X47877Y571020D01*
X49486Y573117D01*
X50497Y575559D01*
X50675Y576910D01*
D02*
G37*
G36*
X39446D02*
X30757D01*
X30934Y575559D01*
X31946Y573117D01*
X33555Y571020D01*
X35653Y569410D01*
X38095Y568399D01*
X39446Y568221D01*
Y576910D01*
D02*
G37*
G36*
X799792Y580593D02*
X797299Y580265D01*
X794977Y579302D01*
X792982Y577772D01*
X791452Y575778D01*
X790490Y573455D01*
X790161Y570962D01*
X790490Y568470D01*
X791452Y566147D01*
X792982Y564152D01*
X794977Y562622D01*
X797299Y561660D01*
X799792Y561332D01*
X802284Y561660D01*
X804607Y562622D01*
X806601Y564152D01*
X808132Y566147D01*
X809094Y568470D01*
X809422Y570962D01*
X809094Y573455D01*
X808132Y575778D01*
X806601Y577772D01*
X804607Y579302D01*
X802284Y580265D01*
X799792Y580593D01*
D02*
G37*
G36*
X647392D02*
X644899Y580265D01*
X642577Y579302D01*
X640582Y577772D01*
X639052Y575778D01*
X638089Y573455D01*
X637761Y570962D01*
X638089Y568470D01*
X639052Y566147D01*
X640582Y564152D01*
X642577Y562622D01*
X644899Y561660D01*
X647392Y561332D01*
X649884Y561660D01*
X652207Y562622D01*
X654202Y564152D01*
X655732Y566147D01*
X656694Y568470D01*
X657022Y570962D01*
X656694Y573455D01*
X655732Y575778D01*
X654202Y577772D01*
X652207Y579302D01*
X649884Y580265D01*
X647392Y580593D01*
D02*
G37*
G36*
X494992D02*
X492499Y580265D01*
X490177Y579302D01*
X488182Y577772D01*
X486652Y575778D01*
X485690Y573455D01*
X485361Y570962D01*
X485690Y568470D01*
X486652Y566147D01*
X488182Y564152D01*
X490177Y562622D01*
X492499Y561660D01*
X494992Y561332D01*
X497484Y561660D01*
X499807Y562622D01*
X501801Y564152D01*
X503332Y566147D01*
X504294Y568470D01*
X504622Y570962D01*
X504294Y573455D01*
X503332Y575778D01*
X501801Y577772D01*
X499807Y579302D01*
X497484Y580265D01*
X494992Y580593D01*
D02*
G37*
G36*
X1256908Y580592D02*
X1254415Y580264D01*
X1252093Y579302D01*
X1250098Y577772D01*
X1248568Y575777D01*
X1247606Y573455D01*
X1247277Y570962D01*
X1247606Y568470D01*
X1248568Y566147D01*
X1250098Y564152D01*
X1252093Y562622D01*
X1254415Y561660D01*
X1256908Y561332D01*
X1259400Y561660D01*
X1261723Y562622D01*
X1263717Y564152D01*
X1265248Y566147D01*
X1266210Y568470D01*
X1266538Y570962D01*
X1266210Y573455D01*
X1265248Y575777D01*
X1263717Y577772D01*
X1261723Y579302D01*
X1259400Y580264D01*
X1256908Y580592D01*
D02*
G37*
G36*
X1104508D02*
X1102015Y580264D01*
X1099693Y579302D01*
X1097698Y577772D01*
X1096168Y575777D01*
X1095206Y573455D01*
X1094877Y570962D01*
X1095206Y568470D01*
X1096168Y566147D01*
X1097698Y564152D01*
X1099693Y562622D01*
X1102015Y561660D01*
X1104508Y561332D01*
X1107000Y561660D01*
X1109323Y562622D01*
X1111318Y564152D01*
X1112848Y566147D01*
X1113810Y568470D01*
X1114138Y570962D01*
X1113810Y573455D01*
X1112848Y575777D01*
X1111318Y577772D01*
X1109323Y579302D01*
X1107000Y580264D01*
X1104508Y580592D01*
D02*
G37*
G36*
X952108D02*
X949615Y580264D01*
X947293Y579302D01*
X945298Y577772D01*
X943768Y575777D01*
X942805Y573455D01*
X942477Y570962D01*
X942805Y568470D01*
X943768Y566147D01*
X945298Y564152D01*
X947293Y562622D01*
X949615Y561660D01*
X952108Y561332D01*
X954600Y561660D01*
X956923Y562622D01*
X958917Y564152D01*
X960448Y566147D01*
X961410Y568470D01*
X961738Y570962D01*
X961410Y573455D01*
X960448Y575777D01*
X958917Y577772D01*
X956923Y579302D01*
X954600Y580264D01*
X952108Y580592D01*
D02*
G37*
G36*
X41986Y562740D02*
Y554050D01*
X50675D01*
X50497Y555401D01*
X49486Y557844D01*
X47877Y559941D01*
X45779Y561550D01*
X43337Y562562D01*
X41986Y562740D01*
D02*
G37*
G36*
X39446D02*
X38095Y562562D01*
X35653Y561550D01*
X33555Y559941D01*
X31946Y557844D01*
X30934Y555401D01*
X30757Y554050D01*
X39446D01*
Y562740D01*
D02*
G37*
G36*
X75616Y562280D02*
X56616D01*
Y543280D01*
X75616D01*
Y562280D01*
D02*
G37*
G36*
X50675Y551510D02*
X41986D01*
Y542821D01*
X43337Y542999D01*
X45779Y544010D01*
X47877Y545620D01*
X49486Y547717D01*
X50497Y550159D01*
X50675Y551510D01*
D02*
G37*
G36*
X39446D02*
X30757D01*
X30934Y550159D01*
X31946Y547717D01*
X33555Y545620D01*
X35653Y544010D01*
X38095Y542999D01*
X39446Y542821D01*
Y551510D01*
D02*
G37*
G36*
X881418Y668534D02*
X878938Y668208D01*
X876627Y667250D01*
X874642Y665728D01*
X873120Y663743D01*
X872162Y661432D01*
X871836Y658952D01*
X872162Y656472D01*
X873120Y654161D01*
X874358Y652548D01*
Y591619D01*
X874598Y589792D01*
X875303Y588089D01*
X876426Y586627D01*
X917200Y545853D01*
X917161Y545562D01*
X917489Y543070D01*
X918296Y541122D01*
X917220Y540403D01*
X863078Y594544D01*
Y652548D01*
X864316Y654161D01*
X865274Y656472D01*
X865600Y658952D01*
X865274Y661432D01*
X864316Y663743D01*
X862793Y665728D01*
X860809Y667250D01*
X858498Y668208D01*
X856018Y668534D01*
X853538Y668208D01*
X851227Y667250D01*
X849242Y665728D01*
X847720Y663743D01*
X846762Y661432D01*
X846436Y658952D01*
X846762Y656472D01*
X847720Y654161D01*
X848958Y652548D01*
Y591619D01*
X849198Y589792D01*
X849903Y588089D01*
X851026Y586627D01*
X917200Y520453D01*
X917161Y520162D01*
X917489Y517670D01*
X918296Y515722D01*
X917220Y515003D01*
X837678Y594544D01*
Y652548D01*
X838916Y654161D01*
X839874Y656472D01*
X840200Y658952D01*
X839874Y661432D01*
X838916Y663743D01*
X837393Y665728D01*
X835409Y667250D01*
X833098Y668208D01*
X830618Y668534D01*
X828138Y668208D01*
X825827Y667250D01*
X823842Y665728D01*
X822320Y663743D01*
X821363Y661432D01*
X821036Y658952D01*
X821363Y656472D01*
X822320Y654161D01*
X823558Y652548D01*
Y591619D01*
X823798Y589792D01*
X824503Y588089D01*
X825626Y586627D01*
X917200Y495053D01*
X917161Y494762D01*
X917489Y492270D01*
X918452Y489947D01*
X919982Y487952D01*
X921977Y486422D01*
X924299Y485460D01*
X926792Y485132D01*
X929284Y485460D01*
X931607Y486422D01*
X933602Y487952D01*
X935132Y489947D01*
X936094Y492270D01*
X936422Y494762D01*
X936094Y497255D01*
X935132Y499577D01*
X933602Y501572D01*
X931607Y503102D01*
X929284Y504064D01*
X927987Y504235D01*
X921632Y510590D01*
X922352Y511667D01*
X924299Y510860D01*
X926792Y510532D01*
X929284Y510860D01*
X931607Y511822D01*
X933602Y513353D01*
X935132Y515347D01*
X936094Y517670D01*
X936422Y520162D01*
X936094Y522655D01*
X935132Y524977D01*
X933602Y526972D01*
X931607Y528502D01*
X929284Y529464D01*
X927987Y529635D01*
X921632Y535990D01*
X922352Y537067D01*
X924299Y536260D01*
X926792Y535932D01*
X929284Y536260D01*
X931607Y537222D01*
X933602Y538753D01*
X935132Y540747D01*
X936094Y543070D01*
X936422Y545562D01*
X936094Y548055D01*
X935132Y550378D01*
X933602Y552372D01*
X931607Y553902D01*
X929284Y554865D01*
X927987Y555035D01*
X921632Y561390D01*
X922352Y562467D01*
X924299Y561660D01*
X926792Y561332D01*
X929284Y561660D01*
X931607Y562622D01*
X933602Y564152D01*
X935132Y566147D01*
X936094Y568470D01*
X936422Y570962D01*
X936094Y573455D01*
X935132Y575778D01*
X933602Y577772D01*
X931607Y579302D01*
X929284Y580265D01*
X927987Y580435D01*
X922630Y585792D01*
X923349Y586869D01*
X924158Y586534D01*
X925522Y586354D01*
Y595092D01*
X916784D01*
X916963Y593729D01*
X917299Y592920D01*
X916222Y592200D01*
X913878Y594544D01*
Y649452D01*
X916318D01*
Y668452D01*
X897318D01*
Y649452D01*
X899758D01*
Y591619D01*
X899998Y589792D01*
X900704Y588089D01*
X901826Y586627D01*
X917200Y571253D01*
X917161Y570962D01*
X917489Y568470D01*
X918296Y566522D01*
X917220Y565803D01*
X888478Y594544D01*
Y652548D01*
X889716Y654161D01*
X890674Y656472D01*
X891000Y658952D01*
X890674Y661432D01*
X889716Y663743D01*
X888193Y665728D01*
X886209Y667250D01*
X883898Y668208D01*
X881418Y668534D01*
D02*
G37*
G36*
X728002Y668280D02*
X725522Y667954D01*
X723211Y666996D01*
X721227Y665474D01*
X719704Y663489D01*
X718746Y661178D01*
X718420Y658698D01*
X718746Y656218D01*
X719704Y653907D01*
X720942Y652294D01*
Y592635D01*
X721182Y590808D01*
X721888Y589105D01*
X723010Y587643D01*
X764800Y545853D01*
X764761Y545562D01*
X765089Y543070D01*
X765896Y541122D01*
X764820Y540403D01*
X709662Y595560D01*
Y652294D01*
X710900Y653907D01*
X711858Y656218D01*
X712184Y658698D01*
X711858Y661178D01*
X710900Y663489D01*
X709377Y665474D01*
X707393Y666996D01*
X705082Y667954D01*
X702602Y668280D01*
X700122Y667954D01*
X697811Y666996D01*
X695826Y665474D01*
X694304Y663489D01*
X693346Y661178D01*
X693020Y658698D01*
X693346Y656218D01*
X694304Y653907D01*
X695542Y652294D01*
Y592635D01*
X695782Y590808D01*
X696488Y589105D01*
X697610Y587643D01*
X764800Y520453D01*
X764761Y520162D01*
X765089Y517670D01*
X765896Y515722D01*
X764820Y515003D01*
X684262Y595560D01*
Y652294D01*
X685500Y653907D01*
X686458Y656218D01*
X686784Y658698D01*
X686458Y661178D01*
X685500Y663489D01*
X683977Y665474D01*
X681993Y666996D01*
X679682Y667954D01*
X677202Y668280D01*
X674722Y667954D01*
X672411Y666996D01*
X670426Y665474D01*
X668904Y663489D01*
X667946Y661178D01*
X667620Y658698D01*
X667946Y656218D01*
X668904Y653907D01*
X670142Y652294D01*
Y592635D01*
X670382Y590808D01*
X671087Y589105D01*
X672210Y587643D01*
X764800Y495053D01*
X764761Y494762D01*
X765089Y492270D01*
X766052Y489947D01*
X767582Y487952D01*
X769577Y486422D01*
X771899Y485460D01*
X774392Y485132D01*
X776884Y485460D01*
X779207Y486422D01*
X781201Y487952D01*
X782732Y489947D01*
X783694Y492270D01*
X784022Y494762D01*
X783694Y497255D01*
X782732Y499577D01*
X781201Y501572D01*
X779207Y503102D01*
X776884Y504064D01*
X775587Y504235D01*
X769232Y510590D01*
X769951Y511667D01*
X771899Y510860D01*
X774392Y510532D01*
X776884Y510860D01*
X779207Y511822D01*
X781201Y513353D01*
X782732Y515347D01*
X783694Y517670D01*
X784022Y520162D01*
X783694Y522655D01*
X782732Y524977D01*
X781201Y526972D01*
X779207Y528502D01*
X776884Y529464D01*
X775587Y529635D01*
X769232Y535990D01*
X769951Y537067D01*
X771899Y536260D01*
X774392Y535932D01*
X776884Y536260D01*
X779207Y537222D01*
X781201Y538753D01*
X782732Y540747D01*
X783694Y543070D01*
X784022Y545562D01*
X783694Y548055D01*
X782732Y550378D01*
X781201Y552372D01*
X779207Y553902D01*
X776884Y554865D01*
X775587Y555035D01*
X769232Y561390D01*
X769951Y562467D01*
X771899Y561660D01*
X774392Y561332D01*
X776884Y561660D01*
X779207Y562622D01*
X781201Y564152D01*
X782732Y566147D01*
X783694Y568470D01*
X784022Y570962D01*
X783694Y573455D01*
X782732Y575778D01*
X781201Y577772D01*
X779207Y579302D01*
X776884Y580265D01*
X775587Y580435D01*
X770230Y585792D01*
X770949Y586869D01*
X771758Y586534D01*
X773122Y586354D01*
Y595092D01*
X764384D01*
X764563Y593729D01*
X764899Y592920D01*
X763822Y592200D01*
X760462Y595560D01*
Y649198D01*
X762902D01*
Y668198D01*
X743902D01*
Y649198D01*
X746342D01*
Y592635D01*
X746582Y590808D01*
X747288Y589105D01*
X748410Y587643D01*
X764800Y571253D01*
X764761Y570962D01*
X765089Y568470D01*
X765896Y566522D01*
X764820Y565803D01*
X735062Y595560D01*
Y652294D01*
X736300Y653907D01*
X737258Y656218D01*
X737584Y658698D01*
X737258Y661178D01*
X736300Y663489D01*
X734777Y665474D01*
X732793Y666996D01*
X730482Y667954D01*
X728002Y668280D01*
D02*
G37*
G36*
X575856D02*
X573376Y667954D01*
X571065Y666996D01*
X569081Y665474D01*
X567558Y663489D01*
X566600Y661178D01*
X566274Y658698D01*
X566600Y656218D01*
X567558Y653907D01*
X568796Y652294D01*
Y592381D01*
X569036Y590554D01*
X569742Y588851D01*
X570864Y587389D01*
X612400Y545853D01*
X612361Y545562D01*
X612690Y543070D01*
X613496Y541122D01*
X612420Y540403D01*
X557516Y595306D01*
Y652294D01*
X558754Y653907D01*
X559711Y656218D01*
X560038Y658698D01*
X559711Y661178D01*
X558754Y663489D01*
X557231Y665474D01*
X555247Y666996D01*
X552936Y667954D01*
X550456Y668280D01*
X547976Y667954D01*
X545665Y666996D01*
X543680Y665474D01*
X542158Y663489D01*
X541200Y661178D01*
X540874Y658698D01*
X541200Y656218D01*
X542158Y653907D01*
X543396Y652294D01*
Y592381D01*
X543636Y590554D01*
X544342Y588851D01*
X545464Y587389D01*
X612400Y520453D01*
X612361Y520162D01*
X612690Y517670D01*
X613496Y515722D01*
X612420Y515003D01*
X532116Y595306D01*
Y652294D01*
X533354Y653907D01*
X534311Y656218D01*
X534638Y658698D01*
X534311Y661178D01*
X533354Y663489D01*
X531831Y665474D01*
X529847Y666996D01*
X527536Y667954D01*
X525056Y668280D01*
X522576Y667954D01*
X520265Y666996D01*
X518280Y665474D01*
X516758Y663489D01*
X515801Y661178D01*
X515474Y658698D01*
X515801Y656218D01*
X516758Y653907D01*
X517996Y652294D01*
Y592381D01*
X518236Y590554D01*
X518941Y588851D01*
X520064Y587389D01*
X612400Y495053D01*
X612361Y494762D01*
X612690Y492270D01*
X613652Y489947D01*
X615182Y487952D01*
X617177Y486422D01*
X619499Y485460D01*
X621992Y485132D01*
X624484Y485460D01*
X626807Y486422D01*
X628801Y487952D01*
X630332Y489947D01*
X631294Y492270D01*
X631622Y494762D01*
X631294Y497255D01*
X630332Y499577D01*
X628801Y501572D01*
X626807Y503102D01*
X624484Y504064D01*
X623187Y504235D01*
X616832Y510590D01*
X617551Y511667D01*
X619499Y510860D01*
X621992Y510532D01*
X624484Y510860D01*
X626807Y511822D01*
X628801Y513353D01*
X630332Y515347D01*
X631294Y517670D01*
X631622Y520162D01*
X631294Y522655D01*
X630332Y524977D01*
X628801Y526972D01*
X626807Y528502D01*
X624484Y529464D01*
X623187Y529635D01*
X616832Y535990D01*
X617551Y537067D01*
X619499Y536260D01*
X621992Y535932D01*
X624484Y536260D01*
X626807Y537222D01*
X628801Y538753D01*
X630332Y540747D01*
X631294Y543070D01*
X631622Y545562D01*
X631294Y548055D01*
X630332Y550378D01*
X628801Y552372D01*
X626807Y553902D01*
X624484Y554865D01*
X623187Y555035D01*
X616832Y561390D01*
X617551Y562467D01*
X619499Y561660D01*
X621992Y561332D01*
X624484Y561660D01*
X626807Y562622D01*
X628801Y564152D01*
X630332Y566147D01*
X631294Y568470D01*
X631622Y570962D01*
X631294Y573455D01*
X630332Y575778D01*
X628801Y577772D01*
X626807Y579302D01*
X624484Y580265D01*
X623187Y580435D01*
X617830Y585792D01*
X618549Y586869D01*
X619358Y586534D01*
X620722Y586354D01*
Y595092D01*
X611984D01*
X612163Y593729D01*
X612499Y592920D01*
X611422Y592200D01*
X608316Y595306D01*
Y649198D01*
X610756D01*
Y668198D01*
X591756D01*
Y649198D01*
X594196D01*
Y592381D01*
X594436Y590554D01*
X595141Y588851D01*
X596264Y587389D01*
X612400Y571253D01*
X612361Y570962D01*
X612690Y568470D01*
X613496Y566522D01*
X612420Y565803D01*
X582916Y595306D01*
Y652294D01*
X584154Y653907D01*
X585112Y656218D01*
X585438Y658698D01*
X585112Y661178D01*
X584154Y663489D01*
X582631Y665474D01*
X580647Y666996D01*
X578336Y667954D01*
X575856Y668280D01*
D02*
G37*
G36*
X401206Y557962D02*
X382206D01*
Y538962D01*
X401206D01*
Y557962D01*
D02*
G37*
G36*
X799792Y555193D02*
X797299Y554865D01*
X794977Y553902D01*
X792982Y552372D01*
X791452Y550378D01*
X790490Y548055D01*
X790161Y545562D01*
X790490Y543070D01*
X791452Y540747D01*
X792982Y538753D01*
X794977Y537222D01*
X797299Y536260D01*
X799792Y535932D01*
X802284Y536260D01*
X804607Y537222D01*
X806601Y538753D01*
X808132Y540747D01*
X809094Y543070D01*
X809422Y545562D01*
X809094Y548055D01*
X808132Y550378D01*
X806601Y552372D01*
X804607Y553902D01*
X802284Y554865D01*
X799792Y555193D01*
D02*
G37*
G36*
X647392D02*
X644899Y554865D01*
X642577Y553902D01*
X640582Y552372D01*
X639052Y550378D01*
X638089Y548055D01*
X637761Y545562D01*
X638089Y543070D01*
X639052Y540747D01*
X640582Y538753D01*
X642577Y537222D01*
X644899Y536260D01*
X647392Y535932D01*
X649884Y536260D01*
X652207Y537222D01*
X654202Y538753D01*
X655732Y540747D01*
X656694Y543070D01*
X657022Y545562D01*
X656694Y548055D01*
X655732Y550378D01*
X654202Y552372D01*
X652207Y553902D01*
X649884Y554865D01*
X647392Y555193D01*
D02*
G37*
G36*
X494992D02*
X492499Y554865D01*
X490177Y553902D01*
X488182Y552372D01*
X486652Y550378D01*
X485690Y548055D01*
X485361Y545562D01*
X485690Y543070D01*
X486652Y540747D01*
X488182Y538753D01*
X490177Y537222D01*
X492499Y536260D01*
X494992Y535932D01*
X497484Y536260D01*
X499807Y537222D01*
X501801Y538753D01*
X503332Y540747D01*
X504294Y543070D01*
X504622Y545562D01*
X504294Y548055D01*
X503332Y550378D01*
X501801Y552372D01*
X499807Y553902D01*
X497484Y554865D01*
X494992Y555193D01*
D02*
G37*
G36*
X1336078Y667772D02*
X1333598Y667446D01*
X1331287Y666488D01*
X1329303Y664966D01*
X1327780Y662981D01*
X1326823Y660670D01*
X1326496Y658190D01*
X1326823Y655710D01*
X1327780Y653399D01*
X1329018Y651786D01*
Y593392D01*
X1329258Y591564D01*
X1329964Y589862D01*
X1331086Y588399D01*
X1374331Y545154D01*
X1374606Y543069D01*
X1375568Y540747D01*
X1377098Y538752D01*
X1379093Y537222D01*
X1381415Y536260D01*
X1383908Y535932D01*
X1386400Y536260D01*
X1388723Y537222D01*
X1390717Y538752D01*
X1392248Y540747D01*
X1393210Y543069D01*
X1393538Y545562D01*
X1393210Y548055D01*
X1392248Y550377D01*
X1390717Y552372D01*
X1388723Y553902D01*
X1386400Y554864D01*
X1384316Y555139D01*
X1343138Y596316D01*
Y651786D01*
X1344376Y653399D01*
X1345334Y655710D01*
X1345660Y658190D01*
X1345334Y660670D01*
X1344376Y662981D01*
X1342853Y664966D01*
X1340869Y666488D01*
X1338558Y667446D01*
X1336078Y667772D01*
D02*
G37*
G36*
X1256908Y555192D02*
X1254415Y554864D01*
X1252093Y553902D01*
X1250098Y552372D01*
X1248568Y550377D01*
X1247606Y548055D01*
X1247277Y545562D01*
X1247606Y543069D01*
X1248568Y540747D01*
X1250098Y538752D01*
X1252093Y537222D01*
X1254415Y536260D01*
X1256908Y535932D01*
X1259400Y536260D01*
X1261723Y537222D01*
X1263717Y538752D01*
X1265248Y540747D01*
X1266210Y543069D01*
X1266538Y545562D01*
X1266210Y548055D01*
X1265248Y550377D01*
X1263717Y552372D01*
X1261723Y553902D01*
X1259400Y554864D01*
X1256908Y555192D01*
D02*
G37*
G36*
X1183932Y668026D02*
X1181452Y667700D01*
X1179141Y666742D01*
X1177157Y665220D01*
X1175634Y663235D01*
X1174677Y660924D01*
X1174350Y658444D01*
X1174677Y655964D01*
X1175634Y653653D01*
X1176872Y652040D01*
Y593138D01*
X1177112Y591310D01*
X1177818Y589608D01*
X1178940Y588145D01*
X1221931Y545154D01*
X1222206Y543069D01*
X1223168Y540747D01*
X1224698Y538752D01*
X1226693Y537222D01*
X1229015Y536260D01*
X1231508Y535932D01*
X1234000Y536260D01*
X1236323Y537222D01*
X1238317Y538752D01*
X1239848Y540747D01*
X1240810Y543069D01*
X1241138Y545562D01*
X1240810Y548055D01*
X1239848Y550377D01*
X1238317Y552372D01*
X1236323Y553902D01*
X1234000Y554864D01*
X1231916Y555139D01*
X1190992Y596062D01*
Y652040D01*
X1192230Y653653D01*
X1193187Y655964D01*
X1193514Y658444D01*
X1193187Y660924D01*
X1192230Y663235D01*
X1190707Y665220D01*
X1188723Y666742D01*
X1186412Y667700D01*
X1183932Y668026D01*
D02*
G37*
G36*
X1104508Y555192D02*
X1102015Y554864D01*
X1099693Y553902D01*
X1097698Y552372D01*
X1096168Y550377D01*
X1095206Y548055D01*
X1094877Y545562D01*
X1095206Y543069D01*
X1096168Y540747D01*
X1097698Y538752D01*
X1099693Y537222D01*
X1102015Y536260D01*
X1104508Y535932D01*
X1107000Y536260D01*
X1109323Y537222D01*
X1111318Y538752D01*
X1112848Y540747D01*
X1113810Y543069D01*
X1114138Y545562D01*
X1113810Y548055D01*
X1112848Y550377D01*
X1111318Y552372D01*
X1109323Y553902D01*
X1107000Y554864D01*
X1104508Y555192D01*
D02*
G37*
G36*
X1031024Y668280D02*
X1028544Y667954D01*
X1026233Y666996D01*
X1024249Y665474D01*
X1022726Y663489D01*
X1021768Y661178D01*
X1021442Y658698D01*
X1021768Y656218D01*
X1022726Y653907D01*
X1023964Y652294D01*
Y593646D01*
X1024204Y591818D01*
X1024910Y590116D01*
X1026032Y588653D01*
X1069531Y545154D01*
X1069806Y543069D01*
X1070768Y540747D01*
X1072298Y538752D01*
X1074293Y537222D01*
X1076615Y536260D01*
X1079108Y535932D01*
X1081600Y536260D01*
X1083923Y537222D01*
X1085918Y538752D01*
X1087448Y540747D01*
X1088410Y543069D01*
X1088738Y545562D01*
X1088410Y548055D01*
X1087448Y550377D01*
X1085918Y552372D01*
X1083923Y553902D01*
X1081600Y554864D01*
X1079516Y555139D01*
X1038084Y596570D01*
Y652294D01*
X1039322Y653907D01*
X1040279Y656218D01*
X1040606Y658698D01*
X1040279Y661178D01*
X1039322Y663489D01*
X1037799Y665474D01*
X1035815Y666996D01*
X1033504Y667954D01*
X1031024Y668280D01*
D02*
G37*
G36*
X952108Y555192D02*
X949615Y554864D01*
X947293Y553902D01*
X945298Y552372D01*
X943768Y550377D01*
X942805Y548055D01*
X942477Y545562D01*
X942805Y543069D01*
X943768Y540747D01*
X945298Y538752D01*
X947293Y537222D01*
X949615Y536260D01*
X952108Y535932D01*
X954600Y536260D01*
X956923Y537222D01*
X958917Y538752D01*
X960448Y540747D01*
X961410Y543069D01*
X961738Y545562D01*
X961410Y548055D01*
X960448Y550377D01*
X958917Y552372D01*
X956923Y553902D01*
X954600Y554864D01*
X952108Y555192D01*
D02*
G37*
G36*
X41986Y537340D02*
Y528650D01*
X50676D01*
X50498Y530001D01*
X49486Y532443D01*
X47877Y534541D01*
X45779Y536150D01*
X43337Y537162D01*
X41986Y537340D01*
D02*
G37*
G36*
X39446D02*
X38095Y537162D01*
X35653Y536150D01*
X33555Y534541D01*
X31946Y532443D01*
X30935Y530001D01*
X30757Y528650D01*
X39446D01*
Y537340D01*
D02*
G37*
G36*
X75616Y536880D02*
X56616D01*
Y517880D01*
X75616D01*
Y536880D01*
D02*
G37*
G36*
X50676Y526110D02*
X41986D01*
Y517421D01*
X43337Y517599D01*
X45779Y518610D01*
X47877Y520219D01*
X49486Y522317D01*
X50498Y524759D01*
X50676Y526110D01*
D02*
G37*
G36*
X39446D02*
X30757D01*
X30935Y524759D01*
X31946Y522317D01*
X33555Y520219D01*
X35653Y518610D01*
X38095Y517599D01*
X39446Y517421D01*
Y526110D01*
D02*
G37*
G36*
X417106Y532644D02*
X414626Y532318D01*
X412315Y531360D01*
X410331Y529838D01*
X408808Y527853D01*
X407850Y525542D01*
X407524Y523062D01*
X407850Y520582D01*
X408808Y518271D01*
X410331Y516287D01*
X412315Y514764D01*
X414626Y513807D01*
X417106Y513480D01*
X419586Y513807D01*
X421897Y514764D01*
X423881Y516287D01*
X425404Y518271D01*
X426362Y520582D01*
X426688Y523062D01*
X426362Y525542D01*
X425404Y527853D01*
X423881Y529838D01*
X421897Y531360D01*
X419586Y532318D01*
X417106Y532644D01*
D02*
G37*
G36*
X799792Y529793D02*
X797299Y529464D01*
X794977Y528502D01*
X792982Y526972D01*
X791452Y524977D01*
X790490Y522655D01*
X790161Y520162D01*
X790490Y517670D01*
X791452Y515347D01*
X792982Y513353D01*
X794977Y511822D01*
X797299Y510860D01*
X799792Y510532D01*
X802284Y510860D01*
X804607Y511822D01*
X806601Y513353D01*
X808132Y515347D01*
X809094Y517670D01*
X809422Y520162D01*
X809094Y522655D01*
X808132Y524977D01*
X806601Y526972D01*
X804607Y528502D01*
X802284Y529464D01*
X799792Y529793D01*
D02*
G37*
G36*
X647392D02*
X644899Y529464D01*
X642577Y528502D01*
X640582Y526972D01*
X639052Y524977D01*
X638089Y522655D01*
X637761Y520162D01*
X638089Y517670D01*
X639052Y515347D01*
X640582Y513353D01*
X642577Y511822D01*
X644899Y510860D01*
X647392Y510532D01*
X649884Y510860D01*
X652207Y511822D01*
X654202Y513353D01*
X655732Y515347D01*
X656694Y517670D01*
X657022Y520162D01*
X656694Y522655D01*
X655732Y524977D01*
X654202Y526972D01*
X652207Y528502D01*
X649884Y529464D01*
X647392Y529793D01*
D02*
G37*
G36*
X1310678Y667772D02*
X1308198Y667446D01*
X1305887Y666488D01*
X1303902Y664966D01*
X1302380Y662981D01*
X1301422Y660670D01*
X1301096Y658190D01*
X1301422Y655710D01*
X1302380Y653399D01*
X1303618Y651786D01*
Y593392D01*
X1303858Y591564D01*
X1304563Y589862D01*
X1305686Y588399D01*
X1374331Y519754D01*
X1374606Y517669D01*
X1375568Y515347D01*
X1377098Y513352D01*
X1379093Y511822D01*
X1381415Y510860D01*
X1383908Y510532D01*
X1386400Y510860D01*
X1388723Y511822D01*
X1390717Y513352D01*
X1392248Y515347D01*
X1393210Y517669D01*
X1393538Y520162D01*
X1393210Y522655D01*
X1392248Y524977D01*
X1390717Y526972D01*
X1388723Y528502D01*
X1386400Y529464D01*
X1384316Y529739D01*
X1317738Y596316D01*
Y651786D01*
X1318976Y653399D01*
X1319933Y655710D01*
X1320260Y658190D01*
X1319933Y660670D01*
X1318976Y662981D01*
X1317453Y664966D01*
X1315469Y666488D01*
X1313158Y667446D01*
X1310678Y667772D01*
D02*
G37*
G36*
X1256908Y529792D02*
X1254415Y529464D01*
X1252093Y528502D01*
X1250098Y526972D01*
X1248568Y524977D01*
X1247606Y522655D01*
X1247277Y520162D01*
X1247606Y517669D01*
X1248568Y515347D01*
X1250098Y513352D01*
X1252093Y511822D01*
X1254415Y510860D01*
X1256908Y510532D01*
X1259400Y510860D01*
X1261723Y511822D01*
X1263717Y513352D01*
X1265248Y515347D01*
X1266210Y517669D01*
X1266538Y520162D01*
X1266210Y522655D01*
X1265248Y524977D01*
X1263717Y526972D01*
X1261723Y528502D01*
X1259400Y529464D01*
X1256908Y529792D01*
D02*
G37*
G36*
X1158532Y668026D02*
X1156052Y667700D01*
X1153741Y666742D01*
X1151757Y665220D01*
X1150234Y663235D01*
X1149277Y660924D01*
X1148950Y658444D01*
X1149277Y655964D01*
X1150234Y653653D01*
X1151472Y652040D01*
Y593138D01*
X1151712Y591310D01*
X1152418Y589608D01*
X1153540Y588145D01*
X1221931Y519754D01*
X1222206Y517669D01*
X1223168Y515347D01*
X1224698Y513352D01*
X1226693Y511822D01*
X1229015Y510860D01*
X1231508Y510532D01*
X1234000Y510860D01*
X1236323Y511822D01*
X1238317Y513352D01*
X1239848Y515347D01*
X1240810Y517669D01*
X1241138Y520162D01*
X1240810Y522655D01*
X1239848Y524977D01*
X1238317Y526972D01*
X1236323Y528502D01*
X1234000Y529464D01*
X1231916Y529739D01*
X1165592Y596062D01*
Y652040D01*
X1166830Y653653D01*
X1167787Y655964D01*
X1168114Y658444D01*
X1167787Y660924D01*
X1166830Y663235D01*
X1165307Y665220D01*
X1163323Y666742D01*
X1161012Y667700D01*
X1158532Y668026D01*
D02*
G37*
G36*
X1104508Y529792D02*
X1102015Y529464D01*
X1099693Y528502D01*
X1097698Y526972D01*
X1096168Y524977D01*
X1095206Y522655D01*
X1094877Y520162D01*
X1095206Y517669D01*
X1096168Y515347D01*
X1097698Y513352D01*
X1099693Y511822D01*
X1102015Y510860D01*
X1104508Y510532D01*
X1107000Y510860D01*
X1109323Y511822D01*
X1111318Y513352D01*
X1112848Y515347D01*
X1113810Y517669D01*
X1114138Y520162D01*
X1113810Y522655D01*
X1112848Y524977D01*
X1111318Y526972D01*
X1109323Y528502D01*
X1107000Y529464D01*
X1104508Y529792D01*
D02*
G37*
G36*
X1005624Y668280D02*
X1003144Y667954D01*
X1000833Y666996D01*
X998848Y665474D01*
X997326Y663489D01*
X996368Y661178D01*
X996042Y658698D01*
X996368Y656218D01*
X997326Y653907D01*
X998564Y652294D01*
Y593646D01*
X998804Y591818D01*
X999510Y590116D01*
X1000632Y588653D01*
X1069531Y519754D01*
X1069806Y517669D01*
X1070768Y515347D01*
X1072298Y513352D01*
X1074293Y511822D01*
X1076615Y510860D01*
X1079108Y510532D01*
X1081600Y510860D01*
X1083923Y511822D01*
X1085918Y513352D01*
X1087448Y515347D01*
X1088410Y517669D01*
X1088738Y520162D01*
X1088410Y522655D01*
X1087448Y524977D01*
X1085918Y526972D01*
X1083923Y528502D01*
X1081600Y529464D01*
X1079516Y529739D01*
X1012684Y596570D01*
Y652294D01*
X1013922Y653907D01*
X1014880Y656218D01*
X1015206Y658698D01*
X1014880Y661178D01*
X1013922Y663489D01*
X1012399Y665474D01*
X1010415Y666996D01*
X1008104Y667954D01*
X1005624Y668280D01*
D02*
G37*
G36*
X952108Y529792D02*
X949615Y529464D01*
X947293Y528502D01*
X945298Y526972D01*
X943768Y524977D01*
X942805Y522655D01*
X942477Y520162D01*
X942805Y517669D01*
X943768Y515347D01*
X945298Y513352D01*
X947293Y511822D01*
X949615Y510860D01*
X952108Y510532D01*
X954600Y510860D01*
X956923Y511822D01*
X958917Y513352D01*
X960448Y515347D01*
X961410Y517669D01*
X961738Y520162D01*
X961410Y522655D01*
X960448Y524977D01*
X958917Y526972D01*
X956923Y528502D01*
X954600Y529464D01*
X952108Y529792D01*
D02*
G37*
G36*
X418376Y507622D02*
Y498932D01*
X427065D01*
X426888Y500283D01*
X425876Y502725D01*
X424267Y504823D01*
X422169Y506432D01*
X419727Y507444D01*
X418376Y507622D01*
D02*
G37*
G36*
X415836D02*
X414485Y507444D01*
X412043Y506432D01*
X409945Y504823D01*
X408336Y502725D01*
X407324Y500283D01*
X407147Y498932D01*
X415836D01*
Y507622D01*
D02*
G37*
G36*
X427065Y496392D02*
X418376D01*
Y487703D01*
X419727Y487881D01*
X422169Y488892D01*
X424267Y490502D01*
X425876Y492599D01*
X426888Y495041D01*
X427065Y496392D01*
D02*
G37*
G36*
X415836D02*
X407147D01*
X407324Y495041D01*
X408336Y492599D01*
X409945Y490502D01*
X412043Y488892D01*
X414485Y487881D01*
X415836Y487703D01*
Y496392D01*
D02*
G37*
G36*
X1285278Y667772D02*
X1282798Y667446D01*
X1280487Y666488D01*
X1278503Y664966D01*
X1276980Y662981D01*
X1276022Y660670D01*
X1275696Y658190D01*
X1276022Y655710D01*
X1276980Y653399D01*
X1278218Y651786D01*
Y593392D01*
X1278458Y591564D01*
X1279164Y589862D01*
X1280286Y588399D01*
X1374331Y494354D01*
X1374606Y492270D01*
X1375568Y489947D01*
X1377098Y487952D01*
X1379093Y486422D01*
X1381415Y485460D01*
X1383908Y485132D01*
X1386400Y485460D01*
X1388723Y486422D01*
X1390717Y487952D01*
X1392248Y489947D01*
X1393210Y492270D01*
X1393538Y494762D01*
X1393210Y497255D01*
X1392248Y499577D01*
X1390717Y501572D01*
X1388723Y503102D01*
X1386400Y504064D01*
X1384316Y504339D01*
X1292338Y596316D01*
Y651786D01*
X1293576Y653399D01*
X1294534Y655710D01*
X1294860Y658190D01*
X1294534Y660670D01*
X1293576Y662981D01*
X1292053Y664966D01*
X1290069Y666488D01*
X1287758Y667446D01*
X1285278Y667772D01*
D02*
G37*
G36*
X1133132Y668026D02*
X1130652Y667700D01*
X1128341Y666742D01*
X1126357Y665220D01*
X1124834Y663235D01*
X1123876Y660924D01*
X1123550Y658444D01*
X1123876Y655964D01*
X1124834Y653653D01*
X1126072Y652040D01*
Y593138D01*
X1126312Y591310D01*
X1127018Y589608D01*
X1128140Y588145D01*
X1221931Y494354D01*
X1222206Y492270D01*
X1223168Y489947D01*
X1224698Y487952D01*
X1226693Y486422D01*
X1229015Y485460D01*
X1231508Y485132D01*
X1234000Y485460D01*
X1236323Y486422D01*
X1238317Y487952D01*
X1239848Y489947D01*
X1240810Y492270D01*
X1241138Y494762D01*
X1240810Y497255D01*
X1239848Y499577D01*
X1238317Y501572D01*
X1236323Y503102D01*
X1234000Y504064D01*
X1231916Y504339D01*
X1140192Y596062D01*
Y652040D01*
X1141430Y653653D01*
X1142387Y655964D01*
X1142714Y658444D01*
X1142387Y660924D01*
X1141430Y663235D01*
X1139907Y665220D01*
X1137923Y666742D01*
X1135612Y667700D01*
X1133132Y668026D01*
D02*
G37*
G36*
X980224Y668280D02*
X977744Y667954D01*
X975433Y666996D01*
X973448Y665474D01*
X971926Y663489D01*
X970968Y661178D01*
X970642Y658698D01*
X970968Y656218D01*
X971926Y653907D01*
X973164Y652294D01*
Y593646D01*
X973404Y591818D01*
X974109Y590116D01*
X975232Y588653D01*
X1069531Y494354D01*
X1069806Y492270D01*
X1070768Y489947D01*
X1072298Y487952D01*
X1074293Y486422D01*
X1076615Y485460D01*
X1079108Y485132D01*
X1081600Y485460D01*
X1083923Y486422D01*
X1085918Y487952D01*
X1087448Y489947D01*
X1088410Y492270D01*
X1088738Y494762D01*
X1088410Y497255D01*
X1087448Y499577D01*
X1085918Y501572D01*
X1083923Y503102D01*
X1081600Y504064D01*
X1079516Y504339D01*
X987284Y596570D01*
Y652294D01*
X988522Y653907D01*
X989480Y656218D01*
X989806Y658698D01*
X989480Y661178D01*
X988522Y663489D01*
X986999Y665474D01*
X985015Y666996D01*
X982704Y667954D01*
X980224Y668280D01*
D02*
G37*
G36*
X41990Y487810D02*
Y479120D01*
X50679D01*
X50502Y480471D01*
X49490Y482914D01*
X47881Y485011D01*
X45783Y486620D01*
X43341Y487632D01*
X41990Y487810D01*
D02*
G37*
G36*
X39450D02*
X38099Y487632D01*
X35657Y486620D01*
X33559Y485011D01*
X31950Y482914D01*
X30938Y480471D01*
X30761Y479120D01*
X39450D01*
Y487810D01*
D02*
G37*
G36*
X213002Y540487D02*
X213002Y540487D01*
X204657D01*
X203486Y540254D01*
X202494Y539591D01*
X202494Y539591D01*
X179873Y516970D01*
X88932D01*
X88932Y516970D01*
X87761Y516738D01*
X87620Y516644D01*
X85890Y516988D01*
X83549Y516522D01*
X81564Y515196D01*
X80238Y513211D01*
X79773Y510870D01*
X80238Y508529D01*
X81564Y506544D01*
X83549Y505218D01*
X85890Y504753D01*
X87152Y505004D01*
X87777Y503833D01*
X70332Y486388D01*
X68600Y487106D01*
X66120Y487432D01*
X63640Y487106D01*
X61329Y486148D01*
X59345Y484626D01*
X57822Y482641D01*
X56865Y480330D01*
X56538Y477850D01*
X56865Y475370D01*
X57822Y473059D01*
X59345Y471075D01*
X61329Y469552D01*
X63640Y468595D01*
X66120Y468268D01*
X68600Y468595D01*
X70911Y469552D01*
X72895Y471075D01*
X74418Y473059D01*
X75375Y475370D01*
X75702Y477850D01*
X75375Y480330D01*
X74658Y482062D01*
X96597Y504001D01*
X181607D01*
X181993Y502731D01*
X181640Y502496D01*
X180794Y501229D01*
X142786D01*
X141615Y500996D01*
X140623Y500333D01*
X140623Y500333D01*
X135899Y495608D01*
X134404Y495906D01*
X132063Y495440D01*
X130078Y494114D01*
X128752Y492129D01*
X128287Y489788D01*
X128752Y487447D01*
X130078Y485462D01*
X132063Y484136D01*
X134404Y483671D01*
X136745Y484136D01*
X138730Y485462D01*
X140056Y487447D01*
X140521Y489788D01*
X140224Y491283D01*
X144053Y495111D01*
X180794D01*
X181640Y493844D01*
X183625Y492518D01*
X185966Y492053D01*
X188307Y492518D01*
X190292Y493844D01*
X191618Y495829D01*
X192083Y498170D01*
X191618Y500511D01*
X190292Y502496D01*
X188307Y503822D01*
X187277Y504027D01*
X186859Y505405D01*
X203324Y521870D01*
X204497Y521384D01*
Y459054D01*
X204497Y459054D01*
X204730Y457884D01*
X205393Y456891D01*
X219415Y442869D01*
X219223Y441265D01*
X218026Y440465D01*
X217661Y439919D01*
X205617D01*
X198289Y447247D01*
X197297Y447910D01*
X196126Y448143D01*
X196126Y448143D01*
X154257D01*
X153871Y449413D01*
X154224Y449649D01*
X155550Y451633D01*
X156016Y453974D01*
X155718Y455469D01*
X164627Y464377D01*
X181810D01*
X182656Y463111D01*
X184641Y461784D01*
X186982Y461319D01*
X189323Y461784D01*
X191308Y463111D01*
X192634Y465095D01*
X193099Y467436D01*
X192634Y469777D01*
X191781Y471053D01*
X192545Y472196D01*
X193266Y472053D01*
X195607Y472518D01*
X197592Y473844D01*
X198918Y475829D01*
X199384Y478170D01*
X198918Y480511D01*
X197592Y482496D01*
X195607Y483822D01*
X193266Y484288D01*
X190925Y483822D01*
X188940Y482496D01*
X188094Y481229D01*
X157076D01*
X157076Y481229D01*
X155906Y480996D01*
X154913Y480333D01*
X154913Y480333D01*
X138439Y463858D01*
X136944Y464156D01*
X134603Y463690D01*
X132618Y462364D01*
X131292Y460379D01*
X130827Y458038D01*
X131292Y455697D01*
X132618Y453713D01*
X134603Y452386D01*
X136944Y451921D01*
X139285Y452386D01*
X141270Y453713D01*
X142596Y455697D01*
X143062Y458038D01*
X142764Y459533D01*
X158343Y475112D01*
X187312D01*
X187509Y474744D01*
X187300Y474272D01*
X186731Y473504D01*
X184641Y473088D01*
X182656Y471762D01*
X181810Y470495D01*
X163360D01*
X162190Y470262D01*
X161197Y469599D01*
X161197Y469599D01*
X151392Y459795D01*
X149898Y460092D01*
X147557Y459626D01*
X145572Y458300D01*
X144246Y456315D01*
X143780Y453974D01*
X144246Y451633D01*
X145572Y449649D01*
X145925Y449413D01*
X145539Y448143D01*
X135671D01*
X120035Y463779D01*
X120456Y465894D01*
X119990Y468235D01*
X118664Y470220D01*
X116679Y471546D01*
X114338Y472011D01*
X111997Y471546D01*
X110012Y470220D01*
X108686Y468235D01*
X108221Y465894D01*
X108686Y463553D01*
X110012Y461568D01*
X111997Y460242D01*
X114338Y459776D01*
X115212Y459950D01*
X132241Y442921D01*
X132241Y442921D01*
X133233Y442258D01*
X134404Y442025D01*
X134404Y442025D01*
X194859D01*
X202674Y434210D01*
X202675Y434210D01*
X203667Y433547D01*
X204837Y433314D01*
X206008Y433547D01*
X206389Y433801D01*
X216699D01*
X216700Y433798D01*
X218026Y431813D01*
X220011Y430487D01*
X222352Y430022D01*
X222435Y430038D01*
X223515Y428958D01*
X223463Y428697D01*
X222884Y427679D01*
X222084Y427775D01*
X220510Y428088D01*
X218169Y427622D01*
X218004Y427512D01*
X217716Y427569D01*
X216546Y427336D01*
X215553Y426673D01*
X213917Y425037D01*
X213254Y424045D01*
X213021Y422874D01*
X213254Y421704D01*
X213917Y420711D01*
X214754Y420152D01*
X214858Y419629D01*
X215419Y418789D01*
Y412251D01*
X209337Y406169D01*
X158760D01*
X158760Y406169D01*
X157589Y405936D01*
X156597Y405273D01*
X156597Y405273D01*
X97881Y346557D01*
X97218Y345565D01*
X96985Y344394D01*
X96985Y344394D01*
Y337756D01*
X95459Y337452D01*
X93474Y336126D01*
X92148Y334141D01*
X91682Y331800D01*
X92148Y329459D01*
X93474Y327475D01*
X95459Y326148D01*
X97800Y325683D01*
X100141Y326148D01*
X102126Y327475D01*
X103452Y329459D01*
X103918Y331800D01*
X103452Y334141D01*
X103103Y334664D01*
Y343127D01*
X160027Y400051D01*
X175306D01*
X175792Y398878D01*
X103257Y326343D01*
X102594Y325351D01*
X102361Y324180D01*
X102361Y324180D01*
Y308352D01*
X101809Y308242D01*
X99824Y306916D01*
X98498Y304931D01*
X98032Y302590D01*
X98498Y300249D01*
X99824Y298265D01*
X101809Y296938D01*
X104150Y296473D01*
X106491Y296938D01*
X108476Y298265D01*
X109802Y300249D01*
X110267Y302590D01*
X109802Y304931D01*
X108479Y306911D01*
Y322913D01*
X181617Y396051D01*
X196226D01*
X196712Y394878D01*
X112937Y311103D01*
X112274Y310111D01*
X112041Y308940D01*
X112041Y308940D01*
Y284800D01*
X111770Y284578D01*
X109429Y284112D01*
X107444Y282786D01*
X106118Y280801D01*
X105652Y278460D01*
X106118Y276119D01*
X107444Y274135D01*
X109429Y272808D01*
X111770Y272343D01*
X114111Y272808D01*
X115061Y273443D01*
X116331Y272764D01*
Y259503D01*
X115064Y258656D01*
X113738Y256671D01*
X113272Y254330D01*
X113738Y251989D01*
X115064Y250005D01*
X117049Y248678D01*
X119390Y248213D01*
X121731Y248678D01*
X123716Y250005D01*
X125042Y251989D01*
X125507Y254330D01*
X125042Y256671D01*
X123716Y258656D01*
X122449Y259503D01*
Y304368D01*
X202448Y384367D01*
X223212D01*
X224058Y383101D01*
X226043Y381774D01*
X228344Y381316D01*
X228464Y381142D01*
X228951Y380126D01*
X219490Y370666D01*
X219490Y370666D01*
X216823Y367999D01*
X211377Y362553D01*
X210714Y361561D01*
X210481Y360390D01*
X210481Y360390D01*
Y297766D01*
X208355Y295640D01*
X207692Y294648D01*
X207459Y293477D01*
X207459Y293477D01*
Y274228D01*
X207459Y274228D01*
X207692Y273058D01*
X208355Y272065D01*
X212480Y267940D01*
X211763Y266208D01*
X211436Y263728D01*
X211763Y261248D01*
X212720Y258937D01*
X214242Y256953D01*
X216227Y255430D01*
X218538Y254473D01*
X221018Y254146D01*
X223498Y254473D01*
X225809Y255430D01*
X227793Y256953D01*
X229316Y258937D01*
X230273Y261248D01*
X230600Y263728D01*
X230273Y266208D01*
X229316Y268519D01*
X227793Y270504D01*
X225809Y272026D01*
X223498Y272984D01*
X221018Y273310D01*
X218538Y272984D01*
X216806Y272266D01*
X213577Y275495D01*
Y281263D01*
X214847Y281889D01*
X216227Y280830D01*
X218538Y279873D01*
X221018Y279546D01*
X223498Y279873D01*
X225809Y280830D01*
X227793Y282353D01*
X229316Y284337D01*
X229389Y284513D01*
X230659Y284261D01*
Y279222D01*
X230659Y279222D01*
X230892Y278052D01*
X231555Y277059D01*
X238978Y269637D01*
X238120Y268519D01*
X237162Y266208D01*
X236836Y263728D01*
X237162Y261248D01*
X238120Y258937D01*
X239643Y256953D01*
X241627Y255430D01*
X243938Y254473D01*
X246418Y254146D01*
X248898Y254473D01*
X251209Y255430D01*
X253193Y256953D01*
X254716Y258937D01*
X255674Y261248D01*
X256000Y263728D01*
X255674Y266208D01*
X254716Y268519D01*
X253193Y270504D01*
X251209Y272026D01*
X248898Y272984D01*
X246418Y273310D01*
X244242Y273024D01*
X236777Y280489D01*
Y284261D01*
X238047Y284513D01*
X238120Y284337D01*
X239643Y282353D01*
X241627Y280830D01*
X243938Y279873D01*
X246418Y279546D01*
X248898Y279873D01*
X251209Y280830D01*
X253193Y282353D01*
X254716Y284337D01*
X255043Y285127D01*
X256313Y284874D01*
Y276174D01*
X256313Y276174D01*
X256546Y275004D01*
X257209Y274011D01*
X263280Y267940D01*
X262563Y266208D01*
X262236Y263728D01*
X262563Y261248D01*
X263520Y258937D01*
X265042Y256953D01*
X267027Y255430D01*
X269338Y254473D01*
X271818Y254146D01*
X274298Y254473D01*
X276609Y255430D01*
X278593Y256953D01*
X280116Y258937D01*
X281073Y261248D01*
X281400Y263728D01*
X281073Y266208D01*
X280116Y268519D01*
X278593Y270504D01*
X276609Y272026D01*
X274298Y272984D01*
X271818Y273310D01*
X269338Y272984D01*
X267606Y272266D01*
X262431Y277441D01*
Y283767D01*
X262729Y283923D01*
X263701Y284101D01*
X265042Y282353D01*
X267027Y280830D01*
X269338Y279873D01*
X271818Y279546D01*
X274298Y279873D01*
X276609Y280830D01*
X278593Y282353D01*
X280116Y284337D01*
X281073Y286648D01*
X281400Y289128D01*
X281073Y291608D01*
X280116Y293919D01*
X278593Y295904D01*
X276609Y297426D01*
X274877Y298144D01*
Y337137D01*
X341291Y403551D01*
X341954Y404544D01*
X342187Y405714D01*
X342187Y405714D01*
Y408670D01*
X343454Y409516D01*
X344780Y411501D01*
X345246Y413842D01*
X344780Y416183D01*
X343454Y418168D01*
X341469Y419494D01*
X339128Y419960D01*
X336787Y419494D01*
X334802Y418168D01*
X333476Y416183D01*
X333010Y413842D01*
X333476Y411501D01*
X334802Y409516D01*
X336069Y408670D01*
Y406981D01*
X269655Y340567D01*
X268992Y339575D01*
X268759Y338404D01*
X268759Y338404D01*
Y298144D01*
X267027Y297426D01*
X265042Y295904D01*
X263701Y294155D01*
X262729Y294334D01*
X262431Y294489D01*
Y352676D01*
X288205Y378450D01*
X288205Y378450D01*
X288868Y379443D01*
X289101Y380613D01*
Y432133D01*
X294200Y437232D01*
X295694Y436935D01*
X298035Y437400D01*
X300020Y438727D01*
X301346Y440711D01*
X301812Y443052D01*
X301346Y445393D01*
X300020Y447378D01*
X298035Y448704D01*
X295694Y449170D01*
X293353Y448704D01*
X291368Y447378D01*
X290042Y445393D01*
X289576Y443052D01*
X289874Y441558D01*
X283879Y435563D01*
X283216Y434571D01*
X282983Y433400D01*
X282983Y433400D01*
Y381880D01*
X257209Y356106D01*
X256546Y355114D01*
X256313Y353943D01*
X256313Y353943D01*
Y293382D01*
X255043Y293130D01*
X254716Y293919D01*
X253193Y295904D01*
X251209Y297426D01*
X249477Y298144D01*
Y361256D01*
X250998Y362272D01*
X252324Y364257D01*
X252789Y366598D01*
X252324Y368939D01*
X250998Y370924D01*
X249013Y372250D01*
X246672Y372716D01*
X244331Y372250D01*
X242346Y370924D01*
X241020Y368939D01*
X240555Y366598D01*
X241020Y364257D01*
X242346Y362272D01*
X243359Y361596D01*
Y298144D01*
X241627Y297426D01*
X239643Y295904D01*
X238120Y293919D01*
X238047Y293743D01*
X236777Y293995D01*
Y355584D01*
X238044Y356431D01*
X239370Y358415D01*
X239835Y360756D01*
X239370Y363097D01*
X238044Y365082D01*
X236059Y366408D01*
X233718Y366874D01*
X231875Y366507D01*
X231249Y367677D01*
X252533Y388961D01*
X252533Y388961D01*
X253196Y389953D01*
X253429Y391124D01*
Y429883D01*
X253429Y429884D01*
X253196Y431054D01*
X252533Y432047D01*
X252533Y432047D01*
X243781Y440798D01*
X242789Y441461D01*
X241618Y441694D01*
X241618Y441694D01*
X236212D01*
X236178Y441866D01*
X235515Y442858D01*
X229071Y449302D01*
X228079Y449965D01*
X226908Y450198D01*
X226908Y450198D01*
X226395D01*
X214615Y461978D01*
Y513921D01*
X220263Y519569D01*
X220926Y520562D01*
X221159Y521732D01*
X221159Y521732D01*
Y523100D01*
X222426Y523946D01*
X223752Y525931D01*
X224218Y528272D01*
X223752Y530613D01*
X222426Y532598D01*
X220806Y533680D01*
X220263Y534493D01*
X220263Y534493D01*
X215165Y539591D01*
X214172Y540254D01*
X213002Y540487D01*
D02*
G37*
G36*
X101020Y487350D02*
X82020D01*
Y468350D01*
X101020D01*
Y487350D01*
D02*
G37*
G36*
X50679Y476580D02*
X41990D01*
Y467891D01*
X43341Y468069D01*
X45783Y469080D01*
X47881Y470690D01*
X49490Y472787D01*
X50502Y475229D01*
X50679Y476580D01*
D02*
G37*
G36*
X39450D02*
X30761D01*
X30938Y475229D01*
X31950Y472787D01*
X33559Y470690D01*
X35657Y469080D01*
X38099Y468069D01*
X39450Y467891D01*
Y476580D01*
D02*
G37*
G36*
X494992Y478993D02*
X492499Y478665D01*
X490177Y477702D01*
X488182Y476172D01*
X486652Y474178D01*
X485690Y471855D01*
X485361Y469362D01*
X485690Y466870D01*
X486652Y464547D01*
X488182Y462552D01*
X490177Y461022D01*
X492499Y460060D01*
X494992Y459732D01*
X497484Y460060D01*
X499807Y461022D01*
X501801Y462552D01*
X503332Y464547D01*
X504294Y466870D01*
X504622Y469362D01*
X504294Y471855D01*
X503332Y474178D01*
X501801Y476172D01*
X499807Y477702D01*
X497484Y478665D01*
X494992Y478993D01*
D02*
G37*
G36*
X41990Y462410D02*
Y453720D01*
X50679D01*
X50502Y455071D01*
X49490Y457514D01*
X47881Y459611D01*
X45783Y461220D01*
X43341Y462232D01*
X41990Y462410D01*
D02*
G37*
G36*
X39450D02*
X38099Y462232D01*
X35657Y461220D01*
X33559Y459611D01*
X31950Y457514D01*
X30938Y455071D01*
X30761Y453720D01*
X39450D01*
Y462410D01*
D02*
G37*
G36*
X928062Y453970D02*
Y445232D01*
X936800D01*
X936620Y446596D01*
X935604Y449050D01*
X933987Y451157D01*
X931879Y452774D01*
X929425Y453791D01*
X928062Y453970D01*
D02*
G37*
G36*
X925522D02*
X924158Y453791D01*
X921704Y452774D01*
X919597Y451157D01*
X917980Y449050D01*
X916963Y446596D01*
X916784Y445232D01*
X925522D01*
Y453970D01*
D02*
G37*
G36*
X775662D02*
Y445232D01*
X784400D01*
X784220Y446596D01*
X783204Y449050D01*
X781587Y451157D01*
X779479Y452774D01*
X777025Y453791D01*
X775662Y453970D01*
D02*
G37*
G36*
X773122D02*
X771758Y453791D01*
X769304Y452774D01*
X767197Y451157D01*
X765580Y449050D01*
X764563Y446596D01*
X764384Y445232D01*
X773122D01*
Y453970D01*
D02*
G37*
G36*
X623262D02*
Y445232D01*
X632000D01*
X631820Y446596D01*
X630804Y449050D01*
X629187Y451157D01*
X627079Y452774D01*
X624625Y453791D01*
X623262Y453970D01*
D02*
G37*
G36*
X620722D02*
X619358Y453791D01*
X616904Y452774D01*
X614797Y451157D01*
X613180Y449050D01*
X612163Y446596D01*
X611984Y445232D01*
X620722D01*
Y453970D01*
D02*
G37*
G36*
X1385178Y453970D02*
Y445232D01*
X1393916D01*
X1393736Y446595D01*
X1392720Y449049D01*
X1391103Y451157D01*
X1388995Y452774D01*
X1386541Y453790D01*
X1385178Y453970D01*
D02*
G37*
G36*
X1382638D02*
X1381274Y453790D01*
X1378820Y452774D01*
X1376713Y451157D01*
X1375096Y449049D01*
X1374079Y446595D01*
X1373900Y445232D01*
X1382638D01*
Y453970D01*
D02*
G37*
G36*
X1232778D02*
Y445232D01*
X1241516D01*
X1241336Y446595D01*
X1240320Y449049D01*
X1238703Y451157D01*
X1236595Y452774D01*
X1234141Y453790D01*
X1232778Y453970D01*
D02*
G37*
G36*
X1230238D02*
X1228874Y453790D01*
X1226420Y452774D01*
X1224313Y451157D01*
X1222696Y449049D01*
X1221679Y446595D01*
X1221500Y445232D01*
X1230238D01*
Y453970D01*
D02*
G37*
G36*
X1080378D02*
Y445232D01*
X1089116D01*
X1088936Y446595D01*
X1087920Y449049D01*
X1086303Y451157D01*
X1084195Y452774D01*
X1081741Y453790D01*
X1080378Y453970D01*
D02*
G37*
G36*
X1077838D02*
X1076474Y453790D01*
X1074020Y452774D01*
X1071913Y451157D01*
X1070296Y449049D01*
X1069279Y446595D01*
X1069100Y445232D01*
X1077838D01*
Y453970D01*
D02*
G37*
G36*
X101020Y461950D02*
X82020D01*
Y442950D01*
X101020D01*
Y461950D01*
D02*
G37*
G36*
X66120Y462032D02*
X63640Y461706D01*
X61329Y460748D01*
X59345Y459226D01*
X57822Y457241D01*
X56865Y454930D01*
X56538Y452450D01*
X56865Y449970D01*
X57822Y447659D01*
X59345Y445675D01*
X61329Y444152D01*
X63640Y443195D01*
X66120Y442868D01*
X68600Y443195D01*
X70911Y444152D01*
X72895Y445675D01*
X74418Y447659D01*
X75375Y449970D01*
X75702Y452450D01*
X75375Y454930D01*
X74418Y457241D01*
X72895Y459226D01*
X70911Y460748D01*
X68600Y461706D01*
X66120Y462032D01*
D02*
G37*
G36*
X50679Y451180D02*
X41990D01*
Y442491D01*
X43341Y442669D01*
X45783Y443680D01*
X47881Y445290D01*
X49490Y447387D01*
X50502Y449829D01*
X50679Y451180D01*
D02*
G37*
G36*
X39450D02*
X30761D01*
X30938Y449829D01*
X31950Y447387D01*
X33559Y445290D01*
X35657Y443680D01*
X38099Y442669D01*
X39450Y442491D01*
Y451180D01*
D02*
G37*
G36*
X799792Y453593D02*
X797299Y453265D01*
X794977Y452302D01*
X792982Y450772D01*
X791452Y448778D01*
X790490Y446455D01*
X790161Y443962D01*
X790490Y441470D01*
X791452Y439147D01*
X792982Y437152D01*
X794977Y435622D01*
X797299Y434660D01*
X799792Y434332D01*
X802284Y434660D01*
X804607Y435622D01*
X806601Y437152D01*
X808132Y439147D01*
X809094Y441470D01*
X809422Y443962D01*
X809094Y446455D01*
X808132Y448778D01*
X806601Y450772D01*
X804607Y452302D01*
X802284Y453265D01*
X799792Y453593D01*
D02*
G37*
G36*
X647392D02*
X644899Y453265D01*
X642577Y452302D01*
X640582Y450772D01*
X639052Y448778D01*
X638089Y446455D01*
X637761Y443962D01*
X638089Y441470D01*
X639052Y439147D01*
X640582Y437152D01*
X642577Y435622D01*
X644899Y434660D01*
X647392Y434332D01*
X649884Y434660D01*
X652207Y435622D01*
X654202Y437152D01*
X655732Y439147D01*
X656694Y441470D01*
X657022Y443962D01*
X656694Y446455D01*
X655732Y448778D01*
X654202Y450772D01*
X652207Y452302D01*
X649884Y453265D01*
X647392Y453593D01*
D02*
G37*
G36*
X494992D02*
X492499Y453265D01*
X490177Y452302D01*
X488182Y450772D01*
X486652Y448778D01*
X485690Y446455D01*
X485361Y443962D01*
X485690Y441470D01*
X486652Y439147D01*
X488182Y437152D01*
X490177Y435622D01*
X492499Y434660D01*
X494992Y434332D01*
X497484Y434660D01*
X499807Y435622D01*
X501801Y437152D01*
X503332Y439147D01*
X504294Y441470D01*
X504622Y443962D01*
X504294Y446455D01*
X503332Y448778D01*
X501801Y450772D01*
X499807Y452302D01*
X497484Y453265D01*
X494992Y453593D01*
D02*
G37*
G36*
X1256908Y453592D02*
X1254415Y453264D01*
X1252093Y452302D01*
X1250098Y450772D01*
X1248568Y448777D01*
X1247606Y446455D01*
X1247277Y443962D01*
X1247606Y441469D01*
X1248568Y439147D01*
X1250098Y437152D01*
X1252093Y435622D01*
X1254415Y434660D01*
X1256908Y434332D01*
X1259400Y434660D01*
X1261723Y435622D01*
X1263717Y437152D01*
X1265248Y439147D01*
X1266210Y441469D01*
X1266538Y443962D01*
X1266210Y446455D01*
X1265248Y448777D01*
X1263717Y450772D01*
X1261723Y452302D01*
X1259400Y453264D01*
X1256908Y453592D01*
D02*
G37*
G36*
X1104508D02*
X1102015Y453264D01*
X1099693Y452302D01*
X1097698Y450772D01*
X1096168Y448777D01*
X1095206Y446455D01*
X1094877Y443962D01*
X1095206Y441469D01*
X1096168Y439147D01*
X1097698Y437152D01*
X1099693Y435622D01*
X1102015Y434660D01*
X1104508Y434332D01*
X1107000Y434660D01*
X1109323Y435622D01*
X1111318Y437152D01*
X1112848Y439147D01*
X1113810Y441469D01*
X1114138Y443962D01*
X1113810Y446455D01*
X1112848Y448777D01*
X1111318Y450772D01*
X1109323Y452302D01*
X1107000Y453264D01*
X1104508Y453592D01*
D02*
G37*
G36*
X952108D02*
X949615Y453264D01*
X947293Y452302D01*
X945298Y450772D01*
X943768Y448777D01*
X942805Y446455D01*
X942477Y443962D01*
X942805Y441469D01*
X943768Y439147D01*
X945298Y437152D01*
X947293Y435622D01*
X949615Y434660D01*
X952108Y434332D01*
X954600Y434660D01*
X956923Y435622D01*
X958917Y437152D01*
X960448Y439147D01*
X961410Y441469D01*
X961738Y443962D01*
X961410Y446455D01*
X960448Y448777D01*
X958917Y450772D01*
X956923Y452302D01*
X954600Y453264D01*
X952108Y453592D01*
D02*
G37*
G36*
X936800Y442692D02*
X928062D01*
Y433954D01*
X929425Y434134D01*
X931879Y435150D01*
X933987Y436767D01*
X935604Y438875D01*
X936620Y441329D01*
X936800Y442692D01*
D02*
G37*
G36*
X925522D02*
X916784D01*
X916963Y441329D01*
X917980Y438875D01*
X919597Y436767D01*
X921704Y435150D01*
X924158Y434134D01*
X925522Y433954D01*
Y442692D01*
D02*
G37*
G36*
X784400D02*
X775662D01*
Y433954D01*
X777025Y434134D01*
X779479Y435150D01*
X781587Y436767D01*
X783204Y438875D01*
X784220Y441329D01*
X784400Y442692D01*
D02*
G37*
G36*
X773122D02*
X764384D01*
X764563Y441329D01*
X765580Y438875D01*
X767197Y436767D01*
X769304Y435150D01*
X771758Y434134D01*
X773122Y433954D01*
Y442692D01*
D02*
G37*
G36*
X632000D02*
X623262D01*
Y433954D01*
X624625Y434134D01*
X627079Y435150D01*
X629187Y436767D01*
X630804Y438875D01*
X631820Y441329D01*
X632000Y442692D01*
D02*
G37*
G36*
X620722D02*
X611984D01*
X612163Y441329D01*
X613180Y438875D01*
X614797Y436767D01*
X616904Y435150D01*
X619358Y434134D01*
X620722Y433954D01*
Y442692D01*
D02*
G37*
G36*
X1393916Y442692D02*
X1385178D01*
Y433954D01*
X1386541Y434134D01*
X1388995Y435150D01*
X1391103Y436767D01*
X1392720Y438875D01*
X1393736Y441329D01*
X1393916Y442692D01*
D02*
G37*
G36*
X1382638D02*
X1373900D01*
X1374079Y441329D01*
X1375096Y438875D01*
X1376713Y436767D01*
X1378820Y435150D01*
X1381274Y434134D01*
X1382638Y433954D01*
Y442692D01*
D02*
G37*
G36*
X1241516D02*
X1232778D01*
Y433954D01*
X1234141Y434134D01*
X1236595Y435150D01*
X1238703Y436767D01*
X1240320Y438875D01*
X1241336Y441329D01*
X1241516Y442692D01*
D02*
G37*
G36*
X1230238D02*
X1221500D01*
X1221679Y441329D01*
X1222696Y438875D01*
X1224313Y436767D01*
X1226420Y435150D01*
X1228874Y434134D01*
X1230238Y433954D01*
Y442692D01*
D02*
G37*
G36*
X1089116D02*
X1080378D01*
Y433954D01*
X1081741Y434134D01*
X1084195Y435150D01*
X1086303Y436767D01*
X1087920Y438875D01*
X1088936Y441329D01*
X1089116Y442692D01*
D02*
G37*
G36*
X1077838D02*
X1069100D01*
X1069279Y441329D01*
X1070296Y438875D01*
X1071913Y436767D01*
X1074020Y435150D01*
X1076474Y434134D01*
X1077838Y433954D01*
Y442692D01*
D02*
G37*
G36*
X41990Y437010D02*
Y428320D01*
X50679D01*
X50502Y429671D01*
X49490Y432113D01*
X47881Y434211D01*
X45783Y435820D01*
X43341Y436832D01*
X41990Y437010D01*
D02*
G37*
G36*
X39450D02*
X38099Y436832D01*
X35657Y435820D01*
X33559Y434211D01*
X31950Y432113D01*
X30938Y429671D01*
X30761Y428320D01*
X39450D01*
Y437010D01*
D02*
G37*
G36*
X101020Y436550D02*
X82020D01*
Y417550D01*
X101020D01*
Y436550D01*
D02*
G37*
G36*
X66120Y436632D02*
X63640Y436306D01*
X61329Y435348D01*
X59345Y433826D01*
X57822Y431841D01*
X56865Y429530D01*
X56538Y427050D01*
X56865Y424570D01*
X57822Y422259D01*
X59345Y420275D01*
X61329Y418752D01*
X63640Y417795D01*
X66120Y417468D01*
X68600Y417795D01*
X70911Y418752D01*
X72895Y420275D01*
X74418Y422259D01*
X75375Y424570D01*
X75702Y427050D01*
X75375Y429530D01*
X74418Y431841D01*
X72895Y433826D01*
X70911Y435348D01*
X68600Y436306D01*
X66120Y436632D01*
D02*
G37*
G36*
X50679Y425780D02*
X41990D01*
Y417091D01*
X43341Y417269D01*
X45783Y418280D01*
X47881Y419890D01*
X49490Y421987D01*
X50502Y424429D01*
X50679Y425780D01*
D02*
G37*
G36*
X39450D02*
X30761D01*
X30938Y424429D01*
X31950Y421987D01*
X33559Y419890D01*
X35657Y418280D01*
X38099Y417269D01*
X39450Y417091D01*
Y425780D01*
D02*
G37*
G36*
X41990Y411610D02*
Y402920D01*
X50679D01*
X50502Y404271D01*
X49490Y406713D01*
X47881Y408811D01*
X45783Y410420D01*
X43341Y411432D01*
X41990Y411610D01*
D02*
G37*
G36*
X39450D02*
X38099Y411432D01*
X35657Y410420D01*
X33559Y408811D01*
X31950Y406713D01*
X30938Y404271D01*
X30761Y402920D01*
X39450D01*
Y411610D01*
D02*
G37*
G36*
X101020Y411150D02*
X82020D01*
Y392150D01*
X101020D01*
Y411150D01*
D02*
G37*
G36*
X66120Y411232D02*
X63640Y410906D01*
X61329Y409948D01*
X59345Y408426D01*
X57822Y406441D01*
X56865Y404130D01*
X56538Y401650D01*
X56865Y399170D01*
X57822Y396859D01*
X59345Y394875D01*
X61329Y393352D01*
X63640Y392395D01*
X66120Y392068D01*
X68600Y392395D01*
X70911Y393352D01*
X72895Y394875D01*
X74418Y396859D01*
X75375Y399170D01*
X75702Y401650D01*
X75375Y404130D01*
X74418Y406441D01*
X72895Y408426D01*
X70911Y409948D01*
X68600Y410906D01*
X66120Y411232D01*
D02*
G37*
G36*
X50679Y400380D02*
X41990D01*
Y391691D01*
X43341Y391869D01*
X45783Y392880D01*
X47881Y394490D01*
X49490Y396587D01*
X50502Y399029D01*
X50679Y400380D01*
D02*
G37*
G36*
X39450D02*
X30761D01*
X30938Y399029D01*
X31950Y396587D01*
X33559Y394490D01*
X35657Y392880D01*
X38099Y391869D01*
X39450Y391691D01*
Y400380D01*
D02*
G37*
G36*
X573164Y400228D02*
X554164D01*
Y381228D01*
X573164D01*
Y400228D01*
D02*
G37*
G36*
X1243876Y377039D02*
X1241535Y376574D01*
X1239550Y375247D01*
X1238700Y373975D01*
X1221362D01*
X1220516Y375242D01*
X1218531Y376568D01*
X1216190Y377034D01*
X1213849Y376568D01*
X1211864Y375242D01*
X1210538Y373257D01*
X1210072Y370916D01*
X1210538Y368575D01*
X1211864Y366590D01*
X1213849Y365264D01*
X1216190Y364799D01*
X1218531Y365264D01*
X1220516Y366590D01*
X1221362Y367857D01*
X1238707D01*
X1239550Y366596D01*
X1241535Y365270D01*
X1243876Y364804D01*
X1246217Y365270D01*
X1248202Y366596D01*
X1249528Y368581D01*
X1249994Y370922D01*
X1249528Y373263D01*
X1248202Y375247D01*
X1246217Y376574D01*
X1243876Y377039D01*
D02*
G37*
G36*
X463334Y375288D02*
Y366598D01*
X472023D01*
X471846Y367949D01*
X470834Y370392D01*
X469225Y372489D01*
X467127Y374098D01*
X464685Y375110D01*
X463334Y375288D01*
D02*
G37*
G36*
X564934D02*
Y366598D01*
X573623D01*
X573446Y367949D01*
X572434Y370392D01*
X570825Y372489D01*
X568727Y374098D01*
X566285Y375110D01*
X564934Y375288D01*
D02*
G37*
G36*
X460794D02*
X459443Y375110D01*
X457001Y374098D01*
X454903Y372489D01*
X453294Y370392D01*
X452282Y367949D01*
X452105Y366598D01*
X460794D01*
Y375288D01*
D02*
G37*
G36*
X562394D02*
X561043Y375110D01*
X558601Y374098D01*
X556503Y372489D01*
X554894Y370392D01*
X553882Y367949D01*
X553705Y366598D01*
X562394D01*
Y375288D01*
D02*
G37*
G36*
X573623Y364058D02*
X564934D01*
Y355369D01*
X566285Y355547D01*
X568727Y356558D01*
X570825Y358168D01*
X572434Y360265D01*
X573446Y362707D01*
X573623Y364058D01*
D02*
G37*
G36*
X472023D02*
X463334D01*
Y355369D01*
X464685Y355547D01*
X467127Y356558D01*
X469225Y358168D01*
X470834Y360265D01*
X471846Y362707D01*
X472023Y364058D01*
D02*
G37*
G36*
X562394D02*
X553705D01*
X553882Y362707D01*
X554894Y360265D01*
X556503Y358168D01*
X558601Y356558D01*
X561043Y355547D01*
X562394Y355369D01*
Y364058D01*
D02*
G37*
G36*
X460794D02*
X452105D01*
X452282Y362707D01*
X453294Y360265D01*
X454903Y358168D01*
X457001Y356558D01*
X459443Y355547D01*
X460794Y355369D01*
Y364058D01*
D02*
G37*
G36*
X25360Y352000D02*
X16590D01*
Y343230D01*
X25360D01*
Y352000D01*
D02*
G37*
G36*
X14050D02*
X5280D01*
Y343230D01*
X14050D01*
Y352000D01*
D02*
G37*
G36*
X40720Y351542D02*
X38240Y351216D01*
X35929Y350258D01*
X33945Y348736D01*
X32422Y346751D01*
X31465Y344440D01*
X31138Y341960D01*
X31465Y339480D01*
X32422Y337169D01*
X33945Y335185D01*
X35929Y333662D01*
X38240Y332705D01*
X40720Y332378D01*
X43200Y332705D01*
X45511Y333662D01*
X47495Y335185D01*
X49018Y337169D01*
X49976Y339480D01*
X50302Y341960D01*
X49976Y344440D01*
X49018Y346751D01*
X47495Y348736D01*
X45511Y350258D01*
X43200Y351216D01*
X40720Y351542D01*
D02*
G37*
G36*
X25360Y340690D02*
X16590D01*
Y331920D01*
X25360D01*
Y340690D01*
D02*
G37*
G36*
X14050D02*
X5280D01*
Y331920D01*
X14050D01*
Y340690D01*
D02*
G37*
G36*
X16590Y326520D02*
Y317830D01*
X25280D01*
X25102Y319181D01*
X24090Y321623D01*
X22481Y323721D01*
X20383Y325330D01*
X17941Y326342D01*
X16590Y326520D01*
D02*
G37*
G36*
X14050D02*
X12699Y326342D01*
X10257Y325330D01*
X8159Y323721D01*
X6550Y321623D01*
X5538Y319181D01*
X5361Y317830D01*
X14050D01*
Y326520D01*
D02*
G37*
G36*
X40720Y326142D02*
X38240Y325816D01*
X35929Y324858D01*
X33945Y323336D01*
X32422Y321351D01*
X31465Y319040D01*
X31138Y316560D01*
X31465Y314080D01*
X32422Y311769D01*
X33945Y309785D01*
X35929Y308262D01*
X38240Y307305D01*
X40720Y306978D01*
X43200Y307305D01*
X45511Y308262D01*
X47495Y309785D01*
X49018Y311769D01*
X49976Y314080D01*
X50302Y316560D01*
X49976Y319040D01*
X49018Y321351D01*
X47495Y323336D01*
X45511Y324858D01*
X43200Y325816D01*
X40720Y326142D01*
D02*
G37*
G36*
X25280Y315290D02*
X16590D01*
Y306601D01*
X17941Y306779D01*
X20383Y307790D01*
X22481Y309400D01*
X24090Y311497D01*
X25102Y313939D01*
X25280Y315290D01*
D02*
G37*
G36*
X14050D02*
X5361D01*
X5538Y313939D01*
X6550Y311497D01*
X8159Y309400D01*
X10257Y307790D01*
X12699Y306779D01*
X14050Y306601D01*
Y315290D01*
D02*
G37*
G36*
X16590Y301120D02*
Y292430D01*
X25280D01*
X25102Y293781D01*
X24090Y296224D01*
X22481Y298321D01*
X20383Y299930D01*
X17941Y300942D01*
X16590Y301120D01*
D02*
G37*
G36*
X14050D02*
X12699Y300942D01*
X10257Y299930D01*
X8159Y298321D01*
X6550Y296224D01*
X5538Y293781D01*
X5361Y292430D01*
X14050D01*
Y301120D01*
D02*
G37*
G36*
X298488Y299088D02*
Y290398D01*
X307177D01*
X307000Y291749D01*
X305988Y294191D01*
X304379Y296289D01*
X302281Y297898D01*
X299839Y298910D01*
X298488Y299088D01*
D02*
G37*
G36*
X295948D02*
X294597Y298910D01*
X292155Y297898D01*
X290057Y296289D01*
X288448Y294191D01*
X287436Y291749D01*
X287259Y290398D01*
X295948D01*
Y299088D01*
D02*
G37*
G36*
X40720Y300742D02*
X38240Y300416D01*
X35929Y299458D01*
X33945Y297936D01*
X32422Y295951D01*
X31465Y293640D01*
X31138Y291160D01*
X31465Y288680D01*
X32422Y286369D01*
X33945Y284385D01*
X35929Y282862D01*
X38240Y281905D01*
X40720Y281578D01*
X43200Y281905D01*
X45511Y282862D01*
X47495Y284385D01*
X49018Y286369D01*
X49976Y288680D01*
X50302Y291160D01*
X49976Y293640D01*
X49018Y295951D01*
X47495Y297936D01*
X45511Y299458D01*
X43200Y300416D01*
X40720Y300742D01*
D02*
G37*
G36*
X25280Y289890D02*
X16590D01*
Y281201D01*
X17941Y281379D01*
X20383Y282390D01*
X22481Y284000D01*
X24090Y286097D01*
X25102Y288539D01*
X25280Y289890D01*
D02*
G37*
G36*
X14050D02*
X5361D01*
X5538Y288539D01*
X6550Y286097D01*
X8159Y284000D01*
X10257Y282390D01*
X12699Y281379D01*
X14050Y281201D01*
Y289890D01*
D02*
G37*
G36*
X195618Y298710D02*
X193138Y298384D01*
X190827Y297426D01*
X188843Y295904D01*
X187320Y293919D01*
X186362Y291608D01*
X186036Y289128D01*
X186362Y286648D01*
X187320Y284337D01*
X188843Y282353D01*
X190827Y280830D01*
X193138Y279873D01*
X195618Y279546D01*
X198098Y279873D01*
X200409Y280830D01*
X202393Y282353D01*
X203916Y284337D01*
X204874Y286648D01*
X205200Y289128D01*
X204874Y291608D01*
X203916Y293919D01*
X202393Y295904D01*
X200409Y297426D01*
X198098Y298384D01*
X195618Y298710D01*
D02*
G37*
G36*
X170218D02*
X167738Y298384D01*
X165427Y297426D01*
X163442Y295904D01*
X161920Y293919D01*
X160963Y291608D01*
X160636Y289128D01*
X160963Y286648D01*
X161920Y284337D01*
X163442Y282353D01*
X165427Y280830D01*
X167738Y279873D01*
X170218Y279546D01*
X172698Y279873D01*
X175009Y280830D01*
X176993Y282353D01*
X178516Y284337D01*
X179473Y286648D01*
X179800Y289128D01*
X179473Y291608D01*
X178516Y293919D01*
X176993Y295904D01*
X175009Y297426D01*
X172698Y298384D01*
X170218Y298710D01*
D02*
G37*
G36*
X307177Y287858D02*
X298488D01*
Y279169D01*
X299839Y279347D01*
X302281Y280358D01*
X304379Y281968D01*
X305988Y284065D01*
X307000Y286507D01*
X307177Y287858D01*
D02*
G37*
G36*
X368137D02*
X359448D01*
Y279169D01*
X360799Y279347D01*
X363241Y280358D01*
X365339Y281968D01*
X366948Y284065D01*
X367960Y286507D01*
X368137Y287858D01*
D02*
G37*
G36*
X356908D02*
X348219D01*
X348396Y286507D01*
X349408Y284065D01*
X351017Y281968D01*
X353115Y280358D01*
X355557Y279347D01*
X356908Y279169D01*
Y287858D01*
D02*
G37*
G36*
X295948D02*
X287259D01*
X287436Y286507D01*
X288448Y284065D01*
X290057Y281968D01*
X292155Y280358D01*
X294597Y279347D01*
X295948Y279169D01*
Y287858D01*
D02*
G37*
G36*
X16590Y275720D02*
Y267030D01*
X25280D01*
X25102Y268381D01*
X24090Y270823D01*
X22481Y272921D01*
X20383Y274530D01*
X17941Y275542D01*
X16590Y275720D01*
D02*
G37*
G36*
X14050D02*
X12699Y275542D01*
X10257Y274530D01*
X8159Y272921D01*
X6550Y270823D01*
X5538Y268381D01*
X5361Y267030D01*
X14050D01*
Y275720D01*
D02*
G37*
G36*
X298488Y273688D02*
Y264998D01*
X307177D01*
X307000Y266349D01*
X305988Y268792D01*
X304379Y270889D01*
X302281Y272498D01*
X299839Y273510D01*
X298488Y273688D01*
D02*
G37*
G36*
X295948D02*
X294597Y273510D01*
X292155Y272498D01*
X290057Y270889D01*
X288448Y268792D01*
X287436Y266349D01*
X287259Y264998D01*
X295948D01*
Y273688D01*
D02*
G37*
G36*
X25280Y264490D02*
X16590D01*
Y255801D01*
X17941Y255979D01*
X20383Y256990D01*
X22481Y258600D01*
X24090Y260697D01*
X25102Y263139D01*
X25280Y264490D01*
D02*
G37*
G36*
X14050D02*
X5361D01*
X5538Y263139D01*
X6550Y260697D01*
X8159Y258600D01*
X10257Y256990D01*
X12699Y255979D01*
X14050Y255801D01*
Y264490D01*
D02*
G37*
G36*
X322618Y273310D02*
X320138Y272984D01*
X317827Y272026D01*
X315842Y270504D01*
X314320Y268519D01*
X313363Y266208D01*
X313036Y263728D01*
X313363Y261248D01*
X314320Y258937D01*
X315842Y256953D01*
X317827Y255430D01*
X320138Y254473D01*
X322618Y254146D01*
X325098Y254473D01*
X327409Y255430D01*
X329393Y256953D01*
X330916Y258937D01*
X331874Y261248D01*
X332200Y263728D01*
X331874Y266208D01*
X330916Y268519D01*
X329393Y270504D01*
X327409Y272026D01*
X325098Y272984D01*
X322618Y273310D01*
D02*
G37*
G36*
X195618D02*
X193138Y272984D01*
X190827Y272026D01*
X188843Y270504D01*
X187320Y268519D01*
X186362Y266208D01*
X186036Y263728D01*
X186362Y261248D01*
X187320Y258937D01*
X188843Y256953D01*
X190827Y255430D01*
X193138Y254473D01*
X195618Y254146D01*
X198098Y254473D01*
X200409Y255430D01*
X202393Y256953D01*
X203916Y258937D01*
X204874Y261248D01*
X205200Y263728D01*
X204874Y266208D01*
X203916Y268519D01*
X202393Y270504D01*
X200409Y272026D01*
X198098Y272984D01*
X195618Y273310D01*
D02*
G37*
G36*
X170218D02*
X167738Y272984D01*
X165427Y272026D01*
X163442Y270504D01*
X161920Y268519D01*
X160963Y266208D01*
X160636Y263728D01*
X160963Y261248D01*
X161920Y258937D01*
X163442Y256953D01*
X165427Y255430D01*
X167738Y254473D01*
X170218Y254146D01*
X172698Y254473D01*
X175009Y255430D01*
X176993Y256953D01*
X178516Y258937D01*
X179473Y261248D01*
X179800Y263728D01*
X179473Y266208D01*
X178516Y268519D01*
X176993Y270504D01*
X175009Y272026D01*
X172698Y272984D01*
X170218Y273310D01*
D02*
G37*
G36*
X307177Y262458D02*
X298488D01*
Y253769D01*
X299839Y253947D01*
X302281Y254958D01*
X304379Y256568D01*
X305988Y258665D01*
X307000Y261107D01*
X307177Y262458D01*
D02*
G37*
G36*
X295948D02*
X287259D01*
X287436Y261107D01*
X288448Y258665D01*
X290057Y256568D01*
X292155Y254958D01*
X294597Y253947D01*
X295948Y253769D01*
Y262458D01*
D02*
G37*
G36*
X16590Y250320D02*
Y241630D01*
X25280D01*
X25102Y242981D01*
X24090Y245424D01*
X22481Y247521D01*
X20383Y249130D01*
X17941Y250142D01*
X16590Y250320D01*
D02*
G37*
G36*
X14050D02*
X12699Y250142D01*
X10257Y249130D01*
X8159Y247521D01*
X6550Y245424D01*
X5538Y242981D01*
X5361Y241630D01*
X14050D01*
Y250320D01*
D02*
G37*
G36*
X371894Y239652D02*
Y230962D01*
X380583D01*
X380406Y232313D01*
X379394Y234755D01*
X377785Y236853D01*
X375687Y238462D01*
X373245Y239474D01*
X371894Y239652D01*
D02*
G37*
G36*
X336334D02*
Y230962D01*
X345023D01*
X344846Y232313D01*
X343834Y234755D01*
X342225Y236853D01*
X340127Y238462D01*
X337685Y239474D01*
X336334Y239652D01*
D02*
G37*
G36*
X333794D02*
X332443Y239474D01*
X330001Y238462D01*
X327903Y236853D01*
X326294Y234755D01*
X325282Y232313D01*
X325105Y230962D01*
X333794D01*
Y239652D01*
D02*
G37*
G36*
X369354D02*
X368003Y239474D01*
X365561Y238462D01*
X363463Y236853D01*
X361854Y234755D01*
X360842Y232313D01*
X360665Y230962D01*
X369354D01*
Y239652D01*
D02*
G37*
G36*
X25280Y239090D02*
X16590D01*
Y230401D01*
X17941Y230579D01*
X20383Y231590D01*
X22481Y233200D01*
X24090Y235297D01*
X25102Y237739D01*
X25280Y239090D01*
D02*
G37*
G36*
X14050D02*
X5361D01*
X5538Y237739D01*
X6550Y235297D01*
X8159Y233200D01*
X10257Y231590D01*
X12699Y230579D01*
X14050Y230401D01*
Y239090D01*
D02*
G37*
G36*
X380583Y228422D02*
X371894D01*
Y219733D01*
X373245Y219911D01*
X375687Y220922D01*
X377785Y222532D01*
X379394Y224629D01*
X380406Y227071D01*
X380583Y228422D01*
D02*
G37*
G36*
X369354D02*
X360665D01*
X360842Y227071D01*
X361854Y224629D01*
X363463Y222532D01*
X365561Y220922D01*
X368003Y219911D01*
X369354Y219733D01*
Y228422D01*
D02*
G37*
G36*
X833158Y185934D02*
X830678Y185608D01*
X828367Y184650D01*
X826754Y183413D01*
X821220D01*
X819393Y183172D01*
X817690Y182467D01*
X816228Y181345D01*
X800988Y166105D01*
X799865Y164642D01*
X799160Y162940D01*
X798920Y161112D01*
Y154380D01*
X794236D01*
Y135380D01*
X798920D01*
Y74760D01*
X797421Y73611D01*
X795498Y71104D01*
X794289Y68185D01*
X793876Y65052D01*
Y59052D01*
X794289Y55920D01*
X795498Y53000D01*
X797421Y50494D01*
X799928Y48570D01*
X802847Y47361D01*
X805980Y46949D01*
X809113Y47361D01*
X812032Y48570D01*
X814538Y50494D01*
X816462Y53000D01*
X817671Y55920D01*
X818084Y59052D01*
Y65052D01*
X817671Y68185D01*
X816462Y71104D01*
X814538Y73611D01*
X813040Y74760D01*
Y135380D01*
X813236D01*
Y154380D01*
X813040D01*
Y158188D01*
X824145Y169292D01*
X826754D01*
X828367Y168054D01*
X830678Y167097D01*
X833158Y166770D01*
X835638Y167097D01*
X837949Y168054D01*
X839933Y169577D01*
X841456Y171561D01*
X842413Y173872D01*
X842740Y176352D01*
X842413Y178832D01*
X841456Y181143D01*
X839933Y183128D01*
X837949Y184650D01*
X835638Y185608D01*
X833158Y185934D01*
D02*
G37*
G36*
X746798Y185426D02*
X744318Y185100D01*
X742007Y184142D01*
X740394Y182905D01*
X736130D01*
X734303Y182664D01*
X732600Y181959D01*
X731138Y180837D01*
X715898Y165597D01*
X714775Y164134D01*
X714070Y162432D01*
X713830Y160604D01*
Y154384D01*
X707874D01*
Y135384D01*
X713830D01*
Y74252D01*
X712331Y73103D01*
X710408Y70596D01*
X709199Y67677D01*
X708786Y64544D01*
Y58544D01*
X709199Y55412D01*
X710408Y52492D01*
X712331Y49986D01*
X714838Y48062D01*
X717757Y46853D01*
X720890Y46441D01*
X724023Y46853D01*
X726942Y48062D01*
X729448Y49986D01*
X731372Y52492D01*
X732581Y55412D01*
X732994Y58544D01*
Y64544D01*
X732581Y67677D01*
X731372Y70596D01*
X729448Y73103D01*
X727950Y74252D01*
Y157680D01*
X739054Y168784D01*
X740394D01*
X742007Y167546D01*
X744318Y166589D01*
X746798Y166262D01*
X749278Y166589D01*
X751589Y167546D01*
X753573Y169069D01*
X755096Y171053D01*
X756053Y173364D01*
X756380Y175844D01*
X756053Y178324D01*
X755096Y180635D01*
X753573Y182620D01*
X751589Y184142D01*
X749278Y185100D01*
X746798Y185426D01*
D02*
G37*
G36*
X53018Y164268D02*
X51321Y164045D01*
X49740Y163390D01*
X48382Y162348D01*
X47340Y160990D01*
X46685Y159409D01*
X46462Y157712D01*
X46685Y156015D01*
X47340Y154434D01*
X48382Y153076D01*
X49740Y152034D01*
X51321Y151379D01*
X53018Y151156D01*
X54715Y151379D01*
X56296Y152034D01*
X57654Y153076D01*
X58696Y154434D01*
X59350Y156015D01*
X59574Y157712D01*
X59350Y159409D01*
X58696Y160990D01*
X57654Y162348D01*
X56296Y163390D01*
X54715Y164045D01*
X53018Y164268D01*
D02*
G37*
G36*
X140754Y157232D02*
X138274Y156906D01*
X135963Y155948D01*
X133979Y154426D01*
X132456Y152441D01*
X131498Y150130D01*
X131172Y147650D01*
X131498Y145170D01*
X132456Y142859D01*
X133979Y140875D01*
X135963Y139352D01*
X138274Y138395D01*
X140754Y138068D01*
X143234Y138395D01*
X145545Y139352D01*
X147529Y140875D01*
X149052Y142859D01*
X150009Y145170D01*
X150336Y147650D01*
X150009Y150130D01*
X149052Y152441D01*
X147529Y154426D01*
X145545Y155948D01*
X143234Y156906D01*
X140754Y157232D01*
D02*
G37*
G36*
X1211850Y164161D02*
X1208195Y163680D01*
X1204790Y162269D01*
X1201865Y160025D01*
X1199621Y157101D01*
X1198210Y153695D01*
X1197729Y150040D01*
X1198210Y146385D01*
X1199621Y142980D01*
X1201865Y140055D01*
X1204790Y137811D01*
X1208195Y136400D01*
X1211850Y135919D01*
X1215505Y136400D01*
X1218910Y137811D01*
X1221835Y140055D01*
X1224079Y142980D01*
X1225490Y146385D01*
X1225971Y150040D01*
X1225490Y153695D01*
X1224079Y157101D01*
X1221835Y160025D01*
X1218910Y162269D01*
X1215505Y163680D01*
X1211850Y164161D01*
D02*
G37*
G36*
X1151950D02*
X1148295Y163680D01*
X1144890Y162269D01*
X1141965Y160025D01*
X1139721Y157101D01*
X1138310Y153695D01*
X1137829Y150040D01*
X1138310Y146385D01*
X1139721Y142980D01*
X1141965Y140055D01*
X1144890Y137811D01*
X1148295Y136400D01*
X1151950Y135919D01*
X1155605Y136400D01*
X1159010Y137811D01*
X1161935Y140055D01*
X1164179Y142980D01*
X1165590Y146385D01*
X1166071Y150040D01*
X1165590Y153695D01*
X1164179Y157101D01*
X1161935Y160025D01*
X1159010Y162269D01*
X1155605Y163680D01*
X1151950Y164161D01*
D02*
G37*
G36*
X1115350D02*
X1111695Y163680D01*
X1108290Y162269D01*
X1105365Y160025D01*
X1103121Y157101D01*
X1101710Y153695D01*
X1101229Y150040D01*
X1101710Y146385D01*
X1103121Y142980D01*
X1105365Y140055D01*
X1108290Y137811D01*
X1111695Y136400D01*
X1115350Y135919D01*
X1119005Y136400D01*
X1122410Y137811D01*
X1125335Y140055D01*
X1127579Y142980D01*
X1128990Y146385D01*
X1129471Y150040D01*
X1128990Y153695D01*
X1127579Y157101D01*
X1125335Y160025D01*
X1122410Y162269D01*
X1119005Y163680D01*
X1115350Y164161D01*
D02*
G37*
G36*
X691974Y154466D02*
X689494Y154140D01*
X687183Y153182D01*
X685199Y151660D01*
X683676Y149675D01*
X682719Y147364D01*
X682392Y144884D01*
X682719Y142404D01*
X683676Y140093D01*
X685199Y138109D01*
X687183Y136586D01*
X689494Y135629D01*
X691974Y135302D01*
X694454Y135629D01*
X696765Y136586D01*
X698749Y138109D01*
X700272Y140093D01*
X701229Y142404D01*
X701556Y144884D01*
X701229Y147364D01*
X700272Y149675D01*
X698749Y151660D01*
X696765Y153182D01*
X694454Y154140D01*
X691974Y154466D01*
D02*
G37*
G36*
X778336Y154462D02*
X775856Y154136D01*
X773545Y153178D01*
X771561Y151656D01*
X770038Y149671D01*
X769081Y147360D01*
X768754Y144880D01*
X769081Y142400D01*
X770038Y140089D01*
X771561Y138105D01*
X773545Y136582D01*
X775856Y135625D01*
X778336Y135298D01*
X780816Y135625D01*
X783127Y136582D01*
X785111Y138105D01*
X786634Y140089D01*
X787591Y142400D01*
X787918Y144880D01*
X787591Y147360D01*
X786634Y149671D01*
X785111Y151656D01*
X783127Y153178D01*
X780816Y154136D01*
X778336Y154462D01*
D02*
G37*
G36*
X173464Y145584D02*
X171123Y145118D01*
X169138Y143792D01*
X167812Y141807D01*
X167347Y139466D01*
X167579Y138296D01*
X154867Y125584D01*
X149656D01*
X149052Y127041D01*
X147529Y129026D01*
X145545Y130548D01*
X143234Y131506D01*
X140754Y131832D01*
X138274Y131506D01*
X135963Y130548D01*
X133979Y129026D01*
X132456Y127041D01*
X131498Y124730D01*
X131172Y122250D01*
X131498Y119770D01*
X132456Y117459D01*
X133979Y115475D01*
X135963Y113952D01*
X138274Y112995D01*
X140754Y112668D01*
X143234Y112995D01*
X145545Y113952D01*
X147529Y115475D01*
X149052Y117459D01*
X149656Y118916D01*
X156248D01*
X157524Y119170D01*
X158605Y119893D01*
X172294Y133581D01*
X173464Y133349D01*
X175805Y133814D01*
X177790Y135141D01*
X179116Y137125D01*
X179582Y139466D01*
X179116Y141807D01*
X177790Y143792D01*
X175805Y145118D01*
X173464Y145584D01*
D02*
G37*
G36*
X53018Y120269D02*
X51321Y120046D01*
X49740Y119391D01*
X48382Y118349D01*
X47340Y116991D01*
X46685Y115410D01*
X46462Y113713D01*
X46685Y112016D01*
X47340Y110435D01*
X48382Y109077D01*
X49740Y108035D01*
X51321Y107381D01*
X53018Y107157D01*
X54715Y107381D01*
X56296Y108035D01*
X57654Y109077D01*
X58696Y110435D01*
X59350Y112016D01*
X59574Y113713D01*
X59350Y115410D01*
X58696Y116991D01*
X57654Y118349D01*
X56296Y119391D01*
X54715Y120046D01*
X53018Y120269D01*
D02*
G37*
G36*
X150794Y106890D02*
X142024D01*
Y98120D01*
X150794D01*
Y106890D01*
D02*
G37*
G36*
X139484D02*
X130714D01*
Y98120D01*
X139484D01*
Y106890D01*
D02*
G37*
G36*
X150794Y95580D02*
X142024D01*
Y86810D01*
X150794D01*
Y95580D01*
D02*
G37*
G36*
X139484D02*
X130714D01*
Y86810D01*
X139484D01*
Y95580D01*
D02*
G37*
G36*
X394754Y57788D02*
Y49098D01*
X403443D01*
X403266Y50449D01*
X402254Y52892D01*
X400645Y54989D01*
X398547Y56598D01*
X396105Y57610D01*
X394754Y57788D01*
D02*
G37*
G36*
X392214D02*
X390863Y57610D01*
X388421Y56598D01*
X386323Y54989D01*
X384714Y52892D01*
X383702Y50449D01*
X383525Y49098D01*
X392214D01*
Y57788D01*
D02*
G37*
G36*
X770980Y77156D02*
X767847Y76743D01*
X764928Y75534D01*
X762421Y73611D01*
X760498Y71104D01*
X759289Y68185D01*
X758876Y65052D01*
Y59052D01*
X759289Y55920D01*
X760498Y53000D01*
X762421Y50494D01*
X764928Y48570D01*
X767847Y47361D01*
X770980Y46949D01*
X774112Y47361D01*
X777032Y48570D01*
X779538Y50494D01*
X781462Y53000D01*
X782671Y55920D01*
X783083Y59052D01*
Y65052D01*
X782671Y68185D01*
X781462Y71104D01*
X779538Y73611D01*
X777032Y75534D01*
X774112Y76743D01*
X770980Y77156D01*
D02*
G37*
G36*
X685890Y76648D02*
X682757Y76235D01*
X679838Y75026D01*
X677331Y73103D01*
X675408Y70596D01*
X674199Y67677D01*
X673786Y64544D01*
Y58544D01*
X674199Y55412D01*
X675408Y52492D01*
X677331Y49986D01*
X679838Y48062D01*
X682757Y46853D01*
X685890Y46441D01*
X689022Y46853D01*
X691942Y48062D01*
X694448Y49986D01*
X696372Y52492D01*
X697581Y55412D01*
X697993Y58544D01*
Y64544D01*
X697581Y67677D01*
X696372Y70596D01*
X694448Y73103D01*
X691942Y75026D01*
X689022Y76235D01*
X685890Y76648D01*
D02*
G37*
G36*
X1195832Y82864D02*
X1192499Y82536D01*
X1189295Y81564D01*
X1186341Y79985D01*
X1183753Y77861D01*
X1181628Y75273D01*
X1180050Y72319D01*
X1179078Y69115D01*
X1178750Y65782D01*
Y55782D01*
X1179078Y52450D01*
X1180050Y49245D01*
X1181628Y46292D01*
X1183753Y43703D01*
X1186341Y41579D01*
X1189295Y40000D01*
X1192499Y39028D01*
X1195832Y38700D01*
X1199165Y39028D01*
X1202369Y40000D01*
X1205322Y41579D01*
X1207911Y43703D01*
X1210035Y46292D01*
X1211614Y49245D01*
X1212586Y52450D01*
X1212914Y55782D01*
Y65782D01*
X1212586Y69115D01*
X1211614Y72319D01*
X1210035Y75273D01*
X1207911Y77861D01*
X1205322Y79985D01*
X1202369Y81564D01*
X1199165Y82536D01*
X1195832Y82864D01*
D02*
G37*
G36*
X1096010D02*
X1092677Y82536D01*
X1089473Y81564D01*
X1086519Y79985D01*
X1083931Y77861D01*
X1081806Y75273D01*
X1080228Y72319D01*
X1079256Y69115D01*
X1078928Y65782D01*
Y55782D01*
X1079256Y52450D01*
X1080228Y49245D01*
X1081806Y46292D01*
X1083931Y43703D01*
X1086519Y41579D01*
X1089473Y40000D01*
X1092677Y39028D01*
X1096010Y38700D01*
X1099342Y39028D01*
X1102547Y40000D01*
X1105500Y41579D01*
X1108089Y43703D01*
X1110213Y46292D01*
X1111792Y49245D01*
X1112764Y52450D01*
X1113092Y55782D01*
Y65782D01*
X1112764Y69115D01*
X1111792Y72319D01*
X1110213Y75273D01*
X1108089Y77861D01*
X1105500Y79985D01*
X1102547Y81564D01*
X1099342Y82536D01*
X1096010Y82864D01*
D02*
G37*
G36*
X403443Y46558D02*
X394754D01*
Y37869D01*
X396105Y38047D01*
X398547Y39058D01*
X400645Y40668D01*
X402254Y42765D01*
X403266Y45207D01*
X403443Y46558D01*
D02*
G37*
G36*
X392214D02*
X383525D01*
X383702Y45207D01*
X384714Y42765D01*
X386323Y40668D01*
X388421Y39058D01*
X390863Y38047D01*
X392214Y37869D01*
Y46558D01*
D02*
G37*
G36*
X272326Y39519D02*
X269152Y39101D01*
X266194Y37876D01*
X263653Y35927D01*
X261704Y33387D01*
X260479Y30429D01*
X260061Y27254D01*
X260479Y24080D01*
X261704Y21122D01*
X263653Y18582D01*
X266194Y16632D01*
X269152Y15407D01*
X272326Y14989D01*
X275500Y15407D01*
X278458Y16632D01*
X280999Y18582D01*
X282948Y21122D01*
X284173Y24080D01*
X284591Y27254D01*
X284173Y30429D01*
X282948Y33387D01*
X280999Y35927D01*
X278458Y37876D01*
X275500Y39101D01*
X272326Y39519D01*
D02*
G37*
G36*
X226606D02*
X223432Y39101D01*
X220473Y37876D01*
X217933Y35927D01*
X215984Y33387D01*
X214759Y30429D01*
X214341Y27254D01*
X214759Y24080D01*
X215984Y21122D01*
X217933Y18582D01*
X220473Y16632D01*
X223432Y15407D01*
X226606Y14989D01*
X229780Y15407D01*
X232738Y16632D01*
X235279Y18582D01*
X237228Y21122D01*
X238453Y24080D01*
X238871Y27254D01*
X238453Y30429D01*
X237228Y33387D01*
X235279Y35927D01*
X232738Y37876D01*
X229780Y39101D01*
X226606Y39519D01*
D02*
G37*
%LPD*%
G36*
X661708Y210826D02*
X659228Y210500D01*
X656917Y209542D01*
X654932Y208020D01*
X653410Y206035D01*
X652452Y203724D01*
X652126Y201244D01*
X652452Y198764D01*
X653410Y196453D01*
X654932Y194469D01*
X656917Y192946D01*
X659228Y191989D01*
X661708Y191662D01*
Y185426D01*
X659228Y185100D01*
X656917Y184142D01*
X655304Y182905D01*
X652818D01*
X650991Y182664D01*
X649288Y181959D01*
X647826Y180837D01*
X632586Y165597D01*
X631464Y164134D01*
X630758Y162432D01*
X630518Y160604D01*
Y78054D01*
X580174D01*
Y214706D01*
X661708D01*
Y210826D01*
D02*
G37*
G36*
X577634Y78054D02*
X495338D01*
Y214706D01*
X577634D01*
Y78054D01*
D02*
G37*
G36*
X493299D02*
X414312D01*
Y214452D01*
X493299D01*
Y78054D01*
D02*
G37*
%LPC*%
G36*
X1329750Y164161D02*
X1326095Y163680D01*
X1322690Y162269D01*
X1319765Y160025D01*
X1317521Y157101D01*
X1316110Y153695D01*
X1315629Y150040D01*
X1316110Y146385D01*
X1317521Y142980D01*
X1319765Y140055D01*
X1322690Y137811D01*
X1326095Y136400D01*
X1329750Y135919D01*
X1333405Y136400D01*
X1336810Y137811D01*
X1339735Y140055D01*
X1341979Y142980D01*
X1343390Y146385D01*
X1343871Y150040D01*
X1343390Y153695D01*
X1341979Y157101D01*
X1339735Y160025D01*
X1336810Y162269D01*
X1333405Y163680D01*
X1329750Y164161D01*
D02*
G37*
G36*
X1293150D02*
X1289495Y163680D01*
X1286090Y162269D01*
X1283165Y160025D01*
X1280921Y157101D01*
X1279510Y153695D01*
X1279029Y150040D01*
X1279510Y146385D01*
X1280921Y142980D01*
X1283165Y140055D01*
X1286090Y137811D01*
X1289495Y136400D01*
X1293150Y135919D01*
X1296805Y136400D01*
X1300210Y137811D01*
X1303135Y140055D01*
X1305379Y142980D01*
X1306790Y146385D01*
X1307271Y150040D01*
X1306790Y153695D01*
X1305379Y157101D01*
X1303135Y160025D01*
X1300210Y162269D01*
X1296805Y163680D01*
X1293150Y164161D01*
D02*
G37*
%LPD*%
D26*
X66116Y654380D02*
D03*
Y628980D02*
D03*
Y603580D02*
D03*
Y578180D02*
D03*
Y552780D02*
D03*
X66116Y527380D02*
D03*
X91520Y401650D02*
D03*
Y427050D02*
D03*
Y452450D02*
D03*
Y477850D02*
D03*
X1056424Y658698D02*
D03*
X1209332Y658444D02*
D03*
X1361478Y658190D02*
D03*
X601256Y658698D02*
D03*
X753402D02*
D03*
X906818Y658952D02*
D03*
X284264Y204292D02*
D03*
X563664Y390728D02*
D03*
X322618Y289128D02*
D03*
X447426Y724440D02*
D03*
X265308D02*
D03*
X803736Y144880D02*
D03*
X717374Y144884D02*
D03*
X328968Y644220D02*
D03*
D43*
X1133132Y593138D02*
Y658444D01*
Y593138D02*
X1231508Y494762D01*
X1158532Y593138D02*
Y658444D01*
Y593138D02*
X1231508Y520162D01*
X1183932Y593138D02*
Y658444D01*
Y593138D02*
X1231508Y545562D01*
X1209332Y593138D02*
Y658444D01*
Y593138D02*
X1231508Y570962D01*
X1285278Y593392D02*
Y658190D01*
Y593392D02*
X1383908Y494762D01*
X1310678Y593392D02*
Y658190D01*
Y593392D02*
X1383908Y520162D01*
X1336078Y593392D02*
Y658190D01*
Y593392D02*
X1383908Y545562D01*
X1361478Y593392D02*
Y658190D01*
Y593392D02*
X1383908Y570962D01*
X980224Y593646D02*
Y658698D01*
Y593646D02*
X1079108Y494762D01*
X1005624Y593646D02*
Y658698D01*
Y593646D02*
X1079108Y520162D01*
X1031024Y593646D02*
Y658698D01*
Y593646D02*
X1079108Y545562D01*
X1056424Y593646D02*
Y658698D01*
Y593646D02*
X1079108Y570962D01*
X906818Y591619D02*
Y658952D01*
Y591619D02*
X926792Y571646D01*
X881418Y591619D02*
Y658952D01*
Y591619D02*
X926792Y546246D01*
X856018Y591619D02*
Y658952D01*
Y591619D02*
X926792Y520846D01*
X830618Y591619D02*
Y658952D01*
Y591619D02*
X926792Y495446D01*
X753402Y592635D02*
Y658698D01*
Y592635D02*
X774391Y571646D01*
X728002Y592635D02*
Y658698D01*
Y592635D02*
X774391Y546246D01*
X702602Y592635D02*
Y658698D01*
Y592635D02*
X774391Y520846D01*
X677202Y592635D02*
Y658698D01*
Y592635D02*
X774391Y495446D01*
X601256Y592381D02*
Y658698D01*
Y592381D02*
X621992Y571646D01*
X575856Y592381D02*
Y658698D01*
Y592381D02*
X621992Y546246D01*
X550456Y592381D02*
Y658698D01*
Y592381D02*
X621992Y520846D01*
X525056Y592381D02*
Y658698D01*
Y592381D02*
X621992Y495446D01*
X1383908Y621762D02*
Y672083D01*
X1376972Y679018D02*
X1383908Y672083D01*
X621992Y664702D02*
X636308Y679018D01*
X621992Y621762D02*
Y664702D01*
X774391Y621762D02*
Y677910D01*
X926792Y621762D02*
Y677656D01*
X636308Y679018D02*
X928154D01*
X926792Y677656D02*
X928154Y679018D01*
X1079108Y621762D02*
Y677826D01*
X1080300Y679018D01*
X928154D02*
X1080300D01*
X1231508Y621762D02*
Y677826D01*
X1080300Y679018D02*
X1376972D01*
X637578Y61544D02*
Y160604D01*
X652818Y175844D01*
X661708D01*
X736130D02*
X745020D01*
X720890Y160604D02*
X736130Y175844D01*
X821220Y176352D02*
X830110D01*
X805980Y161112D02*
X821220Y176352D01*
X1348270Y331038D02*
X1366304D01*
X1347762Y175590D02*
X1348524Y176352D01*
X1366050D02*
Y189814D01*
X1367066Y190830D01*
X1348524Y176352D02*
X1366050D01*
X1387894D01*
X1386370Y187300D02*
X1391730Y181940D01*
X1386370Y187300D02*
Y310972D01*
X1366304Y331038D02*
X1386370Y310972D01*
X720890Y61544D02*
Y160604D01*
X805980Y62052D02*
Y161112D01*
D45*
X661708Y23444D02*
Y150444D01*
X746798Y24968D02*
Y150444D01*
X833158Y22936D02*
Y150952D01*
X661708Y201244D02*
X746798D01*
X832650D01*
D46*
X434378Y711393D02*
X447425Y724440D01*
X434378Y689178D02*
Y711393D01*
X400596Y655396D02*
X434378Y689178D01*
X400596Y654126D02*
Y655396D01*
X409232Y711646D02*
X422025Y724440D01*
X409232Y687908D02*
Y711646D01*
X391960Y670636D02*
X409232Y687908D01*
X391960Y662508D02*
Y670636D01*
X357416Y710630D02*
X371226Y724440D01*
X357416Y688162D02*
Y710630D01*
X348780Y679526D02*
X357416Y688162D01*
X307632Y679526D02*
X348780D01*
X255562Y627456D02*
X307632Y679526D01*
X255562Y575386D02*
Y627456D01*
X306826Y699040D02*
X345826D01*
X246164Y638378D02*
X306826Y699040D01*
X246164Y571068D02*
Y638378D01*
X391706Y523062D02*
X397040D01*
X405930Y531952D01*
Y568528D01*
X412534Y575132D02*
X430060D01*
X405930Y568528D02*
X412534Y575132D01*
X236512Y563702D02*
Y575862D01*
Y563702D02*
X239814Y560400D01*
X308902Y634060D02*
X319062Y644220D01*
X328968D01*
X239814Y560400D02*
X259118D01*
X308902Y610184D01*
Y634060D01*
X300520Y165430D02*
X300774D01*
X323380Y188036D01*
Y192608D01*
X335064Y204292D01*
X104150Y302590D02*
X105420Y303860D01*
X140754Y122250D02*
X156248D01*
X173464Y139466D01*
X347961Y435432D02*
X360426Y422967D01*
X337604Y435432D02*
X347961D01*
X360426Y309372D02*
Y422967D01*
X376720Y442798D02*
Y443180D01*
D47*
X115100Y308940D02*
X201172Y395012D01*
X115100Y281790D02*
Y308940D01*
X111770Y278460D02*
X115100Y281790D01*
X105420Y303860D02*
Y324180D01*
X180350Y399110D01*
X158760Y403110D02*
X210604D01*
X100044Y344394D02*
X158760Y403110D01*
X119390Y305635D02*
X201181Y387426D01*
X119390Y254330D02*
Y305635D01*
X442760Y380060D02*
X453936Y391236D01*
X488480Y406984D02*
X521500D01*
X478066Y417398D02*
X488480Y406984D01*
Y394792D02*
Y406984D01*
Y394792D02*
X492544Y390728D01*
X521500Y406984D02*
X526580Y401904D01*
Y382092D02*
Y401904D01*
Y382092D02*
X543344Y365328D01*
X467906Y418414D02*
X475780Y410540D01*
Y386156D02*
Y410540D01*
Y386156D02*
X485178Y376758D01*
X85890Y510870D02*
X88932Y513912D01*
X66120Y477850D02*
X95330Y507060D01*
X306582Y119998D02*
X334302Y92278D01*
X268482Y119998D02*
X306582D01*
X253022Y135458D02*
X268482Y119998D01*
X60490Y217500D02*
X95584D01*
X45250Y202260D02*
X60490Y217500D01*
X253022Y135458D02*
Y216992D01*
X114338Y465150D02*
X134404Y445084D01*
X345131Y427397D02*
X349957D01*
X464350Y391236D02*
X467144Y388442D01*
X453936Y391236D02*
X464350D01*
X210604Y403110D02*
X218478Y410984D01*
X180350Y399110D02*
X216954D01*
X142786Y498170D02*
X185966D01*
X134404Y489788D02*
X142786Y498170D01*
X157076Y478170D02*
X193266D01*
X163360Y467436D02*
X186982D01*
X149898Y453974D02*
X163360Y467436D01*
X207556Y459054D02*
Y530428D01*
X218100Y521732D02*
Y528272D01*
X211556Y515188D02*
X218100Y521732D01*
X211556Y460711D02*
Y515188D01*
X216080Y422874D02*
X217716Y424510D01*
X384340Y490296D02*
X391706Y497662D01*
X368846Y520522D02*
Y604342D01*
Y520522D02*
X391706Y497662D01*
X232194Y379044D02*
X236085Y382935D01*
X286042Y433400D02*
X295694Y443052D01*
X339128Y405714D02*
Y413842D01*
X384340Y481914D02*
Y490296D01*
X422694Y481914D02*
X427774Y486994D01*
X485178Y376758D02*
X506514D01*
X517944Y365328D01*
X427774Y486994D02*
X459778D01*
X467906Y478866D01*
Y418414D02*
Y478866D01*
X454190Y499440D02*
X467144D01*
X478066Y488518D01*
Y417398D02*
Y488518D01*
X242354Y490550D02*
Y530682D01*
Y490550D02*
X276641Y456264D01*
X353355D01*
X258864Y479697D02*
X278298Y460263D01*
X359255D01*
X258864Y479697D02*
Y530936D01*
X201718Y217504D02*
Y228419D01*
X201714Y217500D02*
X201718Y217504D01*
X256826Y217748D02*
Y227412D01*
X256578Y217500D02*
X256826Y217748D01*
X253022Y216992D02*
X253530Y217500D01*
X334302Y92278D02*
X335064Y93040D01*
X314244Y568790D02*
X322872D01*
X437426Y548462D02*
X438442Y549478D01*
X1216190Y370916D02*
X1243870D01*
Y370922D02*
X1243876D01*
X218986Y365836D02*
X221653Y368503D01*
X236085Y382935D01*
X221018Y288620D02*
Y361772D01*
X233718Y279222D02*
Y360756D01*
Y279222D02*
X246418Y266522D01*
Y263728D02*
Y266522D01*
X259372Y276174D02*
X271818Y263728D01*
X246672Y366598D02*
Y367360D01*
X246418Y367106D02*
X246672Y367360D01*
X246418Y289128D02*
Y367106D01*
X259372Y276174D02*
Y353943D01*
X286042Y380613D01*
Y433400D01*
X271818Y289128D02*
Y338404D01*
X339128Y405714D01*
X210518Y274228D02*
Y293477D01*
Y274228D02*
X221018Y263728D01*
X213540Y360390D02*
X221653Y368503D01*
X213540Y296500D02*
Y360390D01*
X210518Y293477D02*
X213540Y296500D01*
X134404Y445084D02*
X196126D01*
X136944Y458038D02*
X157076Y478170D01*
X201181Y387426D02*
X228384D01*
X55890Y241630D02*
X78620D01*
X55890Y272110D02*
X78620D01*
X55890Y302590D02*
X78620D01*
X55890Y333070D02*
X77350D01*
X55890Y363550D02*
X78620D01*
X201172Y395012D02*
X220476D01*
X97800Y331800D02*
X100044Y334044D01*
Y344394D01*
X218100Y528272D02*
Y532330D01*
X213002Y537428D02*
X218100Y532330D01*
X204657Y537428D02*
X213002D01*
X181140Y513912D02*
X204657Y537428D01*
X95330Y507060D02*
X184188D01*
X207556Y530428D01*
X88932Y513912D02*
X181140D01*
X442760Y380060D02*
X444030Y378790D01*
Y363550D02*
Y378790D01*
X221018Y361772D02*
X250370Y391124D01*
X236085Y382935D02*
X246370Y393220D01*
X220476Y395012D02*
X239370Y413906D01*
X216954Y399110D02*
X229370Y411526D01*
X218478Y410984D02*
Y422118D01*
X241618Y438635D02*
X250370Y429884D01*
Y391124D02*
Y429884D01*
X239961Y434635D02*
X246370Y428227D01*
Y393220D02*
Y428227D01*
X239370Y413906D02*
Y425327D01*
X233632Y438635D02*
X241618D01*
X231975Y434635D02*
X239961D01*
X229370Y411526D02*
Y427635D01*
X218478Y422118D02*
X220362D01*
X220510Y421970D01*
X207556Y459054D02*
X223471Y443139D01*
X225251D01*
X229352Y439039D01*
Y437258D02*
Y439039D01*
Y437258D02*
X231975Y434635D01*
X211556Y460711D02*
X225128Y447139D01*
X226908D01*
X233352Y440695D01*
Y438915D02*
Y440695D01*
Y438915D02*
X233632Y438635D01*
X196126Y445084D02*
X204837Y436373D01*
X204837D01*
X205325Y436860D01*
X221631D02*
X222352Y436139D01*
X205325Y436860D02*
X221631D01*
X337350Y301320D02*
X337970Y301940D01*
X362894D01*
X348488Y309626D02*
Y320506D01*
X355130Y327148D01*
Y422224D01*
X349957Y427397D02*
X355130Y422224D01*
X366402Y420542D02*
X384340Y438480D01*
Y481914D02*
X422694D01*
X353355Y456264D02*
X364277Y445341D01*
X359255Y460263D02*
X376720Y442798D01*
X384340Y438480D02*
Y481914D01*
X397294Y368046D02*
X400772Y364568D01*
X397294Y368046D02*
Y461848D01*
X404772Y449000D02*
X405422Y449650D01*
X404772Y300840D02*
Y449000D01*
X411772Y446100D02*
X412130Y445742D01*
X400772Y306024D02*
Y364568D01*
X394970Y300222D02*
X400772Y306024D01*
X404660Y455498D02*
X405422D01*
X397294Y461848D02*
X400088Y464642D01*
X394970Y297180D02*
Y300222D01*
X404772Y300840D02*
X405130Y300482D01*
X392938Y471970D02*
X395262Y474294D01*
X392938Y309118D02*
Y471970D01*
X412130Y300189D02*
Y445742D01*
Y300189D02*
X415130Y297189D01*
X377190Y309372D02*
Y404990D01*
X373672Y408508D02*
X377190Y404990D01*
X362894Y301940D02*
X369062Y308109D01*
X366402Y403606D02*
X369062Y400946D01*
Y308109D02*
Y400946D01*
X366402Y403606D02*
Y420542D01*
X385572Y302260D02*
Y411086D01*
X380530Y416128D02*
X385572Y411086D01*
X405422Y449650D02*
Y455498D01*
D48*
X833666Y22428D02*
X906438D01*
X1034050Y150040D01*
X1070650D01*
X469938Y28778D02*
Y62052D01*
X553758Y29286D02*
Y61290D01*
X393484Y22428D02*
X744258D01*
X746798Y24968D01*
X744258Y22428D02*
X833666D01*
X833158Y22936D02*
X833666Y22428D01*
X434938Y62052D02*
Y86130D01*
X518758Y61290D02*
Y86384D01*
X602578Y61544D02*
Y85726D01*
D50*
X1356652Y245948D02*
X1358176D01*
X40720Y452450D02*
Y477850D01*
Y427050D02*
Y452450D01*
Y401650D02*
Y427050D01*
X133388Y49860D02*
Y67132D01*
X117640Y82880D02*
X133388Y67132D01*
X117640Y82880D02*
Y149936D01*
X739432Y226136D02*
X746798Y218770D01*
Y201244D02*
Y218770D01*
X454190Y524840D02*
X466890D01*
X552926Y470046D02*
X621992D01*
X466890Y524840D02*
X483654Y508076D01*
X514896D01*
X552926Y470046D01*
X672306D02*
X774391D01*
X621992D02*
X634622Y482676D01*
X659676D01*
X672306Y470046D01*
X812076Y482676D02*
X824706Y470046D01*
X787022Y482676D02*
X812076D01*
X774391Y470046D02*
X787022Y482676D01*
X824706Y470046D02*
X926792D01*
X964476Y482676D02*
X977106Y470046D01*
X939422Y482676D02*
X964476D01*
X926792Y470046D02*
X939422Y482676D01*
X977106Y470046D02*
X1079192D01*
X1116876Y482676D02*
X1129506Y470046D01*
X1091822Y482676D02*
X1116876D01*
X1079192Y470046D02*
X1091822Y482676D01*
X1269192Y481992D02*
X1281823Y469362D01*
X1244138Y481992D02*
X1269192D01*
X1231508Y469362D02*
X1244138Y481992D01*
X1281823Y469362D02*
X1383908D01*
X432092Y451942D02*
X454190Y474040D01*
X432092Y277952D02*
Y451942D01*
X408724Y254584D02*
X432092Y277952D01*
X1202982Y345770D02*
Y468776D01*
X1129506Y470046D02*
X1204252D01*
X1231591D01*
X1202982Y468776D02*
X1204252Y470046D01*
X353352Y262966D02*
X371386D01*
X408216Y226136D01*
X739432D01*
X322618Y289128D02*
X327190D01*
X353352Y262966D01*
X117640Y149936D02*
X140754Y173050D01*
D51*
X284264Y229692D02*
X296764Y217192D01*
X354930D02*
X367576Y204546D01*
X296764Y217192D02*
X354930D01*
X446316Y499440D02*
X454190D01*
X438442Y507314D02*
X446316Y499440D01*
X438442Y557860D02*
X444030Y563448D01*
Y606628D01*
X426250Y624408D02*
X444030Y606628D01*
X357670Y624408D02*
X426250D01*
X313728Y580466D02*
X357670Y624408D01*
X286550Y521284D02*
X313728Y548462D01*
X272072Y217500D02*
X284264Y229692D01*
X256578Y217500D02*
X272072D01*
X201714D02*
X253530D01*
X256578D01*
X313728Y548462D02*
Y580466D01*
X438442Y507314D02*
Y549478D01*
Y557860D01*
X78620Y234464D02*
X95584Y217500D01*
X108620Y417099D02*
X117047Y425526D01*
X190030D01*
X108620Y382600D02*
Y417099D01*
X15316Y527380D02*
Y552780D01*
Y578180D01*
Y603580D01*
Y628980D01*
Y654380D01*
X95584Y217500D02*
X201714D01*
X78620Y234464D02*
Y241630D01*
Y272110D01*
Y302590D01*
Y363550D01*
X15316Y654380D02*
X32196Y671261D01*
X120042D02*
X147822Y699040D01*
X163708D01*
X32196Y671261D02*
X120042D01*
X39450Y377520D02*
X64650D01*
X78620Y363550D01*
X89570D01*
X108620Y382600D01*
X15316Y401654D02*
Y527380D01*
Y401654D02*
X15320Y401650D01*
X39450Y377520D01*
D54*
X1362748Y36144D02*
D03*
X86652Y38430D02*
D03*
X1360208Y392252D02*
D03*
X87726Y713248D02*
D03*
D55*
X920808Y712440D02*
D03*
X885808D02*
D03*
X850808D02*
D03*
X815808D02*
D03*
X768308D02*
D03*
X733308D02*
D03*
X698308D02*
D03*
X663308D02*
D03*
X615808D02*
D03*
X580808D02*
D03*
X545808D02*
D03*
X510808D02*
D03*
X1223930Y712948D02*
D03*
X1188930D02*
D03*
X1153930D02*
D03*
X1118930D02*
D03*
X1071430D02*
D03*
X1036430D02*
D03*
X1001430D02*
D03*
X966430D02*
D03*
X1376430D02*
D03*
X1341430D02*
D03*
X1306430D02*
D03*
X1271430D02*
D03*
X434938Y62052D02*
D03*
X469938D02*
D03*
X553758Y61290D02*
D03*
X518758D02*
D03*
X602578Y61544D02*
D03*
X637578D02*
D03*
X720890D02*
D03*
X685890D02*
D03*
X770980Y62052D02*
D03*
X805980D02*
D03*
D56*
X231436Y604038D02*
D03*
X277156D02*
D03*
X226606Y27254D02*
D03*
X272326D02*
D03*
D57*
X1367066Y239344D02*
D03*
Y252362D02*
D03*
Y265379D02*
D03*
Y278397D02*
D03*
Y291414D02*
D03*
X1290866D02*
D03*
Y278397D02*
D03*
Y265379D02*
D03*
Y252362D02*
D03*
Y239344D02*
D03*
X1301026Y297764D02*
D03*
Y284810D02*
D03*
Y271856D02*
D03*
Y258902D02*
D03*
Y245948D02*
D03*
Y232994D02*
D03*
X1315314D02*
D03*
X1329601D02*
D03*
X1343889D02*
D03*
X1358176D02*
D03*
Y245948D02*
D03*
Y258902D02*
D03*
Y271856D02*
D03*
Y284810D02*
D03*
Y297764D02*
D03*
X1343889Y245948D02*
D03*
X1329601D02*
D03*
X1315314D02*
D03*
X452412Y154254D02*
D03*
X423837Y167208D02*
D03*
Y206070D02*
D03*
X480987Y167208D02*
D03*
Y206070D02*
D03*
X423837Y154254D02*
D03*
Y193116D02*
D03*
X438125Y154254D02*
D03*
X466699D02*
D03*
X480987D02*
D03*
Y193116D02*
D03*
X423837Y180162D02*
D03*
X480987D02*
D03*
X565061Y180416D02*
D03*
X507911D02*
D03*
X565061Y193370D02*
D03*
Y154508D02*
D03*
X550774D02*
D03*
X522198D02*
D03*
X507911Y193370D02*
D03*
Y154508D02*
D03*
X565061Y206324D02*
D03*
Y167462D02*
D03*
X507911Y206324D02*
D03*
Y167462D02*
D03*
X536486Y154508D02*
D03*
X620306D02*
D03*
X591731Y167462D02*
D03*
Y206324D02*
D03*
Y154508D02*
D03*
Y193370D02*
D03*
X606018Y154508D02*
D03*
X591731Y180416D02*
D03*
D58*
X133388Y49860D02*
D03*
X408724Y254584D02*
D03*
X286550Y521284D02*
D03*
X190030Y425526D02*
D03*
X1387894Y176352D02*
D03*
X1347762Y175590D02*
D03*
X1367066Y190830D02*
D03*
X1202982Y345770D02*
D03*
D59*
X53018Y157712D02*
D03*
Y113713D02*
D03*
X268482Y119998D02*
D03*
X207810Y430860D02*
D03*
D60*
X1329750Y150040D02*
D03*
X1293150D02*
D03*
X1211850D02*
D03*
X1248450D02*
D03*
X1034050D02*
D03*
X1070650D02*
D03*
X1151950D02*
D03*
X1115350D02*
D03*
D61*
X1383908Y621762D02*
D03*
Y469362D02*
D03*
X1256908D02*
D03*
Y494762D02*
D03*
Y520162D02*
D03*
Y545562D02*
D03*
Y570962D02*
D03*
Y596362D02*
D03*
X1383908D02*
D03*
Y443962D02*
D03*
X1256908Y621762D02*
D03*
Y443962D02*
D03*
X1383908Y570962D02*
D03*
Y545562D02*
D03*
Y494762D02*
D03*
Y520162D02*
D03*
X926792Y520162D02*
D03*
Y494762D02*
D03*
Y545562D02*
D03*
Y570962D02*
D03*
X799792Y443962D02*
D03*
Y621762D02*
D03*
X926792Y443962D02*
D03*
Y596362D02*
D03*
X799792D02*
D03*
Y570962D02*
D03*
Y545562D02*
D03*
Y520162D02*
D03*
Y494762D02*
D03*
Y469362D02*
D03*
X926792D02*
D03*
Y621762D02*
D03*
X621992D02*
D03*
Y469362D02*
D03*
X494992D02*
D03*
Y494762D02*
D03*
Y520162D02*
D03*
Y545562D02*
D03*
Y570962D02*
D03*
Y596362D02*
D03*
X621992D02*
D03*
Y443962D02*
D03*
X494992Y621762D02*
D03*
Y443962D02*
D03*
X621992Y570962D02*
D03*
Y545562D02*
D03*
Y494762D02*
D03*
Y520162D02*
D03*
X1231508Y520162D02*
D03*
Y494762D02*
D03*
Y545562D02*
D03*
Y570962D02*
D03*
X1104508Y443962D02*
D03*
Y621762D02*
D03*
X1231508Y443962D02*
D03*
Y596362D02*
D03*
X1104508D02*
D03*
Y570962D02*
D03*
Y545562D02*
D03*
Y520162D02*
D03*
Y494762D02*
D03*
Y469362D02*
D03*
X1231508D02*
D03*
Y621762D02*
D03*
X1079108D02*
D03*
Y469362D02*
D03*
X952108D02*
D03*
Y494762D02*
D03*
Y520162D02*
D03*
Y545562D02*
D03*
Y570962D02*
D03*
Y596362D02*
D03*
X1079108D02*
D03*
Y443962D02*
D03*
X952108Y621762D02*
D03*
Y443962D02*
D03*
X1079108Y570962D02*
D03*
Y545562D02*
D03*
Y494762D02*
D03*
Y520162D02*
D03*
X774392Y520162D02*
D03*
Y494762D02*
D03*
Y545562D02*
D03*
Y570962D02*
D03*
X647392Y443962D02*
D03*
Y621762D02*
D03*
X774392Y443962D02*
D03*
Y596362D02*
D03*
X647392D02*
D03*
Y570962D02*
D03*
Y545562D02*
D03*
Y520162D02*
D03*
Y494762D02*
D03*
Y469362D02*
D03*
X774392D02*
D03*
Y621762D02*
D03*
D62*
X1195832Y60782D02*
D03*
X1145832D02*
D03*
X1046010D02*
D03*
X1096010D02*
D03*
X1296162D02*
D03*
X1246162D02*
D03*
D63*
X661708Y150444D02*
D03*
X833158Y150952D02*
D03*
X746798Y150444D02*
D03*
X454190Y524840D02*
D03*
X140754Y96850D02*
D03*
X391706Y548462D02*
D03*
X15320Y341960D02*
D03*
X358178Y263728D02*
D03*
X370624Y204292D02*
D03*
X393484Y22428D02*
D03*
D64*
X661708Y175844D02*
D03*
Y201244D02*
D03*
X833158Y201752D02*
D03*
Y176352D02*
D03*
X746798Y175844D02*
D03*
Y201244D02*
D03*
X454190Y474040D02*
D03*
Y499440D02*
D03*
X40716Y654380D02*
D03*
X15316D02*
D03*
Y628980D02*
D03*
X40716D02*
D03*
Y603580D02*
D03*
X15316D02*
D03*
Y578180D02*
D03*
X40716D02*
D03*
Y552780D02*
D03*
X15316D02*
D03*
X15316Y527380D02*
D03*
X40716D02*
D03*
X15320Y401650D02*
D03*
X40720D02*
D03*
X66120D02*
D03*
Y427050D02*
D03*
X40720D02*
D03*
X15320D02*
D03*
Y452450D02*
D03*
X40720D02*
D03*
X66120D02*
D03*
Y477850D02*
D03*
X40720D02*
D03*
X15320D02*
D03*
X140754Y173050D02*
D03*
Y147650D02*
D03*
Y122250D02*
D03*
X1031024Y658698D02*
D03*
X1005624D02*
D03*
X980224D02*
D03*
X1133132Y658444D02*
D03*
X1158532D02*
D03*
X1183932D02*
D03*
X1336078Y658190D02*
D03*
X1310678D02*
D03*
X1285278D02*
D03*
X525056Y658698D02*
D03*
X550456D02*
D03*
X575856D02*
D03*
X728002D02*
D03*
X702602D02*
D03*
X677202D02*
D03*
X830618Y658952D02*
D03*
X856018D02*
D03*
X881418D02*
D03*
X417106Y497662D02*
D03*
X391706D02*
D03*
X417106Y523062D02*
D03*
X391706D02*
D03*
X417106Y548462D02*
D03*
X284264Y229692D02*
D03*
X309664Y204292D02*
D03*
Y229692D02*
D03*
X335064Y204292D02*
D03*
Y229692D02*
D03*
X563664Y365328D02*
D03*
X538264Y390728D02*
D03*
Y365328D02*
D03*
X512864Y390728D02*
D03*
Y365328D02*
D03*
X487464Y390728D02*
D03*
Y365328D02*
D03*
X462064Y390728D02*
D03*
Y365328D02*
D03*
X40720Y240360D02*
D03*
X15320D02*
D03*
X40720Y265760D02*
D03*
X15320D02*
D03*
X40720Y291160D02*
D03*
X15320D02*
D03*
X40720Y316560D02*
D03*
X15320D02*
D03*
X40720Y341960D02*
D03*
X322618Y263728D02*
D03*
X297218Y289128D02*
D03*
Y263728D02*
D03*
X271818Y289128D02*
D03*
Y263728D02*
D03*
X246418Y289128D02*
D03*
Y263728D02*
D03*
X221018Y289128D02*
D03*
Y263728D02*
D03*
X195618Y289128D02*
D03*
Y263728D02*
D03*
X170218Y289128D02*
D03*
Y263728D02*
D03*
X345826Y699040D02*
D03*
Y724440D02*
D03*
X371226Y699040D02*
D03*
Y724440D02*
D03*
X396626Y699040D02*
D03*
Y724440D02*
D03*
X422026Y699040D02*
D03*
Y724440D02*
D03*
X447426Y699040D02*
D03*
X265308D02*
D03*
X239908Y724440D02*
D03*
Y699040D02*
D03*
X214508Y724440D02*
D03*
Y699040D02*
D03*
X189108Y724440D02*
D03*
Y699040D02*
D03*
X163708Y724440D02*
D03*
Y699040D02*
D03*
X778336Y144880D02*
D03*
X691974Y144884D02*
D03*
X358178Y289128D02*
D03*
X354368Y644220D02*
D03*
X370624Y229692D02*
D03*
X393484Y47828D02*
D03*
D65*
X337350Y301320D02*
D03*
X1343867Y337896D02*
D03*
X1339718Y331038D02*
D03*
X85890Y510870D02*
D03*
X45250Y202260D02*
D03*
X262928Y421970D02*
D03*
X274866Y421462D02*
D03*
X298234Y471500D02*
D03*
X299250Y430352D02*
D03*
X345131Y427397D02*
D03*
X337604Y435432D02*
D03*
X368846Y604342D02*
D03*
X430060Y575132D02*
D03*
X400596Y654126D02*
D03*
X391960Y662508D02*
D03*
X255562Y575386D02*
D03*
X246164Y571068D02*
D03*
X236512Y575862D02*
D03*
X242354Y530682D02*
D03*
X373672Y408508D02*
D03*
X258864Y530936D02*
D03*
X380530Y416128D02*
D03*
X1348270Y331038D02*
D03*
X1331167D02*
D03*
X1322616D02*
D03*
X1335316Y337896D02*
D03*
X1326934D02*
D03*
X471716Y239090D02*
D03*
X463165D02*
D03*
X454613D02*
D03*
X446062D02*
D03*
X467398Y245948D02*
D03*
X458762D02*
D03*
X450380D02*
D03*
X555790Y238582D02*
D03*
X547239D02*
D03*
X538687D02*
D03*
X530136D02*
D03*
X551472Y245440D02*
D03*
X542836D02*
D03*
X534454D02*
D03*
X637578Y238328D02*
D03*
X629027D02*
D03*
X620475D02*
D03*
X611924D02*
D03*
X633260Y245186D02*
D03*
X624624D02*
D03*
X616242D02*
D03*
X722160Y239344D02*
D03*
X713609D02*
D03*
X705057D02*
D03*
X696506D02*
D03*
X717842Y246202D02*
D03*
X709206D02*
D03*
X700824D02*
D03*
X808266Y239344D02*
D03*
X799715D02*
D03*
X791163D02*
D03*
X782612D02*
D03*
X803948Y246202D02*
D03*
X795312D02*
D03*
X786930D02*
D03*
X228384Y387426D02*
D03*
X134404Y489788D02*
D03*
X149898Y453974D02*
D03*
X185966Y498170D02*
D03*
X186982Y467436D02*
D03*
X193266Y478170D02*
D03*
X173464Y139466D02*
D03*
X207556Y530428D02*
D03*
X218100Y528272D02*
D03*
X295694Y443052D02*
D03*
X339128Y413842D02*
D03*
X201718Y228419D02*
D03*
X256826Y227412D02*
D03*
X335064Y93040D02*
D03*
X322872Y568790D02*
D03*
X300520Y165430D02*
D03*
X1243876Y370922D02*
D03*
X1216190Y370916D02*
D03*
X233718Y360756D02*
D03*
X246672Y366598D02*
D03*
X195110Y51384D02*
D03*
X302552Y50114D02*
D03*
X379514Y157810D02*
D03*
X961936Y192608D02*
D03*
X972096D02*
D03*
X982002D02*
D03*
X1103668Y191084D02*
D03*
X1117892D02*
D03*
X1131100D02*
D03*
X1145578D02*
D03*
X1159294D02*
D03*
X211112Y614756D02*
D03*
Y604850D02*
D03*
Y594690D02*
D03*
X603796Y438480D02*
D03*
X593636D02*
D03*
X583730D02*
D03*
X756450D02*
D03*
X746290D02*
D03*
X736384D02*
D03*
X908342D02*
D03*
X898182D02*
D03*
X888276D02*
D03*
X1060742Y438226D02*
D03*
X1050582D02*
D03*
X1040676D02*
D03*
X1213142Y458292D02*
D03*
Y448132D02*
D03*
Y438226D02*
D03*
X1281214Y503758D02*
D03*
X1128560D02*
D03*
X1138466D02*
D03*
X1148626D02*
D03*
X1291120D02*
D03*
X1301280D02*
D03*
X976414Y503504D02*
D03*
X986320D02*
D03*
X996480D02*
D03*
X822744Y504774D02*
D03*
X832650D02*
D03*
X842810D02*
D03*
X672630Y504012D02*
D03*
X682536D02*
D03*
X692696D02*
D03*
X519468Y521030D02*
D03*
X529374D02*
D03*
X539534D02*
D03*
X93044Y253060D02*
D03*
Y283540D02*
D03*
Y314020D02*
D03*
X103204Y227660D02*
D03*
X136944Y458038D02*
D03*
X55890Y241630D02*
D03*
Y272110D02*
D03*
Y302590D02*
D03*
Y333070D02*
D03*
Y363550D02*
D03*
X93044Y344500D02*
D03*
X119390Y254330D02*
D03*
X111770Y278460D02*
D03*
X104150Y302590D02*
D03*
X97800Y331800D02*
D03*
X114338Y465894D02*
D03*
X135420Y470230D02*
D03*
X444030Y363550D02*
D03*
X239370Y425327D02*
D03*
X229370Y427635D02*
D03*
X220510Y421970D02*
D03*
X222352Y436139D02*
D03*
X346748Y396570D02*
D03*
X348488Y309626D02*
D03*
X360426Y309372D02*
D03*
X395262Y474294D02*
D03*
X364277Y445341D02*
D03*
X376720Y442798D02*
D03*
X411772Y446100D02*
D03*
X405422Y455498D02*
D03*
X400088Y464642D02*
D03*
X394970Y297180D02*
D03*
X405130Y300482D02*
D03*
X392938Y309118D02*
D03*
X415130Y297189D02*
D03*
X385572Y302260D02*
D03*
X377190Y309372D02*
D03*
D66*
X417106Y548462D02*
X437426D01*
D67*
X627799Y244032D02*
D03*
D68*
X1335570Y338404D02*
D03*
M02*
