G04 Layer_Color=65535*
%FSLAX44Y44*%
%MOMM*%
G71*
G01*
G75*
%ADD43C,0.2000*%
%ADD45C,0.2540*%
%ADD48C,0.6000*%
%ADD69C,0.0762*%
%ADD70C,0.1524*%
%ADD71C,0.2500*%
%ADD72C,0.1000*%
%ADD73C,0.1500*%
%ADD74C,0.1270*%
%ADD75R,1.4224X0.9770*%
%ADD76R,2.5400X0.4318*%
%ADD77R,3.0480X0.5842*%
%ADD78R,0.1778X0.1270*%
%ADD79R,0.2540X0.3663*%
%ADD80R,0.3169X0.1119*%
%ADD81R,0.1270X0.3862*%
%ADD82R,0.5080X0.3810*%
%ADD83R,0.3810X0.3810*%
%ADD84R,0.2540X0.3810*%
%ADD85R,0.2540X0.3532*%
%ADD86R,2.1590X0.2870*%
%ADD87R,2.1590X0.2870*%
%ADD88R,1.5494X2.5782*%
%ADD89R,1.5240X2.5782*%
%ADD90R,0.3169X0.1119*%
%ADD91R,1.0226X2.5782*%
%ADD92R,0.9652X2.5782*%
%ADD93R,1.0480X2.5782*%
%ADD94R,1.0480X2.5782*%
%ADD95R,1.0000X0.5000*%
D43*
X1090968Y249276D02*
X1100112D01*
X1091730Y284276D02*
X1100112D01*
Y249276D02*
Y284276D01*
X1094980Y249276D02*
Y284276D01*
X1024980Y249276D02*
Y284276D01*
X1073980Y249276D02*
X1094980D01*
X1024980D02*
X1045980D01*
X1073980Y284276D02*
X1094980D01*
X1024980D02*
X1045980D01*
X1073218Y206097D02*
X1094218D01*
X1024218D02*
X1045218D01*
X1073218Y241096D02*
X1094218D01*
X1024218D02*
X1045218D01*
X1094218Y206097D02*
Y241096D01*
X1024218Y206097D02*
Y241096D01*
X1019086Y206097D02*
Y241096D01*
Y206097D02*
X1027468D01*
X1019086Y241096D02*
X1028230D01*
X1350074Y114376D02*
Y123520D01*
X1385074Y114376D02*
Y122758D01*
X1350074Y114376D02*
X1385074D01*
X1350074Y119508D02*
X1385074D01*
X1350074Y189508D02*
X1385074D01*
X1350074Y119508D02*
Y140508D01*
Y168508D02*
Y189508D01*
X1385074Y119508D02*
Y140508D01*
Y168508D02*
Y189508D01*
X380784Y60528D02*
X406184D01*
Y9728D02*
Y60528D01*
X380784Y9728D02*
X406184D01*
X380784D02*
Y60528D01*
X357924Y191592D02*
Y242392D01*
Y191592D02*
X383324D01*
Y242392D01*
X357924D02*
X383324D01*
X367068Y631520D02*
Y656920D01*
X316268Y631520D02*
X367068D01*
X316268D02*
Y656920D01*
X367068D01*
X345478Y251028D02*
Y301828D01*
Y251028D02*
X370878D01*
Y301828D01*
X345478D02*
X370878D01*
X679274Y132184D02*
Y157584D01*
X730074D01*
Y132184D02*
Y157584D01*
X679274Y132184D02*
X730074D01*
X765636Y132180D02*
X816436D01*
Y157580D01*
X765636D02*
X816436D01*
X765636Y132180D02*
Y157580D01*
X304466Y675324D02*
Y747324D01*
X122466Y675324D02*
Y747324D01*
Y675324D02*
X304466D01*
X122466Y747324D02*
X304466D01*
X304584D02*
X486584D01*
X304584Y675324D02*
X486584D01*
X304584D02*
Y747324D01*
X486584Y675324D02*
Y747324D01*
X157518Y301828D02*
X335318D01*
X157518Y251028D02*
X335318D01*
Y301828D01*
X157518Y251028D02*
Y301828D01*
X2620Y227660D02*
X53420D01*
X2620Y354660D02*
X53420D01*
Y227660D02*
Y354660D01*
X2620Y227660D02*
Y354660D01*
X449364Y403428D02*
X576364D01*
X449364Y352628D02*
X576364D01*
Y403428D01*
X449364Y352628D02*
Y403428D01*
X299081Y191592D02*
X347764D01*
X271564D02*
X347764D01*
X271564Y242392D02*
X347764D01*
X271564Y191592D02*
Y242392D01*
X347764Y191592D02*
Y242392D01*
X379006Y484962D02*
X429806D01*
X379006Y561162D02*
X429806D01*
Y484962D02*
Y561162D01*
X379006Y484962D02*
Y561162D01*
Y484962D02*
Y533645D01*
X817918Y646252D02*
Y671652D01*
X919518D01*
X817918Y646252D02*
X919518D01*
Y671652D01*
X766102Y645998D02*
Y671398D01*
X664502Y645998D02*
X766102D01*
X664502Y671398D02*
X766102D01*
X664502Y645998D02*
Y671398D01*
X512356Y645998D02*
Y671398D01*
X613956D01*
X512356Y645998D02*
X613956D01*
Y671398D01*
X1374178Y645490D02*
Y670890D01*
X1272578Y645490D02*
X1374178D01*
X1272578Y670890D02*
X1374178D01*
X1272578Y645490D02*
Y670890D01*
X1120432Y645744D02*
Y671144D01*
X1222032D01*
X1120432Y645744D02*
X1222032D01*
Y671144D01*
X1069124Y645998D02*
Y671398D01*
X967524Y645998D02*
X1069124D01*
X967524Y671398D02*
X1069124D01*
X967524Y645998D02*
Y671398D01*
X128054Y185750D02*
X153454D01*
Y84150D02*
Y185750D01*
X128054Y84150D02*
Y185750D01*
Y84150D02*
X153454D01*
X104220Y465150D02*
Y490550D01*
X2620Y465150D02*
X104220D01*
X2620Y490550D02*
X104220D01*
X2620Y465150D02*
Y490550D01*
Y439750D02*
Y465150D01*
X104220D01*
X2620Y439750D02*
X104220D01*
Y465150D01*
Y414350D02*
Y439750D01*
X2620Y414350D02*
X104220D01*
X2620Y439750D02*
X104220D01*
X2620Y414350D02*
Y439750D01*
Y388950D02*
Y414350D01*
X104220D01*
X2620Y388950D02*
X104220D01*
Y414350D01*
X2616Y540080D02*
X78816D01*
X2616Y514680D02*
Y540080D01*
Y514680D02*
X78816D01*
Y540080D01*
X78816Y540080D02*
Y565480D01*
X2616Y540080D02*
X78816D01*
X2616D02*
Y565480D01*
X78816D01*
X2616Y590880D02*
X78816D01*
X2616Y565480D02*
Y590880D01*
Y565480D02*
X78816D01*
Y590880D01*
Y616280D01*
X2616Y590880D02*
X78816D01*
X2616D02*
Y616280D01*
X78816D01*
X2616Y641680D02*
X78816D01*
X2616Y616280D02*
Y641680D01*
Y616280D02*
X78816D01*
Y641680D01*
Y667080D01*
X2616Y641680D02*
X78816D01*
X2616D02*
Y667080D01*
X78816D01*
X441490Y461340D02*
Y537540D01*
Y461340D02*
X466890D01*
Y537540D01*
X441490D02*
X466890D01*
X734098Y137744D02*
X759498D01*
X734098D02*
Y213944D01*
X759498D01*
Y137744D02*
Y213944D01*
X845858Y138252D02*
Y214452D01*
X820458D02*
X845858D01*
X820458Y138252D02*
Y214452D01*
Y138252D02*
X845858D01*
X649008Y137744D02*
X674408D01*
X649008D02*
Y213944D01*
X674408D01*
Y137744D02*
Y213944D01*
X343992Y562421D02*
X362492D01*
Y582421D02*
Y594421D01*
X343992Y582421D02*
Y594421D01*
X266576Y195804D02*
Y214304D01*
X234576D02*
X246576D01*
X234576Y195804D02*
X246576D01*
X1169870Y297404D02*
Y315904D01*
X1189870Y297404D02*
X1201870D01*
X1189870Y315904D02*
X1201870D01*
X1019000Y126040D02*
X1167000D01*
Y174040D01*
X1019000D02*
X1167000D01*
X1019000Y126040D02*
Y174040D01*
X1196800D02*
X1344800D01*
X1196800Y126040D02*
Y174040D01*
Y126040D02*
X1344800D01*
Y174040D01*
X125260Y209880D02*
Y347040D01*
X113830Y358470D02*
X125260Y347040D01*
X113830Y358470D02*
Y503250D01*
X107480Y509600D02*
X113830Y503250D01*
X107480Y509600D02*
Y667080D01*
X1129558Y313768D02*
X1159308D01*
Y282268D02*
Y313768D01*
X1129558Y307018D02*
Y313768D01*
X1114558Y307018D02*
X1129558D01*
X1114558Y289268D02*
Y307018D01*
Y289268D02*
X1129308D01*
Y282268D02*
Y289268D01*
Y282268D02*
X1159308D01*
X180600Y540671D02*
X305600D01*
X180600Y415671D02*
X305600D01*
X180600D02*
Y540671D01*
X305600Y415671D02*
Y540671D01*
X242982Y108736D02*
X301982D01*
X242982Y167736D02*
X301982D01*
X242982Y108736D02*
Y167736D01*
X301982Y108736D02*
Y167736D01*
X1152902Y319436D02*
Y347936D01*
X1116152Y319436D02*
X1152902D01*
X1116152Y361436D02*
X1137402D01*
X1116152Y319436D02*
Y361436D01*
X1137402D02*
X1149402D01*
X1152902Y357936D01*
Y347936D02*
Y357936D01*
X148694Y216554D02*
X164694D01*
X172694D02*
X188694D01*
X148694Y193554D02*
X164694D01*
X172694D02*
X188694D01*
X148694D02*
Y216554D01*
X188694Y193554D02*
Y216554D01*
X333642Y131156D02*
X349642D01*
X361392D02*
X374492D01*
Y148156D01*
X333642D02*
X350392D01*
X360892D02*
X374492D01*
X333642Y131156D02*
Y148156D01*
X336142Y131156D02*
Y148156D01*
X451932Y590398D02*
Y625398D01*
X391932Y590398D02*
Y625398D01*
Y590398D02*
X451932D01*
X391932Y625398D02*
X451932D01*
X89518Y158212D02*
Y166213D01*
Y105213D02*
Y113213D01*
X-6482Y185213D02*
X6518D01*
X39518D02*
X61518D01*
X39518Y86213D02*
X61518D01*
X-6482D02*
X6518D01*
X-6482D02*
Y185213D01*
X870200Y112412D02*
Y125502D01*
X870250Y125552D01*
X979978D01*
X980028Y112412D02*
Y125552D01*
X818290Y254339D02*
Y270338D01*
Y282089D02*
Y295188D01*
X801290D02*
X818290D01*
X801290Y254339D02*
Y271088D01*
Y281589D02*
Y295188D01*
Y254339D02*
X818290D01*
X801290Y256838D02*
X818290D01*
X736282Y254339D02*
Y270338D01*
Y282089D02*
Y295189D01*
X719282D02*
X736282D01*
X719282Y254339D02*
Y271089D01*
Y281589D02*
Y295189D01*
Y254339D02*
X736282D01*
X719282Y256839D02*
X736282D01*
X648395Y254339D02*
Y270338D01*
Y282089D02*
Y295189D01*
X631395D02*
X648395D01*
X631395Y254339D02*
Y271089D01*
Y281589D02*
Y295189D01*
Y254339D02*
X648395D01*
X631395Y256839D02*
X648395D01*
X486058Y254339D02*
Y270338D01*
Y282089D02*
Y295188D01*
X469058D02*
X486058D01*
X469058Y254339D02*
Y271088D01*
Y281588D02*
Y295188D01*
Y254339D02*
X486058D01*
X469058Y256838D02*
X486058D01*
X565081Y254339D02*
Y270338D01*
Y282089D02*
Y295188D01*
X548081D02*
X565081D01*
X548081Y254339D02*
Y271088D01*
Y281588D02*
Y295188D01*
Y254339D02*
X565081D01*
X548081Y256838D02*
X565081D01*
X229581Y649944D02*
X245581D01*
X257331D02*
X270431D01*
Y666944D01*
X229581D02*
X246331D01*
X256831D02*
X270431D01*
X229581Y649944D02*
Y666944D01*
X232081Y649944D02*
Y666944D01*
X1314098Y341206D02*
Y357206D01*
Y368956D02*
Y382056D01*
X1297098D02*
X1314098D01*
X1297098Y341206D02*
Y357956D01*
Y368456D02*
Y382056D01*
Y341206D02*
X1314098D01*
X1297098Y343706D02*
X1314098D01*
X25556Y11692D02*
Y27692D01*
Y39442D02*
Y52542D01*
X8556D02*
X25556D01*
X8556Y11692D02*
Y28442D01*
Y38942D02*
Y52542D01*
Y11692D02*
X25556D01*
X8556Y14192D02*
X25556D01*
X333642Y110072D02*
X349642D01*
X361392D02*
X374492D01*
Y127073D01*
X333642D02*
X350392D01*
X360892D02*
X374492D01*
X333642Y110072D02*
Y127073D01*
X336142Y110072D02*
Y127073D01*
X907660Y247740D02*
X915160D01*
X907660Y176740D02*
X915160D01*
X854160Y247740D02*
X861660D01*
X854160Y176740D02*
X861660D01*
X915160D02*
Y247740D01*
X854160Y176740D02*
Y247740D01*
Y253114D01*
X854180Y253134D02*
X861546D01*
X915160Y247740D02*
Y253114D01*
X907794D02*
X915160D01*
D45*
X282486Y4394D02*
G03*
X304076Y25984I0J21590D01*
G01*
Y28524D02*
G03*
X282486Y50114I-21590J0D01*
G01*
X216446D02*
G03*
X194856Y28524I0J-21590D01*
G01*
Y25984D02*
G03*
X216446Y4394I21590J0D01*
G01*
X62977Y737997D02*
G03*
X62977Y688499I24749J-24749D01*
G01*
X112474D02*
G03*
X112474Y737997I-24749J24749D01*
G01*
X67220Y733754D02*
G03*
X67220Y692742I20506J-20506D01*
G01*
X108232Y692742D02*
G03*
X108232Y733754I-20506J20506D01*
G01*
X71462Y729511D02*
G03*
X71462Y696985I16264J-16264D01*
G01*
X103989Y696984D02*
G03*
X103989Y729511I-16264J16264D01*
G01*
X1376472Y375989D02*
G03*
X1376472Y408516I-16264J16264D01*
G01*
X1343945Y408516D02*
G03*
X1343945Y375989I16264J-16264D01*
G01*
X1380714Y371746D02*
G03*
X1380714Y412758I-20506J20506D01*
G01*
X1339702Y412758D02*
G03*
X1339702Y371746I20506J-20506D01*
G01*
X1384957Y367504D02*
G03*
X1384957Y417001I-24749J24749D01*
G01*
X1335459D02*
G03*
X1335459Y367504I24749J-24749D01*
G01*
X1274088Y500634D02*
G03*
X1274088Y506984I0J3175D01*
G01*
X983311Y261782D02*
G03*
X983162Y349553I-17312J43856D01*
G01*
X947853Y347226D02*
G03*
X947147Y264366I18147J-41587D01*
G01*
X61903Y63179D02*
G03*
X61903Y13681I24749J-24749D01*
G01*
X111401D02*
G03*
X111401Y63179I-24749J24749D01*
G01*
X66146Y58936D02*
G03*
X66146Y17924I20506J-20506D01*
G01*
X107158Y17924D02*
G03*
X107158Y58936I-20506J20506D01*
G01*
X70389Y54694D02*
G03*
X70389Y22167I16264J-16264D01*
G01*
X102915Y22167D02*
G03*
X102915Y54694I-16264J16264D01*
G01*
X1306763Y13030D02*
G03*
X1306763Y13030I-10925J0D01*
G01*
X817601Y14300D02*
G03*
X817601Y14300I-10925J0D01*
G01*
X732511Y13792D02*
G03*
X732511Y13792I-10925J0D01*
G01*
X481559Y14300D02*
G03*
X481559Y14300I-10925J0D01*
G01*
X565379Y13538D02*
G03*
X565379Y13538I-10925J0D01*
G01*
X649199Y13792D02*
G03*
X649199Y13792I-10925J0D01*
G01*
X1206433Y13030D02*
G03*
X1206433Y13030I-10925J0D01*
G01*
X1106465D02*
G03*
X1106465Y13030I-10925J0D01*
G01*
X969288Y500638D02*
G03*
X969288Y506988I0J3175D01*
G01*
X1121688Y500638D02*
G03*
X1121688Y506988I0J3175D01*
G01*
X512168Y500638D02*
G03*
X512168Y506988I0J3175D01*
G01*
X664568Y500638D02*
G03*
X664568Y506988I0J3175D01*
G01*
X816968Y500638D02*
G03*
X816968Y506988I0J3175D01*
G01*
X287316Y581178D02*
G03*
X308906Y602768I0J21590D01*
G01*
Y605308D02*
G03*
X287316Y626898I-21590J0D01*
G01*
X221276D02*
G03*
X199686Y605308I0J-21590D01*
G01*
Y602768D02*
G03*
X221276Y581178I21590J0D01*
G01*
X1337999Y60893D02*
G03*
X1337999Y11395I24749J-24749D01*
G01*
X1387497D02*
G03*
X1387497Y60893I-24749J24749D01*
G01*
X1342242Y56650D02*
G03*
X1342242Y15638I20506J-20506D01*
G01*
X1383254Y15638D02*
G03*
X1383254Y56650I-20506J20506D01*
G01*
X1346485Y52408D02*
G03*
X1346485Y19881I16264J-16264D01*
G01*
X1379012Y19881D02*
G03*
X1379012Y52408I-16264J16264D01*
G01*
X825980Y27052D02*
Y97052D01*
X750980Y27052D02*
X825980D01*
X750980D02*
Y97052D01*
X825980D01*
X665890Y96544D02*
X740890D01*
X665890Y26544D02*
Y96544D01*
Y26544D02*
X740890D01*
Y96544D01*
X657578Y26544D02*
Y96544D01*
X582578Y26544D02*
X657578D01*
X582578D02*
Y96544D01*
X657578D01*
X498758Y96290D02*
X573758D01*
X498758Y26290D02*
Y96290D01*
Y26290D02*
X573758D01*
Y96290D01*
X489938Y27052D02*
Y97052D01*
X414938Y27052D02*
X489938D01*
X414938D02*
Y97052D01*
X489938D01*
X1221162Y25782D02*
Y95782D01*
X1321162D01*
Y25782D02*
Y95782D01*
X1221162Y25782D02*
X1321162D01*
X1021010D02*
X1121010D01*
Y95782D01*
X1021010D02*
X1121010D01*
X1021010Y25782D02*
Y95782D01*
X1120832Y25782D02*
Y95782D01*
X1220832D01*
Y25782D02*
Y95782D01*
X1120832Y25782D02*
X1220832D01*
X1176742Y208872D02*
Y273372D01*
X1112242Y208872D02*
X1176742D01*
X1112242D02*
Y273372D01*
X1176742D01*
X304076Y25984D02*
Y28524D01*
X194856Y25984D02*
Y28524D01*
X216446Y4394D02*
X282486D01*
X216446Y50114D02*
X282486D01*
X62977Y737997D02*
X71462Y729511D01*
X103989D02*
X112474Y737997D01*
X103989Y696985D02*
X112475Y688499D01*
X62977D02*
X71462Y696985D01*
X1335459Y367504D02*
X1343945Y375989D01*
X1376472Y375989D02*
X1384957Y367503D01*
X1376472Y408516D02*
X1384957Y417001D01*
X1335459Y417001D02*
X1343945Y408515D01*
X1251430Y677948D02*
Y747948D01*
X1396430D01*
Y677948D02*
Y747948D01*
X1251430Y677948D02*
X1396430D01*
X1274088Y481076D02*
Y500761D01*
Y507111D02*
Y526796D01*
X1274342D02*
X1324126D01*
X1277898Y481076D02*
X1324126D01*
Y526796D01*
X1274088Y481076D02*
X1324088D01*
X1014270Y279232D02*
Y287118D01*
X983272Y248234D02*
X1014270Y279232D01*
X917994Y332054D02*
X946950Y361010D01*
X917994Y323418D02*
Y332054D01*
X982891Y362153D02*
X1011984Y333060D01*
X1014270Y324118D01*
X917994Y276936D02*
X946823Y248107D01*
X917994Y276936D02*
Y286418D01*
Y323418D01*
X1014270Y287118D02*
Y324118D01*
X61903Y63179D02*
X70388Y54694D01*
X102916D02*
X111401Y63179D01*
X102916Y22167D02*
X111401Y13681D01*
X61903D02*
X70388Y22167D01*
X768388Y394284D02*
Y406984D01*
X1277404Y408000D02*
Y429590D01*
X1202728Y407238D02*
Y428828D01*
X1050459Y407238D02*
Y428828D01*
X898436Y407238D02*
Y428828D01*
X746036Y407492D02*
Y429082D01*
X592874Y407238D02*
Y428828D01*
Y407238D02*
X1277658D01*
X753402Y325450D02*
Y394284D01*
X816610Y325450D02*
Y394284D01*
X725970Y325450D02*
X816610D01*
X725970D02*
Y394284D01*
X816610D01*
X141770Y76022D02*
X142024Y76276D01*
X138722Y76022D02*
X141770D01*
X138214Y73990D02*
X142024D01*
X136944Y71704D02*
X144310D01*
X135674Y69672D02*
X145834D01*
X321348Y313004D02*
X321602Y313258D01*
X324650D01*
X321348Y315290D02*
X325158D01*
X319062Y317576D02*
X326428D01*
X317538Y319608D02*
X327698D01*
X299758Y719658D02*
Y729818D01*
X297726Y720928D02*
Y728294D01*
X295440Y722198D02*
Y726008D01*
X293408Y722706D02*
Y725754D01*
X293154Y726008D02*
X293408Y725754D01*
X483146Y720928D02*
Y731088D01*
X481114Y722452D02*
Y729818D01*
X478828Y723722D02*
Y727532D01*
X476796Y724230D02*
Y727278D01*
X476542Y727532D02*
X476796Y727278D01*
X363004Y543890D02*
Y554050D01*
X365036Y545414D02*
Y552780D01*
X367322Y547700D02*
Y551510D01*
X369354Y547954D02*
Y551002D01*
Y547954D02*
X369608Y547700D01*
X119418Y203276D02*
X131356Y191338D01*
X106464Y203276D02*
X119418D01*
X202730Y656920D02*
X226352D01*
X190792Y644982D02*
X202730Y656920D01*
X190538Y644982D02*
X190792D01*
X969288Y481080D02*
X1019288D01*
X1019326D02*
Y526800D01*
X973098Y481080D02*
X1019326D01*
X969542Y526800D02*
X1019326D01*
X969288Y507115D02*
Y526800D01*
Y481080D02*
Y500765D01*
X1121688Y481080D02*
Y500765D01*
Y507115D02*
Y526800D01*
X1121942D02*
X1171726D01*
X1125498Y481080D02*
X1171726D01*
Y526800D01*
X1121688Y481080D02*
X1171688D01*
X512168Y481080D02*
X562168D01*
X562206D02*
Y526800D01*
X515978Y481080D02*
X562206D01*
X512422Y526800D02*
X562206D01*
X512168Y507115D02*
Y526800D01*
Y481080D02*
Y500765D01*
X664568Y481080D02*
Y500765D01*
Y507115D02*
Y526800D01*
X664822D02*
X714606D01*
X668378Y481080D02*
X714606D01*
Y526800D01*
X664568Y481080D02*
X714568D01*
X816968D02*
X866968D01*
X867006D02*
Y526800D01*
X820778Y481080D02*
X867006D01*
X817222Y526800D02*
X867006D01*
X816968Y507115D02*
Y526800D01*
Y481080D02*
Y500765D01*
X308906Y602768D02*
Y605308D01*
X199686Y602768D02*
Y605308D01*
X221276Y581178D02*
X287316D01*
X221276Y626898D02*
X287316D01*
X946430Y677948D02*
Y747948D01*
X1091430D01*
Y677948D02*
Y747948D01*
X946430Y677948D02*
X1091430D01*
X1098930D02*
Y747948D01*
X1243930D01*
Y677948D02*
Y747948D01*
X1098930Y677948D02*
X1243930D01*
X490808Y677440D02*
Y747440D01*
X635808D01*
Y677440D02*
Y747440D01*
X490808Y677440D02*
X635808D01*
X643308D02*
Y747440D01*
X788308D01*
Y677440D02*
Y747440D01*
X643308Y677440D02*
X788308D01*
X795808D02*
Y747440D01*
X940808D01*
Y677440D02*
Y747440D01*
X795808Y677440D02*
X940808D01*
X1338000Y60893D02*
X1346485Y52407D01*
X1379011D02*
X1387496Y60893D01*
X1379012Y19881D02*
X1387497Y11395D01*
X1337999D02*
X1346484Y19881D01*
X1142500Y114997D02*
Y105000D01*
Y109999D01*
X1149165D01*
Y114997D01*
Y105000D01*
X1152497Y114997D02*
Y105000D01*
X1157495D01*
X1159161Y106666D01*
Y108332D01*
X1157495Y109999D01*
X1152497D01*
X1157495D01*
X1159161Y111665D01*
Y113331D01*
X1157495Y114997D01*
X1152497D01*
X1162494Y109999D02*
X1169158D01*
X1172490Y105000D02*
Y114997D01*
X1177489D01*
X1179155Y113331D01*
Y109999D01*
X1177489Y108332D01*
X1172490D01*
X1182487Y114997D02*
Y105000D01*
X1185819Y108332D01*
X1189152Y105000D01*
Y114997D01*
X1192484Y105000D02*
Y114997D01*
X1197482D01*
X1199148Y113331D01*
Y109999D01*
X1197482Y108332D01*
X1192484D01*
X1195816D02*
X1199148Y105000D01*
X1035000D02*
Y114997D01*
X1038332Y111665D01*
X1041665Y114997D01*
Y105000D01*
X1044997D02*
Y111665D01*
X1048329Y114997D01*
X1051661Y111665D01*
Y105000D01*
Y109999D01*
X1044997D01*
X1054994Y114997D02*
X1058326D01*
X1056660D01*
Y105000D01*
X1054994D01*
X1058326D01*
X1063324D02*
Y114997D01*
X1069989Y105000D01*
Y114997D01*
X1073321Y109999D02*
X1079986D01*
X1083318Y105000D02*
Y114997D01*
X1088316D01*
X1089982Y113331D01*
Y109999D01*
X1088316Y108332D01*
X1083318D01*
X1093315Y114997D02*
Y105000D01*
X1096647Y108332D01*
X1099979Y105000D01*
Y114997D01*
X1103311Y105000D02*
Y114997D01*
X1108310D01*
X1109976Y113331D01*
Y109999D01*
X1108310Y108332D01*
X1103311D01*
X1106644D02*
X1109976Y105000D01*
X370332Y305562D02*
X373664D01*
X371998D01*
Y315559D01*
X370332Y313893D01*
X385327Y305562D02*
X378663D01*
X385327Y312227D01*
Y313893D01*
X383661Y315559D01*
X380329D01*
X378663Y313893D01*
X388659Y315559D02*
Y308894D01*
X391992Y305562D01*
X395324Y308894D01*
Y315559D01*
X195933Y318175D02*
X189268D01*
Y308178D01*
X195933D01*
X189268Y313177D02*
X192600D01*
X199265Y318175D02*
X205929Y308178D01*
Y318175D02*
X199265Y308178D01*
X209262D02*
Y318175D01*
X214260D01*
X215926Y316509D01*
Y313177D01*
X214260Y311511D01*
X209262D01*
X219258Y316509D02*
X220924Y318175D01*
X224257D01*
X225923Y316509D01*
Y314843D01*
X224257Y313177D01*
X222591D01*
X224257D01*
X225923Y311511D01*
Y309844D01*
X224257Y308178D01*
X220924D01*
X219258Y309844D01*
X400596Y630504D02*
Y640501D01*
X405594D01*
X407261Y638835D01*
Y635503D01*
X405594Y633837D01*
X400596D01*
X403928D02*
X407261Y630504D01*
X415591D02*
X412259D01*
X410593Y632170D01*
Y635503D01*
X412259Y637169D01*
X415591D01*
X417257Y635503D01*
Y633837D01*
X410593D01*
X420590Y630504D02*
X425588D01*
X427254Y632170D01*
X425588Y633837D01*
X422256D01*
X420590Y635503D01*
X422256Y637169D01*
X427254D01*
X435585Y630504D02*
X432253D01*
X430586Y632170D01*
Y635503D01*
X432253Y637169D01*
X435585D01*
X437251Y635503D01*
Y633837D01*
X430586D01*
X442249Y638835D02*
Y637169D01*
X440583D01*
X443915D01*
X442249D01*
Y632170D01*
X443915Y630504D01*
X544674Y346477D02*
X541342D01*
X543008D01*
Y338146D01*
X541342Y336480D01*
X539676D01*
X538010Y338146D01*
X548007Y346477D02*
X554671D01*
X551339D01*
Y336480D01*
X558004D02*
Y343145D01*
X561336Y346477D01*
X564668Y343145D01*
Y336480D01*
Y341479D01*
X558004D01*
X574665Y344811D02*
X572999Y346477D01*
X569666D01*
X568000Y344811D01*
Y338146D01*
X569666Y336480D01*
X572999D01*
X574665Y338146D01*
Y341479D01*
X571333D01*
X1291879Y426791D02*
X1281722D01*
Y411556D01*
X1291879D01*
X1281722Y419174D02*
X1286800D01*
X1307114Y411556D02*
X1296957D01*
X1307114Y421713D01*
Y424252D01*
X1304575Y426791D01*
X1299496D01*
X1296957Y424252D01*
X415388Y669711D02*
X408724D01*
Y659714D01*
X415388D01*
X408724Y664713D02*
X412056D01*
X418721Y669711D02*
X425385Y659714D01*
Y669711D02*
X418721Y659714D01*
X428718D02*
Y669711D01*
X433716D01*
X435382Y668045D01*
Y664713D01*
X433716Y663046D01*
X428718D01*
X445379Y659714D02*
X438714D01*
X445379Y666379D01*
Y668045D01*
X443713Y669711D01*
X440381D01*
X438714Y668045D01*
X833920Y411815D02*
X823763D01*
Y414354D01*
X833920Y424511D01*
Y427050D01*
X823763D01*
X83896Y659805D02*
X90561Y649808D01*
Y659805D02*
X83896Y649808D01*
X93893Y654807D02*
X100557D01*
X83896Y634659D02*
X90561Y624662D01*
Y634659D02*
X83896Y624662D01*
X93893Y629661D02*
X100557D01*
X97225Y632993D02*
Y626328D01*
X84404Y608497D02*
Y606831D01*
X87736Y603499D01*
X91068Y606831D01*
Y608497D01*
X87736Y603499D02*
Y598500D01*
X94401Y603499D02*
X101065D01*
X84658Y582589D02*
Y580923D01*
X87990Y577591D01*
X91322Y580923D01*
Y582589D01*
X87990Y577591D02*
Y572592D01*
X94655Y577591D02*
X101319D01*
X97987Y580923D02*
Y574258D01*
X527088Y412577D02*
X516931Y427812D01*
Y412577D02*
X527088Y427812D01*
X84658Y557189D02*
X91322D01*
Y555523D01*
X84658Y548858D01*
Y547192D01*
X91322D01*
X94655Y552191D02*
X101319D01*
X84404Y532043D02*
X91068D01*
Y530377D01*
X84404Y523712D01*
Y522046D01*
X91068D01*
X94401Y527045D02*
X101065D01*
X97733Y530377D02*
Y523712D01*
X378498Y144439D02*
X385163D01*
X381830D01*
Y134442D01*
X388495Y144439D02*
X395159Y134442D01*
Y144439D02*
X388495Y134442D01*
X378498Y113360D02*
Y123357D01*
X383496D01*
X385163Y121691D01*
Y118359D01*
X383496Y116692D01*
X378498D01*
X381830D02*
X385163Y113360D01*
X388495Y123357D02*
X395159Y113360D01*
Y123357D02*
X388495Y113360D01*
X5880Y58750D02*
Y68747D01*
X10878D01*
X12544Y67081D01*
Y63749D01*
X10878Y62083D01*
X5880D01*
X17543Y58750D02*
X20875D01*
X22541Y60416D01*
Y63749D01*
X20875Y65415D01*
X17543D01*
X15877Y63749D01*
Y60416D01*
X17543Y58750D01*
X25874Y65415D02*
Y60416D01*
X27540Y58750D01*
X29206Y60416D01*
X30872Y58750D01*
X32538Y60416D01*
Y65415D01*
X40869Y58750D02*
X37536D01*
X35870Y60416D01*
Y63749D01*
X37536Y65415D01*
X40869D01*
X42535Y63749D01*
Y62083D01*
X35870D01*
X45867Y65415D02*
Y58750D01*
Y62083D01*
X47533Y63749D01*
X49199Y65415D01*
X50866D01*
X184605Y608152D02*
X194602D01*
Y614817D01*
X184605Y624813D02*
Y618149D01*
X194602D01*
Y624813D01*
X189604Y618149D02*
Y621481D01*
X184605Y628146D02*
X194602D01*
Y633144D01*
X192936Y634810D01*
X186271D01*
X184605Y633144D01*
Y628146D01*
X194602Y638143D02*
Y641475D01*
Y639809D01*
X184605D01*
X186271Y638143D01*
X194662Y671489D02*
X187998D01*
Y661492D01*
X194662D01*
X187998Y666491D02*
X191330D01*
X197995Y671489D02*
X204659Y661492D01*
Y671489D02*
X197995Y661492D01*
X207992D02*
Y671489D01*
X212990D01*
X214656Y669823D01*
Y666491D01*
X212990Y664825D01*
X207992D01*
X217988Y661492D02*
X221321D01*
X219655D01*
Y671489D01*
X217988Y669823D01*
X1136177Y426791D02*
X1126020D01*
Y411556D01*
X1136177D01*
X1126020Y419174D02*
X1131098D01*
X1141255Y411556D02*
X1146333D01*
X1143794D01*
Y426791D01*
X1141255Y424252D01*
X987587Y426283D02*
X977430D01*
Y411048D01*
X987587D01*
X977430Y418666D02*
X982508D01*
X992665Y423744D02*
X995204Y426283D01*
X1000283D01*
X1002822Y423744D01*
Y413587D01*
X1000283Y411048D01*
X995204D01*
X992665Y413587D01*
Y423744D01*
X440474Y113197D02*
Y103200D01*
Y108199D01*
X447138D01*
Y113197D01*
Y103200D01*
X457135Y113197D02*
X450471D01*
Y103200D01*
X457135D01*
X450471Y108199D02*
X453803D01*
X460468Y111531D02*
X462134Y113197D01*
X465466D01*
X467132Y111531D01*
Y104866D01*
X465466Y103200D01*
X462134D01*
X460468Y104866D01*
Y111531D01*
X1245000Y114997D02*
Y105000D01*
Y109999D01*
X1251665D01*
Y114997D01*
Y105000D01*
X1254997Y114997D02*
Y105000D01*
X1259995D01*
X1261661Y106666D01*
Y108332D01*
X1259995Y109999D01*
X1254997D01*
X1259995D01*
X1261661Y111665D01*
Y113331D01*
X1259995Y114997D01*
X1254997D01*
X1264994Y109999D02*
X1271658D01*
X1279989Y114997D02*
X1276656D01*
X1274990Y113331D01*
Y106666D01*
X1276656Y105000D01*
X1279989D01*
X1281655Y106666D01*
Y113331D01*
X1279989Y114997D01*
X1284987D02*
Y106666D01*
X1286653Y105000D01*
X1289986D01*
X1291652Y106666D01*
Y114997D01*
X1294984D02*
X1301648D01*
X1298316D01*
Y105000D01*
X669836Y426791D02*
Y424252D01*
X674914Y419174D01*
X679993Y424252D01*
Y426791D01*
X674914Y419174D02*
Y411556D01*
X318046Y661746D02*
Y671743D01*
X323044D01*
X324711Y670077D01*
Y666745D01*
X323044Y665079D01*
X318046D01*
X334707Y670077D02*
X333041Y671743D01*
X329709D01*
X328043Y670077D01*
Y668411D01*
X329709Y666745D01*
X333041D01*
X334707Y665079D01*
Y663412D01*
X333041Y661746D01*
X329709D01*
X328043Y663412D01*
X338040Y660080D02*
X344704D01*
X353035Y671743D02*
X349702D01*
X348036Y670077D01*
Y663412D01*
X349702Y661746D01*
X353035D01*
X354701Y663412D01*
Y670077D01*
X353035Y671743D01*
X358033Y661746D02*
Y671743D01*
X364698Y661746D01*
Y671743D01*
X389442Y256123D02*
X382778D01*
Y251124D01*
X386110Y252791D01*
X387776D01*
X389442Y251124D01*
Y247792D01*
X387776Y246126D01*
X384444D01*
X382778Y247792D01*
X392775Y256123D02*
Y249458D01*
X396107Y246126D01*
X399439Y249458D01*
Y256123D01*
X381038Y67132D02*
Y76129D01*
X385536D01*
X387036Y74630D01*
Y71631D01*
X385536Y70131D01*
X381038D01*
X390035Y76129D02*
Y67132D01*
X393034Y70131D01*
X396033Y67132D01*
Y76129D01*
X399032Y67132D02*
Y76129D01*
X403531D01*
X405030Y74630D01*
Y71631D01*
X403531Y70131D01*
X399032D01*
X402031D02*
X405030Y67132D01*
X526834Y112181D02*
Y102184D01*
Y107183D01*
X533498D01*
Y112181D01*
Y102184D01*
X543495Y112181D02*
X536831D01*
Y102184D01*
X543495D01*
X536831Y107183D02*
X540163D01*
X546828Y102184D02*
X550160D01*
X548494D01*
Y112181D01*
X546828Y110515D01*
X606590Y112435D02*
Y102438D01*
Y107437D01*
X613255D01*
Y112435D01*
Y102438D01*
X623251Y112435D02*
X616587D01*
Y102438D01*
X623251D01*
X616587Y107437D02*
X619919D01*
X633248Y102438D02*
X626584D01*
X633248Y109103D01*
Y110769D01*
X631582Y112435D01*
X628250D01*
X626584Y110769D01*
X141057Y343230D02*
Y336566D01*
Y339898D01*
X131060D01*
X141057Y333233D02*
X131060D01*
X136058D01*
X137725Y331567D01*
Y328235D01*
X136058Y326569D01*
X131060D01*
Y318238D02*
Y321571D01*
X132726Y323237D01*
X136058D01*
X137725Y321571D01*
Y318238D01*
X136058Y316572D01*
X134392D01*
Y323237D01*
X137725Y313240D02*
X131060D01*
X134392D01*
X136058Y311574D01*
X137725Y309908D01*
Y308242D01*
X131060Y303243D02*
X137725D01*
Y301577D01*
X136058Y299911D01*
X131060D01*
X136058D01*
X137725Y298245D01*
X136058Y296579D01*
X131060D01*
Y293246D02*
Y289914D01*
Y291580D01*
X137725D01*
Y293246D01*
X131060Y284916D02*
Y279917D01*
X132726Y278251D01*
X134392Y279917D01*
Y283249D01*
X136058Y284916D01*
X137725Y283249D01*
Y278251D01*
X139391Y273253D02*
X137725D01*
Y274919D01*
Y271587D01*
Y273253D01*
X132726D01*
X131060Y271587D01*
Y264922D02*
Y261590D01*
X132726Y259924D01*
X136058D01*
X137725Y261590D01*
Y264922D01*
X136058Y266588D01*
X132726D01*
X131060Y264922D01*
X137725Y256591D02*
X131060D01*
X134392D01*
X136058Y254925D01*
X137725Y253259D01*
Y251593D01*
X131060Y246595D02*
Y241596D01*
X132726Y239930D01*
X134392Y241596D01*
Y244928D01*
X136058Y246595D01*
X137725Y244928D01*
Y239930D01*
X94120Y502945D02*
X92454Y504611D01*
X89122D01*
X87456Y502945D01*
Y496280D01*
X89122Y494614D01*
X92454D01*
X94120Y496280D01*
X62056Y504611D02*
Y494614D01*
X67054D01*
X68720Y496280D01*
Y502945D01*
X67054Y504611D01*
X62056D01*
X36910Y499359D02*
X43574D01*
X11256D02*
X17920D01*
X14588Y502691D02*
Y496026D01*
X128907Y496900D02*
Y493568D01*
Y495234D01*
X118910D01*
Y496900D01*
Y493568D01*
Y481905D02*
Y488570D01*
X125575Y481905D01*
X127241D01*
X128907Y483571D01*
Y486903D01*
X127241Y488570D01*
Y471908D02*
X128907Y473574D01*
Y476907D01*
X127241Y478573D01*
X120576D01*
X118910Y476907D01*
Y473574D01*
X120576Y471908D01*
X128907Y451915D02*
Y458579D01*
X118910D01*
Y451915D01*
X123908Y458579D02*
Y455247D01*
X118910Y448582D02*
X125575D01*
Y443584D01*
X123908Y441918D01*
X118910D01*
X125575Y431921D02*
Y436920D01*
X123908Y438586D01*
X120576D01*
X118910Y436920D01*
Y431921D01*
Y426923D02*
Y423591D01*
X120576Y421924D01*
X123908D01*
X125575Y423591D01*
Y426923D01*
X123908Y428589D01*
X120576D01*
X118910Y426923D01*
X128907Y411928D02*
X118910D01*
Y416926D01*
X120576Y418592D01*
X123908D01*
X125575Y416926D01*
Y411928D01*
X118910Y403597D02*
Y406929D01*
X120576Y408595D01*
X123908D01*
X125575Y406929D01*
Y403597D01*
X123908Y401931D01*
X122242D01*
Y408595D01*
X125575Y398599D02*
X118910D01*
X122242D01*
X123908Y396932D01*
X125575Y395266D01*
Y393600D01*
X118910Y388602D02*
Y383603D01*
X120576Y381937D01*
X122242Y383603D01*
Y386936D01*
X123908Y388602D01*
X125575Y386936D01*
Y381937D01*
X125097Y622316D02*
Y628980D01*
X115100D01*
Y622316D01*
X120098Y628980D02*
Y625648D01*
X115100Y618983D02*
X121764D01*
Y613985D01*
X120098Y612319D01*
X115100D01*
X125097Y602322D02*
X115100D01*
Y607321D01*
X116766Y608987D01*
X120098D01*
X121764Y607321D01*
Y602322D01*
X115100Y598990D02*
Y593992D01*
X116766Y592325D01*
X118432Y593992D01*
Y597324D01*
X120098Y598990D01*
X121764Y597324D01*
Y592325D01*
X123431Y587327D02*
X121764D01*
Y588993D01*
Y585661D01*
Y587327D01*
X116766D01*
X115100Y585661D01*
Y578996D02*
Y575664D01*
X116766Y573998D01*
X120098D01*
X121764Y575664D01*
Y578996D01*
X120098Y580662D01*
X116766D01*
X115100Y578996D01*
X111768Y570666D02*
X121764D01*
Y565667D01*
X120098Y564001D01*
X116766D01*
X115100Y565667D01*
Y570666D01*
Y560669D02*
Y555671D01*
X116766Y554004D01*
X118432Y555671D01*
Y559003D01*
X120098Y560669D01*
X121764Y559003D01*
Y554004D01*
X145834Y69929D02*
X140756Y80086D01*
X135677Y69929D01*
X738223Y330530D02*
X731558D01*
X738223Y337195D01*
Y338861D01*
X736556Y340527D01*
X733224D01*
X731558Y338861D01*
X741555Y340527D02*
Y330530D01*
X746553D01*
X748219Y332196D01*
Y333862D01*
X746553Y335529D01*
X741555D01*
X746553D01*
X748219Y337195D01*
Y338861D01*
X746553Y340527D01*
X741555D01*
X761548Y330530D02*
Y340527D01*
X766547D01*
X768213Y338861D01*
Y335529D01*
X766547Y333862D01*
X761548D01*
X764881D02*
X768213Y330530D01*
X776544D02*
X773211D01*
X771545Y332196D01*
Y335529D01*
X773211Y337195D01*
X776544D01*
X778210Y335529D01*
Y333862D01*
X771545D01*
X788206Y340527D02*
Y330530D01*
X783208D01*
X781542Y332196D01*
Y335529D01*
X783208Y337195D01*
X788206D01*
X738223Y346109D02*
X731558D01*
X738223Y352773D01*
Y354440D01*
X736556Y356106D01*
X733224D01*
X731558Y354440D01*
X741555Y346109D02*
Y352773D01*
X744887Y356106D01*
X748219Y352773D01*
Y346109D01*
Y351107D01*
X741555D01*
X768213Y354440D02*
X766547Y356106D01*
X763214D01*
X761548Y354440D01*
Y347775D01*
X763214Y346109D01*
X766547D01*
X768213Y347775D01*
Y351107D01*
X764881D01*
X771545Y352773D02*
Y346109D01*
Y349441D01*
X773211Y351107D01*
X774877Y352773D01*
X776544D01*
X786540Y346109D02*
X783208D01*
X781542Y347775D01*
Y351107D01*
X783208Y352773D01*
X786540D01*
X788206Y351107D01*
Y349441D01*
X781542D01*
X791539Y352773D02*
Y347775D01*
X793205Y346109D01*
X798203D01*
Y344443D01*
X796537Y342777D01*
X794871D01*
X798203Y346109D02*
Y352773D01*
X731558Y361688D02*
X734890D01*
X733224D01*
Y371684D01*
X731558Y370018D01*
X739889Y361688D02*
Y368352D01*
X743221Y371684D01*
X746553Y368352D01*
Y361688D01*
Y366686D01*
X739889D01*
X759882Y371684D02*
Y370018D01*
X763214Y366686D01*
X766547Y370018D01*
Y371684D01*
X763214Y366686D02*
Y361688D01*
X774877D02*
X771545D01*
X769879Y363354D01*
Y366686D01*
X771545Y368352D01*
X774877D01*
X776544Y366686D01*
Y365020D01*
X769879D01*
X779876Y361688D02*
X783208D01*
X781542D01*
Y371684D01*
X779876D01*
X788206Y361688D02*
X791539D01*
X789873D01*
Y371684D01*
X788206D01*
X798203Y361688D02*
X801535D01*
X803202Y363354D01*
Y366686D01*
X801535Y368352D01*
X798203D01*
X796537Y366686D01*
Y363354D01*
X798203Y361688D01*
X806534Y368352D02*
Y363354D01*
X808200Y361688D01*
X809866Y363354D01*
X811532Y361688D01*
X813198Y363354D01*
Y368352D01*
X731558Y377266D02*
X734890D01*
X733224D01*
Y387263D01*
X731558Y385597D01*
X739889Y387263D02*
Y377266D01*
X744887D01*
X746553Y378932D01*
Y380598D01*
X744887Y382265D01*
X739889D01*
X744887D01*
X746553Y383931D01*
Y385597D01*
X744887Y387263D01*
X739889D01*
X766547Y385597D02*
X764881Y387263D01*
X761548D01*
X759882Y385597D01*
Y378932D01*
X761548Y377266D01*
X764881D01*
X766547Y378932D01*
Y382265D01*
X763214D01*
X769879Y383931D02*
Y377266D01*
Y380598D01*
X771545Y382265D01*
X773211Y383931D01*
X774877D01*
X784874Y377266D02*
X781542D01*
X779876Y378932D01*
Y382265D01*
X781542Y383931D01*
X784874D01*
X786540Y382265D01*
Y380598D01*
X779876D01*
X794871Y377266D02*
X791539D01*
X789873Y378932D01*
Y382265D01*
X791539Y383931D01*
X794871D01*
X796537Y382265D01*
Y380598D01*
X789873D01*
X799869Y377266D02*
Y383931D01*
X804868D01*
X806534Y382265D01*
Y377266D01*
X317538Y319351D02*
X322616Y309194D01*
X327695Y319351D01*
X299501Y729818D02*
X289344Y724740D01*
X299501Y719661D01*
X482889Y731342D02*
X472732Y726264D01*
X482889Y721186D01*
X363261Y543890D02*
X373418Y548969D01*
X363261Y554047D01*
X377594Y288803D02*
X384258D01*
X377594Y262955D02*
X384258D01*
X380926Y266287D02*
Y259623D01*
X444499Y548523D02*
X442832Y546857D01*
Y543524D01*
X444499Y541858D01*
X446165D01*
X447831Y543524D01*
Y546857D01*
X449497Y548523D01*
X451163D01*
X452829Y546857D01*
Y543524D01*
X451163Y541858D01*
X444499Y553521D02*
X446165D01*
Y551855D01*
Y555187D01*
Y553521D01*
X451163D01*
X452829Y555187D01*
X446165Y561852D02*
Y565184D01*
X447831Y566850D01*
X452829D01*
Y561852D01*
X451163Y560186D01*
X449497Y561852D01*
Y566850D01*
X452829Y570182D02*
X446165D01*
Y575181D01*
X447831Y576847D01*
X452829D01*
X442832Y586844D02*
X452829D01*
Y581845D01*
X451163Y580179D01*
X447831D01*
X446165Y581845D01*
Y586844D01*
X460988Y544286D02*
Y547619D01*
X462654Y549285D01*
X467652D01*
Y544286D01*
X465986Y542620D01*
X464320Y544286D01*
Y549285D01*
X467652Y552617D02*
Y555949D01*
Y554283D01*
X457655D01*
Y552617D01*
X467652Y562614D02*
Y565946D01*
X465986Y567612D01*
X462654D01*
X460988Y565946D01*
Y562614D01*
X462654Y560948D01*
X465986D01*
X467652Y562614D01*
Y570944D02*
X460988D01*
Y575943D01*
X462654Y577609D01*
X467652D01*
Y585940D02*
Y582607D01*
X465986Y580941D01*
X462654D01*
X460988Y582607D01*
Y585940D01*
X462654Y587606D01*
X464320D01*
Y580941D01*
X465874Y412064D02*
X455877D01*
Y417063D01*
X457543Y418729D01*
X460876D01*
X462542Y417063D01*
Y412064D01*
X465874Y423727D02*
Y427059D01*
X464208Y428726D01*
X460876D01*
X459210Y427059D01*
Y423727D01*
X460876Y422061D01*
X464208D01*
X465874Y423727D01*
X459210Y432058D02*
X464208D01*
X465874Y433724D01*
X464208Y435390D01*
X465874Y437056D01*
X464208Y438722D01*
X459210D01*
X465874Y447053D02*
Y443721D01*
X464208Y442054D01*
X460876D01*
X459210Y443721D01*
Y447053D01*
X460876Y448719D01*
X462542D01*
Y442054D01*
X459210Y452051D02*
X465874D01*
X462542D01*
X460876Y453717D01*
X459210Y455384D01*
Y457050D01*
X442923Y420192D02*
X451254D01*
X452920Y421858D01*
Y425191D01*
X451254Y426857D01*
X442923D01*
X444589Y436853D02*
X442923Y435187D01*
Y431855D01*
X444589Y430189D01*
X446255D01*
X447922Y431855D01*
Y435187D01*
X449588Y436853D01*
X451254D01*
X452920Y435187D01*
Y431855D01*
X451254Y430189D01*
X442923Y440186D02*
X452920D01*
Y445184D01*
X451254Y446850D01*
X449588D01*
X447922Y445184D01*
Y440186D01*
Y445184D01*
X446255Y446850D01*
X444589D01*
X442923Y445184D01*
Y440186D01*
X457746Y309539D02*
Y299542D01*
Y304541D01*
X464411D01*
Y309539D01*
Y299542D01*
X474407Y309539D02*
X467743D01*
Y299542D01*
X474407D01*
X467743Y304541D02*
X471075D01*
X477740Y307873D02*
X479406Y309539D01*
X482738D01*
X484404Y307873D01*
Y301208D01*
X482738Y299542D01*
X479406D01*
X477740Y301208D01*
Y307873D01*
X540296Y309539D02*
Y299542D01*
Y304541D01*
X546960D01*
Y309539D01*
Y299542D01*
X556957Y309539D02*
X550293D01*
Y299542D01*
X556957D01*
X550293Y304541D02*
X553625D01*
X560290Y299542D02*
X563622D01*
X561956D01*
Y309539D01*
X560290Y307873D01*
X619798Y309539D02*
Y299542D01*
Y304541D01*
X626463D01*
Y309539D01*
Y299542D01*
X636459Y309539D02*
X629795D01*
Y299542D01*
X636459D01*
X629795Y304541D02*
X633127D01*
X646456Y299542D02*
X639792D01*
X646456Y306207D01*
Y307873D01*
X644790Y309539D01*
X641458D01*
X639792Y307873D01*
X704695Y309285D02*
X698030D01*
Y304287D01*
X701362D01*
X698030D01*
Y299288D01*
X708027D02*
Y305953D01*
X711359Y309285D01*
X714691Y305953D01*
Y299288D01*
Y304287D01*
X708027D01*
X718024Y299288D02*
Y309285D01*
X724688Y299288D01*
Y309285D01*
X728020Y307619D02*
X729687Y309285D01*
X733019D01*
X734685Y307619D01*
Y300954D01*
X733019Y299288D01*
X729687D01*
X728020Y300954D01*
Y307619D01*
X790293Y309539D02*
X783628D01*
Y304541D01*
X786960D01*
X783628D01*
Y299542D01*
X793625D02*
Y306207D01*
X796957Y309539D01*
X800289Y306207D01*
Y299542D01*
Y304541D01*
X793625D01*
X803622Y299542D02*
Y309539D01*
X810286Y299542D01*
Y309539D01*
X813618Y299542D02*
X816951D01*
X815285D01*
Y309539D01*
X813618Y307873D01*
X1297216Y396407D02*
Y386410D01*
Y391409D01*
X1303880D01*
Y396407D01*
Y386410D01*
X1307213Y396407D02*
Y386410D01*
X1312211D01*
X1313877Y388076D01*
Y389743D01*
X1312211Y391409D01*
X1307213D01*
X1312211D01*
X1313877Y393075D01*
Y394741D01*
X1312211Y396407D01*
X1307213D01*
X838492Y221564D02*
Y224897D01*
Y223230D01*
X828495D01*
X830161Y221564D01*
X838492Y236559D02*
Y229895D01*
X831827Y236559D01*
X830161D01*
X828495Y234893D01*
Y231561D01*
X830161Y229895D01*
X828495Y239892D02*
X835160D01*
X838492Y243224D01*
X835160Y246556D01*
X828495D01*
X833494Y249888D02*
Y256553D01*
X830161Y266550D02*
X828495Y264884D01*
Y261551D01*
X830161Y259885D01*
X831827D01*
X833494Y261551D01*
Y264884D01*
X835160Y266550D01*
X836826D01*
X838492Y264884D01*
Y261551D01*
X836826Y259885D01*
X838492Y274880D02*
Y271548D01*
X836826Y269882D01*
X833494D01*
X831827Y271548D01*
Y274880D01*
X833494Y276546D01*
X835160D01*
Y269882D01*
X838492Y279879D02*
Y283211D01*
Y281545D01*
X828495D01*
Y279879D01*
X838492Y293208D02*
Y289876D01*
X836826Y288209D01*
X833494D01*
X831827Y289876D01*
Y293208D01*
X833494Y294874D01*
X835160D01*
Y288209D01*
X831827Y304871D02*
Y299872D01*
X833494Y298206D01*
X836826D01*
X838492Y299872D01*
Y304871D01*
X830161Y309869D02*
X831827D01*
Y308203D01*
Y311535D01*
Y309869D01*
X836826D01*
X838492Y311535D01*
Y107010D02*
X828495D01*
Y112009D01*
X830161Y113675D01*
X833494D01*
X835160Y112009D01*
Y107010D01*
X828495Y117007D02*
X838492D01*
X835160Y120339D01*
X838492Y123672D01*
X828495D01*
X838492Y127004D02*
X828495D01*
Y132002D01*
X830161Y133668D01*
X833494D01*
X835160Y132002D01*
Y127004D01*
Y130336D02*
X838492Y133668D01*
X751370Y221310D02*
Y224643D01*
Y222976D01*
X741373D01*
X743039Y221310D01*
X751370Y236305D02*
Y229641D01*
X744706Y236305D01*
X743039D01*
X741373Y234639D01*
Y231307D01*
X743039Y229641D01*
X741373Y239638D02*
X748038D01*
X751370Y242970D01*
X748038Y246302D01*
X741373D01*
X746372Y249634D02*
Y256299D01*
X743039Y266296D02*
X741373Y264630D01*
Y261297D01*
X743039Y259631D01*
X744706D01*
X746372Y261297D01*
Y264630D01*
X748038Y266296D01*
X749704D01*
X751370Y264630D01*
Y261297D01*
X749704Y259631D01*
X751370Y274626D02*
Y271294D01*
X749704Y269628D01*
X746372D01*
X744706Y271294D01*
Y274626D01*
X746372Y276292D01*
X748038D01*
Y269628D01*
X751370Y279625D02*
Y282957D01*
Y281291D01*
X741373D01*
Y279625D01*
X751370Y292954D02*
Y289622D01*
X749704Y287955D01*
X746372D01*
X744706Y289622D01*
Y292954D01*
X746372Y294620D01*
X748038D01*
Y287955D01*
X744706Y304617D02*
Y299618D01*
X746372Y297952D01*
X749704D01*
X751370Y299618D01*
Y304617D01*
X743039Y309615D02*
X744706D01*
Y307949D01*
Y311281D01*
Y309615D01*
X749704D01*
X751370Y311281D01*
Y106502D02*
X741373D01*
Y111501D01*
X743039Y113167D01*
X746372D01*
X748038Y111501D01*
Y106502D01*
X741373Y116499D02*
X751370D01*
X748038Y119831D01*
X751370Y123163D01*
X741373D01*
X751370Y126496D02*
X741373D01*
Y131494D01*
X743039Y133160D01*
X746372D01*
X748038Y131494D01*
Y126496D01*
Y129828D02*
X751370Y133160D01*
X667042Y106502D02*
X657045D01*
Y111501D01*
X658711Y113167D01*
X662044D01*
X663710Y111501D01*
Y106502D01*
X657045Y116499D02*
X667042D01*
X663710Y119831D01*
X667042Y123163D01*
X657045D01*
X667042Y126496D02*
X657045D01*
Y131494D01*
X658711Y133160D01*
X662044D01*
X663710Y131494D01*
Y126496D01*
Y129828D02*
X667042Y133160D01*
Y221310D02*
Y224643D01*
Y222976D01*
X657045D01*
X658711Y221310D01*
X667042Y236305D02*
Y229641D01*
X660378Y236305D01*
X658711D01*
X657045Y234639D01*
Y231307D01*
X658711Y229641D01*
X657045Y239638D02*
X663710D01*
X667042Y242970D01*
X663710Y246302D01*
X657045D01*
X662044Y249634D02*
Y256299D01*
X658711Y266296D02*
X657045Y264630D01*
Y261297D01*
X658711Y259631D01*
X660378D01*
X662044Y261297D01*
Y264630D01*
X663710Y266296D01*
X665376D01*
X667042Y264630D01*
Y261297D01*
X665376Y259631D01*
X667042Y274626D02*
Y271294D01*
X665376Y269628D01*
X662044D01*
X660378Y271294D01*
Y274626D01*
X662044Y276292D01*
X663710D01*
Y269628D01*
X667042Y279625D02*
Y282957D01*
Y281291D01*
X657045D01*
Y279625D01*
X667042Y292954D02*
Y289622D01*
X665376Y287955D01*
X662044D01*
X660378Y289622D01*
Y292954D01*
X662044Y294620D01*
X663710D01*
Y287955D01*
X660378Y304617D02*
Y299618D01*
X662044Y297952D01*
X665376D01*
X667042Y299618D01*
Y304617D01*
X658711Y309615D02*
X660378D01*
Y307949D01*
Y311281D01*
Y309615D01*
X665376D01*
X667042Y311281D01*
X370116Y46416D02*
X376781D01*
X370116Y20569D02*
X376781D01*
X373448Y23901D02*
Y17236D01*
X1014006Y25984D02*
Y29316D01*
Y27650D01*
X1004009D01*
X1005675Y25984D01*
X1014006Y40979D02*
Y34315D01*
X1007342Y40979D01*
X1005675D01*
X1004009Y39313D01*
Y35981D01*
X1005675Y34315D01*
X1004009Y44312D02*
X1010674D01*
X1014006Y47644D01*
X1010674Y50976D01*
X1004009D01*
X1014006Y54308D02*
X1012340D01*
Y55974D01*
X1014006D01*
Y54308D01*
Y62639D02*
X1012340D01*
Y64305D01*
X1014006D01*
Y62639D01*
X1005675Y70970D02*
X1004009Y72636D01*
Y75968D01*
X1005675Y77634D01*
X1007342D01*
X1009008Y75968D01*
Y74302D01*
Y75968D01*
X1010674Y77634D01*
X1012340D01*
X1014006Y75968D01*
Y72636D01*
X1012340Y70970D01*
X1004009Y87631D02*
Y80967D01*
X1009008D01*
X1007342Y84299D01*
Y85965D01*
X1009008Y87631D01*
X1012340D01*
X1014006Y85965D01*
Y82633D01*
X1012340Y80967D01*
X1004009Y90963D02*
X1010674D01*
X1014006Y94296D01*
X1010674Y97628D01*
X1004009D01*
X390436Y204211D02*
X397100D01*
X393768Y207543D02*
Y200878D01*
X390436Y230058D02*
X397100D01*
X74460Y208447D02*
Y200116D01*
X76126Y198450D01*
X79458D01*
X81124Y200116D01*
Y208447D01*
X91121Y206781D02*
X89455Y208447D01*
X86123D01*
X84457Y206781D01*
Y205115D01*
X86123Y203449D01*
X89455D01*
X91121Y201782D01*
Y200116D01*
X89455Y198450D01*
X86123D01*
X84457Y200116D01*
X94454Y208447D02*
Y198450D01*
X99452D01*
X101118Y200116D01*
Y201782D01*
X99452Y203449D01*
X94454D01*
X99452D01*
X101118Y205115D01*
Y206781D01*
X99452Y208447D01*
X94454D01*
X11252Y675889D02*
X17917D01*
X14584Y679221D02*
Y672556D01*
X36906Y675889D02*
X43570D01*
X68717Y679475D02*
X67050Y681141D01*
X63718D01*
X62052Y679475D01*
Y677809D01*
X63718Y676143D01*
X67050D01*
X68717Y674476D01*
Y672810D01*
X67050Y671144D01*
X63718D01*
X62052Y672810D01*
X1274610Y632028D02*
X1277942D01*
X1276276D01*
Y642025D01*
X1274610Y640359D01*
X1282941Y642025D02*
Y632028D01*
X1287939D01*
X1289605Y633694D01*
Y635360D01*
X1287939Y637027D01*
X1282941D01*
X1287939D01*
X1289605Y638693D01*
Y640359D01*
X1287939Y642025D01*
X1282941D01*
X1300264Y632028D02*
X1303596D01*
X1301930D01*
Y642025D01*
X1300264Y640359D01*
X1308595Y632028D02*
Y638693D01*
X1311927Y642025D01*
X1315259Y638693D01*
Y632028D01*
Y637027D01*
X1308595D01*
X1331566Y632028D02*
X1324902D01*
X1331566Y638693D01*
Y640359D01*
X1329900Y642025D01*
X1326568D01*
X1324902Y640359D01*
X1334899Y632028D02*
Y638693D01*
X1338231Y642025D01*
X1341563Y638693D01*
Y632028D01*
Y637027D01*
X1334899D01*
X1358237Y632028D02*
X1351572D01*
X1358237Y638693D01*
Y640359D01*
X1356570Y642025D01*
X1353238D01*
X1351572Y640359D01*
X1361569Y642025D02*
Y632028D01*
X1366567D01*
X1368233Y633694D01*
Y635360D01*
X1366567Y637027D01*
X1361569D01*
X1366567D01*
X1368233Y638693D01*
Y640359D01*
X1366567Y642025D01*
X1361569D01*
X1122464Y632282D02*
X1125796D01*
X1124130D01*
Y642279D01*
X1122464Y640613D01*
X1130795Y642279D02*
Y632282D01*
X1135793D01*
X1137459Y633948D01*
Y635615D01*
X1135793Y637281D01*
X1130795D01*
X1135793D01*
X1137459Y638947D01*
Y640613D01*
X1135793Y642279D01*
X1130795D01*
X1148118Y632282D02*
X1151450D01*
X1149784D01*
Y642279D01*
X1148118Y640613D01*
X1156449Y632282D02*
Y638947D01*
X1159781Y642279D01*
X1163113Y638947D01*
Y632282D01*
Y637281D01*
X1156449D01*
X1179420Y632282D02*
X1172756D01*
X1179420Y638947D01*
Y640613D01*
X1177754Y642279D01*
X1174422D01*
X1172756Y640613D01*
X1182753Y632282D02*
Y638947D01*
X1186085Y642279D01*
X1189417Y638947D01*
Y632282D01*
Y637281D01*
X1182753D01*
X1206090Y632282D02*
X1199426D01*
X1206090Y638947D01*
Y640613D01*
X1204424Y642279D01*
X1201092D01*
X1199426Y640613D01*
X1209423Y642279D02*
Y632282D01*
X1214421D01*
X1216087Y633948D01*
Y635615D01*
X1214421Y637281D01*
X1209423D01*
X1214421D01*
X1216087Y638947D01*
Y640613D01*
X1214421Y642279D01*
X1209423D01*
X970064Y632282D02*
X973396D01*
X971730D01*
Y642279D01*
X970064Y640613D01*
X978395Y642279D02*
Y632282D01*
X983393D01*
X985059Y633948D01*
Y635615D01*
X983393Y637281D01*
X978395D01*
X983393D01*
X985059Y638947D01*
Y640613D01*
X983393Y642279D01*
X978395D01*
X995718Y632282D02*
X999050D01*
X997384D01*
Y642279D01*
X995718Y640613D01*
X1004049Y632282D02*
Y638947D01*
X1007381Y642279D01*
X1010713Y638947D01*
Y632282D01*
Y637281D01*
X1004049D01*
X1027020Y632282D02*
X1020356D01*
X1027020Y638947D01*
Y640613D01*
X1025354Y642279D01*
X1022022D01*
X1020356Y640613D01*
X1030353Y632282D02*
Y638947D01*
X1033685Y642279D01*
X1037017Y638947D01*
Y632282D01*
Y637281D01*
X1030353D01*
X1053690Y632282D02*
X1047026D01*
X1053690Y638947D01*
Y640613D01*
X1052024Y642279D01*
X1048692D01*
X1047026Y640613D01*
X1057023Y642279D02*
Y632282D01*
X1062021D01*
X1063687Y633948D01*
Y635615D01*
X1062021Y637281D01*
X1057023D01*
X1062021D01*
X1063687Y638947D01*
Y640613D01*
X1062021Y642279D01*
X1057023D01*
X819188Y632282D02*
X822520D01*
X820854D01*
Y642279D01*
X819188Y640613D01*
X827519Y642279D02*
Y632282D01*
X832517D01*
X834183Y633948D01*
Y635615D01*
X832517Y637281D01*
X827519D01*
X832517D01*
X834183Y638947D01*
Y640613D01*
X832517Y642279D01*
X827519D01*
X844842Y632282D02*
X848174D01*
X846508D01*
Y642279D01*
X844842Y640613D01*
X853173Y632282D02*
Y638947D01*
X856505Y642279D01*
X859837Y638947D01*
Y632282D01*
Y637281D01*
X853173D01*
X876144Y632282D02*
X869480D01*
X876144Y638947D01*
Y640613D01*
X874478Y642279D01*
X871146D01*
X869480Y640613D01*
X879477Y632282D02*
Y638947D01*
X882809Y642279D01*
X886141Y638947D01*
Y632282D01*
Y637281D01*
X879477D01*
X902814Y632282D02*
X896150D01*
X902814Y638947D01*
Y640613D01*
X901148Y642279D01*
X897816D01*
X896150Y640613D01*
X906147Y642279D02*
Y632282D01*
X911145D01*
X912811Y633948D01*
Y635615D01*
X911145Y637281D01*
X906147D01*
X911145D01*
X912811Y638947D01*
Y640613D01*
X911145Y642279D01*
X906147D01*
X666534Y632028D02*
X669866D01*
X668200D01*
Y642025D01*
X666534Y640359D01*
X674865Y642025D02*
Y632028D01*
X679863D01*
X681529Y633694D01*
Y635360D01*
X679863Y637027D01*
X674865D01*
X679863D01*
X681529Y638693D01*
Y640359D01*
X679863Y642025D01*
X674865D01*
X692188Y632028D02*
X695520D01*
X693854D01*
Y642025D01*
X692188Y640359D01*
X700519Y632028D02*
Y638693D01*
X703851Y642025D01*
X707183Y638693D01*
Y632028D01*
Y637027D01*
X700519D01*
X723491Y632028D02*
X716826D01*
X723491Y638693D01*
Y640359D01*
X721824Y642025D01*
X718492D01*
X716826Y640359D01*
X726823Y632028D02*
Y638693D01*
X730155Y642025D01*
X733487Y638693D01*
Y632028D01*
Y637027D01*
X726823D01*
X750161Y632028D02*
X743496D01*
X750161Y638693D01*
Y640359D01*
X748494Y642025D01*
X745162D01*
X743496Y640359D01*
X753493Y642025D02*
Y632028D01*
X758491D01*
X760157Y633694D01*
Y635360D01*
X758491Y637027D01*
X753493D01*
X758491D01*
X760157Y638693D01*
Y640359D01*
X758491Y642025D01*
X753493D01*
X597506Y631774D02*
X590842D01*
X597506Y638439D01*
Y640105D01*
X595840Y641771D01*
X592508D01*
X590842Y640105D01*
X600839Y641771D02*
Y631774D01*
X605837D01*
X607503Y633440D01*
Y635107D01*
X605837Y636773D01*
X600839D01*
X605837D01*
X607503Y638439D01*
Y640105D01*
X605837Y641771D01*
X600839D01*
X570836Y631774D02*
X564172D01*
X570836Y638439D01*
Y640105D01*
X569170Y641771D01*
X565838D01*
X564172Y640105D01*
X574169Y631774D02*
Y638439D01*
X577501Y641771D01*
X580833Y638439D01*
Y631774D01*
Y636773D01*
X574169D01*
X539534Y631774D02*
X542866D01*
X541200D01*
Y641771D01*
X539534Y640105D01*
X547865Y631774D02*
Y638439D01*
X551197Y641771D01*
X554529Y638439D01*
Y631774D01*
Y636773D01*
X547865D01*
X513880Y631774D02*
X517212D01*
X515546D01*
Y641771D01*
X513880Y640105D01*
X522211Y641771D02*
Y631774D01*
X527209D01*
X528875Y633440D01*
Y635107D01*
X527209Y636773D01*
X522211D01*
X527209D01*
X528875Y638439D01*
Y640105D01*
X527209Y641771D01*
X522211D01*
X1238688Y12867D02*
X1252017D01*
X1289488D02*
X1302817D01*
X1296152Y19532D02*
Y6202D01*
X800326Y14137D02*
X813655D01*
X806991Y20801D02*
Y7473D01*
X764004Y15407D02*
X777333D01*
X715236Y13629D02*
X728565D01*
X721900Y20294D02*
Y6964D01*
X678914Y14899D02*
X692243D01*
X464284Y14137D02*
X477613D01*
X470948Y20801D02*
Y7473D01*
X427962Y15407D02*
X441291D01*
X548104Y13375D02*
X561433D01*
X554768Y20040D02*
Y6711D01*
X511782Y14645D02*
X525111D01*
X631924Y13629D02*
X645253D01*
X638588Y20294D02*
Y6964D01*
X595602Y14899D02*
X608931D01*
X1189158Y12867D02*
X1202487D01*
X1195823Y19532D02*
Y6202D01*
X1138358Y12867D02*
X1151687D01*
X1038390D02*
X1051719D01*
X1089190D02*
X1102519D01*
X1095854Y19532D02*
Y6202D01*
X97964Y245277D02*
X104629D01*
X101296D01*
Y235280D01*
X107961Y245277D02*
Y235280D01*
X112959D01*
X114625Y236946D01*
Y238612D01*
X112959Y240279D01*
X107961D01*
X112959D01*
X114625Y241945D01*
Y243611D01*
X112959Y245277D01*
X107961D01*
X97964Y270677D02*
X104629D01*
X101296D01*
Y260680D01*
X107961Y269011D02*
X109627Y270677D01*
X112959D01*
X114625Y269011D01*
Y267345D01*
X112959Y265679D01*
X111293D01*
X112959D01*
X114625Y264013D01*
Y262346D01*
X112959Y260680D01*
X109627D01*
X107961Y262346D01*
X97964Y346877D02*
X104629D01*
X101296D01*
Y336880D01*
X107961Y345211D02*
X109627Y346877D01*
X112959D01*
X114625Y345211D01*
Y338546D01*
X112959Y336880D01*
X109627D01*
X107961Y338546D01*
Y345211D01*
X97964Y321477D02*
X104629D01*
X101296D01*
Y311480D01*
X107961D02*
X111293D01*
X109627D01*
Y321477D01*
X107961Y319811D01*
X97964Y296077D02*
X104629D01*
X101296D01*
Y286080D01*
X114625D02*
X107961D01*
X114625Y292745D01*
Y294411D01*
X112959Y296077D01*
X109627D01*
X107961Y294411D01*
D48*
X298600Y425670D02*
G03*
X298600Y425670I-3000J0D01*
G01*
X255982Y118736D02*
G03*
X255982Y118736I-3000J0D01*
G01*
D69*
X1067447Y305614D02*
G03*
X1067447Y364607I-9499J29496D01*
G01*
X1048449D02*
G03*
X1048449Y305614I9499J-29496D01*
G01*
X1223911Y219238D02*
G03*
X1223911Y278230I-9499J29496D01*
G01*
X1204913D02*
G03*
X1204913Y219238I9499J-29496D01*
G01*
X564237Y618466D02*
G03*
X564237Y559474I9499J-29496D01*
G01*
X583234D02*
G03*
X583234Y618466I-9499J29496D01*
G01*
X736153Y559492D02*
G03*
X736153Y618484I-9499J29496D01*
G01*
X717155D02*
G03*
X717155Y559492I9499J-29496D01*
G01*
X870063Y618230D02*
G03*
X870063Y559238I9499J-29496D01*
G01*
X889061D02*
G03*
X889061Y618230I-9499J29496D01*
G01*
X1039175Y558476D02*
G03*
X1039175Y617468I-9499J29496D01*
G01*
X1020177D02*
G03*
X1020177Y558476I9499J-29496D01*
G01*
X1172577Y617214D02*
G03*
X1172577Y558222I9499J-29496D01*
G01*
X1191575D02*
G03*
X1191575Y617214I-9499J29496D01*
G01*
X1343721Y558730D02*
G03*
X1343721Y617722I-9499J29496D01*
G01*
X1324723D02*
G03*
X1324723Y558730I9499J-29496D01*
G01*
X969911Y164390D02*
G03*
X969911Y223382I-9499J29496D01*
G01*
X950913D02*
G03*
X950913Y164390I9499J-29496D01*
G01*
X842694Y338401D02*
G03*
X901686Y338401I29496J9499D01*
G01*
Y357399D02*
G03*
X842694Y357399I-29496J-9499D01*
G01*
X1090460Y319616D02*
Y367622D01*
X1073696Y302852D02*
X1090460Y319616D01*
X1025690D02*
X1042454Y302852D01*
X1025690Y319616D02*
Y367622D01*
X1067600D02*
X1090460D01*
Y319616D02*
Y367622D01*
X1073696Y302852D02*
X1090460Y319616D01*
X1067600Y302852D02*
X1073696D01*
X1042454D02*
X1048550D01*
X1025690Y319616D02*
X1042454Y302852D01*
X1025690Y319616D02*
Y367622D01*
X1048550D01*
X1223810Y216222D02*
X1246670D01*
Y264228D01*
X1229906Y280992D02*
X1246670Y264228D01*
X1223810Y280992D02*
X1229906D01*
X1198664D02*
X1204760D01*
X1181900Y264228D02*
X1198664Y280992D01*
X1181900Y216222D02*
Y264228D01*
Y216222D02*
X1204760D01*
X1246670D02*
Y264228D01*
X1229906Y280992D02*
X1246670Y264228D01*
X1181900D02*
X1198664Y280992D01*
X1181900Y216222D02*
Y264228D01*
X541224Y556458D02*
Y604464D01*
X557988Y621228D01*
X589230D02*
X605994Y604464D01*
Y556458D02*
Y604464D01*
X541224Y556458D02*
X564084D01*
X541224D02*
Y604464D01*
X557988Y621228D01*
X564084D01*
X583134D02*
X589230D01*
X605994Y604464D01*
Y556458D02*
Y604464D01*
X583134Y556458D02*
X605994D01*
X736052Y556476D02*
X758912D01*
Y604482D01*
X742148Y621246D02*
X758912Y604482D01*
X736052Y621246D02*
X742148D01*
X710906D02*
X717002D01*
X694142Y604482D02*
X710906Y621246D01*
X694142Y556476D02*
Y604482D01*
Y556476D02*
X717002D01*
X758912D02*
Y604482D01*
X742148Y621246D02*
X758912Y604482D01*
X694142D02*
X710906Y621246D01*
X694142Y556476D02*
Y604482D01*
X847050Y556222D02*
Y604228D01*
X863814Y620992D01*
X895056D02*
X911820Y604228D01*
Y556222D02*
Y604228D01*
X847050Y556222D02*
X869910D01*
X847050D02*
Y604228D01*
X863814Y620992D01*
X869910D01*
X888960D02*
X895056D01*
X911820Y604228D01*
Y556222D02*
Y604228D01*
X888960Y556222D02*
X911820D01*
X1039074Y555460D02*
X1061934D01*
Y603466D01*
X1045170Y620230D02*
X1061934Y603466D01*
X1039074Y620230D02*
X1045170D01*
X1013928D02*
X1020024D01*
X997164Y603466D02*
X1013928Y620230D01*
X997164Y555460D02*
Y603466D01*
Y555460D02*
X1020024D01*
X1061934D02*
Y603466D01*
X1045170Y620230D02*
X1061934Y603466D01*
X997164D02*
X1013928Y620230D01*
X997164Y555460D02*
Y603466D01*
X1149564Y555206D02*
Y603212D01*
X1166328Y619976D01*
X1197570D02*
X1214334Y603212D01*
Y555206D02*
Y603212D01*
X1149564Y555206D02*
X1172424D01*
X1149564D02*
Y603212D01*
X1166328Y619976D01*
X1172424D01*
X1191474D02*
X1197570D01*
X1214334Y603212D01*
Y555206D02*
Y603212D01*
X1191474Y555206D02*
X1214334D01*
X1343620Y555714D02*
X1366480D01*
Y603720D01*
X1349716Y620484D02*
X1366480Y603720D01*
X1343620Y620484D02*
X1349716D01*
X1318474D02*
X1324570D01*
X1301710Y603720D02*
X1318474Y620484D01*
X1301710Y555714D02*
Y603720D01*
Y555714D02*
X1324570D01*
X1366480D02*
Y603720D01*
X1349716Y620484D02*
X1366480Y603720D01*
X1301710D02*
X1318474Y620484D01*
X1301710Y555714D02*
Y603720D01*
X992924Y178392D02*
Y226398D01*
X976160Y161628D02*
X992924Y178392D01*
X928154D02*
X944918Y161628D01*
X928154Y178392D02*
Y226398D01*
X970064D02*
X992924D01*
Y178392D02*
Y226398D01*
X976160Y161628D02*
X992924Y178392D01*
X970064Y161628D02*
X976160D01*
X944918D02*
X951014D01*
X928154Y178392D02*
X944918Y161628D01*
X928154Y178392D02*
Y226398D01*
X951014D01*
X839678Y315642D02*
Y338502D01*
Y315642D02*
X887684D01*
X904448Y332406D01*
Y338502D01*
Y357552D02*
Y363648D01*
X887684Y380412D02*
X904448Y363648D01*
X839678Y380412D02*
X887684D01*
X839678Y357552D02*
Y380412D01*
Y315642D02*
X887684D01*
X904448Y332406D01*
X887684Y380412D02*
X904448Y363648D01*
X839678Y380412D02*
X887684D01*
D70*
X431541Y373710D02*
G03*
X427477Y373710I-2032J4064D01*
G01*
X638502Y432532D02*
Y633192D01*
X783282Y432532D02*
Y633192D01*
X761438D02*
X783282D01*
X638502Y432532D02*
X783282D01*
X638502Y633192D02*
X660092D01*
X943218Y633192D02*
X964808D01*
X943218Y432532D02*
X1087998D01*
X1066154Y633192D02*
X1087998D01*
Y432532D02*
Y633192D01*
X943218Y432532D02*
Y633192D01*
X1095618Y432532D02*
Y633192D01*
X1240398Y432532D02*
Y633192D01*
X1218554D02*
X1240398D01*
X1095618Y432532D02*
X1240398D01*
X1095618Y633192D02*
X1117208D01*
X486102Y633192D02*
X507692D01*
X486102Y432532D02*
X630882D01*
X609038Y633192D02*
X630882D01*
Y432532D02*
Y633192D01*
X486102Y432532D02*
Y633192D01*
X790902Y432532D02*
Y633192D01*
X935682Y432532D02*
Y633192D01*
X913838D02*
X935682D01*
X790902Y432532D02*
X935682D01*
X790902Y633192D02*
X812492D01*
X1248018Y633192D02*
X1269608D01*
X1248018Y432532D02*
X1392798D01*
X1370954Y633192D02*
X1392798D01*
Y432532D02*
Y633192D01*
X1248018Y432532D02*
Y633192D01*
X424937Y367868D02*
X427477Y373710D01*
X423667Y368630D02*
X424937Y367868D01*
X420619Y366598D02*
X423667Y368630D01*
X418333Y368884D02*
X420619Y366598D01*
X418333Y368884D02*
X420365Y372186D01*
X419095Y375488D02*
X420365Y372186D01*
X415285Y376250D02*
X419095Y375488D01*
X415285Y376250D02*
Y379552D01*
X419095Y380060D01*
X420619Y383362D01*
X418333Y386664D02*
X420619Y383362D01*
X418333Y386664D02*
X420619Y388950D01*
X423921Y386664D01*
X426969Y387934D01*
X427731Y391998D01*
X431033D01*
X431795Y387934D01*
X434843Y386664D01*
X438399Y388950D01*
X440685Y386664D01*
X438399Y383362D02*
X440685Y386664D01*
X438399Y383362D02*
X439669Y380314D01*
X443479Y379552D01*
Y376250D02*
Y379552D01*
X439923Y375488D02*
X443479Y376250D01*
X438399Y372186D02*
X439923Y375488D01*
X438399Y372186D02*
X440685Y368884D01*
X438399Y366598D02*
X440685Y368884D01*
X435351Y368630D02*
X438399Y366598D01*
X433827Y367868D02*
X435351Y368630D01*
X431541Y373710D02*
X433827Y367868D01*
D71*
X319850Y411170D02*
G03*
X319850Y411170I-1250J0D01*
G01*
X237482Y96736D02*
G03*
X237482Y96736I-1250J0D01*
G01*
X1156902Y362936D02*
G03*
X1156902Y362936I-1250J0D01*
G01*
X97268Y151712D02*
G03*
X97268Y151712I-1250J0D01*
G01*
X971110Y151912D02*
G03*
X971110Y151912I-1250J0D01*
G01*
X860002Y260012D02*
G03*
X860002Y260012I-1250J0D01*
G01*
D72*
X1037698Y295990D02*
X1048198D01*
X1042948Y290991D02*
Y300991D01*
X1229412Y282854D02*
Y292854D01*
X1224162Y287854D02*
X1234662D01*
X583485Y628090D02*
X593986D01*
X588736Y623090D02*
Y633090D01*
X741654Y623108D02*
Y633108D01*
X736403Y628108D02*
X746904D01*
X889311Y627854D02*
X899812D01*
X894561Y622854D02*
Y632854D01*
X1044676Y622092D02*
Y632092D01*
X1039425Y627092D02*
X1049926D01*
X1191825Y626838D02*
X1202326D01*
X1197076Y621838D02*
Y631838D01*
X1349221Y622346D02*
Y632346D01*
X1343971Y627346D02*
X1354472D01*
X940162Y154766D02*
X950663D01*
X945412Y149767D02*
Y159767D01*
X906310Y332900D02*
X916310D01*
X911310Y327650D02*
Y338150D01*
X90764Y216080D02*
Y229080D01*
X59764Y216080D02*
Y229080D01*
Y216080D02*
X90764D01*
X59764Y229080D02*
X90764D01*
Y246560D02*
Y259560D01*
X59764Y246560D02*
Y259560D01*
Y246560D02*
X90764D01*
X59764Y259560D02*
X90764D01*
Y277040D02*
Y290040D01*
X59764Y277040D02*
Y290040D01*
Y277040D02*
X90764D01*
X59764Y290040D02*
X90764D01*
Y307520D02*
Y320520D01*
X59764Y307520D02*
Y320520D01*
Y307520D02*
X90764D01*
X59764Y320520D02*
X90764D01*
Y338000D02*
Y351000D01*
X59764Y338000D02*
Y351000D01*
Y338000D02*
X90764D01*
X59764Y351000D02*
X90764D01*
X203990Y644018D02*
X234990D01*
X203990Y631018D02*
X234990D01*
X203990D02*
Y644018D01*
X234990Y631018D02*
Y644018D01*
X867958Y268658D02*
X898958D01*
X867958Y281658D02*
X898958D01*
Y268658D02*
Y281658D01*
X867958Y268658D02*
Y281658D01*
X867456Y283540D02*
Y295732D01*
Y283540D02*
X868110Y282886D01*
X879458D01*
X868110Y296386D02*
X879458D01*
X867456Y295732D02*
X868110Y296386D01*
X898806D02*
X899460Y295732D01*
X887458Y296386D02*
X898806D01*
X887208Y282886D02*
X898806D01*
X899460Y283540D01*
Y295732D01*
X770928Y260426D02*
X783120D01*
X770274Y261080D02*
X770928Y260426D01*
X770274Y261080D02*
Y272678D01*
X783774Y261080D02*
Y272428D01*
X783120Y260426D02*
X783774Y261080D01*
X783120Y292430D02*
X783774Y291776D01*
Y280428D02*
Y291776D01*
X770274Y280428D02*
Y291776D01*
X770928Y292430D01*
X783120D01*
X785914D02*
X798106D01*
X798760Y291776D01*
Y280178D02*
Y291776D01*
X785260Y280428D02*
Y291776D01*
X785914Y292430D01*
X785260Y261080D02*
X785914Y260426D01*
X785260Y261080D02*
Y272428D01*
X798760Y261080D02*
Y272428D01*
X798106Y260426D02*
X798760Y261080D01*
X785914Y260426D02*
X798106D01*
X756196D02*
X768388D01*
X755542Y261080D02*
X756196Y260426D01*
X755542Y261080D02*
Y272678D01*
X769042Y261080D02*
Y272428D01*
X768388Y260426D02*
X769042Y261080D01*
X768388Y292430D02*
X769042Y291776D01*
Y280428D02*
Y291776D01*
X755542Y280428D02*
Y291776D01*
X756196Y292430D01*
X768388D01*
X707427D02*
X719619D01*
X720273Y291776D01*
Y280178D02*
Y291776D01*
X706773Y280428D02*
Y291776D01*
X707427Y292430D01*
X706773Y261080D02*
X707427Y260426D01*
X706773Y261080D02*
Y272428D01*
X720273Y261080D02*
Y272428D01*
X719619Y260426D02*
X720273Y261080D01*
X707427Y260426D02*
X719619D01*
X690918D02*
X703110D01*
X690263Y261080D02*
X690918Y260426D01*
X690263Y261080D02*
Y272678D01*
X703763Y261080D02*
Y272428D01*
X703110Y260426D02*
X703763Y261080D01*
X703110Y292430D02*
X703763Y291776D01*
Y280428D02*
Y291776D01*
X690263Y280428D02*
Y291776D01*
X690918Y292430D01*
X703110D01*
X674408Y260426D02*
X686600D01*
X673754Y261080D02*
X674408Y260426D01*
X673754Y261080D02*
Y272678D01*
X687254Y261080D02*
Y272428D01*
X686600Y260426D02*
X687254Y261080D01*
X686600Y292430D02*
X687254Y291776D01*
Y280428D02*
Y291776D01*
X673754Y280428D02*
Y291776D01*
X674408Y292430D01*
X686600D01*
X617762D02*
X629954D01*
X630608Y291776D01*
Y280178D02*
Y291776D01*
X617108Y280428D02*
Y291776D01*
X617762Y292430D01*
X617108Y261080D02*
X617762Y260426D01*
X617108Y261080D02*
Y272428D01*
X630608Y261080D02*
Y272428D01*
X629954Y260426D02*
X630608Y261080D01*
X617762Y260426D02*
X629954D01*
X601253D02*
X613445D01*
X600599Y261080D02*
X601253Y260426D01*
X600599Y261080D02*
Y272678D01*
X614099Y261080D02*
Y272428D01*
X613445Y260426D02*
X614099Y261080D01*
X613445Y292430D02*
X614099Y291776D01*
Y280428D02*
Y291776D01*
X600599Y280428D02*
Y291776D01*
X601253Y292430D01*
X613445D01*
X584743Y260426D02*
X596936D01*
X584090Y261080D02*
X584743Y260426D01*
X584090Y261080D02*
Y272678D01*
X597589Y261080D02*
Y272428D01*
X596936Y260426D02*
X597589Y261080D01*
X596936Y292430D02*
X597589Y291776D01*
Y280428D02*
Y291776D01*
X584090Y280428D02*
Y291776D01*
X584743Y292430D01*
X596936D01*
X534194D02*
X546386D01*
X547040Y291776D01*
Y280178D02*
Y291776D01*
X533540Y280428D02*
Y291776D01*
X534194Y292430D01*
X533540Y261080D02*
X534194Y260426D01*
X533540Y261080D02*
Y272428D01*
X547040Y261080D02*
Y272428D01*
X546386Y260426D02*
X547040Y261080D01*
X534194Y260426D02*
X546386D01*
X517684D02*
X529876D01*
X517031Y261080D02*
X517684Y260426D01*
X517031Y261080D02*
Y272679D01*
X530530Y261080D02*
Y272428D01*
X529876Y260426D02*
X530530Y261080D01*
X529876Y292430D02*
X530530Y291776D01*
Y280428D02*
Y291776D01*
X517031Y280428D02*
Y291776D01*
X517684Y292430D01*
X529876D01*
X501175Y260426D02*
X513367D01*
X500521Y261080D02*
X501175Y260426D01*
X500521Y261080D02*
Y272678D01*
X514021Y261080D02*
Y272428D01*
X513367Y260426D02*
X514021Y261080D01*
X513367Y292430D02*
X514021Y291776D01*
Y280428D02*
Y291776D01*
X500521Y280428D02*
Y291776D01*
X501175Y292430D01*
X513367D01*
X454435Y292430D02*
X466627D01*
X467281Y291776D01*
Y280179D02*
Y291776D01*
X453781Y280428D02*
Y291776D01*
X454435Y292430D01*
X453781Y261080D02*
X454435Y260426D01*
X453781Y261080D02*
Y272428D01*
X467281Y261080D02*
Y272428D01*
X466627Y260426D02*
X467281Y261080D01*
X454435Y260426D02*
X466627D01*
X437926Y260426D02*
X450118D01*
X437272Y261080D02*
X437926Y260426D01*
X437272Y261080D02*
Y272679D01*
X450772Y261080D02*
Y272428D01*
X450118Y260426D02*
X450772Y261080D01*
X450118Y292430D02*
X450772Y291776D01*
Y280428D02*
Y291776D01*
X437272Y280428D02*
Y291776D01*
X437926Y292430D01*
X450118D01*
X421416Y260426D02*
X433608D01*
X420762Y261080D02*
X421416Y260426D01*
X420762Y261080D02*
Y272679D01*
X434262Y261080D02*
Y272428D01*
X433608Y260426D02*
X434262Y261080D01*
X433608Y292430D02*
X434262Y291776D01*
Y280428D02*
Y291776D01*
X420762Y280428D02*
Y291776D01*
X421416Y292430D01*
X433608D01*
X848906Y297764D02*
X861098D01*
X848252Y297110D02*
X848906Y297764D01*
X848252Y285762D02*
Y297110D01*
X861752Y285762D02*
Y297110D01*
X861098Y297764D02*
X861752Y297110D01*
X861098Y265760D02*
X861752Y266414D01*
Y277762D01*
X848252Y266414D02*
Y278012D01*
Y266414D02*
X848906Y265760D01*
X861098D01*
X1095390Y291408D02*
Y322408D01*
X1108390Y291408D02*
Y322408D01*
X1095390Y291408D02*
X1108390D01*
X1095390Y322408D02*
X1108390D01*
X312706Y389816D02*
X343706D01*
X312706Y402816D02*
X343706D01*
Y389816D02*
Y402816D01*
X312706Y389816D02*
Y402816D01*
X140350Y464890D02*
Y495890D01*
X153350Y464890D02*
Y495890D01*
X140350Y464890D02*
X153350D01*
X140350Y495890D02*
X153350D01*
X330994Y453824D02*
X361994D01*
X330994Y466824D02*
X361994D01*
Y453824D02*
Y466824D01*
X330994Y453824D02*
Y466824D01*
X201200Y368480D02*
X232200D01*
X201200Y381480D02*
X232200D01*
Y368480D02*
Y381480D01*
X201200Y368480D02*
Y381480D01*
X337754Y594685D02*
Y625684D01*
X324754Y594685D02*
Y625684D01*
X337754D01*
X324754Y594685D02*
X337754D01*
X179250Y94284D02*
X210250D01*
X179250Y81285D02*
X210250D01*
X179250D02*
Y94284D01*
X210250Y81285D02*
Y94284D01*
X179376Y163583D02*
X210376D01*
X179376Y176582D02*
X210376D01*
Y163583D02*
Y176582D01*
X179376Y163583D02*
Y176582D01*
X269060Y81760D02*
X300060D01*
X269060Y68760D02*
X300060D01*
X269060D02*
Y81760D01*
X300060Y68760D02*
Y81760D01*
X199056Y66662D02*
X230056D01*
X199056Y53663D02*
X230056D01*
X199056D02*
Y66662D01*
X230056Y53663D02*
Y66662D01*
X269056Y53663D02*
X300056D01*
X269056Y66662D02*
X300056D01*
Y53663D02*
Y66662D01*
X269056Y53663D02*
Y66662D01*
X340498Y168956D02*
X371498D01*
X340498Y181957D02*
X371498D01*
Y168956D02*
Y181957D01*
X340498Y168956D02*
Y181957D01*
X1158382Y324936D02*
Y355936D01*
X1171382Y324936D02*
Y355936D01*
X1158382Y324936D02*
X1171382D01*
X1158382Y355936D02*
X1171382D01*
X271490Y631018D02*
X302490D01*
X271490Y644018D02*
X302490D01*
Y631018D02*
Y644018D01*
X271490Y631018D02*
Y644018D01*
X269282Y631724D02*
Y643916D01*
X268628Y631070D02*
X269282Y631724D01*
X257030Y631070D02*
X268628D01*
X257280Y644570D02*
X268628D01*
X269282Y643916D01*
X237278D02*
X237932Y644570D01*
X249280D01*
X237932Y631070D02*
X249280D01*
X237278Y631724D02*
X237932Y631070D01*
X237278Y631724D02*
Y643916D01*
X190538Y232994D02*
Y245186D01*
X191192Y245840D01*
X202790D01*
X191192Y232340D02*
X202540D01*
X190538Y232994D02*
X191192Y232340D01*
X221888D02*
X222542Y232994D01*
X210540Y232340D02*
X221888D01*
X210540Y245840D02*
X221888D01*
X222542Y245186D01*
Y232994D02*
Y245186D01*
X30264Y14808D02*
X42456D01*
X29610Y15462D02*
X30264Y14808D01*
X29610Y15462D02*
Y27060D01*
X43110Y15462D02*
Y26810D01*
X42456Y14808D02*
X43110Y15462D01*
X42456Y46812D02*
X43110Y46158D01*
Y34810D02*
Y46158D01*
X29610Y34810D02*
Y46158D01*
X30264Y46812D01*
X42456D01*
X1181138Y324434D02*
X1193330D01*
X1180484Y325088D02*
X1181138Y324434D01*
X1180484Y325088D02*
Y336686D01*
X1193984Y325088D02*
Y336436D01*
X1193330Y324434D02*
X1193984Y325088D01*
X1193330Y356438D02*
X1193984Y355784D01*
Y344436D02*
Y355784D01*
X1180484Y344436D02*
Y355784D01*
X1181138Y356438D01*
X1193330D01*
X1096302Y358470D02*
X1108494D01*
X1109148Y357816D01*
Y346218D02*
Y357816D01*
X1095648Y346468D02*
Y357816D01*
X1096302Y358470D01*
X1095648Y327120D02*
X1096302Y326466D01*
X1095648Y327120D02*
Y338468D01*
X1109148Y327120D02*
Y338468D01*
X1108494Y326466D02*
X1109148Y327120D01*
X1096302Y326466D02*
X1108494D01*
X178980Y117140D02*
Y129332D01*
X179634Y129986D01*
X191232D01*
X179634Y116486D02*
X190982D01*
X178980Y117140D02*
X179634Y116486D01*
X210330D02*
X210984Y117140D01*
X198982Y116486D02*
X210330D01*
X198982Y129986D02*
X210330D01*
X210984Y129332D01*
Y117140D02*
Y129332D01*
X178980Y133370D02*
Y145562D01*
X179634Y146217D01*
X191232D01*
X179634Y132717D02*
X190982D01*
X178980Y133370D02*
X179634Y132717D01*
X210330D02*
X210984Y133370D01*
X198982Y132717D02*
X210330D01*
X198982Y146217D02*
X210330D01*
X210984Y145562D01*
Y133370D02*
Y145562D01*
X325222Y561288D02*
X337414D01*
X324568Y561942D02*
X325222Y561288D01*
X324568Y561942D02*
Y573540D01*
X338068Y561942D02*
Y573290D01*
X337414Y561288D02*
X338068Y561942D01*
X337414Y593292D02*
X338068Y592638D01*
Y581290D02*
Y592638D01*
X324568Y581290D02*
Y592638D01*
X325222Y593292D01*
X337414D01*
X198920Y223850D02*
X211112D01*
X211766Y223196D01*
Y211598D02*
Y223196D01*
X198266Y211848D02*
Y223196D01*
X198920Y223850D01*
X198266Y192500D02*
X198920Y191846D01*
X198266Y192500D02*
Y203848D01*
X211766Y192500D02*
Y203848D01*
X211112Y191846D02*
X211766Y192500D01*
X198920Y191846D02*
X211112D01*
X309329Y650824D02*
Y663016D01*
X308674Y650170D02*
X309329Y650824D01*
X297077Y650170D02*
X308674D01*
X297327Y663670D02*
X308674D01*
X309329Y663016D01*
X277325D02*
X277978Y663670D01*
X289327D01*
X277978Y650170D02*
X289327D01*
X277325Y650824D02*
X277978Y650170D01*
X277325Y650824D02*
Y663016D01*
X371894Y152477D02*
Y164669D01*
X371240Y151822D02*
X371894Y152477D01*
X359642Y151822D02*
X371240D01*
X359892Y165322D02*
X371240D01*
X371894Y164669D01*
X339890D02*
X340544Y165322D01*
X351892D01*
X340544Y151822D02*
X351892D01*
X339890Y152477D02*
X340544Y151822D01*
X339890Y152477D02*
Y164669D01*
X371838Y79212D02*
Y91404D01*
X371184Y78559D02*
X371838Y79212D01*
X359586Y78559D02*
X371184D01*
X359836Y92058D02*
X371184D01*
X371838Y91404D01*
X339834D02*
X340488Y92058D01*
X351836D01*
X340488Y78559D02*
X351836D01*
X339834Y79212D02*
X340488Y78559D01*
X339834Y79212D02*
Y91404D01*
X371838Y94213D02*
Y106405D01*
X371184Y93558D02*
X371838Y94213D01*
X359586Y93558D02*
X371184D01*
X359836Y107058D02*
X371184D01*
X371838Y106405D01*
X339834D02*
X340488Y107058D01*
X351836D01*
X340488Y93558D02*
X351836D01*
X339834Y94213D02*
X340488Y93558D01*
X339834Y94213D02*
Y106405D01*
X371838Y49212D02*
Y61405D01*
X371184Y48559D02*
X371838Y49212D01*
X359586Y48559D02*
X371184D01*
X359836Y62058D02*
X371184D01*
X371838Y61405D01*
X339834D02*
X340488Y62058D01*
X351836D01*
X340488Y48559D02*
X351836D01*
X339834Y49212D02*
X340488Y48559D01*
X339834Y49212D02*
Y61405D01*
X371838Y64212D02*
Y76404D01*
X371184Y63558D02*
X371838Y64212D01*
X359586Y63558D02*
X371184D01*
X359836Y77059D02*
X371184D01*
X371838Y76404D01*
X339834D02*
X340488Y77059D01*
X351836D01*
X340488Y63558D02*
X351836D01*
X339834Y64212D02*
X340488Y63558D01*
X339834Y64212D02*
Y76404D01*
X593558Y460980D02*
Y473172D01*
X592904Y460326D02*
X593558Y460980D01*
X581306Y460326D02*
X592904D01*
X581556Y473826D02*
X592904D01*
X593558Y473172D01*
X561554D02*
X562208Y473826D01*
X573556D01*
X562208Y460326D02*
X573556D01*
X561554Y460980D02*
X562208Y460326D01*
X561554Y460980D02*
Y473172D01*
X566634Y487142D02*
X578826D01*
X565980Y487796D02*
X566634Y487142D01*
X565980Y487796D02*
Y499394D01*
X579480Y487796D02*
Y499144D01*
X578826Y487142D02*
X579480Y487796D01*
X578826Y519146D02*
X579480Y518492D01*
Y507144D02*
Y518492D01*
X565980Y507144D02*
Y518492D01*
X566634Y519146D01*
X578826D01*
X746212Y460980D02*
Y473172D01*
X745558Y460326D02*
X746212Y460980D01*
X733960Y460326D02*
X745558D01*
X734210Y473826D02*
X745558D01*
X746212Y473172D01*
X714208D02*
X714862Y473826D01*
X726210D01*
X714862Y460326D02*
X726210D01*
X714208Y460980D02*
X714862Y460326D01*
X714208Y460980D02*
Y473172D01*
X720050Y486380D02*
X732242D01*
X719396Y487034D02*
X720050Y486380D01*
X719396Y487034D02*
Y498632D01*
X732896Y487034D02*
Y498382D01*
X732242Y486380D02*
X732896Y487034D01*
X732242Y518384D02*
X732896Y517730D01*
Y506382D02*
Y517730D01*
X719396Y506382D02*
Y517730D01*
X720050Y518384D01*
X732242D01*
X896580Y459964D02*
Y472156D01*
X895926Y459310D02*
X896580Y459964D01*
X884328Y459310D02*
X895926D01*
X884578Y472810D02*
X895926D01*
X896580Y472156D01*
X864576D02*
X865230Y472810D01*
X876578D01*
X865230Y459310D02*
X876578D01*
X864576Y459964D02*
X865230Y459310D01*
X864576Y459964D02*
Y472156D01*
X871688Y486380D02*
X883880D01*
X871034Y487034D02*
X871688Y486380D01*
X871034Y487034D02*
Y498632D01*
X884534Y487034D02*
Y498382D01*
X883880Y486380D02*
X884534Y487034D01*
X883880Y518384D02*
X884534Y517730D01*
Y506382D02*
Y517730D01*
X871034Y506382D02*
Y517730D01*
X871688Y518384D01*
X883880D01*
X1048726Y459710D02*
Y471902D01*
X1048072Y459056D02*
X1048726Y459710D01*
X1036474Y459056D02*
X1048072D01*
X1036724Y472556D02*
X1048072D01*
X1048726Y471902D01*
X1016722D02*
X1017376Y472556D01*
X1028724D01*
X1017376Y459056D02*
X1028724D01*
X1016722Y459710D02*
X1017376Y459056D01*
X1016722Y459710D02*
Y471902D01*
X1023834Y486380D02*
X1036026D01*
X1023180Y487034D02*
X1023834Y486380D01*
X1023180Y487034D02*
Y498632D01*
X1036680Y487034D02*
Y498382D01*
X1036026Y486380D02*
X1036680Y487034D01*
X1036026Y518384D02*
X1036680Y517730D01*
Y506382D02*
Y517730D01*
X1023180Y506382D02*
Y517730D01*
X1023834Y518384D01*
X1036026D01*
X1200618Y460218D02*
Y472410D01*
X1199964Y459564D02*
X1200618Y460218D01*
X1188366Y459564D02*
X1199964D01*
X1188616Y473064D02*
X1199964D01*
X1200618Y472410D01*
X1168614D02*
X1169268Y473064D01*
X1180616D01*
X1169268Y459564D02*
X1180616D01*
X1168614Y460218D02*
X1169268Y459564D01*
X1168614Y460218D02*
Y472410D01*
X1176110Y486622D02*
X1188302D01*
X1175456Y487276D02*
X1176110Y486622D01*
X1175456Y487276D02*
Y498874D01*
X1188956Y487276D02*
Y498624D01*
X1188302Y486622D02*
X1188956Y487276D01*
X1188302Y518626D02*
X1188956Y517972D01*
Y506624D02*
Y517972D01*
X1175456Y506624D02*
Y517972D01*
X1176110Y518626D01*
X1188302D01*
X1247940Y346419D02*
X1260132D01*
X1247286Y347074D02*
X1247940Y346419D01*
X1247286Y347074D02*
Y358672D01*
X1260786Y347074D02*
Y358421D01*
X1260132Y346419D02*
X1260786Y347074D01*
X1260132Y378423D02*
X1260786Y377770D01*
Y366421D02*
Y377770D01*
X1247286Y366421D02*
Y377770D01*
X1247940Y378423D01*
X1260132D01*
X1281468Y378536D02*
X1293660D01*
X1294314Y377882D01*
Y366284D02*
Y377882D01*
X1280814Y366534D02*
Y377882D01*
X1281468Y378536D01*
X1280814Y347187D02*
X1281468Y346532D01*
X1280814Y347187D02*
Y358534D01*
X1294314Y347187D02*
Y358534D01*
X1293660Y346532D02*
X1294314Y347187D01*
X1281468Y346532D02*
X1293660D01*
X91266Y262204D02*
Y274396D01*
X90612Y261550D02*
X91266Y262204D01*
X79014Y261550D02*
X90612D01*
X79264Y275050D02*
X90612D01*
X91266Y274396D01*
X59262D02*
X59916Y275050D01*
X71264D01*
X59916Y261550D02*
X71264D01*
X59262Y262204D02*
X59916Y261550D01*
X59262Y262204D02*
Y274396D01*
X91266Y292684D02*
Y304876D01*
X90612Y292030D02*
X91266Y292684D01*
X79014Y292030D02*
X90612D01*
X79264Y305530D02*
X90612D01*
X91266Y304876D01*
X59262D02*
X59916Y305530D01*
X71264D01*
X59916Y292030D02*
X71264D01*
X59262Y292684D02*
X59916Y292030D01*
X59262Y292684D02*
Y304876D01*
X91266Y323164D02*
Y335356D01*
X90612Y322510D02*
X91266Y323164D01*
X79014Y322510D02*
X90612D01*
X79264Y336010D02*
X90612D01*
X91266Y335356D01*
X59262D02*
X59916Y336010D01*
X71264D01*
X59916Y322510D02*
X71264D01*
X59262Y323164D02*
X59916Y322510D01*
X59262Y323164D02*
Y335356D01*
X178980Y100871D02*
Y113062D01*
X179634Y113716D01*
X191232D01*
X179634Y100216D02*
X190982D01*
X178980Y100871D02*
X179634Y100216D01*
X210330D02*
X210984Y100871D01*
X198982Y100216D02*
X210330D01*
X198982Y113716D02*
X210330D01*
X210984Y113062D01*
Y100871D02*
Y113062D01*
X178874Y148986D02*
Y161178D01*
X179528Y161833D01*
X191126D01*
X179528Y148332D02*
X190876D01*
X178874Y148986D02*
X179528Y148332D01*
X210224D02*
X210878Y148986D01*
X198876Y148332D02*
X210224D01*
X198876Y161833D02*
X210224D01*
X210878Y161178D01*
Y148986D02*
Y161178D01*
X91266Y353644D02*
Y365836D01*
X90612Y352990D02*
X91266Y353644D01*
X79014Y352990D02*
X90612D01*
X79264Y366490D02*
X90612D01*
X91266Y365836D01*
X59262D02*
X59916Y366490D01*
X71264D01*
X59916Y352990D02*
X71264D01*
X59262Y353644D02*
X59916Y352990D01*
X59262Y353644D02*
Y365836D01*
X1265466Y346419D02*
X1277658D01*
X1264812Y347074D02*
X1265466Y346419D01*
X1264812Y347074D02*
Y358672D01*
X1278312Y347074D02*
Y358421D01*
X1277658Y346419D02*
X1278312Y347074D01*
X1277658Y378423D02*
X1278312Y377770D01*
Y366421D02*
Y377770D01*
X1264812Y366421D02*
Y377770D01*
X1265466Y378423D01*
X1277658D01*
X1328370Y485820D02*
X1340562D01*
X1327716Y486474D02*
X1328370Y485820D01*
X1327716Y486474D02*
Y498072D01*
X1341216Y486474D02*
Y497822D01*
X1340562Y485820D02*
X1341216Y486474D01*
X1340562Y517824D02*
X1341216Y517170D01*
Y505822D02*
Y517170D01*
X1327716Y505822D02*
Y517170D01*
X1328370Y517824D01*
X1340562D01*
X1352520Y459754D02*
Y471946D01*
X1351866Y459100D02*
X1352520Y459754D01*
X1340268Y459100D02*
X1351866D01*
X1340518Y472600D02*
X1351866D01*
X1352520Y471946D01*
X1320516D02*
X1321170Y472600D01*
X1332518D01*
X1321170Y459100D02*
X1332518D01*
X1320516Y459754D02*
X1321170Y459100D01*
X1320516Y459754D02*
Y471946D01*
X265976Y54178D02*
Y66370D01*
X265322Y53524D02*
X265976Y54178D01*
X253724Y53524D02*
X265322D01*
X253974Y67024D02*
X265322D01*
X265976Y66370D01*
X233972D02*
X234626Y67024D01*
X245974D01*
X234626Y53524D02*
X245974D01*
X233972Y54178D02*
X234626Y53524D01*
X233972Y54178D02*
Y66370D01*
X256578Y232994D02*
Y245186D01*
X255924Y232340D02*
X256578Y232994D01*
X244326Y232340D02*
X255924D01*
X244576Y245840D02*
X255924D01*
X256578Y245186D01*
X224574D02*
X225228Y245840D01*
X236576D01*
X225228Y232340D02*
X236576D01*
X224574Y232994D02*
X225228Y232340D01*
X224574Y232994D02*
Y245186D01*
X91266Y231724D02*
Y243916D01*
X90612Y231070D02*
X91266Y231724D01*
X79014Y231070D02*
X90612D01*
X79264Y244570D02*
X90612D01*
X91266Y243916D01*
X59262D02*
X59916Y244570D01*
X71264D01*
X59916Y231070D02*
X71264D01*
X59262Y231724D02*
X59916Y231070D01*
X59262Y231724D02*
Y243916D01*
D73*
X761438Y432532D02*
Y633192D01*
X660092Y432786D02*
Y633192D01*
X964808Y432786D02*
Y633192D01*
X1066154Y432532D02*
Y633192D01*
X1218554Y432532D02*
Y633192D01*
X1117208Y432786D02*
Y633192D01*
X507692Y432786D02*
Y633192D01*
X609038Y432532D02*
Y633192D01*
X913838Y432532D02*
Y633192D01*
X812492Y432786D02*
Y633192D01*
X1269608Y432786D02*
Y633192D01*
X1370954Y432532D02*
Y633192D01*
D74*
X1315500Y178540D02*
Y183540D01*
Y201650D02*
Y206540D01*
Y183540D02*
X1325500D01*
X1315500Y201540D02*
X1325500D01*
Y178540D02*
Y183540D01*
X1279500Y178540D02*
Y183540D01*
X1325500Y201540D02*
Y206540D01*
X1279500Y201540D02*
Y206540D01*
Y178540D02*
X1325500D01*
X1279500Y206540D02*
X1325500D01*
X628000Y116000D02*
Y121000D01*
Y139110D02*
Y144000D01*
Y121000D02*
X638000D01*
X628000Y139000D02*
X638000D01*
Y116000D02*
Y121000D01*
X592000Y116000D02*
Y121000D01*
X638000Y139000D02*
Y144000D01*
X592000Y139000D02*
Y144000D01*
Y116000D02*
X638000D01*
X592000Y144000D02*
X638000D01*
X468000Y116000D02*
Y121000D01*
Y139110D02*
Y144000D01*
Y121000D02*
X478000D01*
X468000Y139000D02*
X478000D01*
Y116000D02*
Y121000D01*
X432000Y116000D02*
Y121000D01*
X478000Y139000D02*
Y144000D01*
X432000Y139000D02*
Y144000D01*
Y116000D02*
X478000D01*
X432000Y144000D02*
X478000D01*
X803000Y101000D02*
Y106000D01*
Y124110D02*
Y129000D01*
Y106000D02*
X813000D01*
X803000Y124000D02*
X813000D01*
Y101000D02*
Y106000D01*
X767000Y101000D02*
Y106000D01*
X813000Y124000D02*
Y129000D01*
X767000Y124000D02*
Y129000D01*
Y101000D02*
X813000D01*
X767000Y129000D02*
X813000D01*
X550500Y116000D02*
Y121000D01*
Y139110D02*
Y144000D01*
Y121000D02*
X560500D01*
X550500Y139000D02*
X560500D01*
Y116000D02*
Y121000D01*
X514500Y116000D02*
Y121000D01*
X560500Y139000D02*
Y144000D01*
X514500Y139000D02*
Y144000D01*
Y116000D02*
X560500D01*
X514500Y144000D02*
X560500D01*
X715500Y101000D02*
Y106000D01*
Y124110D02*
Y129000D01*
Y106000D02*
X725500D01*
X715500Y124000D02*
X725500D01*
Y101000D02*
Y106000D01*
X679500Y101000D02*
Y106000D01*
X725500Y124000D02*
Y129000D01*
X679500Y124000D02*
Y129000D01*
Y101000D02*
X725500D01*
X679500Y129000D02*
X725500D01*
D75*
X206032Y742439D02*
D03*
X220256D02*
D03*
X402374D02*
D03*
X388150D02*
D03*
D76*
X512864Y406603D02*
D03*
D77*
X246926Y305765D02*
D03*
D78*
X1302569Y3505D02*
D03*
X813407Y4775D02*
D03*
X728317Y4267D02*
D03*
X477365Y4775D02*
D03*
X561185Y4013D02*
D03*
X645005Y4267D02*
D03*
X1202239Y3505D02*
D03*
X1102271D02*
D03*
D79*
X1288218Y1831D02*
D03*
X799056Y3101D02*
D03*
X713966Y2593D02*
D03*
X463014Y3101D02*
D03*
X546834Y2339D02*
D03*
X630654Y2593D02*
D03*
X1187888Y1831D02*
D03*
X1087920D02*
D03*
D80*
X1303772Y22631D02*
D03*
X1203443D02*
D03*
D81*
X1288853Y23851D02*
D03*
X799691Y25121D02*
D03*
X714601Y24613D02*
D03*
X463649Y25121D02*
D03*
X547469Y24359D02*
D03*
X631289Y24613D02*
D03*
X1188523Y23851D02*
D03*
X1088555D02*
D03*
D82*
X1285678Y4775D02*
D03*
X796516Y6045D02*
D03*
X711426Y5537D02*
D03*
X460474Y6045D02*
D03*
X544294Y5283D02*
D03*
X628114Y5537D02*
D03*
X1185348Y4775D02*
D03*
X1085380D02*
D03*
D83*
X1305363D02*
D03*
X816201Y6045D02*
D03*
X731111Y5537D02*
D03*
X480159Y6045D02*
D03*
X563979Y5283D02*
D03*
X647799Y5537D02*
D03*
X1205033Y4775D02*
D03*
X1105065D02*
D03*
D84*
X1304728Y21285D02*
D03*
X815566Y22555D02*
D03*
X730476Y22047D02*
D03*
X479524Y22555D02*
D03*
X563344Y21793D02*
D03*
X647164Y22047D02*
D03*
X1204398Y21285D02*
D03*
X1104430D02*
D03*
D85*
X1286948Y21146D02*
D03*
X797786Y22416D02*
D03*
X712696Y21908D02*
D03*
X461744Y22416D02*
D03*
X545564Y21654D02*
D03*
X629384Y21908D02*
D03*
X1186618Y21146D02*
D03*
X1086650D02*
D03*
D86*
X1296473Y24347D02*
D03*
X807311Y25617D02*
D03*
X722221Y25109D02*
D03*
X471269Y25617D02*
D03*
X555089Y24855D02*
D03*
X638909Y25109D02*
D03*
X1196143Y24347D02*
D03*
X1096175D02*
D03*
D87*
X1296473Y1435D02*
D03*
X807311Y2705D02*
D03*
X722221Y2197D02*
D03*
X471269Y2705D02*
D03*
X555089Y1943D02*
D03*
X638909Y2197D02*
D03*
X1196143Y1435D02*
D03*
X1096175D02*
D03*
D88*
X1313745Y12891D02*
D03*
X1213415D02*
D03*
X1113447D02*
D03*
D89*
X1278058D02*
D03*
X1177728D02*
D03*
X1077760D02*
D03*
D90*
X814610Y23901D02*
D03*
X729520Y23393D02*
D03*
X478568Y23901D02*
D03*
X562388Y23139D02*
D03*
X646208Y23393D02*
D03*
X1103475Y22631D02*
D03*
D91*
X821949Y14161D02*
D03*
X736859Y13653D02*
D03*
D92*
X791690Y14161D02*
D03*
X706600Y13653D02*
D03*
X455648Y14161D02*
D03*
X539468Y13399D02*
D03*
X623288Y13653D02*
D03*
D93*
X486034Y14161D02*
D03*
X569854Y13399D02*
D03*
D94*
X653674Y13653D02*
D03*
D95*
X1320500Y181040D02*
D03*
Y204040D02*
D03*
X633000Y118500D02*
D03*
Y141500D02*
D03*
X473000Y118500D02*
D03*
Y141500D02*
D03*
X808000Y103500D02*
D03*
Y126500D02*
D03*
X555500Y118500D02*
D03*
Y141500D02*
D03*
X720500Y103500D02*
D03*
Y126500D02*
D03*
M02*
