M48
;Layer_Color=9474304
;FILE_FORMAT=4:4
METRIC
;TYPE=PLATED
T1F00S00C0.3500
T2F00S00C0.4000
T3F00S00C0.5000
T5F00S00C0.7620
T6F00S00C0.8500
T7F00S00C0.9000
T8F00S00C1.0000
T9F00S00C1.2000
T10F00S00C1.6500
T11F00S00C3.2000
%
T01
X00271000Y00085000
X00312000Y00078000
X00318482Y00119998
X00298000Y00125000
X00328000Y00140000
X00255000Y00175000
X00245000
X00235000
X00228000Y00226000
X00216000
X00199000Y00259000
Y00271000
X00934000Y00274000
Y00266000
Y00258000
X00984000Y00260000
Y00268000
Y00276000
X01011500Y00224500
Y00214500
Y00204500
X00971000Y00203000
X00961000
X00980000Y00057500
X00990000
X01102000Y00283000
X01110500
X01092500Y00296000
X01161000Y00364000
X01169000
X01122000Y00344000
Y00336000
X01085000Y00338000
Y00348000
Y00358000
Y00368000
Y00328000
X01092500Y00304500
X00967500Y00360000
X00957500
X00947500
X00477000Y00574000
Y00582000
Y00590000
T02
X00205442Y00031000
X00264000Y00045000
X00334000Y00044000
X00236000Y00110000
X00194000Y00109000
X00170000Y00133000
Y00148000
X00131000Y00160000
X00117000Y00142000
X00110000Y00128000
X00105890Y00241630
Y00272110
X00146000Y00283000
X00161770Y00278460
X00169390Y00254330
X00146000Y00252000
X00153204Y00227660
X00251718Y00228419
X00243000Y00205000
X00306826Y00227412
X00347000Y00163000
X00429514Y00157810
X00437000Y00256000
X00457000Y00269000
X00455000Y00288000
X00444999Y00287000
X00434999Y00291000
X00462512Y00294630
X00391000Y00295000
X00500380Y00245948
X00508762
X00517398
X00513165Y00239090
X00521716
X00504613
X00496062
X00580136Y00238582
X00588687
X00597239
X00605790
X00601472Y00245440
X00592836
X00584454
X00666242Y00245186
X00674624
X00683260
X00679027Y00238328
X00687578
X00670475
X00661924
X00381000Y00093000
X00408000Y00042000
X00746506Y00239344
X00755057
X00763609
X00772160
X00767842Y00246202
X00759206
X00750824
X00836930
X00845312
X00853948
X00849715Y00239344
X00858266
X00841163
X00832612
X00918000Y00265500
X01060000Y00241194
Y00227478
Y00213000
X01192000
Y00227478
Y00241194
X01187522Y00177000
X01173806
X01202000
X01258000Y00183000
Y00197478
X01243876Y00370922
X01216190Y00370916
X01213142Y00438226
Y00448132
Y00458292
X01159280Y00451000
X01148626Y00503758
X01282214
X01292120
X01302280
X01312680Y00450996
X01326934Y00337896
X01335316
X01343867
X01339718Y00331038
X01331167
X01322616
X01348270
X01138466Y00503758
X01128560
X00996480Y00503504
X00986320
X00976414
X01006880Y00451000
X01040676Y00438226
X01050582
X01060742
X00898182Y00438480
X00888276
X00854560Y00451000
X00842810Y00504774
X00832650
X00822744
X00756450Y00438480
X00746290
X00965000Y00309000
X00736384Y00438480
X00702160Y00451000
X00692696Y00504012
X00682536
X00672630
X00603796Y00438480
X00593636
X00583730
X00549760Y00451000
X00478000Y00456000
X00481000Y00483000
X00438000Y00484000
X00408000Y00469000
X00413000Y00446000
X00431000Y00432000
X00441999Y00430999
X00453500Y00450000
X00379000Y00438000
X00389000Y00419000
X00384000Y00407000
X00369999Y00410999
X00381999Y00504999
X00392999Y00497999
X00412000Y00519000
X00411000Y00554000
X00357000Y00556000
X00364000Y00608000
X00349000Y00607000
X00352000Y00626000
X00433000Y00650000
X00519468Y00521030
X00529374
X00539534
X00446000Y00369000
X00443999Y00297999
X00427999Y00298541
X00391000Y00306000
X00344000Y00434000
X00337000Y00448000
X00341000Y00468000
X00313000Y00479000
X00293000Y00449000
X00274000Y00434999
X00280999Y00425999
X00289000Y00418000
X00264000Y00427999
X00248000Y00423000
X00269000Y00385000
X00283000Y00382000
X00276000Y00373000
X00329000Y00425000
X00306999Y00524999
X00302999Y00535999
X00313999Y00533999
X00290999Y00526999
X00280000Y00534000
X00274000Y00505000
X00250000Y00520000
X00247000Y00530000
X00232000Y00507000
X00235000Y00497000
X00231000Y00474000
X00246000Y00480000
X00190000Y00462000
X00183000Y00453000
X00174000Y00466000
X00148000Y00359000
X00146000Y00344000
X00147800Y00331800
X00145000Y00313000
X00154150Y00302590
X00105890
Y00333070
Y00363550
X00307000Y00616000
T03
X00473837Y00154254
Y00167208
Y00180162
Y00193116
Y00206070
X00530987
Y00193116
Y00180162
Y00167208
Y00154254
X00516699
X00502412
X00488125
X00557911Y00154508
Y00167462
Y00180416
Y00193370
Y00206324
X00615061
Y00193370
Y00180416
Y00167462
Y00154508
X00600774
X00586486
X00572198
X00641731
Y00167462
Y00180416
Y00193370
Y00206324
X00656019Y00154508
X00670306
X01290866Y00239344
Y00252362
Y00265379
Y00278397
Y00291414
X01301026Y00284810
Y00271856
Y00258902
Y00245948
Y00232994
X01315314
Y00245948
X01329601
Y00232994
X01343889
Y00245948
X01358176
Y00232994
X01367066Y00239344
Y00252362
Y00265379
Y00278397
Y00291414
X01358176Y00284810
Y00271856
Y00258902
Y00297764
X01301026
T05
X01347762Y00181590
X01367066Y00196830
X01387894Y00182352
X01202982Y00345770
X00328550Y00521284
X00243000Y00438000
T06
X00095250Y00116000
Y00166000
T07
X00208000Y00069800
Y00095200
Y00120600
Y00146000
Y00171400
X00220218Y00263728
X00245618
X00271018
X00296418
X00321818
Y00289128
X00296418
X00271018
X00245618
X00220218
X00090720Y00291160
Y00265760
Y00240360
X00065320
Y00265760
Y00291160
X00334264Y00229692
Y00204292
X00359664
Y00229692
X00385064
Y00204292
X00420624
Y00229692
X00408178Y00263728
Y00289128
X00372618
Y00263728
X00347218
Y00289128
X00443484Y00047828
Y00022428
X00711708Y00150444
Y00175844
Y00201244
X00741974Y00144884
X00767374
X00796798Y00150444
Y00175844
Y00201244
X00883158Y00201752
Y00176352
Y00150952
X00853736Y00144880
X00828336
X01232325Y00443962
Y00469362
Y00494762
Y00520162
Y00545562
Y00570962
Y00596362
Y00621762
X01257908
Y00596362
Y00570962
Y00545562
Y00520162
Y00494762
Y00469362
Y00443962
X01384908
Y00469362
Y00494762
Y00520162
Y00545562
Y00570962
Y00596362
Y00621762
X01362478Y00658190
X01337078
X01311678
X01286278
X01210234Y00658444
X01184834
X01159434
X01134034
X01105324Y00621762
Y00596362
Y00570962
Y00545562
Y00520162
Y00494762
Y00469362
Y00443962
X01079741
Y00469362
Y00494762
Y00520162
Y00545562
Y00570962
Y00596362
Y00621762
X01057989Y00658698
X01032589
X01007189
X00981789
X00952741Y00621762
Y00596362
Y00570962
Y00545562
Y00520162
Y00494762
Y00469362
Y00443962
X00927158Y00443962
Y00469362
Y00494762
Y00520162
Y00545562
Y00570962
Y00596362
Y00621762
X00905745Y00658952
X00880345
X00854945
X00829545
X00800158Y00621762
Y00596362
Y00570962
Y00545562
Y00520162
Y00494762
Y00469362
Y00443962
X00774575
Y00469362
Y00494762
Y00520162
Y00545562
Y00570962
Y00596362
Y00621762
X00753500Y00658698
X00728100
X00702700
X00677300
X00647575Y00621762
Y00596362
Y00570962
Y00545562
Y00520162
Y00494762
Y00469362
Y00443962
X00621992
Y00469362
Y00494762
Y00520162
Y00545562
Y00570962
Y00596362
Y00621762
X00601256Y00658698
X00575856
X00550456
X00525056
X00494992Y00621762
Y00596362
Y00570962
Y00545562
Y00520162
Y00494762
Y00469362
Y00443962
X00487464Y00390728
X00512864
X00538264
X00563664
Y00365328
X00538264
X00512864
X00487464
X00462064
Y00390728
X00461106Y00501662
X00435706
Y00527062
X00461106
Y00552462
X00435706
X00265308Y00659040
X00239907
X00116116Y00654380
X00090716
X00065316
Y00628980
X00090716
X00116116
Y00603580
X00090716
X00065316
Y00578180
X00090716
X00116116
Y00552780
X00090716
X00065316
X00065316Y00527380
X00090716
X00116116
X00116120Y00477850
Y00452450
Y00427050
Y00401650
X00090720
X00065320
Y00427050
X00090720
Y00452450
X00065320
Y00477850
X00090720
X00141520
Y00452450
Y00427050
Y00401650
X00090720Y00341960
Y00316560
X00065320
Y00341960
X00163708Y00699040
X00189108
X00214508
X00239908
X00265308
Y00724440
X00239908
X00214508
X00189108
X00163708
X00345826
Y00699040
X00371226
Y00724440
X00396626
Y00699040
X00422026
Y00724440
X00447426
Y00699040
T08
X00484938Y00062052
X00519938
X00568758Y00061290
X00603758
X00652578Y00061544
X00687578
X00735890
X00770890
X00820980Y00062052
X00855980
X00733132Y00712440
X00698132
X00663132
X00615808
X00580808
X00545808
X00510808
X00768132
X00815456Y00712440
X00850457
X00885456
X00920457
X00967781
X01002781
X01037781
X01072781
X01120106Y00712440
X01155106
X01190105
X01225106
X01272430
X01307430
X01342430
X01377430
T09
X01046010Y00060782
X01096010
X01145832
X01195832
X01246162
X01296162
T10
X01034050Y00150040
X01070650
X01115350
X01151950
X01211850
X01248450
X01293150
X01329750
T11
X00086652Y00038430
X01362748Y00036144
X01360208Y00392252
X00087726Y00713248
M30
