G04 Layer_Color=65535*
%FSLAX44Y44*%
%MOMM*%
G71*
G01*
G75*
%ADD48C,0.2540*%
%ADD49C,0.2000*%
%ADD52C,0.5000*%
%ADD53C,0.6000*%
%ADD74C,0.2500*%
%ADD75C,0.1524*%
%ADD76C,0.0762*%
%ADD77C,0.1000*%
%ADD78C,0.1270*%
%ADD79C,0.1500*%
%ADD80R,1.0000X0.5000*%
%ADD81R,1.5240X2.5782*%
%ADD82R,1.5494X2.5782*%
%ADD83R,2.1590X0.2870*%
%ADD84R,2.1590X0.2870*%
%ADD85R,0.2540X0.3532*%
%ADD86R,0.2540X0.3810*%
%ADD87R,0.3810X0.3810*%
%ADD88R,0.5080X0.3810*%
%ADD89R,0.1270X0.3862*%
%ADD90R,0.3169X0.1119*%
%ADD91R,0.2540X0.3663*%
%ADD92R,0.1778X0.1270*%
%ADD93R,0.3169X0.1119*%
%ADD94R,0.9652X2.5782*%
%ADD95R,1.0480X2.5782*%
%ADD96R,1.0480X2.5782*%
%ADD97R,1.0226X2.5782*%
%ADD98R,3.0480X0.5842*%
%ADD99R,2.5400X0.4318*%
%ADD100R,1.4224X0.9770*%
%ADD101R,0.5000X1.0000*%
G36*
X946220Y163680D02*
X936060D01*
Y170030D01*
X946220D01*
Y163680D01*
D02*
G37*
G36*
X136920Y148920D02*
Y154530D01*
X142530D01*
X136920Y148920D01*
D02*
G37*
G36*
X1154932Y339906D02*
X1149322Y345516D01*
X1154932D01*
Y339906D01*
D02*
G37*
G36*
X946220Y197970D02*
X936060D01*
Y204320D01*
X946220D01*
Y197970D01*
D02*
G37*
D48*
X1379012Y19881D02*
G03*
X1379012Y52408I-16264J16264D01*
G01*
X1346485Y52408D02*
G03*
X1346485Y19881I16264J-16264D01*
G01*
X1383254Y15638D02*
G03*
X1383254Y56650I-20506J20506D01*
G01*
X1342242Y56650D02*
G03*
X1342242Y15638I20506J-20506D01*
G01*
X1387497Y11395D02*
G03*
X1387497Y60893I-24749J24749D01*
G01*
X1337999D02*
G03*
X1337999Y11395I24749J-24749D01*
G01*
X1106465Y13030D02*
G03*
X1106465Y13030I-10925J0D01*
G01*
X1206433D02*
G03*
X1206433Y13030I-10925J0D01*
G01*
X699199Y13792D02*
G03*
X699199Y13792I-10925J0D01*
G01*
X615379Y13538D02*
G03*
X615379Y13538I-10925J0D01*
G01*
X531559Y14300D02*
G03*
X531559Y14300I-10925J0D01*
G01*
X782511Y13792D02*
G03*
X782511Y13792I-10925J0D01*
G01*
X867601Y14300D02*
G03*
X867601Y14300I-10925J0D01*
G01*
X1306763Y13030D02*
G03*
X1306763Y13030I-10925J0D01*
G01*
X102915Y22167D02*
G03*
X102915Y54694I-16264J16264D01*
G01*
X70389Y54694D02*
G03*
X70389Y22167I16264J-16264D01*
G01*
X107158Y17924D02*
G03*
X107158Y58936I-20506J20506D01*
G01*
X66146Y58936D02*
G03*
X66146Y17924I20506J-20506D01*
G01*
X111401Y13681D02*
G03*
X111401Y63179I-24749J24749D01*
G01*
X61903D02*
G03*
X61903Y13681I24749J-24749D01*
G01*
X1335459Y417001D02*
G03*
X1335459Y367504I24749J-24749D01*
G01*
X1384957D02*
G03*
X1384957Y417001I-24749J24749D01*
G01*
X1339702Y412758D02*
G03*
X1339702Y371746I20506J-20506D01*
G01*
X1380714Y371746D02*
G03*
X1380714Y412758I-20506J20506D01*
G01*
X1343945Y408516D02*
G03*
X1343945Y375989I16264J-16264D01*
G01*
X1376472Y375989D02*
G03*
X1376472Y408516I-16264J16264D01*
G01*
X103989Y696984D02*
G03*
X103989Y729511I-16264J16264D01*
G01*
X71462Y729511D02*
G03*
X71462Y696985I16264J-16264D01*
G01*
X108232Y692742D02*
G03*
X108232Y733754I-20506J20506D01*
G01*
X67220Y733754D02*
G03*
X67220Y692742I20506J-20506D01*
G01*
X112474Y688499D02*
G03*
X112474Y737997I-24749J24749D01*
G01*
X62977D02*
G03*
X62977Y688499I24749J-24749D01*
G01*
X1275088Y500634D02*
G03*
X1275088Y506984I0J3175D01*
G01*
X816968Y500638D02*
G03*
X816968Y506988I0J3175D01*
G01*
X664568Y500638D02*
G03*
X664568Y506988I0J3175D01*
G01*
X512168Y500638D02*
G03*
X512168Y506988I0J3175D01*
G01*
X1121688Y500638D02*
G03*
X1121688Y506988I0J3175D01*
G01*
X969288Y500638D02*
G03*
X969288Y506988I0J3175D01*
G01*
X1337999Y11395D02*
X1346484Y19881D01*
X1379012D02*
X1387497Y11395D01*
X1379011Y52407D02*
X1387496Y60893D01*
X1338000D02*
X1346485Y52407D01*
X795457Y677440D02*
X940456D01*
Y747440D01*
X795457D02*
X940456D01*
X795457Y677440D02*
Y747440D01*
X643132Y677440D02*
X788132D01*
Y747440D01*
X643132D02*
X788132D01*
X643132Y677440D02*
Y747440D01*
X490808Y677440D02*
X635808D01*
Y747440D01*
X490808D02*
X635808D01*
X490808Y677440D02*
Y747440D01*
X1100106Y677440D02*
X1245106D01*
Y747440D01*
X1100106D02*
X1245106D01*
X1100106Y677440D02*
Y747440D01*
X947781Y677440D02*
X1092781D01*
Y747440D01*
X947781D02*
X1092781D01*
X947781Y677440D02*
Y747440D01*
X164046Y175000D02*
X191000D01*
X476542Y727532D02*
X476796Y727278D01*
Y724230D02*
Y727278D01*
X478828Y723722D02*
Y727532D01*
X481114Y722452D02*
Y729818D01*
X483146Y720928D02*
Y731088D01*
X293154Y726008D02*
X293408Y725754D01*
Y722706D02*
Y725754D01*
X295440Y722198D02*
Y726008D01*
X297726Y720928D02*
Y728294D01*
X299758Y719658D02*
Y729818D01*
X367538Y319608D02*
X377698D01*
X369062Y317576D02*
X376428D01*
X371348Y315290D02*
X375158D01*
X371602Y313258D02*
X374650D01*
X371348Y313004D02*
X371602Y313258D01*
X202650Y44682D02*
X212810D01*
X203920Y46714D02*
X211286D01*
X205190Y49000D02*
X209000D01*
X205698Y51032D02*
X208746D01*
X209000Y51286D01*
X725970Y394284D02*
X816610D01*
X725970Y325450D02*
Y394284D01*
Y325450D02*
X816610D01*
Y394284D01*
X753402Y325450D02*
Y394284D01*
X592874Y407238D02*
X1277658D01*
X592874D02*
Y428828D01*
X746036Y407492D02*
Y429082D01*
X898436Y407238D02*
Y428828D01*
X1050459Y407238D02*
Y428828D01*
X1202728Y407238D02*
Y428828D01*
X1277404Y408000D02*
Y429590D01*
X768388Y394284D02*
Y406984D01*
X61903Y13681D02*
X70388Y22167D01*
X102916Y22167D02*
X111401Y13681D01*
X102916Y54694D02*
X111401Y63179D01*
X61903D02*
X70388Y54694D01*
X1252430Y677440D02*
X1397430D01*
Y747440D01*
X1252430D02*
X1397430D01*
X1252430Y677440D02*
Y747440D01*
X1335459Y417001D02*
X1343945Y408515D01*
X1376472Y408516D02*
X1384957Y417001D01*
X1376472Y375989D02*
X1384957Y367503D01*
X1335459Y367504D02*
X1343945Y375989D01*
X62977Y688499D02*
X71462Y696985D01*
X103989D02*
X112475Y688499D01*
X103989Y729511D02*
X112474Y737997D01*
X62977D02*
X71462Y729511D01*
X1120832Y25782D02*
X1220832D01*
Y95782D01*
X1120832D02*
X1220832D01*
X1120832Y25782D02*
Y95782D01*
X1021010Y25782D02*
Y95782D01*
X1121010D01*
Y25782D02*
Y95782D01*
X1021010Y25782D02*
X1121010D01*
X1221162D02*
X1321162D01*
Y95782D01*
X1221162D02*
X1321162D01*
X1221162Y25782D02*
Y95782D01*
X464938Y97052D02*
X539938D01*
X464938Y27052D02*
Y97052D01*
Y27052D02*
X539938D01*
Y97052D01*
X623758Y26290D02*
Y96290D01*
X548758Y26290D02*
X623758D01*
X548758D02*
Y96290D01*
X623758D01*
X632578Y96544D02*
X707578D01*
X632578Y26544D02*
Y96544D01*
Y26544D02*
X707578D01*
Y96544D01*
X790890Y26544D02*
Y96544D01*
X715890Y26544D02*
X790890D01*
X715890D02*
Y96544D01*
X790890D01*
X800980Y97052D02*
X875980D01*
X800980Y27052D02*
Y97052D01*
Y27052D02*
X875980D01*
Y97052D01*
X1275088Y481076D02*
Y500761D01*
Y507111D02*
Y526796D01*
X1275342D02*
X1325126D01*
X1278898Y481076D02*
X1325126D01*
Y526796D01*
X1275088Y481076D02*
X1325088D01*
X816968Y481080D02*
X866968D01*
X867006D02*
Y526800D01*
X820778Y481080D02*
X867006D01*
X817222Y526800D02*
X867006D01*
X816968Y507115D02*
Y526800D01*
Y481080D02*
Y500765D01*
X664568Y481080D02*
Y500765D01*
Y507115D02*
Y526800D01*
X664822D02*
X714606D01*
X668378Y481080D02*
X714606D01*
Y526800D01*
X664568Y481080D02*
X714568D01*
X512168D02*
X562168D01*
X562206D02*
Y526800D01*
X515978Y481080D02*
X562206D01*
X512422Y526800D02*
X562206D01*
X512168Y507115D02*
Y526800D01*
Y481080D02*
Y500765D01*
X1121688Y481080D02*
Y500765D01*
Y507115D02*
Y526800D01*
X1121942D02*
X1171726D01*
X1125498Y481080D02*
X1171726D01*
Y526800D01*
X1121688Y481080D02*
X1171688D01*
X969288D02*
X1019288D01*
X1019326D02*
Y526800D01*
X973098Y481080D02*
X1019326D01*
X969542Y526800D02*
X1019326D01*
X969288Y507115D02*
Y526800D01*
Y481080D02*
Y500765D01*
X415032Y551444D02*
Y554492D01*
X413000Y551190D02*
Y555000D01*
X410714Y548904D02*
Y556270D01*
X408682Y547380D02*
Y557540D01*
X138540Y79629D02*
Y71298D01*
X140206Y69632D01*
X143538D01*
X145204Y71298D01*
Y79629D01*
X155201Y77963D02*
X153535Y79629D01*
X150203D01*
X148537Y77963D01*
Y76297D01*
X150203Y74630D01*
X153535D01*
X155201Y72964D01*
Y71298D01*
X153535Y69632D01*
X150203D01*
X148537Y71298D01*
X158534Y79629D02*
Y69632D01*
X163532D01*
X165198Y71298D01*
Y72964D01*
X163532Y74630D01*
X158534D01*
X163532D01*
X165198Y76297D01*
Y77963D01*
X163532Y79629D01*
X158534D01*
X138540Y51540D02*
Y61537D01*
X143538D01*
X145204Y59871D01*
Y56538D01*
X143538Y54872D01*
X138540D01*
X148537Y61537D02*
Y51540D01*
X151869Y54872D01*
X155201Y51540D01*
Y61537D01*
X158534Y51540D02*
Y61537D01*
X163532D01*
X165198Y59871D01*
Y56538D01*
X163532Y54872D01*
X158534D01*
X161866D02*
X165198Y51540D01*
X656590Y112435D02*
Y102438D01*
Y107437D01*
X663254D01*
Y112435D01*
Y102438D01*
X673251Y112435D02*
X666587D01*
Y102438D01*
X673251D01*
X666587Y107437D02*
X669919D01*
X683248Y102438D02*
X676584D01*
X683248Y109103D01*
Y110769D01*
X681582Y112435D01*
X678250D01*
X676584Y110769D01*
X576834Y112181D02*
Y102184D01*
Y107183D01*
X583498D01*
Y112181D01*
Y102184D01*
X593495Y112181D02*
X586831D01*
Y102184D01*
X593495D01*
X586831Y107183D02*
X590163D01*
X596828Y102184D02*
X600160D01*
X598494D01*
Y112181D01*
X596828Y110515D01*
X431038Y67132D02*
Y76129D01*
X435537D01*
X437036Y74630D01*
Y71631D01*
X435537Y70131D01*
X431038D01*
X440035Y76129D02*
Y67132D01*
X443034Y70131D01*
X446033Y67132D01*
Y76129D01*
X449032Y67132D02*
Y76129D01*
X453531D01*
X455030Y74630D01*
Y71631D01*
X453531Y70131D01*
X449032D01*
X452031D02*
X455030Y67132D01*
X439442Y256123D02*
X432778D01*
Y251124D01*
X436110Y252791D01*
X437776D01*
X439442Y251124D01*
Y247792D01*
X437776Y246126D01*
X434444D01*
X432778Y247792D01*
X442775Y256123D02*
Y249458D01*
X446107Y246126D01*
X449439Y249458D01*
Y256123D01*
X227307Y632040D02*
Y642037D01*
X232306D01*
X233972Y640371D01*
Y637038D01*
X232306Y635372D01*
X227307D01*
X243969Y640371D02*
X242303Y642037D01*
X238970D01*
X237304Y640371D01*
Y638704D01*
X238970Y637038D01*
X242303D01*
X243969Y635372D01*
Y633706D01*
X242303Y632040D01*
X238970D01*
X237304Y633706D01*
X247301Y630374D02*
X253965D01*
X262296Y642037D02*
X258964D01*
X257298Y640371D01*
Y633706D01*
X258964Y632040D01*
X262296D01*
X263962Y633706D01*
Y640371D01*
X262296Y642037D01*
X267295Y632040D02*
Y642037D01*
X273959Y632040D01*
Y642037D01*
X670019Y426791D02*
Y424252D01*
X675098Y419174D01*
X680176Y424252D01*
Y426791D01*
X675098Y419174D02*
Y411556D01*
X1245000Y114997D02*
Y105000D01*
Y109999D01*
X1251665D01*
Y114997D01*
Y105000D01*
X1254997Y114997D02*
Y105000D01*
X1259995D01*
X1261661Y106666D01*
Y108332D01*
X1259995Y109999D01*
X1254997D01*
X1259995D01*
X1261661Y111665D01*
Y113331D01*
X1259995Y114997D01*
X1254997D01*
X1264994Y109999D02*
X1271658D01*
X1279989Y114997D02*
X1276656D01*
X1274990Y113331D01*
Y106666D01*
X1276656Y105000D01*
X1279989D01*
X1281655Y106666D01*
Y113331D01*
X1279989Y114997D01*
X1284987D02*
Y106666D01*
X1286653Y105000D01*
X1289986D01*
X1291652Y106666D01*
Y114997D01*
X1294984D02*
X1301648D01*
X1298316D01*
Y105000D01*
X490474Y113197D02*
Y103200D01*
Y108199D01*
X497138D01*
Y113197D01*
Y103200D01*
X507135Y113197D02*
X500471D01*
Y103200D01*
X507135D01*
X500471Y108199D02*
X503803D01*
X510468Y111531D02*
X512134Y113197D01*
X515466D01*
X517132Y111531D01*
Y104866D01*
X515466Y103200D01*
X512134D01*
X510468Y104866D01*
Y111531D01*
X988220Y426283D02*
X978064D01*
Y411048D01*
X988220D01*
X978064Y418666D02*
X983142D01*
X993299Y423744D02*
X995838Y426283D01*
X1000916D01*
X1003455Y423744D01*
Y413587D01*
X1000916Y411048D01*
X995838D01*
X993299Y413587D01*
Y423744D01*
X1136993Y426791D02*
X1126837D01*
Y411556D01*
X1136993D01*
X1126837Y419174D02*
X1131915D01*
X1142072Y411556D02*
X1147150D01*
X1144611D01*
Y426791D01*
X1142072Y424252D01*
X176665Y669997D02*
X170000D01*
Y660000D01*
X176665D01*
X170000Y664998D02*
X173332D01*
X179997Y669997D02*
X186661Y660000D01*
Y669997D02*
X179997Y660000D01*
X189993D02*
Y669997D01*
X194992D01*
X196658Y668331D01*
Y664998D01*
X194992Y663332D01*
X189993D01*
X199990Y660000D02*
X203323D01*
X201656D01*
Y669997D01*
X199990Y668331D01*
X300095Y660077D02*
Y650080D01*
X306759D01*
X316756Y660077D02*
X310092D01*
Y650080D01*
X316756D01*
X310092Y655078D02*
X313424D01*
X320089Y660077D02*
Y650080D01*
X325087D01*
X326753Y651746D01*
Y658411D01*
X325087Y660077D01*
X320089D01*
X330085Y650080D02*
X333418D01*
X331751D01*
Y660077D01*
X330085Y658411D01*
X426000Y119535D02*
Y129531D01*
X430998D01*
X432664Y127865D01*
Y124533D01*
X430998Y122867D01*
X426000D01*
X429332D02*
X432664Y119535D01*
X435997Y129531D02*
X442661Y119535D01*
Y129531D02*
X435997Y119535D01*
X425000Y146648D02*
X431665D01*
X428332D01*
Y136651D01*
X434997Y146648D02*
X441661Y136651D01*
Y146648D02*
X434997Y136651D01*
X134404Y532043D02*
X141068D01*
Y530377D01*
X134404Y523712D01*
Y522046D01*
X141068D01*
X144401Y527045D02*
X151065D01*
X147733Y530377D02*
Y523712D01*
X134658Y557189D02*
X141322D01*
Y555523D01*
X134658Y548858D01*
Y547192D01*
X141322D01*
X144655Y552191D02*
X151319D01*
X527088Y412577D02*
X516931Y427812D01*
Y412577D02*
X527088Y427812D01*
X134658Y582589D02*
Y580923D01*
X137990Y577591D01*
X141322Y580923D01*
Y582589D01*
X137990Y577591D02*
Y572592D01*
X144655Y577591D02*
X151319D01*
X147987Y580923D02*
Y574258D01*
X134404Y608497D02*
Y606831D01*
X137736Y603499D01*
X141068Y606831D01*
Y608497D01*
X137736Y603499D02*
Y598500D01*
X144401Y603499D02*
X151065D01*
X133896Y634659D02*
X140561Y624662D01*
Y634659D02*
X133896Y624662D01*
X143893Y629661D02*
X150557D01*
X147225Y632993D02*
Y626328D01*
X133896Y659805D02*
X140561Y649808D01*
Y659805D02*
X133896Y649808D01*
X143893Y654807D02*
X150557D01*
X834286Y411815D02*
X824130D01*
Y414354D01*
X834286Y424511D01*
Y427050D01*
X824130D01*
X405664Y669997D02*
X399000D01*
Y660000D01*
X405664D01*
X399000Y664998D02*
X402332D01*
X408997Y669997D02*
X415661Y660000D01*
Y669997D02*
X408997Y660000D01*
X418993D02*
Y669997D01*
X423992D01*
X425658Y668331D01*
Y664998D01*
X423992Y663332D01*
X418993D01*
X435655Y660000D02*
X428990D01*
X435655Y666665D01*
Y668331D01*
X433989Y669997D01*
X430657D01*
X428990Y668331D01*
X1292879Y426791D02*
X1282722D01*
Y411556D01*
X1292879D01*
X1282722Y419174D02*
X1287800D01*
X1308114Y411556D02*
X1297957D01*
X1308114Y421713D01*
Y424252D01*
X1305574Y426791D01*
X1300496D01*
X1297957Y424252D01*
X544674Y346477D02*
X541342D01*
X543008D01*
Y338146D01*
X541342Y336480D01*
X539676D01*
X538010Y338146D01*
X548007Y346477D02*
X554671D01*
X551339D01*
Y336480D01*
X558004D02*
Y343145D01*
X561336Y346477D01*
X564668Y343145D01*
Y336480D01*
Y341479D01*
X558004D01*
X574665Y344811D02*
X572999Y346477D01*
X569666D01*
X568000Y344811D01*
Y338146D01*
X569666Y336480D01*
X572999D01*
X574665Y338146D01*
Y341479D01*
X571333D01*
X401000Y590000D02*
Y599997D01*
X405998D01*
X407664Y598331D01*
Y594998D01*
X405998Y593332D01*
X401000D01*
X404332D02*
X407664Y590000D01*
X415995D02*
X412663D01*
X410997Y591666D01*
Y594998D01*
X412663Y596665D01*
X415995D01*
X417661Y594998D01*
Y593332D01*
X410997D01*
X420994Y590000D02*
X425992D01*
X427658Y591666D01*
X425992Y593332D01*
X422660D01*
X420994Y594998D01*
X422660Y596665D01*
X427658D01*
X435989Y590000D02*
X432657D01*
X430990Y591666D01*
Y594998D01*
X432657Y596665D01*
X435989D01*
X437655Y594998D01*
Y593332D01*
X430990D01*
X442653Y598331D02*
Y596665D01*
X440987D01*
X444319D01*
X442653D01*
Y591666D01*
X444319Y590000D01*
X245933Y318175D02*
X239268D01*
Y308178D01*
X245933D01*
X239268Y313177D02*
X242600D01*
X249265Y318175D02*
X255929Y308178D01*
Y318175D02*
X249265Y308178D01*
X259262D02*
Y318175D01*
X264260D01*
X265926Y316509D01*
Y313177D01*
X264260Y311511D01*
X259262D01*
X269258Y316509D02*
X270924Y318175D01*
X274257D01*
X275923Y316509D01*
Y314843D01*
X274257Y313177D01*
X272591D01*
X274257D01*
X275923Y311511D01*
Y309844D01*
X274257Y308178D01*
X270924D01*
X269258Y309844D01*
X420332Y305562D02*
X423664D01*
X421998D01*
Y315559D01*
X420332Y313893D01*
X435327Y305562D02*
X428663D01*
X435327Y312227D01*
Y313893D01*
X433661Y315559D01*
X430329D01*
X428663Y313893D01*
X438659Y315559D02*
Y308894D01*
X441992Y305562D01*
X445324Y308894D01*
Y315559D01*
X1035000Y105000D02*
Y114997D01*
X1038332Y111665D01*
X1041665Y114997D01*
Y105000D01*
X1044997D02*
Y111665D01*
X1048329Y114997D01*
X1051661Y111665D01*
Y105000D01*
Y109999D01*
X1044997D01*
X1054994Y114997D02*
X1058326D01*
X1056660D01*
Y105000D01*
X1054994D01*
X1058326D01*
X1063324D02*
Y114997D01*
X1069989Y105000D01*
Y114997D01*
X1073321Y109999D02*
X1079986D01*
X1083318Y105000D02*
Y114997D01*
X1088316D01*
X1089982Y113331D01*
Y109999D01*
X1088316Y108332D01*
X1083318D01*
X1093315Y114997D02*
Y105000D01*
X1096647Y108332D01*
X1099979Y105000D01*
Y114997D01*
X1103311Y105000D02*
Y114997D01*
X1108310D01*
X1109976Y113331D01*
Y109999D01*
X1108310Y108332D01*
X1103311D01*
X1106644D02*
X1109976Y105000D01*
X1142500Y114997D02*
Y105000D01*
Y109999D01*
X1149165D01*
Y114997D01*
Y105000D01*
X1152497Y114997D02*
Y105000D01*
X1157495D01*
X1159161Y106666D01*
Y108332D01*
X1157495Y109999D01*
X1152497D01*
X1157495D01*
X1159161Y111665D01*
Y113331D01*
X1157495Y114997D01*
X1152497D01*
X1162494Y109999D02*
X1169158D01*
X1172490Y105000D02*
Y114997D01*
X1177489D01*
X1179155Y113331D01*
Y109999D01*
X1177489Y108332D01*
X1172490D01*
X1182487Y114997D02*
Y105000D01*
X1185819Y108332D01*
X1189152Y105000D01*
Y114997D01*
X1192484Y105000D02*
Y114997D01*
X1197482D01*
X1199148Y113331D01*
Y109999D01*
X1197482Y108332D01*
X1192484D01*
X1195816D02*
X1199148Y105000D01*
X147964Y296077D02*
X154629D01*
X151296D01*
Y286080D01*
X164625D02*
X157961D01*
X164625Y292745D01*
Y294411D01*
X162959Y296077D01*
X159627D01*
X157961Y294411D01*
X147964Y321477D02*
X154629D01*
X151296D01*
Y311480D01*
X157961D02*
X161293D01*
X159627D01*
Y321477D01*
X157961Y319811D01*
X147964Y346877D02*
X154629D01*
X151296D01*
Y336880D01*
X157961Y345211D02*
X159627Y346877D01*
X162959D01*
X164625Y345211D01*
Y338546D01*
X162959Y336880D01*
X159627D01*
X157961Y338546D01*
Y345211D01*
X147964Y270677D02*
X154629D01*
X151296D01*
Y260680D01*
X157961Y269011D02*
X159627Y270677D01*
X162959D01*
X164625Y269011D01*
Y267345D01*
X162959Y265679D01*
X161293D01*
X162959D01*
X164625Y264013D01*
Y262346D01*
X162959Y260680D01*
X159627D01*
X157961Y262346D01*
X147964Y245277D02*
X154629D01*
X151296D01*
Y235280D01*
X157961Y245277D02*
Y235280D01*
X162959D01*
X164625Y236946D01*
Y238612D01*
X162959Y240279D01*
X157961D01*
X162959D01*
X164625Y241945D01*
Y243611D01*
X162959Y245277D01*
X157961D01*
X1089190Y12867D02*
X1102519D01*
X1095854Y19532D02*
Y6202D01*
X1038390Y12867D02*
X1051719D01*
X1138358D02*
X1151687D01*
X1189158D02*
X1202487D01*
X1195823Y19532D02*
Y6202D01*
X645602Y14899D02*
X658931D01*
X681924Y13629D02*
X695253D01*
X688588Y20294D02*
Y6964D01*
X561782Y14645D02*
X575111D01*
X598104Y13375D02*
X611433D01*
X604768Y20040D02*
Y6711D01*
X477962Y15407D02*
X491291D01*
X514284Y14137D02*
X527613D01*
X520948Y20801D02*
Y7473D01*
X728914Y14899D02*
X742243D01*
X765236Y13629D02*
X778565D01*
X771900Y20294D02*
Y6964D01*
X814004Y15407D02*
X827333D01*
X850326Y14137D02*
X863655D01*
X856991Y20801D02*
Y7473D01*
X1289488Y12867D02*
X1302817D01*
X1296152Y19532D02*
Y6202D01*
X1238688Y12867D02*
X1252017D01*
X513880Y631774D02*
X517212D01*
X515546D01*
Y641771D01*
X513880Y640105D01*
X522211Y641771D02*
Y631774D01*
X527209D01*
X528875Y633440D01*
Y635107D01*
X527209Y636773D01*
X522211D01*
X527209D01*
X528875Y638439D01*
Y640105D01*
X527209Y641771D01*
X522211D01*
X539534Y631774D02*
X542866D01*
X541200D01*
Y641771D01*
X539534Y640105D01*
X547865Y631774D02*
Y638439D01*
X551197Y641771D01*
X554529Y638439D01*
Y631774D01*
Y636773D01*
X547865D01*
X570836Y631774D02*
X564172D01*
X570836Y638439D01*
Y640105D01*
X569170Y641771D01*
X565838D01*
X564172Y640105D01*
X574169Y631774D02*
Y638439D01*
X577501Y641771D01*
X580833Y638439D01*
Y631774D01*
Y636773D01*
X574169D01*
X597506Y631774D02*
X590842D01*
X597506Y638439D01*
Y640105D01*
X595840Y641771D01*
X592508D01*
X590842Y640105D01*
X600839Y641771D02*
Y631774D01*
X605837D01*
X607503Y633440D01*
Y635107D01*
X605837Y636773D01*
X600839D01*
X605837D01*
X607503Y638439D01*
Y640105D01*
X605837Y641771D01*
X600839D01*
X750161Y632028D02*
X743496D01*
X750161Y638693D01*
Y640359D01*
X748494Y642025D01*
X745162D01*
X743496Y640359D01*
X753493Y642025D02*
Y632028D01*
X758491D01*
X760157Y633694D01*
Y635360D01*
X758491Y637027D01*
X753493D01*
X758491D01*
X760157Y638693D01*
Y640359D01*
X758491Y642025D01*
X753493D01*
X723491Y632028D02*
X716826D01*
X723491Y638693D01*
Y640359D01*
X721824Y642025D01*
X718492D01*
X716826Y640359D01*
X726823Y632028D02*
Y638693D01*
X730155Y642025D01*
X733487Y638693D01*
Y632028D01*
Y637027D01*
X726823D01*
X692188Y632028D02*
X695520D01*
X693854D01*
Y642025D01*
X692188Y640359D01*
X700519Y632028D02*
Y638693D01*
X703851Y642025D01*
X707183Y638693D01*
Y632028D01*
Y637027D01*
X700519D01*
X666534Y632028D02*
X669866D01*
X668200D01*
Y642025D01*
X666534Y640359D01*
X674865Y642025D02*
Y632028D01*
X679863D01*
X681529Y633694D01*
Y635360D01*
X679863Y637027D01*
X674865D01*
X679863D01*
X681529Y638693D01*
Y640359D01*
X679863Y642025D01*
X674865D01*
X902814Y632282D02*
X896150D01*
X902814Y638947D01*
Y640613D01*
X901148Y642279D01*
X897816D01*
X896150Y640613D01*
X906147Y642279D02*
Y632282D01*
X911145D01*
X912811Y633948D01*
Y635615D01*
X911145Y637281D01*
X906147D01*
X911145D01*
X912811Y638947D01*
Y640613D01*
X911145Y642279D01*
X906147D01*
X876144Y632282D02*
X869480D01*
X876144Y638947D01*
Y640613D01*
X874478Y642279D01*
X871146D01*
X869480Y640613D01*
X879477Y632282D02*
Y638947D01*
X882809Y642279D01*
X886141Y638947D01*
Y632282D01*
Y637281D01*
X879477D01*
X844842Y632282D02*
X848174D01*
X846508D01*
Y642279D01*
X844842Y640613D01*
X853173Y632282D02*
Y638947D01*
X856505Y642279D01*
X859837Y638947D01*
Y632282D01*
Y637281D01*
X853173D01*
X819188Y632282D02*
X822520D01*
X820854D01*
Y642279D01*
X819188Y640613D01*
X827519Y642279D02*
Y632282D01*
X832517D01*
X834183Y633948D01*
Y635615D01*
X832517Y637281D01*
X827519D01*
X832517D01*
X834183Y638947D01*
Y640613D01*
X832517Y642279D01*
X827519D01*
X1053690Y632282D02*
X1047026D01*
X1053690Y638947D01*
Y640613D01*
X1052024Y642279D01*
X1048692D01*
X1047026Y640613D01*
X1057023Y642279D02*
Y632282D01*
X1062021D01*
X1063687Y633948D01*
Y635615D01*
X1062021Y637281D01*
X1057023D01*
X1062021D01*
X1063687Y638947D01*
Y640613D01*
X1062021Y642279D01*
X1057023D01*
X1027020Y632282D02*
X1020356D01*
X1027020Y638947D01*
Y640613D01*
X1025354Y642279D01*
X1022022D01*
X1020356Y640613D01*
X1030353Y632282D02*
Y638947D01*
X1033685Y642279D01*
X1037017Y638947D01*
Y632282D01*
Y637281D01*
X1030353D01*
X995718Y632282D02*
X999050D01*
X997384D01*
Y642279D01*
X995718Y640613D01*
X1004049Y632282D02*
Y638947D01*
X1007381Y642279D01*
X1010713Y638947D01*
Y632282D01*
Y637281D01*
X1004049D01*
X970064Y632282D02*
X973396D01*
X971730D01*
Y642279D01*
X970064Y640613D01*
X978395Y642279D02*
Y632282D01*
X983393D01*
X985059Y633948D01*
Y635615D01*
X983393Y637281D01*
X978395D01*
X983393D01*
X985059Y638947D01*
Y640613D01*
X983393Y642279D01*
X978395D01*
X1206090Y632282D02*
X1199426D01*
X1206090Y638947D01*
Y640613D01*
X1204424Y642279D01*
X1201092D01*
X1199426Y640613D01*
X1209423Y642279D02*
Y632282D01*
X1214421D01*
X1216087Y633948D01*
Y635615D01*
X1214421Y637281D01*
X1209423D01*
X1214421D01*
X1216087Y638947D01*
Y640613D01*
X1214421Y642279D01*
X1209423D01*
X1179420Y632282D02*
X1172756D01*
X1179420Y638947D01*
Y640613D01*
X1177754Y642279D01*
X1174422D01*
X1172756Y640613D01*
X1182753Y632282D02*
Y638947D01*
X1186085Y642279D01*
X1189417Y638947D01*
Y632282D01*
Y637281D01*
X1182753D01*
X1148118Y632282D02*
X1151450D01*
X1149784D01*
Y642279D01*
X1148118Y640613D01*
X1156449Y632282D02*
Y638947D01*
X1159781Y642279D01*
X1163113Y638947D01*
Y632282D01*
Y637281D01*
X1156449D01*
X1122464Y632282D02*
X1125796D01*
X1124130D01*
Y642279D01*
X1122464Y640613D01*
X1130795Y642279D02*
Y632282D01*
X1135793D01*
X1137459Y633948D01*
Y635615D01*
X1135793Y637281D01*
X1130795D01*
X1135793D01*
X1137459Y638947D01*
Y640613D01*
X1135793Y642279D01*
X1130795D01*
X1359236Y632028D02*
X1352572D01*
X1359236Y638693D01*
Y640359D01*
X1357570Y642025D01*
X1354238D01*
X1352572Y640359D01*
X1362569Y642025D02*
Y632028D01*
X1367567D01*
X1369233Y633694D01*
Y635360D01*
X1367567Y637027D01*
X1362569D01*
X1367567D01*
X1369233Y638693D01*
Y640359D01*
X1367567Y642025D01*
X1362569D01*
X1332567Y632028D02*
X1325902D01*
X1332567Y638693D01*
Y640359D01*
X1330900Y642025D01*
X1327568D01*
X1325902Y640359D01*
X1335899Y632028D02*
Y638693D01*
X1339231Y642025D01*
X1342563Y638693D01*
Y632028D01*
Y637027D01*
X1335899D01*
X1301264Y632028D02*
X1304596D01*
X1302930D01*
Y642025D01*
X1301264Y640359D01*
X1309595Y632028D02*
Y638693D01*
X1312927Y642025D01*
X1316259Y638693D01*
Y632028D01*
Y637027D01*
X1309595D01*
X1275610Y632028D02*
X1278942D01*
X1277276D01*
Y642025D01*
X1275610Y640359D01*
X1283941Y642025D02*
Y632028D01*
X1288939D01*
X1290605Y633694D01*
Y635360D01*
X1288939Y637027D01*
X1283941D01*
X1288939D01*
X1290605Y638693D01*
Y640359D01*
X1288939Y642025D01*
X1283941D01*
X118716Y679475D02*
X117050Y681141D01*
X113718D01*
X112052Y679475D01*
Y677809D01*
X113718Y676143D01*
X117050D01*
X118716Y674476D01*
Y672810D01*
X117050Y671144D01*
X113718D01*
X112052Y672810D01*
X86906Y675889D02*
X93570D01*
X61252D02*
X67916D01*
X64584Y679221D02*
Y672556D01*
X130000Y179997D02*
Y171666D01*
X131666Y170000D01*
X134998D01*
X136664Y171666D01*
Y179997D01*
X146661Y178331D02*
X144995Y179997D01*
X141663D01*
X139997Y178331D01*
Y176665D01*
X141663Y174998D01*
X144995D01*
X146661Y173332D01*
Y171666D01*
X144995Y170000D01*
X141663D01*
X139997Y171666D01*
X149994Y179997D02*
Y170000D01*
X154992D01*
X156658Y171666D01*
Y173332D01*
X154992Y174998D01*
X149994D01*
X154992D01*
X156658Y176665D01*
Y178331D01*
X154992Y179997D01*
X149994D01*
X440436Y230058D02*
X447100D01*
X440436Y204211D02*
X447100D01*
X443768Y207543D02*
Y200878D01*
X1015000Y26000D02*
Y29332D01*
Y27666D01*
X1005003D01*
X1006669Y26000D01*
X1015000Y40995D02*
Y34331D01*
X1008335Y40995D01*
X1006669D01*
X1005003Y39329D01*
Y35997D01*
X1006669Y34331D01*
X1005003Y44327D02*
X1011668D01*
X1015000Y47660D01*
X1011668Y50992D01*
X1005003D01*
X1015000Y54324D02*
X1013334D01*
Y55990D01*
X1015000D01*
Y54324D01*
Y62655D02*
X1013334D01*
Y64321D01*
X1015000D01*
Y62655D01*
X1006669Y70985D02*
X1005003Y72652D01*
Y75984D01*
X1006669Y77650D01*
X1008335D01*
X1010002Y75984D01*
Y74318D01*
Y75984D01*
X1011668Y77650D01*
X1013334D01*
X1015000Y75984D01*
Y72652D01*
X1013334Y70985D01*
X1005003Y87647D02*
Y80982D01*
X1010002D01*
X1008335Y84314D01*
Y85981D01*
X1010002Y87647D01*
X1013334D01*
X1015000Y85981D01*
Y82648D01*
X1013334Y80982D01*
X1005003Y90979D02*
X1011668D01*
X1015000Y94311D01*
X1011668Y97643D01*
X1005003D01*
X420116Y20569D02*
X426781D01*
X423448Y23901D02*
Y17236D01*
X420116Y46416D02*
X426781D01*
X717042Y221310D02*
Y224643D01*
Y222976D01*
X707045D01*
X708711Y221310D01*
X717042Y236305D02*
Y229641D01*
X710378Y236305D01*
X708711D01*
X707045Y234639D01*
Y231307D01*
X708711Y229641D01*
X707045Y239638D02*
X713710D01*
X717042Y242970D01*
X713710Y246302D01*
X707045D01*
X712044Y249634D02*
Y256299D01*
X708711Y266296D02*
X707045Y264630D01*
Y261297D01*
X708711Y259631D01*
X710378D01*
X712044Y261297D01*
Y264630D01*
X713710Y266296D01*
X715376D01*
X717042Y264630D01*
Y261297D01*
X715376Y259631D01*
X717042Y274626D02*
Y271294D01*
X715376Y269628D01*
X712044D01*
X710378Y271294D01*
Y274626D01*
X712044Y276292D01*
X713710D01*
Y269628D01*
X717042Y279625D02*
Y282957D01*
Y281291D01*
X707045D01*
Y279625D01*
X717042Y292954D02*
Y289622D01*
X715376Y287955D01*
X712044D01*
X710378Y289622D01*
Y292954D01*
X712044Y294620D01*
X713710D01*
Y287955D01*
X710378Y304617D02*
Y299618D01*
X712044Y297952D01*
X715376D01*
X717042Y299618D01*
Y304617D01*
X708711Y309615D02*
X710378D01*
Y307949D01*
Y311281D01*
Y309615D01*
X715376D01*
X717042Y311281D01*
Y106502D02*
X707045D01*
Y111501D01*
X708711Y113167D01*
X712044D01*
X713710Y111501D01*
Y106502D01*
X707045Y116499D02*
X717042D01*
X713710Y119831D01*
X717042Y123163D01*
X707045D01*
X717042Y126496D02*
X707045D01*
Y131494D01*
X708711Y133160D01*
X712044D01*
X713710Y131494D01*
Y126496D01*
Y129828D02*
X717042Y133160D01*
X801370Y106502D02*
X791373D01*
Y111501D01*
X793039Y113167D01*
X796372D01*
X798038Y111501D01*
Y106502D01*
X791373Y116499D02*
X801370D01*
X798038Y119831D01*
X801370Y123163D01*
X791373D01*
X801370Y126496D02*
X791373D01*
Y131494D01*
X793039Y133160D01*
X796372D01*
X798038Y131494D01*
Y126496D01*
Y129828D02*
X801370Y133160D01*
Y221310D02*
Y224643D01*
Y222976D01*
X791373D01*
X793039Y221310D01*
X801370Y236305D02*
Y229641D01*
X794706Y236305D01*
X793039D01*
X791373Y234639D01*
Y231307D01*
X793039Y229641D01*
X791373Y239638D02*
X798038D01*
X801370Y242970D01*
X798038Y246302D01*
X791373D01*
X796372Y249634D02*
Y256299D01*
X793039Y266296D02*
X791373Y264630D01*
Y261297D01*
X793039Y259631D01*
X794706D01*
X796372Y261297D01*
Y264630D01*
X798038Y266296D01*
X799704D01*
X801370Y264630D01*
Y261297D01*
X799704Y259631D01*
X801370Y274626D02*
Y271294D01*
X799704Y269628D01*
X796372D01*
X794706Y271294D01*
Y274626D01*
X796372Y276292D01*
X798038D01*
Y269628D01*
X801370Y279625D02*
Y282957D01*
Y281291D01*
X791373D01*
Y279625D01*
X801370Y292954D02*
Y289622D01*
X799704Y287955D01*
X796372D01*
X794706Y289622D01*
Y292954D01*
X796372Y294620D01*
X798038D01*
Y287955D01*
X794706Y304617D02*
Y299618D01*
X796372Y297952D01*
X799704D01*
X801370Y299618D01*
Y304617D01*
X793039Y309615D02*
X794706D01*
Y307949D01*
Y311281D01*
Y309615D01*
X799704D01*
X801370Y311281D01*
X888492Y107010D02*
X878495D01*
Y112009D01*
X880161Y113675D01*
X883494D01*
X885160Y112009D01*
Y107010D01*
X878495Y117007D02*
X888492D01*
X885160Y120339D01*
X888492Y123672D01*
X878495D01*
X888492Y127004D02*
X878495D01*
Y132002D01*
X880161Y133668D01*
X883494D01*
X885160Y132002D01*
Y127004D01*
Y130336D02*
X888492Y133668D01*
Y221564D02*
Y224897D01*
Y223230D01*
X878495D01*
X880161Y221564D01*
X888492Y236559D02*
Y229895D01*
X881827Y236559D01*
X880161D01*
X878495Y234893D01*
Y231561D01*
X880161Y229895D01*
X878495Y239892D02*
X885160D01*
X888492Y243224D01*
X885160Y246556D01*
X878495D01*
X883494Y249888D02*
Y256553D01*
X880161Y266550D02*
X878495Y264884D01*
Y261551D01*
X880161Y259885D01*
X881827D01*
X883494Y261551D01*
Y264884D01*
X885160Y266550D01*
X886826D01*
X888492Y264884D01*
Y261551D01*
X886826Y259885D01*
X888492Y274880D02*
Y271548D01*
X886826Y269882D01*
X883494D01*
X881827Y271548D01*
Y274880D01*
X883494Y276546D01*
X885160D01*
Y269882D01*
X888492Y279879D02*
Y283211D01*
Y281545D01*
X878495D01*
Y279879D01*
X888492Y293208D02*
Y289876D01*
X886826Y288209D01*
X883494D01*
X881827Y289876D01*
Y293208D01*
X883494Y294874D01*
X885160D01*
Y288209D01*
X881827Y304871D02*
Y299872D01*
X883494Y298206D01*
X886826D01*
X888492Y299872D01*
Y304871D01*
X880161Y309869D02*
X881827D01*
Y308203D01*
Y311535D01*
Y309869D01*
X886826D01*
X888492Y311535D01*
X1297216Y396407D02*
Y386410D01*
Y391409D01*
X1303880D01*
Y396407D01*
Y386410D01*
X1307213Y396407D02*
Y386410D01*
X1312211D01*
X1313877Y388076D01*
Y389743D01*
X1312211Y391409D01*
X1307213D01*
X1312211D01*
X1313877Y393075D01*
Y394741D01*
X1312211Y396407D01*
X1307213D01*
X840293Y309539D02*
X833628D01*
Y304541D01*
X836960D01*
X833628D01*
Y299542D01*
X843625D02*
Y306207D01*
X846957Y309539D01*
X850289Y306207D01*
Y299542D01*
Y304541D01*
X843625D01*
X853622Y299542D02*
Y309539D01*
X860286Y299542D01*
Y309539D01*
X863618Y299542D02*
X866951D01*
X865285D01*
Y309539D01*
X863618Y307873D01*
X754695Y309285D02*
X748030D01*
Y304287D01*
X751362D01*
X748030D01*
Y299288D01*
X758027D02*
Y305953D01*
X761359Y309285D01*
X764691Y305953D01*
Y299288D01*
Y304287D01*
X758027D01*
X768024Y299288D02*
Y309285D01*
X774688Y299288D01*
Y309285D01*
X778020Y307619D02*
X779687Y309285D01*
X783019D01*
X784685Y307619D01*
Y300954D01*
X783019Y299288D01*
X779687D01*
X778020Y300954D01*
Y307619D01*
X669798Y309539D02*
Y299542D01*
Y304541D01*
X676462D01*
Y309539D01*
Y299542D01*
X686459Y309539D02*
X679795D01*
Y299542D01*
X686459D01*
X679795Y304541D02*
X683127D01*
X696456Y299542D02*
X689792D01*
X696456Y306207D01*
Y307873D01*
X694790Y309539D01*
X691458D01*
X689792Y307873D01*
X590296Y309539D02*
Y299542D01*
Y304541D01*
X596960D01*
Y309539D01*
Y299542D01*
X606957Y309539D02*
X600293D01*
Y299542D01*
X606957D01*
X600293Y304541D02*
X603625D01*
X610290Y299542D02*
X613622D01*
X611956D01*
Y309539D01*
X610290Y307873D01*
X507746Y309539D02*
Y299542D01*
Y304541D01*
X514411D01*
Y309539D01*
Y299542D01*
X524407Y309539D02*
X517743D01*
Y299542D01*
X524407D01*
X517743Y304541D02*
X521075D01*
X527740Y307873D02*
X529406Y309539D01*
X532738D01*
X534404Y307873D01*
Y301208D01*
X532738Y299542D01*
X529406D01*
X527740Y301208D01*
Y307873D01*
X427594Y262955D02*
X434258D01*
X430926Y266287D02*
Y259623D01*
X427594Y288803D02*
X434258D01*
X482889Y731342D02*
X472732Y726264D01*
X482889Y721186D01*
X299501Y729818D02*
X289344Y724740D01*
X299501Y719661D01*
X367538Y319351D02*
X372616Y309194D01*
X377695Y319351D01*
X731558Y377266D02*
X734890D01*
X733224D01*
Y387263D01*
X731558Y385597D01*
X739889Y387263D02*
Y377266D01*
X744887D01*
X746553Y378932D01*
Y380598D01*
X744887Y382265D01*
X739889D01*
X744887D01*
X746553Y383931D01*
Y385597D01*
X744887Y387263D01*
X739889D01*
X766547Y385597D02*
X764881Y387263D01*
X761548D01*
X759882Y385597D01*
Y378932D01*
X761548Y377266D01*
X764881D01*
X766547Y378932D01*
Y382265D01*
X763214D01*
X769879Y383931D02*
Y377266D01*
Y380598D01*
X771545Y382265D01*
X773211Y383931D01*
X774877D01*
X784874Y377266D02*
X781542D01*
X779876Y378932D01*
Y382265D01*
X781542Y383931D01*
X784874D01*
X786540Y382265D01*
Y380598D01*
X779876D01*
X794871Y377266D02*
X791539D01*
X789873Y378932D01*
Y382265D01*
X791539Y383931D01*
X794871D01*
X796537Y382265D01*
Y380598D01*
X789873D01*
X799869Y377266D02*
Y383931D01*
X804868D01*
X806534Y382265D01*
Y377266D01*
X731558Y361688D02*
X734890D01*
X733224D01*
Y371684D01*
X731558Y370018D01*
X739889Y361688D02*
Y368352D01*
X743221Y371684D01*
X746553Y368352D01*
Y361688D01*
Y366686D01*
X739889D01*
X759882Y371684D02*
Y370018D01*
X763214Y366686D01*
X766547Y370018D01*
Y371684D01*
X763214Y366686D02*
Y361688D01*
X774877D02*
X771545D01*
X769879Y363354D01*
Y366686D01*
X771545Y368352D01*
X774877D01*
X776544Y366686D01*
Y365020D01*
X769879D01*
X779876Y361688D02*
X783208D01*
X781542D01*
Y371684D01*
X779876D01*
X788206Y361688D02*
X791539D01*
X789873D01*
Y371684D01*
X788206D01*
X798203Y361688D02*
X801535D01*
X803202Y363354D01*
Y366686D01*
X801535Y368352D01*
X798203D01*
X796537Y366686D01*
Y363354D01*
X798203Y361688D01*
X806534Y368352D02*
Y363354D01*
X808200Y361688D01*
X809866Y363354D01*
X811532Y361688D01*
X813198Y363354D01*
Y368352D01*
X738223Y346109D02*
X731558D01*
X738223Y352773D01*
Y354440D01*
X736556Y356106D01*
X733224D01*
X731558Y354440D01*
X741555Y346109D02*
Y352773D01*
X744887Y356106D01*
X748219Y352773D01*
Y346109D01*
Y351107D01*
X741555D01*
X768213Y354440D02*
X766547Y356106D01*
X763214D01*
X761548Y354440D01*
Y347775D01*
X763214Y346109D01*
X766547D01*
X768213Y347775D01*
Y351107D01*
X764881D01*
X771545Y352773D02*
Y346109D01*
Y349441D01*
X773211Y351107D01*
X774877Y352773D01*
X776544D01*
X786540Y346109D02*
X783208D01*
X781542Y347775D01*
Y351107D01*
X783208Y352773D01*
X786540D01*
X788206Y351107D01*
Y349441D01*
X781542D01*
X791539Y352773D02*
Y347775D01*
X793205Y346109D01*
X798203D01*
Y344443D01*
X796537Y342777D01*
X794871D01*
X798203Y346109D02*
Y352773D01*
X738223Y330530D02*
X731558D01*
X738223Y337195D01*
Y338861D01*
X736556Y340527D01*
X733224D01*
X731558Y338861D01*
X741555Y340527D02*
Y330530D01*
X746553D01*
X748219Y332196D01*
Y333862D01*
X746553Y335529D01*
X741555D01*
X746553D01*
X748219Y337195D01*
Y338861D01*
X746553Y340527D01*
X741555D01*
X761548Y330530D02*
Y340527D01*
X766547D01*
X768213Y338861D01*
Y335529D01*
X766547Y333862D01*
X761548D01*
X764881D02*
X768213Y330530D01*
X776544D02*
X773211D01*
X771545Y332196D01*
Y335529D01*
X773211Y337195D01*
X776544D01*
X778210Y335529D01*
Y333862D01*
X771545D01*
X788206Y340527D02*
Y330530D01*
X783208D01*
X781542Y332196D01*
Y335529D01*
X783208Y337195D01*
X788206D01*
X212810Y44939D02*
X207732Y55096D01*
X202653Y44939D01*
X175097Y622316D02*
Y628980D01*
X165100D01*
Y622316D01*
X170098Y628980D02*
Y625648D01*
X165100Y618983D02*
X171765D01*
Y613985D01*
X170098Y612319D01*
X165100D01*
X175097Y602322D02*
X165100D01*
Y607321D01*
X166766Y608987D01*
X170098D01*
X171765Y607321D01*
Y602322D01*
X165100Y598990D02*
Y593992D01*
X166766Y592325D01*
X168432Y593992D01*
Y597324D01*
X170098Y598990D01*
X171765Y597324D01*
Y592325D01*
X173431Y587327D02*
X171765D01*
Y588993D01*
Y585661D01*
Y587327D01*
X166766D01*
X165100Y585661D01*
Y578996D02*
Y575664D01*
X166766Y573998D01*
X170098D01*
X171765Y575664D01*
Y578996D01*
X170098Y580662D01*
X166766D01*
X165100Y578996D01*
X161768Y570666D02*
X171765D01*
Y565667D01*
X170098Y564001D01*
X166766D01*
X165100Y565667D01*
Y570666D01*
Y560669D02*
Y555671D01*
X166766Y554004D01*
X168432Y555671D01*
Y559003D01*
X170098Y560669D01*
X171765Y559003D01*
Y554004D01*
X178907Y496900D02*
Y493568D01*
Y495234D01*
X168910D01*
Y496900D01*
Y493568D01*
Y481905D02*
Y488570D01*
X175574Y481905D01*
X177241D01*
X178907Y483571D01*
Y486903D01*
X177241Y488570D01*
Y471908D02*
X178907Y473574D01*
Y476907D01*
X177241Y478573D01*
X170576D01*
X168910Y476907D01*
Y473574D01*
X170576Y471908D01*
X178907Y451915D02*
Y458579D01*
X168910D01*
Y451915D01*
X173908Y458579D02*
Y455247D01*
X168910Y448582D02*
X175574D01*
Y443584D01*
X173908Y441918D01*
X168910D01*
X175574Y431921D02*
Y436920D01*
X173908Y438586D01*
X170576D01*
X168910Y436920D01*
Y431921D01*
Y426923D02*
Y423591D01*
X170576Y421924D01*
X173908D01*
X175574Y423591D01*
Y426923D01*
X173908Y428589D01*
X170576D01*
X168910Y426923D01*
X178907Y411928D02*
X168910D01*
Y416926D01*
X170576Y418592D01*
X173908D01*
X175574Y416926D01*
Y411928D01*
X168910Y403597D02*
Y406929D01*
X170576Y408595D01*
X173908D01*
X175574Y406929D01*
Y403597D01*
X173908Y401931D01*
X172242D01*
Y408595D01*
X175574Y398599D02*
X168910D01*
X172242D01*
X173908Y396932D01*
X175574Y395266D01*
Y393600D01*
X168910Y388602D02*
Y383603D01*
X170576Y381937D01*
X172242Y383603D01*
Y386936D01*
X173908Y388602D01*
X175574Y386936D01*
Y381937D01*
X61256Y499359D02*
X67920D01*
X64588Y502691D02*
Y496026D01*
X86910Y499359D02*
X93574D01*
X112056Y504611D02*
Y494614D01*
X117054D01*
X118720Y496280D01*
Y502945D01*
X117054Y504611D01*
X112056D01*
X144120Y502945D02*
X142454Y504611D01*
X139122D01*
X137456Y502945D01*
Y496280D01*
X139122Y494614D01*
X142454D01*
X144120Y496280D01*
X191057Y343230D02*
Y336566D01*
Y339898D01*
X181060D01*
X191057Y333233D02*
X181060D01*
X186058D01*
X187724Y331567D01*
Y328235D01*
X186058Y326569D01*
X181060D01*
Y318238D02*
Y321571D01*
X182726Y323237D01*
X186058D01*
X187724Y321571D01*
Y318238D01*
X186058Y316572D01*
X184392D01*
Y323237D01*
X187724Y313240D02*
X181060D01*
X184392D01*
X186058Y311574D01*
X187724Y309908D01*
Y308242D01*
X181060Y303243D02*
X187724D01*
Y301577D01*
X186058Y299911D01*
X181060D01*
X186058D01*
X187724Y298245D01*
X186058Y296579D01*
X181060D01*
Y293246D02*
Y289914D01*
Y291580D01*
X187724D01*
Y293246D01*
X181060Y284916D02*
Y279917D01*
X182726Y278251D01*
X184392Y279917D01*
Y283249D01*
X186058Y284916D01*
X187724Y283249D01*
Y278251D01*
X189391Y273253D02*
X187724D01*
Y274919D01*
Y271587D01*
Y273253D01*
X182726D01*
X181060Y271587D01*
Y264922D02*
Y261590D01*
X182726Y259924D01*
X186058D01*
X187724Y261590D01*
Y264922D01*
X186058Y266588D01*
X182726D01*
X181060Y264922D01*
X187724Y256591D02*
X181060D01*
X184392D01*
X186058Y254925D01*
X187724Y253259D01*
Y251593D01*
X181060Y246595D02*
Y241596D01*
X182726Y239930D01*
X184392Y241596D01*
Y244928D01*
X186058Y246595D01*
X187724Y244928D01*
Y239930D01*
X408939Y547380D02*
X419096Y552458D01*
X408939Y557537D01*
X898000Y304000D02*
X901332D01*
X899666D01*
Y313997D01*
X898000Y312331D01*
X912995Y304000D02*
X906331D01*
X912995Y310665D01*
Y312331D01*
X911329Y313997D01*
X907997D01*
X906331Y312331D01*
X916328Y313997D02*
Y307332D01*
X919660Y304000D01*
X922992Y307332D01*
Y313997D01*
X1204665Y312997D02*
X1198000D01*
Y307998D01*
X1201332Y309664D01*
X1202998D01*
X1204665Y307998D01*
Y304666D01*
X1202998Y303000D01*
X1199666D01*
X1198000Y304666D01*
X1207997Y312997D02*
Y306332D01*
X1211329Y303000D01*
X1214661Y306332D01*
Y312997D01*
X417348Y432659D02*
Y442656D01*
X422347D01*
X424013Y440989D01*
Y437657D01*
X422347Y435991D01*
X417348D01*
X427345Y442656D02*
Y432659D01*
X430677Y435991D01*
X434009Y432659D01*
Y442656D01*
X437342Y432659D02*
Y442656D01*
X442340D01*
X444006Y440989D01*
Y437657D01*
X442340Y435991D01*
X437342D01*
X440674D02*
X444006Y432659D01*
D49*
X983500Y248000D02*
Y280000D01*
X933500Y248000D02*
Y280000D01*
X195300Y57100D02*
Y184100D01*
X220700D01*
X195300Y57100D02*
X220700D01*
Y184100D01*
X423006Y488962D02*
Y537645D01*
Y488962D02*
Y565162D01*
X473806Y488962D02*
Y565162D01*
X423006D02*
X473806D01*
X423006Y488962D02*
X473806D01*
X918000Y78000D02*
Y83000D01*
Y78000D02*
X998000D01*
Y83000D01*
X918000Y153000D02*
Y158000D01*
X998000D01*
Y153000D02*
Y158000D01*
X1110500Y267500D02*
X1173500D01*
X1110500Y264500D02*
Y267500D01*
X1173500Y264500D02*
Y267500D01*
X1110500Y206500D02*
Y209500D01*
X1173500Y206500D02*
Y209500D01*
X1110500Y206500D02*
X1173500D01*
X153000Y88500D02*
Y111500D01*
X113000Y88500D02*
Y111500D01*
X137000Y88500D02*
X153000D01*
X113000D02*
X129000D01*
X137000Y111500D02*
X153000D01*
X113000D02*
X129000D01*
X157480Y509600D02*
Y667080D01*
Y509600D02*
X163830Y503250D01*
X163830Y358470D02*
Y503250D01*
Y358470D02*
X175260Y347040D01*
Y209880D02*
Y347040D01*
X724408Y137744D02*
Y213944D01*
X699008D02*
X724408D01*
X699008Y137744D02*
Y213944D01*
Y137744D02*
X724408D01*
X870458Y138252D02*
X895858D01*
X870458D02*
Y214452D01*
X895858D01*
Y138252D02*
Y214452D01*
X809498Y137744D02*
Y213944D01*
X784098D02*
X809498D01*
X784098Y137744D02*
Y213944D01*
Y137744D02*
X809498D01*
X52616Y667080D02*
X128816D01*
X52616Y641680D02*
Y667080D01*
Y641680D02*
X128816D01*
Y667080D01*
Y616280D02*
Y641680D01*
X52616Y616280D02*
X128816D01*
X52616D02*
Y641680D01*
X128816D01*
X52616Y616280D02*
X128816D01*
X52616Y590880D02*
Y616280D01*
Y590880D02*
X128816D01*
Y616280D01*
Y565480D02*
Y590880D01*
X52616Y565480D02*
X128816D01*
X52616D02*
Y590880D01*
X128816D01*
X52616Y565480D02*
X128816D01*
X52616Y540080D02*
Y565480D01*
Y540080D02*
X128816D01*
Y565480D01*
X128816Y514680D02*
Y540080D01*
X52616Y514680D02*
X128816D01*
X52616D02*
Y540080D01*
X128816D01*
X154220Y388950D02*
Y414350D01*
X52620Y388950D02*
X154220D01*
X52620Y414350D02*
X154220D01*
X52620Y388950D02*
Y414350D01*
Y439750D01*
X154220D01*
X52620Y414350D02*
X154220D01*
Y439750D01*
Y465150D01*
X52620Y439750D02*
X154220D01*
X52620Y465150D02*
X154220D01*
X52620Y439750D02*
Y465150D01*
Y490550D01*
X154220D01*
X52620Y465150D02*
X154220D01*
Y490550D01*
X969089Y645998D02*
Y671398D01*
X1070689D01*
X969089Y645998D02*
X1070689D01*
Y671398D01*
X1222934Y645744D02*
Y671144D01*
X1121334Y645744D02*
X1222934D01*
X1121334Y671144D02*
X1222934D01*
X1121334Y645744D02*
Y671144D01*
X1273578Y645490D02*
Y670890D01*
X1375178D01*
X1273578Y645490D02*
X1375178D01*
Y670890D01*
X613956Y645998D02*
Y671398D01*
X512356Y645998D02*
X613956D01*
X512356Y671398D02*
X613956D01*
X512356Y645998D02*
Y671398D01*
X664600Y645998D02*
Y671398D01*
X766200D01*
X664600Y645998D02*
X766200D01*
Y671398D01*
X918445Y646252D02*
Y671652D01*
X816845Y646252D02*
X918445D01*
X816845Y671652D02*
X918445D01*
X816845Y646252D02*
Y671652D01*
X397764Y191592D02*
Y242392D01*
X321564Y191592D02*
Y242392D01*
X397764D01*
X321564Y191592D02*
X397764D01*
X349081D02*
X397764D01*
X449364Y352628D02*
Y403428D01*
X576364Y352628D02*
Y403428D01*
X449364Y352628D02*
X576364D01*
X449364Y403428D02*
X576364D01*
X52620Y227660D02*
Y354660D01*
X103420Y227660D02*
Y354660D01*
X52620D02*
X103420D01*
X52620Y227660D02*
X103420D01*
X207518Y251028D02*
Y301828D01*
X385318Y251028D02*
Y301828D01*
X207518Y251028D02*
X385318D01*
X207518Y301828D02*
X385318D01*
X486584Y675324D02*
Y747324D01*
X304584Y675324D02*
Y747324D01*
Y675324D02*
X486584D01*
X304584Y747324D02*
X486584D01*
X122466D02*
X304466D01*
X122466Y675324D02*
X304466D01*
X122466D02*
Y747324D01*
X304466Y675324D02*
Y747324D01*
X815636Y132180D02*
Y157580D01*
X866436D01*
Y132180D02*
Y157580D01*
X815636Y132180D02*
X866436D01*
X729274Y132184D02*
X780074D01*
Y157584D01*
X729274D02*
X780074D01*
X729274Y132184D02*
Y157584D01*
X395478Y301828D02*
X420878D01*
Y251028D02*
Y301828D01*
X395478Y251028D02*
X420878D01*
X395478D02*
Y301828D01*
X227208Y671740D02*
X278008D01*
X227208Y646340D02*
Y671740D01*
Y646340D02*
X278008D01*
Y671740D01*
X407924Y242392D02*
X433324D01*
Y191592D02*
Y242392D01*
X407924Y191592D02*
X433324D01*
X407924D02*
Y242392D01*
X430784Y9728D02*
Y60528D01*
Y9728D02*
X456184D01*
Y60528D01*
X430784D02*
X456184D01*
X452000Y604500D02*
Y639500D01*
X392000Y604500D02*
Y639500D01*
Y604500D02*
X452000D01*
X392000Y639500D02*
X452000D01*
X222600Y540671D02*
X347600D01*
X222600Y415671D02*
X347600D01*
X222600D02*
Y540671D01*
X347600Y415671D02*
Y540671D01*
X292982Y108736D02*
X351982D01*
X292982Y167736D02*
X351982D01*
X292982Y108736D02*
Y167736D01*
X351982Y108736D02*
Y167736D01*
X1344800Y126040D02*
Y174040D01*
X1196800Y126040D02*
X1344800D01*
X1196800D02*
Y174040D01*
X1344800D01*
X1019000Y126040D02*
X1167000D01*
Y174040D01*
X1019000D02*
X1167000D01*
X1019000Y126040D02*
Y174040D01*
D52*
X1150997Y363139D02*
X1150950Y363186D01*
X1150902Y363139D01*
X1150950Y363091D01*
X1150997Y363139D01*
X119298Y150595D02*
X119250Y150548D01*
X119298Y150500D01*
X119345Y150548D01*
X119298Y150595D01*
D53*
X340600Y425670D02*
G03*
X340600Y425670I-3000J0D01*
G01*
X305982Y118736D02*
G03*
X305982Y118736I-3000J0D01*
G01*
D74*
X932200Y236750D02*
G03*
X932200Y236750I-1250J0D01*
G01*
X448750Y453000D02*
G03*
X448750Y453000I-1250J0D01*
G01*
X361850Y411170D02*
G03*
X361850Y411170I-1250J0D01*
G01*
X287482Y96736D02*
G03*
X287482Y96736I-1250J0D01*
G01*
D75*
X431541Y373710D02*
G03*
X427477Y373710I-2032J4064D01*
G01*
X1249018Y432532D02*
Y633192D01*
X1393798Y432532D02*
Y633192D01*
X1371954D02*
X1393798D01*
X1249018Y432532D02*
X1393798D01*
X1249018Y633192D02*
X1270608D01*
X791268Y633192D02*
X812858D01*
X791268Y432532D02*
X936048D01*
X914204Y633192D02*
X936048D01*
Y432532D02*
Y633192D01*
X791268Y432532D02*
Y633192D01*
X486102Y432532D02*
Y633192D01*
X630882Y432532D02*
Y633192D01*
X609038D02*
X630882D01*
X486102Y432532D02*
X630882D01*
X486102Y633192D02*
X507692D01*
X1096434Y633192D02*
X1118025D01*
X1096434Y432532D02*
X1241215D01*
X1219370Y633192D02*
X1241215D01*
Y432532D02*
Y633192D01*
X1096434Y432532D02*
Y633192D01*
X943851Y432532D02*
Y633192D01*
X1088631Y432532D02*
Y633192D01*
X1066787D02*
X1088631D01*
X943851Y432532D02*
X1088631D01*
X943851Y633192D02*
X965441D01*
X638685Y633192D02*
X660275D01*
X638685Y432532D02*
X783465D01*
X761621Y633192D02*
X783465D01*
Y432532D02*
Y633192D01*
X638685Y432532D02*
Y633192D01*
X431541Y373710D02*
X433827Y367868D01*
X435351Y368630D01*
X438399Y366598D01*
X440685Y368884D01*
X438399Y372186D02*
X440685Y368884D01*
X438399Y372186D02*
X439923Y375488D01*
X443479Y376250D01*
Y379552D01*
X439669Y380314D02*
X443479Y379552D01*
X438399Y383362D02*
X439669Y380314D01*
X438399Y383362D02*
X440685Y386664D01*
X438399Y388950D02*
X440685Y386664D01*
X434843D02*
X438399Y388950D01*
X431795Y387934D02*
X434843Y386664D01*
X431033Y391998D02*
X431795Y387934D01*
X427731Y391998D02*
X431033D01*
X426969Y387934D02*
X427731Y391998D01*
X423921Y386664D02*
X426969Y387934D01*
X420619Y388950D02*
X423921Y386664D01*
X418333D02*
X420619Y388950D01*
X418333Y386664D02*
X420619Y383362D01*
X419095Y380060D02*
X420619Y383362D01*
X415285Y379552D02*
X419095Y380060D01*
X415285Y376250D02*
Y379552D01*
Y376250D02*
X419095Y375488D01*
X420365Y372186D01*
X418333Y368884D02*
X420365Y372186D01*
X418333Y368884D02*
X420619Y366598D01*
X423667Y368630D01*
X424937Y367868D01*
X427477Y373710D01*
D76*
X930380Y29501D02*
G03*
X989372Y29501I29496J9499D01*
G01*
Y48499D02*
G03*
X930380Y48499I-29496J-9499D01*
G01*
X955634Y332501D02*
G03*
X1014626Y332501I29496J9499D01*
G01*
Y351499D02*
G03*
X955634Y351499I-29496J-9499D01*
G01*
X1325723Y617722D02*
G03*
X1325723Y558730I9499J-29496D01*
G01*
X1344721D02*
G03*
X1344721Y617722I-9499J29496D01*
G01*
X1191575Y558730D02*
G03*
X1191575Y617722I-9499J29496D01*
G01*
X1172577D02*
G03*
X1172577Y558730I9499J-29496D01*
G01*
X1020177Y617722D02*
G03*
X1020177Y558730I9499J-29496D01*
G01*
X1039175D02*
G03*
X1039175Y617722I-9499J29496D01*
G01*
X887061Y558730D02*
G03*
X887061Y617722I-9499J29496D01*
G01*
X868063D02*
G03*
X868063Y558730I9499J-29496D01*
G01*
X716155Y617722D02*
G03*
X716155Y558730I9499J-29496D01*
G01*
X735153D02*
G03*
X735153Y617722I-9499J29496D01*
G01*
X582234Y558730D02*
G03*
X582234Y617722I-9499J29496D01*
G01*
X563237D02*
G03*
X563237Y558730I9499J-29496D01*
G01*
X1204913Y284230D02*
G03*
X1204913Y225238I9499J-29496D01*
G01*
X1223911D02*
G03*
X1223911Y284230I-9499J29496D01*
G01*
X1055449Y357607D02*
G03*
X1055449Y298614I9499J-29496D01*
G01*
X1074447D02*
G03*
X1074447Y357607I-9499J29496D01*
G01*
X944382Y6488D02*
X992388D01*
X927618Y23252D02*
X944382Y6488D01*
X927618Y54494D02*
X944382Y71258D01*
X992388D01*
Y6488D02*
Y29348D01*
X944382Y6488D02*
X992388D01*
X927618Y23252D02*
X944382Y6488D01*
X927618Y23252D02*
Y29348D01*
Y48398D02*
Y54494D01*
X944382Y71258D01*
X992388D01*
Y48398D02*
Y71258D01*
X952618Y309742D02*
Y332602D01*
Y309742D02*
X1000624D01*
X1017388Y326506D01*
Y332602D01*
Y351652D02*
Y357748D01*
X1000624Y374512D02*
X1017388Y357748D01*
X952618Y374512D02*
X1000624D01*
X952618Y351652D02*
Y374512D01*
Y309742D02*
X1000624D01*
X1017388Y326506D01*
X1000624Y374512D02*
X1017388Y357748D01*
X952618Y374512D02*
X1000624D01*
X1302710Y555714D02*
Y603720D01*
X1319474Y620484D01*
X1350716D02*
X1367480Y603720D01*
Y555714D02*
Y603720D01*
X1302710Y555714D02*
X1325570D01*
X1302710D02*
Y603720D01*
X1319474Y620484D01*
X1325570D01*
X1344620D02*
X1350716D01*
X1367480Y603720D01*
Y555714D02*
Y603720D01*
X1344620Y555714D02*
X1367480D01*
X1191474D02*
X1214334D01*
Y603720D01*
X1197570Y620484D02*
X1214334Y603720D01*
X1191474Y620484D02*
X1197570D01*
X1166328D02*
X1172424D01*
X1149564Y603720D02*
X1166328Y620484D01*
X1149564Y555714D02*
Y603720D01*
Y555714D02*
X1172424D01*
X1214334D02*
Y603720D01*
X1197570Y620484D02*
X1214334Y603720D01*
X1149564D02*
X1166328Y620484D01*
X1149564Y555714D02*
Y603720D01*
X997164Y555714D02*
Y603720D01*
X1013928Y620484D01*
X1045170D02*
X1061934Y603720D01*
Y555714D02*
Y603720D01*
X997164Y555714D02*
X1020024D01*
X997164D02*
Y603720D01*
X1013928Y620484D01*
X1020024D01*
X1039074D02*
X1045170D01*
X1061934Y603720D01*
Y555714D02*
Y603720D01*
X1039074Y555714D02*
X1061934D01*
X886960D02*
X909820D01*
Y603720D01*
X893056Y620484D02*
X909820Y603720D01*
X886960Y620484D02*
X893056D01*
X861814D02*
X867910D01*
X845050Y603720D02*
X861814Y620484D01*
X845050Y555714D02*
Y603720D01*
Y555714D02*
X867910D01*
X909820D02*
Y603720D01*
X893056Y620484D02*
X909820Y603720D01*
X845050D02*
X861814Y620484D01*
X845050Y555714D02*
Y603720D01*
X693142Y555714D02*
Y603720D01*
X709906Y620484D01*
X741148D02*
X757912Y603720D01*
Y555714D02*
Y603720D01*
X693142Y555714D02*
X716002D01*
X693142D02*
Y603720D01*
X709906Y620484D01*
X716002D01*
X735052D02*
X741148D01*
X757912Y603720D01*
Y555714D02*
Y603720D01*
X735052Y555714D02*
X757912D01*
X582134D02*
X604994D01*
Y603720D01*
X588230Y620484D02*
X604994Y603720D01*
X582134Y620484D02*
X588230D01*
X556988D02*
X563084D01*
X540224Y603720D02*
X556988Y620484D01*
X540224Y555714D02*
Y603720D01*
Y555714D02*
X563084D01*
X604994D02*
Y603720D01*
X588230Y620484D02*
X604994Y603720D01*
X540224D02*
X556988Y620484D01*
X540224Y555714D02*
Y603720D01*
X1181900Y222222D02*
Y270228D01*
X1198664Y286992D01*
X1229906D02*
X1246670Y270228D01*
Y222222D02*
Y270228D01*
X1181900Y222222D02*
X1204760D01*
X1181900D02*
Y270228D01*
X1198664Y286992D01*
X1204760D01*
X1223810D02*
X1229906D01*
X1246670Y270228D01*
Y222222D02*
Y270228D01*
X1223810Y222222D02*
X1246670D01*
X1032690Y360622D02*
X1055550D01*
X1032690Y312616D02*
Y360622D01*
Y312616D02*
X1049454Y295852D01*
X1055550D01*
X1074600D02*
X1080696D01*
X1097460Y312616D01*
Y360622D01*
X1074600D02*
X1097460D01*
X1032690Y312616D02*
Y360622D01*
Y312616D02*
X1049454Y295852D01*
X1080696D02*
X1097460Y312616D01*
Y360622D01*
D77*
X279000Y34000D02*
Y45000D01*
X281000Y47000D01*
X296000D01*
X288000Y608000D02*
X303000D01*
X286000Y606000D02*
X288000Y608000D01*
X286000Y595000D02*
Y606000D01*
X431904Y480002D02*
X444096D01*
X444750Y479348D01*
Y467750D02*
Y479348D01*
X431250Y468000D02*
Y479348D01*
X431904Y480002D01*
X431250Y448652D02*
X431904Y447998D01*
X431250Y448652D02*
Y460000D01*
X444750Y448652D02*
Y460000D01*
X444096Y447998D02*
X444750Y448652D01*
X431904Y447998D02*
X444096D01*
X1180904Y322002D02*
X1193096D01*
X1193750Y321348D01*
Y309750D02*
Y321348D01*
X1180250Y310000D02*
Y321348D01*
X1180904Y322002D01*
X1180250Y290652D02*
X1180904Y289998D01*
X1180250Y290652D02*
Y302000D01*
X1193750Y290652D02*
Y302000D01*
X1193096Y289998D02*
X1193750Y290652D01*
X1180904Y289998D02*
X1193096D01*
X418260Y448990D02*
X427740D01*
X426500Y447250D02*
X428240Y448990D01*
X419500Y447250D02*
X426500D01*
X429750Y468500D02*
Y479500D01*
X416250Y468500D02*
Y479500D01*
X429750D01*
Y450500D02*
Y459500D01*
X416250Y450500D02*
Y459500D01*
Y450500D02*
X418550Y448200D01*
X418000Y448750D02*
X419500Y447250D01*
X418550Y448200D02*
X427450D01*
X429750Y450500D01*
X1167142Y291615D02*
X1176622D01*
X1175382Y289875D02*
X1177122Y291615D01*
X1168382Y289875D02*
X1175382D01*
X1178632Y311125D02*
Y322125D01*
X1165132Y311125D02*
Y322125D01*
X1178632D01*
Y293125D02*
Y302125D01*
X1165132Y293125D02*
Y302125D01*
Y293125D02*
X1167432Y290825D01*
X1166882Y291375D02*
X1168382Y289875D01*
X1167432Y290825D02*
X1176332D01*
X1178632Y293125D01*
X175904Y55998D02*
X188096D01*
X175250Y56652D02*
X175904Y55998D01*
X175250Y56652D02*
Y64000D01*
X188750Y56652D02*
Y64000D01*
X188096Y55998D02*
X188750Y56652D01*
X188096Y80002D02*
X188750Y79348D01*
Y72000D02*
Y79348D01*
X175250Y72000D02*
Y79348D01*
X175904Y80002D01*
X188096D01*
X935500Y334000D02*
Y347000D01*
X904500Y334000D02*
Y347000D01*
Y334000D02*
X935500D01*
X904500Y347000D02*
X935500D01*
X969998Y209904D02*
Y222096D01*
X970652Y222750D01*
X982250D01*
X970652Y209250D02*
X982000D01*
X969998Y209904D02*
X970652Y209250D01*
X1001348D02*
X1002002Y209904D01*
X990000Y209250D02*
X1001348D01*
X990000Y222750D02*
X1001348D01*
X1002002Y222096D01*
Y209904D02*
Y222096D01*
X903998Y349404D02*
Y361596D01*
X904652Y362250D01*
X916250D01*
X904652Y348750D02*
X916000D01*
X903998Y349404D02*
X904652Y348750D01*
X935348D02*
X936002Y349404D01*
X924000Y348750D02*
X935348D01*
X924000Y362250D02*
X935348D01*
X936002Y361596D01*
Y349404D02*
Y361596D01*
X935500Y319000D02*
Y332000D01*
X904500Y319000D02*
Y332000D01*
Y319000D02*
X935500D01*
X904500Y332000D02*
X935500D01*
X391507Y136567D02*
Y146047D01*
X389767Y137807D02*
X391507Y136067D01*
X389767Y137807D02*
Y144807D01*
X411017Y134557D02*
X422017D01*
X411017Y148057D02*
X422017D01*
Y134557D02*
Y148057D01*
X393017Y134557D02*
X402017D01*
X393017Y148057D02*
X402017D01*
X390717Y145757D02*
X393017Y148057D01*
X389767Y144807D02*
X391267Y146307D01*
X390717Y136857D02*
Y145757D01*
Y136857D02*
X393017Y134557D01*
X391507Y119367D02*
Y128847D01*
X389767Y120607D02*
X391507Y118867D01*
X389767Y120607D02*
Y127607D01*
X411017Y117357D02*
X422017D01*
X411017Y130857D02*
X422017D01*
Y117357D02*
Y130857D01*
X393017Y117357D02*
X402017D01*
X393017Y130857D02*
X402017D01*
X390717Y128557D02*
X393017Y130857D01*
X389767Y127607D02*
X391267Y129107D01*
X390717Y119657D02*
Y128557D01*
Y119657D02*
X393017Y117357D01*
X160260Y85490D02*
X169740D01*
X168500Y83750D02*
X170240Y85490D01*
X161500Y83750D02*
X168500D01*
X171750Y105000D02*
Y116000D01*
X158250Y105000D02*
Y116000D01*
X171750D01*
Y87000D02*
Y96000D01*
X158250Y87000D02*
Y96000D01*
Y87000D02*
X160550Y84700D01*
X160000Y85250D02*
X161500Y83750D01*
X160550Y84700D02*
X169450D01*
X171750Y87000D01*
X340990Y650260D02*
Y659740D01*
X339250Y651500D02*
X340990Y649760D01*
X339250Y651500D02*
Y658500D01*
X360500Y648250D02*
X371500D01*
X360500Y661750D02*
X371500D01*
Y648250D02*
Y661750D01*
X342500Y648250D02*
X351500D01*
X342500Y661750D02*
X351500D01*
X340200Y659450D02*
X342500Y661750D01*
X339250Y658500D02*
X340750Y660000D01*
X340200Y650550D02*
Y659450D01*
Y650550D02*
X342500Y648250D01*
X853050Y261420D02*
X862530D01*
X861290Y259680D02*
X863030Y261420D01*
X854290Y259680D02*
X861290D01*
X864540Y280930D02*
Y291930D01*
X851040Y280930D02*
Y291930D01*
X864540D01*
Y262930D02*
Y271930D01*
X851040Y262930D02*
Y271930D01*
Y262930D02*
X853340Y260630D01*
X852790Y261180D02*
X854290Y259680D01*
X853340Y260630D02*
X862240D01*
X864540Y262930D01*
X775042Y261420D02*
X784522D01*
X783282Y259680D02*
X785022Y261420D01*
X776282Y259680D02*
X783282D01*
X786532Y280930D02*
Y291930D01*
X773032Y280930D02*
Y291930D01*
X786532D01*
Y262930D02*
Y271930D01*
X773032Y262930D02*
Y271930D01*
Y262930D02*
X775332Y260630D01*
X774782Y261180D02*
X776282Y259680D01*
X775332Y260630D02*
X784232D01*
X786532Y262930D01*
X685155Y261420D02*
X694635D01*
X693395Y259680D02*
X695135Y261420D01*
X686395Y259680D02*
X693395D01*
X696645Y280930D02*
Y291930D01*
X683145Y280930D02*
Y291930D01*
X696645D01*
Y262930D02*
Y271930D01*
X683145Y262930D02*
Y271930D01*
Y262930D02*
X685445Y260630D01*
X684895Y261180D02*
X686395Y259680D01*
X685445Y260630D02*
X694345D01*
X696645Y262930D01*
X602260Y261420D02*
X611740D01*
X610500Y259680D02*
X612240Y261420D01*
X603500Y259680D02*
X610500D01*
X613750Y280930D02*
Y291930D01*
X600250Y280930D02*
Y291930D01*
X613750D01*
Y262930D02*
Y271930D01*
X600250Y262930D02*
Y271930D01*
Y262930D02*
X602550Y260630D01*
X602000Y261180D02*
X603500Y259680D01*
X602550Y260630D02*
X611450D01*
X613750Y262930D01*
X522260Y261420D02*
X531740D01*
X530500Y259680D02*
X532240Y261420D01*
X523500Y259680D02*
X530500D01*
X533750Y280930D02*
Y291930D01*
X520250Y280930D02*
Y291930D01*
X533750D01*
Y262930D02*
Y271930D01*
X520250Y262930D02*
Y271930D01*
Y262930D02*
X522550Y260630D01*
X522000Y261180D02*
X523500Y259680D01*
X522550Y260630D02*
X531450D01*
X533750Y262930D01*
X1300260Y346990D02*
X1309740D01*
X1308500Y345250D02*
X1310240Y346990D01*
X1301500Y345250D02*
X1308500D01*
X1311750Y366500D02*
Y377500D01*
X1298250Y366500D02*
Y377500D01*
X1311750D01*
Y348500D02*
Y357500D01*
X1298250Y348500D02*
Y357500D01*
Y348500D02*
X1300550Y346200D01*
X1300000Y346750D02*
X1301500Y345250D01*
X1300550Y346200D02*
X1309450D01*
X1311750Y348500D01*
X109262Y231724D02*
Y243916D01*
Y231724D02*
X109916Y231070D01*
X121264D01*
X109916Y244570D02*
X121264D01*
X109262Y243916D02*
X109916Y244570D01*
X140612D02*
X141266Y243916D01*
X129264Y244570D02*
X140612D01*
X129014Y231070D02*
X140612D01*
X141266Y231724D01*
Y243916D01*
X274498Y232904D02*
Y245096D01*
Y232904D02*
X275152Y232250D01*
X286500D01*
X275152Y245750D02*
X286500D01*
X274498Y245096D02*
X275152Y245750D01*
X305848D02*
X306502Y245096D01*
X294500Y245750D02*
X305848D01*
X294250Y232250D02*
X305848D01*
X306502Y232904D01*
Y245096D01*
X283972Y54178D02*
Y66370D01*
Y54178D02*
X284626Y53524D01*
X295974D01*
X284626Y67024D02*
X295974D01*
X283972Y66370D02*
X284626Y67024D01*
X315322D02*
X315976Y66370D01*
X303974Y67024D02*
X315322D01*
X303724Y53524D02*
X315322D01*
X315976Y54178D01*
Y66370D01*
X1321516Y459754D02*
Y471946D01*
Y459754D02*
X1322170Y459100D01*
X1333518D01*
X1322170Y472600D02*
X1333518D01*
X1321516Y471946D02*
X1322170Y472600D01*
X1352866D02*
X1353520Y471946D01*
X1341518Y472600D02*
X1352866D01*
X1341268Y459100D02*
X1352866D01*
X1353520Y459754D01*
Y471946D01*
X1329370Y517824D02*
X1341562D01*
X1328716Y517170D02*
X1329370Y517824D01*
X1328716Y505822D02*
Y517170D01*
X1342216Y505822D02*
Y517170D01*
X1341562Y517824D02*
X1342216Y517170D01*
X1341562Y485820D02*
X1342216Y486474D01*
Y497822D01*
X1328716Y486474D02*
Y498072D01*
Y486474D02*
X1329370Y485820D01*
X1341562D01*
X1266904Y378002D02*
X1279096D01*
X1266250Y377348D02*
X1266904Y378002D01*
X1266250Y366000D02*
Y377348D01*
X1279750Y366000D02*
Y377348D01*
X1279096Y378002D02*
X1279750Y377348D01*
X1279096Y345998D02*
X1279750Y346652D01*
Y358000D01*
X1266250Y346652D02*
Y358251D01*
Y346652D02*
X1266904Y345998D01*
X1279096D01*
X109262Y353644D02*
Y365836D01*
Y353644D02*
X109916Y352990D01*
X121264D01*
X109916Y366490D02*
X121264D01*
X109262Y365836D02*
X109916Y366490D01*
X140612D02*
X141266Y365836D01*
X129264Y366490D02*
X140612D01*
X129014Y352990D02*
X140612D01*
X141266Y353644D01*
Y365836D01*
X109262Y323164D02*
Y335356D01*
Y323164D02*
X109916Y322510D01*
X121264D01*
X109916Y336010D02*
X121264D01*
X109262Y335356D02*
X109916Y336010D01*
X140612D02*
X141266Y335356D01*
X129264Y336010D02*
X140612D01*
X129014Y322510D02*
X140612D01*
X141266Y323164D01*
Y335356D01*
X109262Y292684D02*
Y304876D01*
Y292684D02*
X109916Y292030D01*
X121264D01*
X109916Y305530D02*
X121264D01*
X109262Y304876D02*
X109916Y305530D01*
X140612D02*
X141266Y304876D01*
X129264Y305530D02*
X140612D01*
X129014Y292030D02*
X140612D01*
X141266Y292684D01*
Y304876D01*
X109262Y262204D02*
Y274396D01*
Y262204D02*
X109916Y261550D01*
X121264D01*
X109916Y275050D02*
X121264D01*
X109262Y274396D02*
X109916Y275050D01*
X140612D02*
X141266Y274396D01*
X129264Y275050D02*
X140612D01*
X129014Y261550D02*
X140612D01*
X141266Y262204D01*
Y274396D01*
X1282904Y345998D02*
X1295096D01*
X1295750Y346652D01*
Y358000D01*
X1282250Y346652D02*
Y358000D01*
Y346652D02*
X1282904Y345998D01*
X1282250Y377348D02*
X1282904Y378002D01*
X1282250Y366000D02*
Y377348D01*
X1295750Y365750D02*
Y377348D01*
X1295096Y378002D02*
X1295750Y377348D01*
X1282904Y378002D02*
X1295096D01*
X1250904Y378002D02*
X1263096D01*
X1250250Y377348D02*
X1250904Y378002D01*
X1250250Y366000D02*
Y377348D01*
X1263750Y366000D02*
Y377348D01*
X1263096Y378002D02*
X1263750Y377348D01*
X1263096Y345998D02*
X1263750Y346652D01*
Y358000D01*
X1250250Y346652D02*
Y358251D01*
Y346652D02*
X1250904Y345998D01*
X1263096D01*
X1176110Y518626D02*
X1188302D01*
X1175456Y517972D02*
X1176110Y518626D01*
X1175456Y506624D02*
Y517972D01*
X1188956Y506624D02*
Y517972D01*
X1188302Y518626D02*
X1188956Y517972D01*
X1188302Y486622D02*
X1188956Y487276D01*
Y498624D01*
X1175456Y487276D02*
Y498874D01*
Y487276D02*
X1176110Y486622D01*
X1188302D01*
X1168614Y460218D02*
Y472410D01*
Y460218D02*
X1169268Y459564D01*
X1180616D01*
X1169268Y473064D02*
X1180616D01*
X1168614Y472410D02*
X1169268Y473064D01*
X1199964D02*
X1200618Y472410D01*
X1188616Y473064D02*
X1199964D01*
X1188366Y459564D02*
X1199964D01*
X1200618Y460218D01*
Y472410D01*
X1023834Y518384D02*
X1036026D01*
X1023180Y517730D02*
X1023834Y518384D01*
X1023180Y506382D02*
Y517730D01*
X1036680Y506382D02*
Y517730D01*
X1036026Y518384D02*
X1036680Y517730D01*
X1036026Y486380D02*
X1036680Y487034D01*
Y498382D01*
X1023180Y487034D02*
Y498632D01*
Y487034D02*
X1023834Y486380D01*
X1036026D01*
X1016722Y459710D02*
Y471902D01*
Y459710D02*
X1017376Y459056D01*
X1028724D01*
X1017376Y472556D02*
X1028724D01*
X1016722Y471902D02*
X1017376Y472556D01*
X1048072D02*
X1048726Y471902D01*
X1036724Y472556D02*
X1048072D01*
X1036474Y459056D02*
X1048072D01*
X1048726Y459710D01*
Y471902D01*
X871688Y518384D02*
X883880D01*
X871034Y517730D02*
X871688Y518384D01*
X871034Y506382D02*
Y517730D01*
X884534Y506382D02*
Y517730D01*
X883880Y518384D02*
X884534Y517730D01*
X883880Y486380D02*
X884534Y487034D01*
Y498382D01*
X871034Y487034D02*
Y498632D01*
Y487034D02*
X871688Y486380D01*
X883880D01*
X864576Y459964D02*
Y472156D01*
Y459964D02*
X865230Y459310D01*
X876578D01*
X865230Y472810D02*
X876578D01*
X864576Y472156D02*
X865230Y472810D01*
X895926D02*
X896580Y472156D01*
X884578Y472810D02*
X895926D01*
X884328Y459310D02*
X895926D01*
X896580Y459964D01*
Y472156D01*
X720050Y518384D02*
X732242D01*
X719396Y517730D02*
X720050Y518384D01*
X719396Y506382D02*
Y517730D01*
X732896Y506382D02*
Y517730D01*
X732242Y518384D02*
X732896Y517730D01*
X732242Y486380D02*
X732896Y487034D01*
Y498382D01*
X719396Y487034D02*
Y498632D01*
Y487034D02*
X720050Y486380D01*
X732242D01*
X714208Y460980D02*
Y473172D01*
Y460980D02*
X714862Y460326D01*
X726210D01*
X714862Y473826D02*
X726210D01*
X714208Y473172D02*
X714862Y473826D01*
X745558D02*
X746212Y473172D01*
X734210Y473826D02*
X745558D01*
X733960Y460326D02*
X745558D01*
X746212Y460980D01*
Y473172D01*
X566634Y519146D02*
X578826D01*
X565980Y518492D02*
X566634Y519146D01*
X565980Y507144D02*
Y518492D01*
X579480Y507144D02*
Y518492D01*
X578826Y519146D02*
X579480Y518492D01*
X578826Y487142D02*
X579480Y487796D01*
Y499144D01*
X565980Y487796D02*
Y499394D01*
Y487796D02*
X566634Y487142D01*
X578826D01*
X561554Y460980D02*
Y473172D01*
Y460980D02*
X562208Y460326D01*
X573556D01*
X562208Y473826D02*
X573556D01*
X561554Y473172D02*
X562208Y473826D01*
X592904D02*
X593558Y473172D01*
X581556Y473826D02*
X592904D01*
X581306Y460326D02*
X592904D01*
X593558Y460980D01*
Y473172D01*
X389834Y66412D02*
Y78604D01*
Y66412D02*
X390488Y65758D01*
X401836D01*
X390488Y79258D02*
X401836D01*
X389834Y78604D02*
X390488Y79258D01*
X421184D02*
X421838Y78604D01*
X409836Y79258D02*
X421184D01*
X409586Y65758D02*
X421184D01*
X421838Y66412D01*
Y78604D01*
X389834Y49212D02*
Y61405D01*
Y49212D02*
X390488Y48559D01*
X401836D01*
X390488Y62058D02*
X401836D01*
X389834Y61405D02*
X390488Y62058D01*
X421184D02*
X421838Y61405D01*
X409836Y62058D02*
X421184D01*
X409586Y48559D02*
X421184D01*
X421838Y49212D01*
Y61405D01*
X389834Y100812D02*
Y113004D01*
Y100812D02*
X390488Y100158D01*
X401836D01*
X390488Y113658D02*
X401836D01*
X389834Y113004D02*
X390488Y113658D01*
X421184D02*
X421838Y113004D01*
X409836Y113658D02*
X421184D01*
X409586Y100158D02*
X421184D01*
X421838Y100812D01*
Y113004D01*
X389834Y83612D02*
Y95804D01*
Y83612D02*
X390488Y82958D01*
X401836D01*
X390488Y96458D02*
X401836D01*
X389834Y95804D02*
X390488Y96458D01*
X421184D02*
X421838Y95804D01*
X409836Y96458D02*
X421184D01*
X409586Y82958D02*
X421184D01*
X421838Y83612D01*
Y95804D01*
X389890Y152411D02*
Y164603D01*
Y152411D02*
X390544Y151756D01*
X401892D01*
X390544Y165257D02*
X401892D01*
X389890Y164603D02*
X390544Y165257D01*
X421240D02*
X421894Y164603D01*
X409892Y165257D02*
X421240D01*
X409642Y151756D02*
X421240D01*
X421894Y152411D01*
Y164603D01*
X372002Y632904D02*
Y645096D01*
X371348Y645750D02*
X372002Y645096D01*
X360000Y645750D02*
X371348D01*
X360000Y632250D02*
X371348D01*
X372002Y632904D01*
X339998D02*
X340652Y632250D01*
X352000D01*
X340652Y645750D02*
X352250D01*
X339998Y645096D02*
X340652Y645750D01*
X339998Y632904D02*
Y645096D01*
X274498Y212404D02*
Y224596D01*
Y212404D02*
X275152Y211750D01*
X286500D01*
X275152Y225250D02*
X286500D01*
X274498Y224596D02*
X275152Y225250D01*
X305848D02*
X306502Y224596D01*
X294500Y225250D02*
X305848D01*
X294250Y211750D02*
X305848D01*
X306502Y212404D01*
Y224596D01*
X371002Y573904D02*
Y586096D01*
X370348Y586750D02*
X371002Y586096D01*
X359000Y586750D02*
X370348D01*
X359000Y573250D02*
X370348D01*
X371002Y573904D01*
X338998D02*
X339652Y573250D01*
X351000D01*
X339652Y586750D02*
X351250D01*
X338998Y586096D02*
X339652Y586750D01*
X338998Y573904D02*
Y586096D01*
X260984Y133317D02*
Y145509D01*
X260330Y146164D02*
X260984Y145509D01*
X248982Y146164D02*
X260330D01*
X248982Y132663D02*
X260330D01*
X260984Y133317D01*
X228980D02*
X229634Y132663D01*
X240982D01*
X229634Y146164D02*
X241232D01*
X228980Y145509D02*
X229634Y146164D01*
X228980Y133317D02*
Y145509D01*
X260984Y114858D02*
Y127050D01*
X260330Y127704D02*
X260984Y127050D01*
X248982Y127704D02*
X260330D01*
X248982Y114204D02*
X260330D01*
X260984Y114858D01*
X228980D02*
X229634Y114204D01*
X240982D01*
X229634Y127704D02*
X241232D01*
X228980Y127050D02*
X229634Y127704D01*
X228980Y114858D02*
Y127050D01*
X1104302Y326466D02*
X1116494D01*
X1117148Y327120D01*
Y338468D01*
X1103648Y327120D02*
Y338468D01*
Y327120D02*
X1104302Y326466D01*
X1103648Y357816D02*
X1104302Y358470D01*
X1103648Y346468D02*
Y357816D01*
X1117148Y346218D02*
Y357816D01*
X1116494Y358470D02*
X1117148Y357816D01*
X1104302Y358470D02*
X1116494D01*
X1181138Y356438D02*
X1193330D01*
X1180484Y355784D02*
X1181138Y356438D01*
X1180484Y344436D02*
Y355784D01*
X1193984Y344436D02*
Y355784D01*
X1193330Y356438D02*
X1193984Y355784D01*
X1193330Y324434D02*
X1193984Y325088D01*
Y336436D01*
X1180484Y325088D02*
Y336686D01*
Y325088D02*
X1181138Y324434D01*
X1193330D01*
X175904Y83998D02*
X188096D01*
X188750Y84652D01*
Y96000D01*
X175250Y84652D02*
Y96000D01*
Y84652D02*
X175904Y83998D01*
X175250Y115348D02*
X175904Y116002D01*
X175250Y104000D02*
Y115348D01*
X188750Y103750D02*
Y115348D01*
X188096Y116002D02*
X188750Y115348D01*
X175904Y116002D02*
X188096D01*
X272502Y232904D02*
Y245096D01*
X271848Y245750D02*
X272502Y245096D01*
X260500Y245750D02*
X271848D01*
X260500Y232250D02*
X271848D01*
X272502Y232904D01*
X240498D02*
X241152Y232250D01*
X252500D01*
X241152Y245750D02*
X252750D01*
X240498Y245096D02*
X241152Y245750D01*
X240498Y232904D02*
Y245096D01*
X290998Y624904D02*
Y637096D01*
Y624904D02*
X291652Y624250D01*
X303000D01*
X291652Y637750D02*
X303000D01*
X290998Y637096D02*
X291652Y637750D01*
X322348D02*
X323002Y637096D01*
X311000Y637750D02*
X322348D01*
X310750Y624250D02*
X322348D01*
X323002Y624904D01*
Y637096D01*
X342500Y609500D02*
Y622500D01*
X311500Y609500D02*
Y622500D01*
Y609500D02*
X342500D01*
X311500Y622500D02*
X342500D01*
X1165382Y355936D02*
X1178382D01*
X1165382Y324936D02*
X1178382D01*
Y355936D01*
X1165382Y324936D02*
Y355936D01*
X390392Y168956D02*
Y181956D01*
X421392Y168956D02*
Y181956D01*
X390392D02*
X421392D01*
X390392Y168956D02*
X421392D01*
X319056Y53663D02*
Y66662D01*
X350056Y53663D02*
Y66662D01*
X319056D02*
X350056D01*
X319056Y53663D02*
X350056D01*
X280056D02*
Y66662D01*
X249056Y53663D02*
Y66662D01*
Y53663D02*
X280056D01*
X249056Y66662D02*
X280056D01*
X350060Y68760D02*
Y81760D01*
X319060Y68760D02*
Y81760D01*
Y68760D02*
X350060D01*
X319060Y81760D02*
X350060D01*
X229376Y151583D02*
Y164582D01*
X260376Y151583D02*
Y164582D01*
X229376D02*
X260376D01*
X229376Y151583D02*
X260376D01*
X175500Y157500D02*
X188500D01*
X175500Y126500D02*
X188500D01*
Y157500D01*
X175500Y126500D02*
Y157500D01*
X370500Y588500D02*
Y601500D01*
X339500Y588500D02*
Y601500D01*
Y588500D02*
X370500D01*
X339500Y601500D02*
X370500D01*
X232500Y373500D02*
Y386500D01*
X263500Y373500D02*
Y386500D01*
X232500D02*
X263500D01*
X232500Y373500D02*
X263500D01*
X376500Y445500D02*
X389500D01*
X376500Y476500D02*
X389500D01*
X376500Y445500D02*
Y476500D01*
X389500Y445500D02*
Y476500D01*
X182500Y500500D02*
X195500D01*
X182500Y469500D02*
X195500D01*
Y500500D01*
X182500Y469500D02*
Y500500D01*
X354706Y386816D02*
Y399816D01*
X385706Y386816D02*
Y399816D01*
X354706D02*
X385706D01*
X354706Y386816D02*
X385706D01*
X1103390Y291408D02*
X1116390D01*
X1103390Y322408D02*
X1116390D01*
X1103390Y291408D02*
Y322408D01*
X1116390Y291408D02*
Y322408D01*
X911904Y263002D02*
X924096D01*
X924750Y262348D01*
Y250750D02*
Y262348D01*
X911250Y251000D02*
Y262348D01*
X911904Y263002D01*
X911250Y231652D02*
X911904Y230998D01*
X911250Y231652D02*
Y243000D01*
X924750Y231652D02*
Y243000D01*
X924096Y230998D02*
X924750Y231652D01*
X911904Y230998D02*
X924096D01*
X471416Y292430D02*
X483608D01*
X470762Y291776D02*
X471416Y292430D01*
X470762Y280428D02*
Y291776D01*
X484262Y280428D02*
Y291776D01*
X483608Y292430D02*
X484262Y291776D01*
X483608Y260426D02*
X484262Y261080D01*
Y272428D01*
X470762Y261080D02*
Y272679D01*
Y261080D02*
X471416Y260426D01*
X483608D01*
X487926Y292430D02*
X500118D01*
X487272Y291776D02*
X487926Y292430D01*
X487272Y280428D02*
Y291776D01*
X500772Y280428D02*
Y291776D01*
X500118Y292430D02*
X500772Y291776D01*
X500118Y260426D02*
X500772Y261080D01*
Y272428D01*
X487272Y261080D02*
Y272679D01*
Y261080D02*
X487926Y260426D01*
X500118D01*
X504435Y260426D02*
X516627D01*
X517281Y261080D01*
Y272428D01*
X503781Y261080D02*
Y272428D01*
Y261080D02*
X504435Y260426D01*
X503781Y291776D02*
X504435Y292430D01*
X503781Y280428D02*
Y291776D01*
X517281Y280179D02*
Y291776D01*
X516627Y292430D02*
X517281Y291776D01*
X504435Y292430D02*
X516627D01*
X551175Y292430D02*
X563367D01*
X550521Y291776D02*
X551175Y292430D01*
X550521Y280428D02*
Y291776D01*
X564021Y280428D02*
Y291776D01*
X563367Y292430D02*
X564021Y291776D01*
X563367Y260426D02*
X564021Y261080D01*
Y272428D01*
X550521Y261080D02*
Y272678D01*
Y261080D02*
X551175Y260426D01*
X563367D01*
X567684Y292430D02*
X579876D01*
X567031Y291776D02*
X567684Y292430D01*
X567031Y280428D02*
Y291776D01*
X580530Y280428D02*
Y291776D01*
X579876Y292430D02*
X580530Y291776D01*
X579876Y260426D02*
X580530Y261080D01*
Y272428D01*
X567031Y261080D02*
Y272679D01*
Y261080D02*
X567684Y260426D01*
X579876D01*
X584194D02*
X596386D01*
X597040Y261080D01*
Y272428D01*
X583540Y261080D02*
Y272428D01*
Y261080D02*
X584194Y260426D01*
X583540Y291776D02*
X584194Y292430D01*
X583540Y280428D02*
Y291776D01*
X597040Y280178D02*
Y291776D01*
X596386Y292430D02*
X597040Y291776D01*
X584194Y292430D02*
X596386D01*
X634743D02*
X646936D01*
X634090Y291776D02*
X634743Y292430D01*
X634090Y280428D02*
Y291776D01*
X647589Y280428D02*
Y291776D01*
X646936Y292430D02*
X647589Y291776D01*
X646936Y260426D02*
X647589Y261080D01*
Y272428D01*
X634090Y261080D02*
Y272678D01*
Y261080D02*
X634743Y260426D01*
X646936D01*
X651253Y292430D02*
X663445D01*
X650599Y291776D02*
X651253Y292430D01*
X650599Y280428D02*
Y291776D01*
X664099Y280428D02*
Y291776D01*
X663445Y292430D02*
X664099Y291776D01*
X663445Y260426D02*
X664099Y261080D01*
Y272428D01*
X650599Y261080D02*
Y272678D01*
Y261080D02*
X651253Y260426D01*
X663445D01*
X667762D02*
X679954D01*
X680608Y261080D01*
Y272428D01*
X667108Y261080D02*
Y272428D01*
Y261080D02*
X667762Y260426D01*
X667108Y291776D02*
X667762Y292430D01*
X667108Y280428D02*
Y291776D01*
X680608Y280178D02*
Y291776D01*
X679954Y292430D02*
X680608Y291776D01*
X667762Y292430D02*
X679954D01*
X724408D02*
X736600D01*
X723754Y291776D02*
X724408Y292430D01*
X723754Y280428D02*
Y291776D01*
X737254Y280428D02*
Y291776D01*
X736600Y292430D02*
X737254Y291776D01*
X736600Y260426D02*
X737254Y261080D01*
Y272428D01*
X723754Y261080D02*
Y272678D01*
Y261080D02*
X724408Y260426D01*
X736600D01*
X740918Y292430D02*
X753110D01*
X740263Y291776D02*
X740918Y292430D01*
X740263Y280428D02*
Y291776D01*
X753763Y280428D02*
Y291776D01*
X753110Y292430D02*
X753763Y291776D01*
X753110Y260426D02*
X753763Y261080D01*
Y272428D01*
X740263Y261080D02*
Y272678D01*
Y261080D02*
X740918Y260426D01*
X753110D01*
X757427D02*
X769619D01*
X770273Y261080D01*
Y272428D01*
X756773Y261080D02*
Y272428D01*
Y261080D02*
X757427Y260426D01*
X756773Y291776D02*
X757427Y292430D01*
X756773Y280428D02*
Y291776D01*
X770273Y280178D02*
Y291776D01*
X769619Y292430D02*
X770273Y291776D01*
X757427Y292430D02*
X769619D01*
X806196D02*
X818388D01*
X805542Y291776D02*
X806196Y292430D01*
X805542Y280428D02*
Y291776D01*
X819042Y280428D02*
Y291776D01*
X818388Y292430D02*
X819042Y291776D01*
X818388Y260426D02*
X819042Y261080D01*
Y272428D01*
X805542Y261080D02*
Y272678D01*
Y261080D02*
X806196Y260426D01*
X818388D01*
X835914D02*
X848106D01*
X848760Y261080D01*
Y272428D01*
X835260Y261080D02*
Y272428D01*
Y261080D02*
X835914Y260426D01*
X835260Y291776D02*
X835914Y292430D01*
X835260Y280428D02*
Y291776D01*
X848760Y280178D02*
Y291776D01*
X848106Y292430D02*
X848760Y291776D01*
X835914Y292430D02*
X848106D01*
X820928D02*
X833120D01*
X820274Y291776D02*
X820928Y292430D01*
X820274Y280428D02*
Y291776D01*
X833774Y280428D02*
Y291776D01*
X833120Y292430D02*
X833774Y291776D01*
X833120Y260426D02*
X833774Y261080D01*
Y272428D01*
X820274Y261080D02*
Y272678D01*
Y261080D02*
X820928Y260426D01*
X833120D01*
X911904Y267998D02*
X924096D01*
X911250Y268652D02*
X911904Y267998D01*
X911250Y268652D02*
Y280250D01*
X924750Y268652D02*
Y280000D01*
X924096Y267998D02*
X924750Y268652D01*
X924096Y300002D02*
X924750Y299348D01*
Y288000D02*
Y299348D01*
X911250Y288000D02*
Y299348D01*
X911904Y300002D01*
X924096D01*
X930500Y209500D02*
Y222500D01*
X961500Y209500D02*
Y222500D01*
X930500D02*
X961500D01*
X930500Y209500D02*
X961500D01*
X271500Y609500D02*
Y622500D01*
X302500Y609500D02*
Y622500D01*
X271500D02*
X302500D01*
X271500Y609500D02*
X302500D01*
X109764Y351000D02*
X140764D01*
X109764Y338000D02*
X140764D01*
X109764D02*
Y351000D01*
X140764Y338000D02*
Y351000D01*
X109764Y320520D02*
X140764D01*
X109764Y307520D02*
X140764D01*
X109764D02*
Y320520D01*
X140764Y307520D02*
Y320520D01*
X109764Y290040D02*
X140764D01*
X109764Y277040D02*
X140764D01*
X109764D02*
Y290040D01*
X140764Y277040D02*
Y290040D01*
X109764Y259560D02*
X140764D01*
X109764Y246560D02*
X140764D01*
X109764D02*
Y259560D01*
X140764Y246560D02*
Y259560D01*
X109764Y229080D02*
X140764D01*
X109764Y216080D02*
X140764D01*
X109764D02*
Y229080D01*
X140764Y216080D02*
Y229080D01*
X920756Y48750D02*
Y59250D01*
X915756Y54000D02*
X925756D01*
X1019250Y327000D02*
X1029250D01*
X1024250Y321750D02*
Y332251D01*
X1344971Y627346D02*
X1355472D01*
X1350222Y622346D02*
Y632346D01*
X1197076Y622346D02*
Y632346D01*
X1191825Y627346D02*
X1202326D01*
X1039425D02*
X1049926D01*
X1044676Y622346D02*
Y632346D01*
X892561Y622346D02*
Y632346D01*
X887311Y627346D02*
X897812D01*
X735403D02*
X745904D01*
X740654Y622346D02*
Y632346D01*
X587735Y622346D02*
Y632346D01*
X582485Y627346D02*
X592986D01*
X1224162Y293854D02*
X1234662D01*
X1229412Y288854D02*
Y298854D01*
X1049948Y283990D02*
Y293990D01*
X1044698Y288990D02*
X1055198D01*
X896250Y297000D02*
X898550Y299300D01*
X907450D01*
X906500Y300250D02*
X908000Y298750D01*
X907450Y299300D02*
X909750Y297000D01*
Y288000D02*
Y297000D01*
X896250Y288000D02*
Y297000D01*
Y268000D02*
X909750D01*
Y279000D01*
X896250Y268000D02*
Y279000D01*
X899500Y300250D02*
X906500D01*
X897760Y298510D02*
X899500Y300250D01*
X898260Y298510D02*
X907740D01*
X896904Y263002D02*
X909096D01*
X896250Y262348D02*
X896904Y263002D01*
X896250Y251000D02*
Y262348D01*
X909750Y251000D02*
Y262348D01*
X909096Y263002D02*
X909750Y262348D01*
X909096Y230998D02*
X909750Y231652D01*
Y243000D01*
X896250Y231652D02*
Y243250D01*
Y231652D02*
X896904Y230998D01*
X909096D01*
D78*
X994000Y260000D02*
X1020000D01*
X994000Y252000D02*
X1020000D01*
X936060Y204320D02*
X946220D01*
X936060Y197970D02*
Y204320D01*
X946220D02*
X989400D01*
X946220Y197970D02*
Y204320D01*
X936060Y197970D02*
X946220D01*
X989400D02*
Y204320D01*
Y163680D02*
Y170030D01*
X936060D02*
X946220D01*
Y163680D02*
Y170030D01*
Y163680D02*
X989400D01*
X936060D02*
Y170030D01*
Y163680D02*
X946220D01*
X729500Y129000D02*
X775500D01*
X729500Y101000D02*
X775500D01*
X729500Y124000D02*
Y129000D01*
X775500Y124000D02*
Y129000D01*
X729500Y101000D02*
Y106000D01*
X775500Y101000D02*
Y106000D01*
X765500Y124000D02*
X775500D01*
X765500Y106000D02*
X775500D01*
X765500Y124110D02*
Y129000D01*
Y101000D02*
Y106000D01*
X564500Y144000D02*
X610500D01*
X564500Y116000D02*
X610500D01*
X564500Y139000D02*
Y144000D01*
X610500Y139000D02*
Y144000D01*
X564500Y116000D02*
Y121000D01*
X610500Y116000D02*
Y121000D01*
X600500Y139000D02*
X610500D01*
X600500Y121000D02*
X610500D01*
X600500Y139110D02*
Y144000D01*
Y116000D02*
Y121000D01*
X817000Y129000D02*
X863000D01*
X817000Y101000D02*
X863000D01*
X817000Y124000D02*
Y129000D01*
X863000Y124000D02*
Y129000D01*
X817000Y101000D02*
Y106000D01*
X863000Y101000D02*
Y106000D01*
X853000Y124000D02*
X863000D01*
X853000Y106000D02*
X863000D01*
X853000Y124110D02*
Y129000D01*
Y101000D02*
Y106000D01*
X482000Y144000D02*
X528000D01*
X482000Y116000D02*
X528000D01*
X482000Y139000D02*
Y144000D01*
X528000Y139000D02*
Y144000D01*
X482000Y116000D02*
Y121000D01*
X528000Y116000D02*
Y121000D01*
X518000Y139000D02*
X528000D01*
X518000Y121000D02*
X528000D01*
X518000Y139110D02*
Y144000D01*
Y116000D02*
Y121000D01*
X642000Y144000D02*
X688000D01*
X642000Y116000D02*
X688000D01*
X642000Y139000D02*
Y144000D01*
X688000Y139000D02*
Y144000D01*
X642000Y116000D02*
Y121000D01*
X688000Y116000D02*
Y121000D01*
X678000Y139000D02*
X688000D01*
X678000Y121000D02*
X688000D01*
X678000Y139110D02*
Y144000D01*
Y116000D02*
Y121000D01*
X1279500Y206540D02*
X1325500D01*
X1279500Y178540D02*
X1325500D01*
X1279500Y201540D02*
Y206540D01*
X1325500Y201540D02*
Y206540D01*
X1279500Y178540D02*
Y183540D01*
X1325500Y178540D02*
Y183540D01*
X1315500Y201540D02*
X1325500D01*
X1315500Y183540D02*
X1325500D01*
X1315500Y201650D02*
Y206540D01*
Y178540D02*
Y183540D01*
X1150890Y310620D02*
X1153890D01*
X1150890Y309120D02*
X1153890Y310620D01*
X1150890Y312120D02*
X1153890Y310620D01*
X1150890Y309120D02*
Y312120D01*
X1153890Y309120D02*
Y312120D01*
X1128000Y310500D02*
X1156000D01*
X1128000Y291500D02*
X1156000D01*
X375500Y577750D02*
X390500D01*
X375500D02*
Y590350D01*
X390500Y577750D02*
Y590350D01*
X389000Y572000D02*
X392000D01*
X389000Y575000D02*
X392000D01*
X390500Y572000D02*
X392000Y575000D01*
X389000D02*
X390500Y572000D01*
Y575000D01*
X249250Y211000D02*
Y226000D01*
X261850D01*
X249250Y211000D02*
X261850D01*
X243500Y209500D02*
Y212500D01*
X246500Y209500D02*
Y212500D01*
X243500Y211000D02*
X246500Y209500D01*
X243500Y211000D02*
X246500Y212500D01*
X243500Y211000D02*
X246500D01*
X1073000Y247000D02*
Y252000D01*
Y270110D02*
Y275000D01*
Y252000D02*
X1083000D01*
X1073000Y270000D02*
X1083000D01*
Y247000D02*
Y252000D01*
X1037000Y247000D02*
Y252000D01*
X1083000Y270000D02*
Y275000D01*
X1037000Y270000D02*
Y275000D01*
Y247000D02*
X1083000D01*
X1037000Y275000D02*
X1083000D01*
X1047000Y231000D02*
Y236000D01*
Y208000D02*
Y212890D01*
X1037000Y231000D02*
X1047000D01*
X1037000Y213000D02*
X1047000D01*
X1037000Y231000D02*
Y236000D01*
X1083000Y231000D02*
Y236000D01*
X1037000Y208000D02*
Y213000D01*
X1083000Y208000D02*
Y213000D01*
X1037000Y236000D02*
X1083000D01*
X1037000Y208000D02*
X1083000D01*
X1353070Y146000D02*
X1358070D01*
X1376180D02*
X1381070D01*
X1358070Y136000D02*
Y146000D01*
X1376070Y136000D02*
Y146000D01*
X1353070Y136000D02*
X1358070D01*
X1353070Y182000D02*
X1358070D01*
X1376070Y136000D02*
X1381070D01*
X1376070Y182000D02*
X1381070D01*
X1353070Y136000D02*
Y182000D01*
X1381070Y136000D02*
Y182000D01*
X1127932Y345516D02*
X1154932Y345516D01*
X1127932Y335356D02*
Y345516D01*
Y335356D02*
X1154932Y335356D01*
Y345516D01*
X136920Y127530D02*
X136920Y154530D01*
X136920Y127530D02*
X147080D01*
X147080Y154530D02*
X147080Y127530D01*
X136920Y154530D02*
X147080D01*
D79*
X1371954Y432532D02*
Y633192D01*
X1270608Y432786D02*
Y633192D01*
X812858Y432786D02*
Y633192D01*
X914204Y432532D02*
Y633192D01*
X609038Y432532D02*
Y633192D01*
X507692Y432786D02*
Y633192D01*
X1118025Y432786D02*
Y633192D01*
X1219370Y432532D02*
Y633192D01*
X1066787Y432532D02*
Y633192D01*
X965441Y432786D02*
Y633192D01*
X660275Y432786D02*
Y633192D01*
X761621Y432532D02*
Y633192D01*
D80*
X770500Y126500D02*
D03*
Y103500D02*
D03*
X605500Y141500D02*
D03*
Y118500D02*
D03*
X858000Y126500D02*
D03*
Y103500D02*
D03*
X523000Y141500D02*
D03*
Y118500D02*
D03*
X683000Y141500D02*
D03*
Y118500D02*
D03*
X1320500Y204040D02*
D03*
Y181040D02*
D03*
X1078000Y249500D02*
D03*
X1078000Y272500D02*
D03*
X1042000Y233500D02*
D03*
X1042000Y210500D02*
D03*
D81*
X1077760Y12891D02*
D03*
X1177728D02*
D03*
X1278058D02*
D03*
D82*
X1113447D02*
D03*
X1213415D02*
D03*
X1313745D02*
D03*
D83*
X1096175Y1435D02*
D03*
X1196143D02*
D03*
X688909Y2197D02*
D03*
X605089Y1943D02*
D03*
X521269Y2705D02*
D03*
X772221Y2197D02*
D03*
X857311Y2705D02*
D03*
X1296473Y1435D02*
D03*
D84*
X1096175Y24347D02*
D03*
X1196143D02*
D03*
X688909Y25109D02*
D03*
X605089Y24855D02*
D03*
X521269Y25617D02*
D03*
X772221Y25109D02*
D03*
X857311Y25617D02*
D03*
X1296473Y24347D02*
D03*
D85*
X1086650Y21146D02*
D03*
X1186618D02*
D03*
X679384Y21908D02*
D03*
X595564Y21654D02*
D03*
X511744Y22416D02*
D03*
X762696Y21908D02*
D03*
X847786Y22416D02*
D03*
X1286948Y21146D02*
D03*
D86*
X1104430Y21285D02*
D03*
X1204398D02*
D03*
X697164Y22047D02*
D03*
X613344Y21793D02*
D03*
X529524Y22555D02*
D03*
X780476Y22047D02*
D03*
X865566Y22555D02*
D03*
X1304728Y21285D02*
D03*
D87*
X1105065Y4775D02*
D03*
X1205033D02*
D03*
X697799Y5537D02*
D03*
X613979Y5283D02*
D03*
X530159Y6045D02*
D03*
X781111Y5537D02*
D03*
X866201Y6045D02*
D03*
X1305363Y4775D02*
D03*
D88*
X1085380D02*
D03*
X1185348D02*
D03*
X678114Y5537D02*
D03*
X594294Y5283D02*
D03*
X510474Y6045D02*
D03*
X761426Y5537D02*
D03*
X846516Y6045D02*
D03*
X1285678Y4775D02*
D03*
D89*
X1088555Y23851D02*
D03*
X1188523D02*
D03*
X681289Y24613D02*
D03*
X597469Y24359D02*
D03*
X513649Y25121D02*
D03*
X764601Y24613D02*
D03*
X849691Y25121D02*
D03*
X1288853Y23851D02*
D03*
D90*
X1103475Y22631D02*
D03*
X696208Y23393D02*
D03*
X612388Y23139D02*
D03*
X528568Y23901D02*
D03*
X779520Y23393D02*
D03*
X864610Y23901D02*
D03*
D91*
X1087920Y1831D02*
D03*
X1187888D02*
D03*
X680654Y2593D02*
D03*
X596834Y2339D02*
D03*
X513014Y3101D02*
D03*
X763966Y2593D02*
D03*
X849056Y3101D02*
D03*
X1288218Y1831D02*
D03*
D92*
X1102271Y3505D02*
D03*
X1202239D02*
D03*
X695005Y4267D02*
D03*
X611185Y4013D02*
D03*
X527365Y4775D02*
D03*
X778317Y4267D02*
D03*
X863407Y4775D02*
D03*
X1302569Y3505D02*
D03*
D93*
X1203443Y22631D02*
D03*
X1303772D02*
D03*
D94*
X673288Y13653D02*
D03*
X589468Y13399D02*
D03*
X505648Y14161D02*
D03*
X756600Y13653D02*
D03*
X841690Y14161D02*
D03*
D95*
X703674Y13653D02*
D03*
D96*
X619854Y13399D02*
D03*
X536034Y14161D02*
D03*
D97*
X786859Y13653D02*
D03*
X871949Y14161D02*
D03*
D98*
X296926Y305765D02*
D03*
D99*
X512864Y406603D02*
D03*
D100*
X388150Y742439D02*
D03*
X402374D02*
D03*
X220256D02*
D03*
X206032D02*
D03*
D101*
X1355570Y141000D02*
D03*
X1378569D02*
D03*
M02*
