G04 Layer_Color=32768*
%FSLAX44Y44*%
%MOMM*%
G71*
G01*
G75*
%ADD47C,0.2540*%
%ADD72C,0.1000*%
%ADD140C,0.0500*%
%ADD145C,0.5080*%
D47*
X1269608Y446956D02*
Y440862D01*
X1272655D01*
X1273671Y441878D01*
Y445940D01*
X1272655Y446956D01*
X1269608D01*
X1275702D02*
X1277733D01*
X1276718D01*
Y440862D01*
X1275702D01*
X1277733D01*
X1280780D02*
Y446956D01*
X1283827D01*
X1284843Y445940D01*
Y443909D01*
X1283827Y442893D01*
X1280780D01*
X1282811D02*
X1284843Y440862D01*
X1273671Y471340D02*
X1272655Y472356D01*
X1270623D01*
X1269608Y471340D01*
Y470325D01*
X1270623Y469309D01*
X1272655D01*
X1273671Y468293D01*
Y467278D01*
X1272655Y466262D01*
X1270623D01*
X1269608Y467278D01*
X1275702Y472356D02*
X1279764D01*
X1277733D01*
Y466262D01*
X1285858Y472356D02*
X1281796D01*
Y466262D01*
X1285858D01*
X1281796Y469309D02*
X1283827D01*
X1287890Y466262D02*
Y472356D01*
X1290937D01*
X1291953Y471340D01*
Y469309D01*
X1290937Y468293D01*
X1287890D01*
X1273671Y496740D02*
X1272655Y497756D01*
X1270623D01*
X1269608Y496740D01*
Y495725D01*
X1270623Y494709D01*
X1272655D01*
X1273671Y493693D01*
Y492678D01*
X1272655Y491662D01*
X1270623D01*
X1269608Y492678D01*
X1275702Y497756D02*
Y491662D01*
X1279764D01*
X1281796D02*
Y497756D01*
X1284843D01*
X1285858Y496740D01*
Y494709D01*
X1284843Y493693D01*
X1281796D01*
X1269608Y517062D02*
Y523156D01*
X1272655D01*
X1273671Y522140D01*
Y520109D01*
X1272655Y519093D01*
X1269608D01*
X1271639D02*
X1273671Y517062D01*
X1279764Y522140D02*
X1278749Y523156D01*
X1276718D01*
X1275702Y522140D01*
Y521125D01*
X1276718Y520109D01*
X1278749D01*
X1279764Y519093D01*
Y518078D01*
X1278749Y517062D01*
X1276718D01*
X1275702Y518078D01*
X1281796Y523156D02*
X1285858D01*
X1283827D01*
Y517062D01*
X1269608Y542462D02*
Y548556D01*
X1271639Y546525D01*
X1273671Y548556D01*
Y542462D01*
X1279764Y547540D02*
X1278749Y548556D01*
X1276718D01*
X1275702Y547540D01*
Y546525D01*
X1276718Y545509D01*
X1278749D01*
X1279764Y544493D01*
Y543478D01*
X1278749Y542462D01*
X1276718D01*
X1275702Y543478D01*
X1281796Y547540D02*
X1282811Y548556D01*
X1284843D01*
X1285858Y547540D01*
Y546525D01*
X1284843Y545509D01*
X1283827D01*
X1284843D01*
X1285858Y544493D01*
Y543478D01*
X1284843Y542462D01*
X1282811D01*
X1281796Y543478D01*
X1269608Y567862D02*
Y573956D01*
X1271639Y571925D01*
X1273671Y573956D01*
Y567862D01*
X1279764Y572940D02*
X1278749Y573956D01*
X1276718D01*
X1275702Y572940D01*
Y571925D01*
X1276718Y570909D01*
X1278749D01*
X1279764Y569893D01*
Y568878D01*
X1278749Y567862D01*
X1276718D01*
X1275702Y568878D01*
X1285858Y567862D02*
X1281796D01*
X1285858Y571925D01*
Y572940D01*
X1284843Y573956D01*
X1282811D01*
X1281796Y572940D01*
X1269608Y593262D02*
Y599356D01*
X1271639Y597325D01*
X1273671Y599356D01*
Y593262D01*
X1279764Y598340D02*
X1278749Y599356D01*
X1276718D01*
X1275702Y598340D01*
Y597325D01*
X1276718Y596309D01*
X1278749D01*
X1279764Y595293D01*
Y594278D01*
X1278749Y593262D01*
X1276718D01*
X1275702Y594278D01*
X1281796Y593262D02*
X1283827D01*
X1282811D01*
Y599356D01*
X1281796Y598340D01*
X1273671Y624756D02*
X1269608D01*
Y618662D01*
X1273671D01*
X1269608Y621709D02*
X1271639D01*
X1275702Y618662D02*
Y624756D01*
X1279764Y618662D01*
Y624756D01*
X1354021Y444890D02*
X1353005Y445906D01*
X1350973D01*
X1349958Y444890D01*
Y440828D01*
X1350973Y439812D01*
X1353005D01*
X1354021Y440828D01*
Y442859D01*
X1351989D01*
X1356052Y439812D02*
Y445906D01*
X1360114Y439812D01*
Y445906D01*
X1362146D02*
Y439812D01*
X1365193D01*
X1366208Y440828D01*
Y444890D01*
X1365193Y445906D01*
X1362146D01*
X1349958Y471585D02*
Y467522D01*
X1351989Y465491D01*
X1354021Y467522D01*
Y471585D01*
X1356052D02*
Y465491D01*
X1359099D01*
X1360114Y466506D01*
Y470569D01*
X1359099Y471585D01*
X1356052D01*
X1362146D02*
Y465491D01*
X1365193D01*
X1366208Y466506D01*
Y470569D01*
X1365193Y471585D01*
X1362146D01*
X1349958Y491169D02*
X1351989D01*
X1350973D01*
Y497263D01*
X1349958Y496248D01*
X1355036Y497263D02*
Y491169D01*
X1358083D01*
X1359099Y492185D01*
Y493201D01*
X1358083Y494216D01*
X1355036D01*
X1358083D01*
X1359099Y495232D01*
Y496248D01*
X1358083Y497263D01*
X1355036D01*
X1349958Y516848D02*
X1351989D01*
X1350973D01*
Y522942D01*
X1349958Y521926D01*
X1355036Y516848D02*
Y520910D01*
X1357068Y522942D01*
X1359099Y520910D01*
Y516848D01*
Y519895D01*
X1355036D01*
X1354020Y542526D02*
X1349958D01*
X1354020Y546589D01*
Y547605D01*
X1353005Y548620D01*
X1350973D01*
X1349958Y547605D01*
X1356052Y542526D02*
Y546589D01*
X1358083Y548620D01*
X1360114Y546589D01*
Y542526D01*
Y545573D01*
X1356052D01*
X1354020Y568205D02*
X1349958D01*
X1354020Y572268D01*
Y573283D01*
X1353005Y574299D01*
X1350973D01*
X1349958Y573283D01*
X1356052Y574299D02*
Y568205D01*
X1359099D01*
X1360114Y569221D01*
Y570236D01*
X1359099Y571252D01*
X1356052D01*
X1359099D01*
X1360114Y572268D01*
Y573283D01*
X1359099Y574299D01*
X1356052D01*
X1354021Y598962D02*
X1353005Y599977D01*
X1350973D01*
X1349958Y598962D01*
Y594899D01*
X1350973Y593884D01*
X1353005D01*
X1354021Y594899D01*
Y596931D01*
X1351989D01*
X1356052Y593884D02*
Y599977D01*
X1360114Y593884D01*
Y599977D01*
X1362146D02*
Y593884D01*
X1365193D01*
X1366208Y594899D01*
Y598962D01*
X1365193Y599977D01*
X1362146D01*
X1349958Y625656D02*
Y621593D01*
X1351989Y619562D01*
X1354021Y621593D01*
Y625656D01*
X1356052Y619562D02*
Y623625D01*
X1357068D01*
X1358083Y622609D01*
Y619562D01*
Y622609D01*
X1359099Y623625D01*
X1360114Y622609D01*
Y619562D01*
X1363161D02*
X1365193D01*
X1366208Y620578D01*
Y622609D01*
X1365193Y623625D01*
X1363161D01*
X1362146Y622609D01*
Y620578D01*
X1363161Y619562D01*
X1369256Y624640D02*
Y623625D01*
X1368240D01*
X1370271D01*
X1369256D01*
Y620578D01*
X1370271Y619562D01*
X892842Y625656D02*
Y621594D01*
X894873Y619562D01*
X896904Y621594D01*
Y625656D01*
X898936Y619562D02*
Y623625D01*
X899951D01*
X900967Y622609D01*
Y619562D01*
Y622609D01*
X901983Y623625D01*
X902998Y622609D01*
Y619562D01*
X906046D02*
X908077D01*
X909092Y620578D01*
Y622609D01*
X908077Y623625D01*
X906046D01*
X905030Y622609D01*
Y620578D01*
X906046Y619562D01*
X912140Y624641D02*
Y623625D01*
X911124D01*
X913155D01*
X912140D01*
Y620578D01*
X913155Y619562D01*
X896904Y598962D02*
X895889Y599978D01*
X893857D01*
X892842Y598962D01*
Y594899D01*
X893857Y593884D01*
X895889D01*
X896904Y594899D01*
Y596931D01*
X894873D01*
X898936Y593884D02*
Y599978D01*
X902998Y593884D01*
Y599978D01*
X905030D02*
Y593884D01*
X908077D01*
X909092Y594899D01*
Y598962D01*
X908077Y599978D01*
X905030D01*
X896904Y568205D02*
X892842D01*
X896904Y572268D01*
Y573284D01*
X895889Y574299D01*
X893857D01*
X892842Y573284D01*
X898936Y574299D02*
Y568205D01*
X901983D01*
X902998Y569221D01*
Y570237D01*
X901983Y571252D01*
X898936D01*
X901983D01*
X902998Y572268D01*
Y573284D01*
X901983Y574299D01*
X898936D01*
X896904Y542527D02*
X892842D01*
X896904Y546589D01*
Y547605D01*
X895889Y548621D01*
X893857D01*
X892842Y547605D01*
X898936Y542527D02*
Y546589D01*
X900967Y548621D01*
X902998Y546589D01*
Y542527D01*
Y545574D01*
X898936D01*
X892842Y516848D02*
X894873D01*
X893857D01*
Y522942D01*
X892842Y521926D01*
X897920Y516848D02*
Y520911D01*
X899951Y522942D01*
X901983Y520911D01*
Y516848D01*
Y519895D01*
X897920D01*
X892842Y491170D02*
X894873D01*
X893857D01*
Y497263D01*
X892842Y496248D01*
X897920Y497263D02*
Y491170D01*
X900967D01*
X901983Y492185D01*
Y493201D01*
X900967Y494216D01*
X897920D01*
X900967D01*
X901983Y495232D01*
Y496248D01*
X900967Y497263D01*
X897920D01*
X892842Y471585D02*
Y467522D01*
X894873Y465491D01*
X896904Y467522D01*
Y471585D01*
X898936D02*
Y465491D01*
X901983D01*
X902998Y466507D01*
Y470569D01*
X901983Y471585D01*
X898936D01*
X905030D02*
Y465491D01*
X908077D01*
X909092Y466507D01*
Y470569D01*
X908077Y471585D01*
X905030D01*
X896904Y444891D02*
X895889Y445906D01*
X893857D01*
X892842Y444891D01*
Y440828D01*
X893857Y439812D01*
X895889D01*
X896904Y440828D01*
Y442859D01*
X894873D01*
X898936Y439812D02*
Y445906D01*
X902998Y439812D01*
Y445906D01*
X905030D02*
Y439812D01*
X908077D01*
X909092Y440828D01*
Y444891D01*
X908077Y445906D01*
X905030D01*
X816554Y624756D02*
X812492D01*
Y618662D01*
X816554D01*
X812492Y621709D02*
X814523D01*
X818586Y618662D02*
Y624756D01*
X822648Y618662D01*
Y624756D01*
X812492Y593262D02*
Y599356D01*
X814523Y597325D01*
X816554Y599356D01*
Y593262D01*
X822648Y598341D02*
X821633Y599356D01*
X819601D01*
X818586Y598341D01*
Y597325D01*
X819601Y596309D01*
X821633D01*
X822648Y595294D01*
Y594278D01*
X821633Y593262D01*
X819601D01*
X818586Y594278D01*
X824680Y593262D02*
X826711D01*
X825695D01*
Y599356D01*
X824680Y598341D01*
X812492Y567862D02*
Y573956D01*
X814523Y571925D01*
X816554Y573956D01*
Y567862D01*
X822648Y572941D02*
X821633Y573956D01*
X819601D01*
X818586Y572941D01*
Y571925D01*
X819601Y570909D01*
X821633D01*
X822648Y569894D01*
Y568878D01*
X821633Y567862D01*
X819601D01*
X818586Y568878D01*
X828743Y567862D02*
X824680D01*
X828743Y571925D01*
Y572941D01*
X827727Y573956D01*
X825695D01*
X824680Y572941D01*
X812492Y542462D02*
Y548556D01*
X814523Y546525D01*
X816554Y548556D01*
Y542462D01*
X822648Y547541D02*
X821633Y548556D01*
X819601D01*
X818586Y547541D01*
Y546525D01*
X819601Y545509D01*
X821633D01*
X822648Y544494D01*
Y543478D01*
X821633Y542462D01*
X819601D01*
X818586Y543478D01*
X824680Y547541D02*
X825695Y548556D01*
X827727D01*
X828743Y547541D01*
Y546525D01*
X827727Y545509D01*
X826711D01*
X827727D01*
X828743Y544494D01*
Y543478D01*
X827727Y542462D01*
X825695D01*
X824680Y543478D01*
X812492Y517062D02*
Y523156D01*
X815539D01*
X816554Y522141D01*
Y520109D01*
X815539Y519094D01*
X812492D01*
X814523D02*
X816554Y517062D01*
X822648Y522141D02*
X821633Y523156D01*
X819601D01*
X818586Y522141D01*
Y521125D01*
X819601Y520109D01*
X821633D01*
X822648Y519094D01*
Y518078D01*
X821633Y517062D01*
X819601D01*
X818586Y518078D01*
X824680Y523156D02*
X828743D01*
X826711D01*
Y517062D01*
X816554Y496741D02*
X815539Y497756D01*
X813507D01*
X812492Y496741D01*
Y495725D01*
X813507Y494709D01*
X815539D01*
X816554Y493694D01*
Y492678D01*
X815539Y491662D01*
X813507D01*
X812492Y492678D01*
X818586Y497756D02*
Y491662D01*
X822648D01*
X824680D02*
Y497756D01*
X827727D01*
X828743Y496741D01*
Y494709D01*
X827727Y493694D01*
X824680D01*
X816554Y471341D02*
X815539Y472356D01*
X813507D01*
X812492Y471341D01*
Y470325D01*
X813507Y469309D01*
X815539D01*
X816554Y468294D01*
Y467278D01*
X815539Y466262D01*
X813507D01*
X812492Y467278D01*
X818586Y472356D02*
X822648D01*
X820617D01*
Y466262D01*
X828743Y472356D02*
X824680D01*
Y466262D01*
X828743D01*
X824680Y469309D02*
X826711D01*
X830774Y466262D02*
Y472356D01*
X833821D01*
X834837Y471341D01*
Y469309D01*
X833821Y468294D01*
X830774D01*
X812492Y446956D02*
Y440862D01*
X815539D01*
X816554Y441878D01*
Y445941D01*
X815539Y446956D01*
X812492D01*
X818586D02*
X820617D01*
X819601D01*
Y440862D01*
X818586D01*
X820617D01*
X823664D02*
Y446956D01*
X826711D01*
X827727Y445941D01*
Y443909D01*
X826711Y442894D01*
X823664D01*
X825695D02*
X827727Y440862D01*
X507692Y446956D02*
Y440862D01*
X510739D01*
X511754Y441878D01*
Y445941D01*
X510739Y446956D01*
X507692D01*
X513786D02*
X515817D01*
X514801D01*
Y440862D01*
X513786D01*
X515817D01*
X518864D02*
Y446956D01*
X521911D01*
X522927Y445941D01*
Y443909D01*
X521911Y442894D01*
X518864D01*
X520896D02*
X522927Y440862D01*
X511754Y471341D02*
X510739Y472356D01*
X508707D01*
X507692Y471341D01*
Y470325D01*
X508707Y469309D01*
X510739D01*
X511754Y468294D01*
Y467278D01*
X510739Y466262D01*
X508707D01*
X507692Y467278D01*
X513786Y472356D02*
X517848D01*
X515817D01*
Y466262D01*
X523942Y472356D02*
X519880D01*
Y466262D01*
X523942D01*
X519880Y469309D02*
X521911D01*
X525974Y466262D02*
Y472356D01*
X529021D01*
X530037Y471341D01*
Y469309D01*
X529021Y468294D01*
X525974D01*
X511754Y496741D02*
X510739Y497756D01*
X508707D01*
X507692Y496741D01*
Y495725D01*
X508707Y494709D01*
X510739D01*
X511754Y493694D01*
Y492678D01*
X510739Y491662D01*
X508707D01*
X507692Y492678D01*
X513786Y497756D02*
Y491662D01*
X517848D01*
X519880D02*
Y497756D01*
X522927D01*
X523942Y496741D01*
Y494709D01*
X522927Y493694D01*
X519880D01*
X507692Y517062D02*
Y523156D01*
X510739D01*
X511754Y522141D01*
Y520109D01*
X510739Y519094D01*
X507692D01*
X509723D02*
X511754Y517062D01*
X517848Y522141D02*
X516833Y523156D01*
X514801D01*
X513786Y522141D01*
Y521125D01*
X514801Y520109D01*
X516833D01*
X517848Y519094D01*
Y518078D01*
X516833Y517062D01*
X514801D01*
X513786Y518078D01*
X519880Y523156D02*
X523942D01*
X521911D01*
Y517062D01*
X507692Y542462D02*
Y548556D01*
X509723Y546525D01*
X511754Y548556D01*
Y542462D01*
X517848Y547541D02*
X516833Y548556D01*
X514801D01*
X513786Y547541D01*
Y546525D01*
X514801Y545509D01*
X516833D01*
X517848Y544494D01*
Y543478D01*
X516833Y542462D01*
X514801D01*
X513786Y543478D01*
X519880Y547541D02*
X520896Y548556D01*
X522927D01*
X523942Y547541D01*
Y546525D01*
X522927Y545509D01*
X521911D01*
X522927D01*
X523942Y544494D01*
Y543478D01*
X522927Y542462D01*
X520896D01*
X519880Y543478D01*
X507692Y567862D02*
Y573956D01*
X509723Y571925D01*
X511754Y573956D01*
Y567862D01*
X517848Y572941D02*
X516833Y573956D01*
X514801D01*
X513786Y572941D01*
Y571925D01*
X514801Y570909D01*
X516833D01*
X517848Y569894D01*
Y568878D01*
X516833Y567862D01*
X514801D01*
X513786Y568878D01*
X523942Y567862D02*
X519880D01*
X523942Y571925D01*
Y572941D01*
X522927Y573956D01*
X520896D01*
X519880Y572941D01*
X507692Y593262D02*
Y599356D01*
X509723Y597325D01*
X511754Y599356D01*
Y593262D01*
X517848Y598341D02*
X516833Y599356D01*
X514801D01*
X513786Y598341D01*
Y597325D01*
X514801Y596309D01*
X516833D01*
X517848Y595294D01*
Y594278D01*
X516833Y593262D01*
X514801D01*
X513786Y594278D01*
X519880Y593262D02*
X521911D01*
X520896D01*
Y599356D01*
X519880Y598341D01*
X511754Y624756D02*
X507692D01*
Y618662D01*
X511754D01*
X507692Y621709D02*
X509723D01*
X513786Y618662D02*
Y624756D01*
X517848Y618662D01*
Y624756D01*
X592104Y444891D02*
X591089Y445906D01*
X589057D01*
X588042Y444891D01*
Y440828D01*
X589057Y439812D01*
X591089D01*
X592104Y440828D01*
Y442859D01*
X590073D01*
X594136Y439812D02*
Y445906D01*
X598198Y439812D01*
Y445906D01*
X600230D02*
Y439812D01*
X603277D01*
X604292Y440828D01*
Y444891D01*
X603277Y445906D01*
X600230D01*
X588042Y471585D02*
Y467522D01*
X590073Y465491D01*
X592104Y467522D01*
Y471585D01*
X594136D02*
Y465491D01*
X597183D01*
X598198Y466507D01*
Y470569D01*
X597183Y471585D01*
X594136D01*
X600230D02*
Y465491D01*
X603277D01*
X604292Y466507D01*
Y470569D01*
X603277Y471585D01*
X600230D01*
X588042Y491170D02*
X590073D01*
X589057D01*
Y497263D01*
X588042Y496248D01*
X593120Y497263D02*
Y491170D01*
X596167D01*
X597183Y492185D01*
Y493201D01*
X596167Y494216D01*
X593120D01*
X596167D01*
X597183Y495232D01*
Y496248D01*
X596167Y497263D01*
X593120D01*
X588042Y516848D02*
X590073D01*
X589057D01*
Y522942D01*
X588042Y521926D01*
X593120Y516848D02*
Y520911D01*
X595151Y522942D01*
X597183Y520911D01*
Y516848D01*
Y519895D01*
X593120D01*
X592104Y542527D02*
X588042D01*
X592104Y546589D01*
Y547605D01*
X591089Y548621D01*
X589057D01*
X588042Y547605D01*
X594136Y542527D02*
Y546589D01*
X596167Y548621D01*
X598198Y546589D01*
Y542527D01*
Y545574D01*
X594136D01*
X592104Y568205D02*
X588042D01*
X592104Y572268D01*
Y573284D01*
X591089Y574299D01*
X589057D01*
X588042Y573284D01*
X594136Y574299D02*
Y568205D01*
X597183D01*
X598198Y569221D01*
Y570237D01*
X597183Y571252D01*
X594136D01*
X597183D01*
X598198Y572268D01*
Y573284D01*
X597183Y574299D01*
X594136D01*
X592104Y598962D02*
X591089Y599978D01*
X589057D01*
X588042Y598962D01*
Y594899D01*
X589057Y593884D01*
X591089D01*
X592104Y594899D01*
Y596931D01*
X590073D01*
X594136Y593884D02*
Y599978D01*
X598198Y593884D01*
Y599978D01*
X600230D02*
Y593884D01*
X603277D01*
X604292Y594899D01*
Y598962D01*
X603277Y599978D01*
X600230D01*
X588042Y625656D02*
Y621594D01*
X590073Y619562D01*
X592104Y621594D01*
Y625656D01*
X594136Y619562D02*
Y623625D01*
X595151D01*
X596167Y622609D01*
Y619562D01*
Y622609D01*
X597183Y623625D01*
X598198Y622609D01*
Y619562D01*
X601245D02*
X603277D01*
X604292Y620578D01*
Y622609D01*
X603277Y623625D01*
X601245D01*
X600230Y622609D01*
Y620578D01*
X601245Y619562D01*
X607340Y624641D02*
Y623625D01*
X606324D01*
X608355D01*
X607340D01*
Y620578D01*
X608355Y619562D01*
X1197558Y625656D02*
Y621593D01*
X1199589Y619562D01*
X1201620Y621593D01*
Y625656D01*
X1203652Y619562D02*
Y623625D01*
X1204668D01*
X1205683Y622609D01*
Y619562D01*
Y622609D01*
X1206699Y623625D01*
X1207714Y622609D01*
Y619562D01*
X1210761D02*
X1212793D01*
X1213809Y620578D01*
Y622609D01*
X1212793Y623625D01*
X1210761D01*
X1209746Y622609D01*
Y620578D01*
X1210761Y619562D01*
X1216855Y624640D02*
Y623625D01*
X1215840D01*
X1217871D01*
X1216855D01*
Y620578D01*
X1217871Y619562D01*
X1201620Y598962D02*
X1200605Y599977D01*
X1198573D01*
X1197558Y598962D01*
Y594899D01*
X1198573Y593884D01*
X1200605D01*
X1201620Y594899D01*
Y596931D01*
X1199589D01*
X1203652Y593884D02*
Y599977D01*
X1207714Y593884D01*
Y599977D01*
X1209746D02*
Y593884D01*
X1212793D01*
X1213809Y594899D01*
Y598962D01*
X1212793Y599977D01*
X1209746D01*
X1201620Y568205D02*
X1197558D01*
X1201620Y572268D01*
Y573283D01*
X1200605Y574299D01*
X1198573D01*
X1197558Y573283D01*
X1203652Y574299D02*
Y568205D01*
X1206699D01*
X1207714Y569221D01*
Y570236D01*
X1206699Y571252D01*
X1203652D01*
X1206699D01*
X1207714Y572268D01*
Y573283D01*
X1206699Y574299D01*
X1203652D01*
X1201620Y542526D02*
X1197558D01*
X1201620Y546589D01*
Y547605D01*
X1200605Y548620D01*
X1198573D01*
X1197558Y547605D01*
X1203652Y542526D02*
Y546589D01*
X1205683Y548620D01*
X1207714Y546589D01*
Y542526D01*
Y545573D01*
X1203652D01*
X1197558Y516848D02*
X1199589D01*
X1198573D01*
Y522942D01*
X1197558Y521926D01*
X1202636Y516848D02*
Y520910D01*
X1204668Y522942D01*
X1206699Y520910D01*
Y516848D01*
Y519895D01*
X1202636D01*
X1197558Y491169D02*
X1199589D01*
X1198573D01*
Y497263D01*
X1197558Y496248D01*
X1202636Y497263D02*
Y491169D01*
X1205683D01*
X1206699Y492185D01*
Y493201D01*
X1205683Y494216D01*
X1202636D01*
X1205683D01*
X1206699Y495232D01*
Y496248D01*
X1205683Y497263D01*
X1202636D01*
X1197558Y471585D02*
Y467522D01*
X1199589Y465491D01*
X1201620Y467522D01*
Y471585D01*
X1203652D02*
Y465491D01*
X1206699D01*
X1207714Y466506D01*
Y470569D01*
X1206699Y471585D01*
X1203652D01*
X1209746D02*
Y465491D01*
X1212793D01*
X1213809Y466506D01*
Y470569D01*
X1212793Y471585D01*
X1209746D01*
X1201620Y444890D02*
X1200605Y445906D01*
X1198573D01*
X1197558Y444890D01*
Y440828D01*
X1198573Y439812D01*
X1200605D01*
X1201620Y440828D01*
Y442859D01*
X1199589D01*
X1203652Y439812D02*
Y445906D01*
X1207714Y439812D01*
Y445906D01*
X1209746D02*
Y439812D01*
X1212793D01*
X1213809Y440828D01*
Y444890D01*
X1212793Y445906D01*
X1209746D01*
X1121271Y624756D02*
X1117208D01*
Y618662D01*
X1121271D01*
X1117208Y621709D02*
X1119239D01*
X1123302Y618662D02*
Y624756D01*
X1127365Y618662D01*
Y624756D01*
X1117208Y593262D02*
Y599356D01*
X1119239Y597325D01*
X1121271Y599356D01*
Y593262D01*
X1127365Y598340D02*
X1126349Y599356D01*
X1124317D01*
X1123302Y598340D01*
Y597325D01*
X1124317Y596309D01*
X1126349D01*
X1127365Y595293D01*
Y594278D01*
X1126349Y593262D01*
X1124317D01*
X1123302Y594278D01*
X1129396Y593262D02*
X1131427D01*
X1130412D01*
Y599356D01*
X1129396Y598340D01*
X1117208Y567862D02*
Y573956D01*
X1119239Y571925D01*
X1121271Y573956D01*
Y567862D01*
X1127365Y572940D02*
X1126349Y573956D01*
X1124317D01*
X1123302Y572940D01*
Y571925D01*
X1124317Y570909D01*
X1126349D01*
X1127365Y569893D01*
Y568878D01*
X1126349Y567862D01*
X1124317D01*
X1123302Y568878D01*
X1133458Y567862D02*
X1129396D01*
X1133458Y571925D01*
Y572940D01*
X1132443Y573956D01*
X1130412D01*
X1129396Y572940D01*
X1117208Y542462D02*
Y548556D01*
X1119239Y546525D01*
X1121271Y548556D01*
Y542462D01*
X1127365Y547540D02*
X1126349Y548556D01*
X1124317D01*
X1123302Y547540D01*
Y546525D01*
X1124317Y545509D01*
X1126349D01*
X1127365Y544493D01*
Y543478D01*
X1126349Y542462D01*
X1124317D01*
X1123302Y543478D01*
X1129396Y547540D02*
X1130412Y548556D01*
X1132443D01*
X1133458Y547540D01*
Y546525D01*
X1132443Y545509D01*
X1131427D01*
X1132443D01*
X1133458Y544493D01*
Y543478D01*
X1132443Y542462D01*
X1130412D01*
X1129396Y543478D01*
X1117208Y517062D02*
Y523156D01*
X1120255D01*
X1121271Y522140D01*
Y520109D01*
X1120255Y519093D01*
X1117208D01*
X1119239D02*
X1121271Y517062D01*
X1127365Y522140D02*
X1126349Y523156D01*
X1124317D01*
X1123302Y522140D01*
Y521125D01*
X1124317Y520109D01*
X1126349D01*
X1127365Y519093D01*
Y518078D01*
X1126349Y517062D01*
X1124317D01*
X1123302Y518078D01*
X1129396Y523156D02*
X1133458D01*
X1131427D01*
Y517062D01*
X1121271Y496740D02*
X1120255Y497756D01*
X1118223D01*
X1117208Y496740D01*
Y495725D01*
X1118223Y494709D01*
X1120255D01*
X1121271Y493693D01*
Y492678D01*
X1120255Y491662D01*
X1118223D01*
X1117208Y492678D01*
X1123302Y497756D02*
Y491662D01*
X1127365D01*
X1129396D02*
Y497756D01*
X1132443D01*
X1133458Y496740D01*
Y494709D01*
X1132443Y493693D01*
X1129396D01*
X1121271Y471340D02*
X1120255Y472356D01*
X1118223D01*
X1117208Y471340D01*
Y470325D01*
X1118223Y469309D01*
X1120255D01*
X1121271Y468293D01*
Y467278D01*
X1120255Y466262D01*
X1118223D01*
X1117208Y467278D01*
X1123302Y472356D02*
X1127365D01*
X1125333D01*
Y466262D01*
X1133458Y472356D02*
X1129396D01*
Y466262D01*
X1133458D01*
X1129396Y469309D02*
X1131427D01*
X1135490Y466262D02*
Y472356D01*
X1138537D01*
X1139553Y471340D01*
Y469309D01*
X1138537Y468293D01*
X1135490D01*
X1117208Y446956D02*
Y440862D01*
X1120255D01*
X1121271Y441878D01*
Y445940D01*
X1120255Y446956D01*
X1117208D01*
X1123302D02*
X1125333D01*
X1124317D01*
Y440862D01*
X1123302D01*
X1125333D01*
X1128380D02*
Y446956D01*
X1131427D01*
X1132443Y445940D01*
Y443909D01*
X1131427Y442893D01*
X1128380D01*
X1130412D02*
X1132443Y440862D01*
X964808Y446956D02*
Y440862D01*
X967855D01*
X968870Y441878D01*
Y445940D01*
X967855Y446956D01*
X964808D01*
X970902D02*
X972933D01*
X971917D01*
Y440862D01*
X970902D01*
X972933D01*
X975980D02*
Y446956D01*
X979027D01*
X980043Y445940D01*
Y443909D01*
X979027Y442893D01*
X975980D01*
X978011D02*
X980043Y440862D01*
X968870Y471340D02*
X967855Y472356D01*
X965823D01*
X964808Y471340D01*
Y470325D01*
X965823Y469309D01*
X967855D01*
X968870Y468293D01*
Y467278D01*
X967855Y466262D01*
X965823D01*
X964808Y467278D01*
X970902Y472356D02*
X974965D01*
X972933D01*
Y466262D01*
X981059Y472356D02*
X976996D01*
Y466262D01*
X981059D01*
X976996Y469309D02*
X979027D01*
X983090Y466262D02*
Y472356D01*
X986137D01*
X987152Y471340D01*
Y469309D01*
X986137Y468293D01*
X983090D01*
X968870Y496740D02*
X967855Y497756D01*
X965823D01*
X964808Y496740D01*
Y495725D01*
X965823Y494709D01*
X967855D01*
X968870Y493693D01*
Y492678D01*
X967855Y491662D01*
X965823D01*
X964808Y492678D01*
X970902Y497756D02*
Y491662D01*
X974965D01*
X976996D02*
Y497756D01*
X980043D01*
X981059Y496740D01*
Y494709D01*
X980043Y493693D01*
X976996D01*
X964808Y517062D02*
Y523156D01*
X967855D01*
X968870Y522140D01*
Y520109D01*
X967855Y519093D01*
X964808D01*
X966839D02*
X968870Y517062D01*
X974965Y522140D02*
X973949Y523156D01*
X971917D01*
X970902Y522140D01*
Y521125D01*
X971917Y520109D01*
X973949D01*
X974965Y519093D01*
Y518078D01*
X973949Y517062D01*
X971917D01*
X970902Y518078D01*
X976996Y523156D02*
X981059D01*
X979027D01*
Y517062D01*
X964808Y542462D02*
Y548556D01*
X966839Y546525D01*
X968870Y548556D01*
Y542462D01*
X974965Y547540D02*
X973949Y548556D01*
X971917D01*
X970902Y547540D01*
Y546525D01*
X971917Y545509D01*
X973949D01*
X974965Y544493D01*
Y543478D01*
X973949Y542462D01*
X971917D01*
X970902Y543478D01*
X976996Y547540D02*
X978011Y548556D01*
X980043D01*
X981059Y547540D01*
Y546525D01*
X980043Y545509D01*
X979027D01*
X980043D01*
X981059Y544493D01*
Y543478D01*
X980043Y542462D01*
X978011D01*
X976996Y543478D01*
X964808Y567862D02*
Y573956D01*
X966839Y571925D01*
X968870Y573956D01*
Y567862D01*
X974965Y572940D02*
X973949Y573956D01*
X971917D01*
X970902Y572940D01*
Y571925D01*
X971917Y570909D01*
X973949D01*
X974965Y569893D01*
Y568878D01*
X973949Y567862D01*
X971917D01*
X970902Y568878D01*
X981059Y567862D02*
X976996D01*
X981059Y571925D01*
Y572940D01*
X980043Y573956D01*
X978011D01*
X976996Y572940D01*
X964808Y593262D02*
Y599356D01*
X966839Y597325D01*
X968870Y599356D01*
Y593262D01*
X974965Y598340D02*
X973949Y599356D01*
X971917D01*
X970902Y598340D01*
Y597325D01*
X971917Y596309D01*
X973949D01*
X974965Y595293D01*
Y594278D01*
X973949Y593262D01*
X971917D01*
X970902Y594278D01*
X976996Y593262D02*
X979027D01*
X978011D01*
Y599356D01*
X976996Y598340D01*
X968870Y624756D02*
X964808D01*
Y618662D01*
X968870D01*
X964808Y621709D02*
X966839D01*
X970902Y618662D02*
Y624756D01*
X974965Y618662D01*
Y624756D01*
X1049221Y444890D02*
X1048205Y445906D01*
X1046173D01*
X1045158Y444890D01*
Y440828D01*
X1046173Y439812D01*
X1048205D01*
X1049221Y440828D01*
Y442859D01*
X1047189D01*
X1051252Y439812D02*
Y445906D01*
X1055314Y439812D01*
Y445906D01*
X1057346D02*
Y439812D01*
X1060393D01*
X1061408Y440828D01*
Y444890D01*
X1060393Y445906D01*
X1057346D01*
X1045158Y471585D02*
Y467522D01*
X1047189Y465491D01*
X1049221Y467522D01*
Y471585D01*
X1051252D02*
Y465491D01*
X1054299D01*
X1055314Y466506D01*
Y470569D01*
X1054299Y471585D01*
X1051252D01*
X1057346D02*
Y465491D01*
X1060393D01*
X1061408Y466506D01*
Y470569D01*
X1060393Y471585D01*
X1057346D01*
X1045158Y491169D02*
X1047189D01*
X1046173D01*
Y497263D01*
X1045158Y496248D01*
X1050236Y497263D02*
Y491169D01*
X1053283D01*
X1054299Y492185D01*
Y493201D01*
X1053283Y494216D01*
X1050236D01*
X1053283D01*
X1054299Y495232D01*
Y496248D01*
X1053283Y497263D01*
X1050236D01*
X1045158Y516848D02*
X1047189D01*
X1046173D01*
Y522942D01*
X1045158Y521926D01*
X1050236Y516848D02*
Y520910D01*
X1052268Y522942D01*
X1054299Y520910D01*
Y516848D01*
Y519895D01*
X1050236D01*
X1049220Y542526D02*
X1045158D01*
X1049220Y546589D01*
Y547605D01*
X1048205Y548620D01*
X1046173D01*
X1045158Y547605D01*
X1051252Y542526D02*
Y546589D01*
X1053283Y548620D01*
X1055314Y546589D01*
Y542526D01*
Y545573D01*
X1051252D01*
X1049220Y568205D02*
X1045158D01*
X1049220Y572268D01*
Y573283D01*
X1048205Y574299D01*
X1046173D01*
X1045158Y573283D01*
X1051252Y574299D02*
Y568205D01*
X1054299D01*
X1055314Y569221D01*
Y570236D01*
X1054299Y571252D01*
X1051252D01*
X1054299D01*
X1055314Y572268D01*
Y573283D01*
X1054299Y574299D01*
X1051252D01*
X1049221Y598962D02*
X1048205Y599977D01*
X1046173D01*
X1045158Y598962D01*
Y594899D01*
X1046173Y593884D01*
X1048205D01*
X1049221Y594899D01*
Y596931D01*
X1047189D01*
X1051252Y593884D02*
Y599977D01*
X1055314Y593884D01*
Y599977D01*
X1057346D02*
Y593884D01*
X1060393D01*
X1061408Y594899D01*
Y598962D01*
X1060393Y599977D01*
X1057346D01*
X1045158Y625656D02*
Y621593D01*
X1047189Y619562D01*
X1049221Y621593D01*
Y625656D01*
X1051252Y619562D02*
Y623625D01*
X1052268D01*
X1053283Y622609D01*
Y619562D01*
Y622609D01*
X1054299Y623625D01*
X1055314Y622609D01*
Y619562D01*
X1058362D02*
X1060393D01*
X1061408Y620578D01*
Y622609D01*
X1060393Y623625D01*
X1058362D01*
X1057346Y622609D01*
Y620578D01*
X1058362Y619562D01*
X1064455Y624640D02*
Y623625D01*
X1063440D01*
X1065471D01*
X1064455D01*
Y620578D01*
X1065471Y619562D01*
X740442Y625656D02*
Y621594D01*
X742473Y619562D01*
X744504Y621594D01*
Y625656D01*
X746536Y619562D02*
Y623625D01*
X747551D01*
X748567Y622609D01*
Y619562D01*
Y622609D01*
X749583Y623625D01*
X750598Y622609D01*
Y619562D01*
X753645D02*
X755677D01*
X756693Y620578D01*
Y622609D01*
X755677Y623625D01*
X753645D01*
X752630Y622609D01*
Y620578D01*
X753645Y619562D01*
X759740Y624641D02*
Y623625D01*
X758724D01*
X760755D01*
X759740D01*
Y620578D01*
X760755Y619562D01*
X744504Y598962D02*
X743489Y599978D01*
X741457D01*
X740442Y598962D01*
Y594899D01*
X741457Y593884D01*
X743489D01*
X744504Y594899D01*
Y596931D01*
X742473D01*
X746536Y593884D02*
Y599978D01*
X750598Y593884D01*
Y599978D01*
X752630D02*
Y593884D01*
X755677D01*
X756693Y594899D01*
Y598962D01*
X755677Y599978D01*
X752630D01*
X744504Y568205D02*
X740442D01*
X744504Y572268D01*
Y573284D01*
X743489Y574299D01*
X741457D01*
X740442Y573284D01*
X746536Y574299D02*
Y568205D01*
X749583D01*
X750598Y569221D01*
Y570237D01*
X749583Y571252D01*
X746536D01*
X749583D01*
X750598Y572268D01*
Y573284D01*
X749583Y574299D01*
X746536D01*
X744504Y542527D02*
X740442D01*
X744504Y546589D01*
Y547605D01*
X743489Y548621D01*
X741457D01*
X740442Y547605D01*
X746536Y542527D02*
Y546589D01*
X748567Y548621D01*
X750598Y546589D01*
Y542527D01*
Y545574D01*
X746536D01*
X740442Y516848D02*
X742473D01*
X741457D01*
Y522942D01*
X740442Y521926D01*
X745520Y516848D02*
Y520911D01*
X747551Y522942D01*
X749583Y520911D01*
Y516848D01*
Y519895D01*
X745520D01*
X740442Y491170D02*
X742473D01*
X741457D01*
Y497263D01*
X740442Y496248D01*
X745520Y497263D02*
Y491170D01*
X748567D01*
X749583Y492185D01*
Y493201D01*
X748567Y494216D01*
X745520D01*
X748567D01*
X749583Y495232D01*
Y496248D01*
X748567Y497263D01*
X745520D01*
X740442Y471585D02*
Y467522D01*
X742473Y465491D01*
X744504Y467522D01*
Y471585D01*
X746536D02*
Y465491D01*
X749583D01*
X750598Y466507D01*
Y470569D01*
X749583Y471585D01*
X746536D01*
X752630D02*
Y465491D01*
X755677D01*
X756693Y466507D01*
Y470569D01*
X755677Y471585D01*
X752630D01*
X744504Y444891D02*
X743489Y445906D01*
X741457D01*
X740442Y444891D01*
Y440828D01*
X741457Y439812D01*
X743489D01*
X744504Y440828D01*
Y442859D01*
X742473D01*
X746536Y439812D02*
Y445906D01*
X750598Y439812D01*
Y445906D01*
X752630D02*
Y439812D01*
X755677D01*
X756693Y440828D01*
Y444891D01*
X755677Y445906D01*
X752630D01*
X664154Y624756D02*
X660092D01*
Y618662D01*
X664154D01*
X660092Y621709D02*
X662123D01*
X666186Y618662D02*
Y624756D01*
X670248Y618662D01*
Y624756D01*
X660092Y593262D02*
Y599356D01*
X662123Y597325D01*
X664154Y599356D01*
Y593262D01*
X670248Y598341D02*
X669233Y599356D01*
X667201D01*
X666186Y598341D01*
Y597325D01*
X667201Y596309D01*
X669233D01*
X670248Y595294D01*
Y594278D01*
X669233Y593262D01*
X667201D01*
X666186Y594278D01*
X672280Y593262D02*
X674311D01*
X673296D01*
Y599356D01*
X672280Y598341D01*
X660092Y567862D02*
Y573956D01*
X662123Y571925D01*
X664154Y573956D01*
Y567862D01*
X670248Y572941D02*
X669233Y573956D01*
X667201D01*
X666186Y572941D01*
Y571925D01*
X667201Y570909D01*
X669233D01*
X670248Y569894D01*
Y568878D01*
X669233Y567862D01*
X667201D01*
X666186Y568878D01*
X676342Y567862D02*
X672280D01*
X676342Y571925D01*
Y572941D01*
X675327Y573956D01*
X673296D01*
X672280Y572941D01*
X660092Y542462D02*
Y548556D01*
X662123Y546525D01*
X664154Y548556D01*
Y542462D01*
X670248Y547541D02*
X669233Y548556D01*
X667201D01*
X666186Y547541D01*
Y546525D01*
X667201Y545509D01*
X669233D01*
X670248Y544494D01*
Y543478D01*
X669233Y542462D01*
X667201D01*
X666186Y543478D01*
X672280Y547541D02*
X673296Y548556D01*
X675327D01*
X676342Y547541D01*
Y546525D01*
X675327Y545509D01*
X674311D01*
X675327D01*
X676342Y544494D01*
Y543478D01*
X675327Y542462D01*
X673296D01*
X672280Y543478D01*
X660092Y517062D02*
Y523156D01*
X663139D01*
X664154Y522141D01*
Y520109D01*
X663139Y519094D01*
X660092D01*
X662123D02*
X664154Y517062D01*
X670248Y522141D02*
X669233Y523156D01*
X667201D01*
X666186Y522141D01*
Y521125D01*
X667201Y520109D01*
X669233D01*
X670248Y519094D01*
Y518078D01*
X669233Y517062D01*
X667201D01*
X666186Y518078D01*
X672280Y523156D02*
X676342D01*
X674311D01*
Y517062D01*
X664154Y496741D02*
X663139Y497756D01*
X661107D01*
X660092Y496741D01*
Y495725D01*
X661107Y494709D01*
X663139D01*
X664154Y493694D01*
Y492678D01*
X663139Y491662D01*
X661107D01*
X660092Y492678D01*
X666186Y497756D02*
Y491662D01*
X670248D01*
X672280D02*
Y497756D01*
X675327D01*
X676342Y496741D01*
Y494709D01*
X675327Y493694D01*
X672280D01*
X664154Y471341D02*
X663139Y472356D01*
X661107D01*
X660092Y471341D01*
Y470325D01*
X661107Y469309D01*
X663139D01*
X664154Y468294D01*
Y467278D01*
X663139Y466262D01*
X661107D01*
X660092Y467278D01*
X666186Y472356D02*
X670248D01*
X668217D01*
Y466262D01*
X676342Y472356D02*
X672280D01*
Y466262D01*
X676342D01*
X672280Y469309D02*
X674311D01*
X678374Y466262D02*
Y472356D01*
X681421D01*
X682437Y471341D01*
Y469309D01*
X681421Y468294D01*
X678374D01*
X660092Y446956D02*
Y440862D01*
X663139D01*
X664154Y441878D01*
Y445941D01*
X663139Y446956D01*
X660092D01*
X666186D02*
X668217D01*
X667201D01*
Y440862D01*
X666186D01*
X668217D01*
X671264D02*
Y446956D01*
X674311D01*
X675327Y445941D01*
Y443909D01*
X674311Y442894D01*
X671264D01*
X673296D02*
X675327Y440862D01*
D72*
X869996Y155270D02*
X980486D01*
X869996Y1854D02*
X980486D01*
Y155270D01*
X869996Y1854D02*
Y155270D01*
X924860Y79913D02*
Y89912D01*
X919860Y84912D02*
X929860D01*
X1129402Y340436D02*
X1139402D01*
X1134402Y335436D02*
Y345436D01*
X1116902Y320436D02*
Y360436D01*
X1151902Y320436D02*
Y360436D01*
X1116902Y320436D02*
X1151902D01*
X1116902Y360436D02*
X1151902D01*
X267482Y138237D02*
X277482D01*
X272482Y133236D02*
Y143236D01*
X324482Y86237D02*
Y190236D01*
X220482Y86237D02*
Y190236D01*
X324482D01*
X220482Y86237D02*
X324482D01*
X330100Y391170D02*
Y565170D01*
X156100Y391170D02*
Y565170D01*
Y391170D02*
X330100D01*
X156100Y565170D02*
X330100D01*
X238100Y478170D02*
X248100D01*
X243100Y473171D02*
Y483171D01*
X1170870Y294904D02*
Y318404D01*
X1220870Y294904D02*
Y318404D01*
X1170870D02*
X1220870D01*
X1170870Y294904D02*
X1220870D01*
X1190870Y306654D02*
X1200870D01*
X1195870Y301654D02*
Y311654D01*
X265576Y193304D02*
Y216804D01*
X215576Y193304D02*
Y216804D01*
Y193304D02*
X265576D01*
X215576Y216804D02*
X265576D01*
X235576Y205054D02*
X245576D01*
X240576Y200054D02*
Y210054D01*
X341492Y563420D02*
X364992D01*
X341492Y613420D02*
X364992D01*
X341492Y563420D02*
Y613420D01*
X364992Y563420D02*
Y613420D01*
X353242Y583420D02*
Y593420D01*
X348242Y588420D02*
X358242D01*
X1135000Y296000D02*
Y306000D01*
X1130000Y301000D02*
X1140000D01*
D140*
X1113750Y312000D02*
X1156250D01*
X1113750Y290000D02*
X1156250D01*
X1113750D02*
Y312000D01*
X1156250Y290000D02*
Y312000D01*
D145*
X890000Y200000D02*
D03*
X702500Y115000D02*
D03*
X537500Y130000D02*
D03*
X790000Y115000D02*
D03*
X455000Y130000D02*
D03*
X615000D02*
D03*
X1302500Y192540D02*
D03*
M02*
