G04 Layer_Color=16711935*
%FSLAX44Y44*%
%MOMM*%
G71*
G01*
G75*
%ADD123R,1.7032X1.7032*%
%ADD132R,1.7032X1.7032*%
%ADD133C,1.7032*%
%ADD134O,2.2032X2.8032*%
%ADD135O,3.2032X4.2032*%
%ADD136C,1.7128*%
%ADD137C,2.6032*%
%ADD138C,2.2352*%
%ADD139C,3.5032*%
%ADD140C,4.2032*%
%ADD141C,0.8032*%
%ADD142C,1.7272*%
%ADD143C,1.2032*%
D123*
X328968Y644220D02*
D03*
X717374Y144884D02*
D03*
X803736Y144880D02*
D03*
X265308Y724440D02*
D03*
X447426D02*
D03*
X322618Y289128D02*
D03*
X563664Y390728D02*
D03*
X284264Y204292D02*
D03*
X906818Y658952D02*
D03*
X753402Y658698D02*
D03*
X601256D02*
D03*
X1361478Y658190D02*
D03*
X1209332Y658444D02*
D03*
X1056424Y658698D02*
D03*
X91520Y477850D02*
D03*
Y452450D02*
D03*
Y427050D02*
D03*
Y401650D02*
D03*
X66116Y527380D02*
D03*
X66116Y552780D02*
D03*
Y578180D02*
D03*
Y603580D02*
D03*
Y628980D02*
D03*
Y654380D02*
D03*
D132*
X393484Y22428D02*
D03*
X367576Y204546D02*
D03*
X353352Y263728D02*
D03*
X15320Y341960D02*
D03*
X391706Y548462D02*
D03*
X140754Y96850D02*
D03*
X454190Y524840D02*
D03*
X746798Y150444D02*
D03*
X833158Y150952D02*
D03*
X661708Y150444D02*
D03*
D133*
X393484Y47828D02*
D03*
X367576Y229946D02*
D03*
X354368Y644220D02*
D03*
X353352Y289128D02*
D03*
X691974Y144884D02*
D03*
X778336Y144880D02*
D03*
X163708Y699040D02*
D03*
Y724440D02*
D03*
X189108Y699040D02*
D03*
Y724440D02*
D03*
X214508Y699040D02*
D03*
Y724440D02*
D03*
X239908Y699040D02*
D03*
Y724440D02*
D03*
X265308Y699040D02*
D03*
X447426D02*
D03*
X422026Y724440D02*
D03*
Y699040D02*
D03*
X396626Y724440D02*
D03*
Y699040D02*
D03*
X371226Y724440D02*
D03*
Y699040D02*
D03*
X345826Y724440D02*
D03*
Y699040D02*
D03*
X170218Y263728D02*
D03*
Y289128D02*
D03*
X195618Y263728D02*
D03*
Y289128D02*
D03*
X221018Y263728D02*
D03*
Y289128D02*
D03*
X246418Y263728D02*
D03*
Y289128D02*
D03*
X271818Y263728D02*
D03*
Y289128D02*
D03*
X297218Y263728D02*
D03*
Y289128D02*
D03*
X322618Y263728D02*
D03*
X40720Y341960D02*
D03*
X15320Y316560D02*
D03*
X40720D02*
D03*
X15320Y291160D02*
D03*
X40720D02*
D03*
X15320Y265760D02*
D03*
X40720D02*
D03*
X15320Y240360D02*
D03*
X40720D02*
D03*
X462064Y365328D02*
D03*
Y390728D02*
D03*
X487464Y365328D02*
D03*
Y390728D02*
D03*
X512864Y365328D02*
D03*
Y390728D02*
D03*
X538264Y365328D02*
D03*
Y390728D02*
D03*
X563664Y365328D02*
D03*
X335064Y229692D02*
D03*
Y204292D02*
D03*
X309664Y229692D02*
D03*
Y204292D02*
D03*
X284264Y229692D02*
D03*
X417106Y548462D02*
D03*
X391706Y523062D02*
D03*
X417106D02*
D03*
X391706Y497662D02*
D03*
X417106D02*
D03*
X881418Y658952D02*
D03*
X856018D02*
D03*
X830618D02*
D03*
X677202Y658698D02*
D03*
X702602D02*
D03*
X728002D02*
D03*
X575856D02*
D03*
X550456D02*
D03*
X525056D02*
D03*
X1285278Y658190D02*
D03*
X1310678D02*
D03*
X1336078D02*
D03*
X1183932Y658444D02*
D03*
X1158532D02*
D03*
X1133132D02*
D03*
X980224Y658698D02*
D03*
X1005624D02*
D03*
X1031024D02*
D03*
X140754Y122250D02*
D03*
Y147650D02*
D03*
Y173050D02*
D03*
X15320Y477850D02*
D03*
X40720D02*
D03*
X66120D02*
D03*
Y452450D02*
D03*
X40720D02*
D03*
X15320D02*
D03*
Y427050D02*
D03*
X40720D02*
D03*
X66120D02*
D03*
Y401650D02*
D03*
X40720D02*
D03*
X15320D02*
D03*
X40716Y527380D02*
D03*
X15316D02*
D03*
X15316Y552780D02*
D03*
X40716D02*
D03*
Y578180D02*
D03*
X15316D02*
D03*
Y603580D02*
D03*
X40716D02*
D03*
Y628980D02*
D03*
X15316D02*
D03*
Y654380D02*
D03*
X40716D02*
D03*
X454190Y499440D02*
D03*
Y474040D02*
D03*
X746798Y201244D02*
D03*
Y175844D02*
D03*
X833158Y176352D02*
D03*
Y201752D02*
D03*
X661708Y201244D02*
D03*
Y175844D02*
D03*
D134*
X805980Y62052D02*
D03*
X770980D02*
D03*
X685890Y61544D02*
D03*
X720890D02*
D03*
X637578D02*
D03*
X602578D02*
D03*
X518758Y61290D02*
D03*
X553758D02*
D03*
X469938Y62052D02*
D03*
X434938D02*
D03*
X1271430Y712948D02*
D03*
X1306430D02*
D03*
X1341430D02*
D03*
X1376430D02*
D03*
X966430D02*
D03*
X1001430D02*
D03*
X1036430D02*
D03*
X1071430D02*
D03*
X1118930D02*
D03*
X1153930D02*
D03*
X1188930D02*
D03*
X1223930D02*
D03*
X510808Y712440D02*
D03*
X545808D02*
D03*
X580808D02*
D03*
X615808D02*
D03*
X663308D02*
D03*
X698308D02*
D03*
X733308D02*
D03*
X768308D02*
D03*
X815808D02*
D03*
X850808D02*
D03*
X885808D02*
D03*
X920808D02*
D03*
D135*
X1246162Y60782D02*
D03*
X1296162D02*
D03*
X1096010D02*
D03*
X1046010D02*
D03*
X1145832D02*
D03*
X1195832D02*
D03*
D136*
X774392Y621762D02*
D03*
Y469362D02*
D03*
X647392D02*
D03*
Y494762D02*
D03*
Y520162D02*
D03*
Y545562D02*
D03*
Y570962D02*
D03*
Y596362D02*
D03*
X774392D02*
D03*
Y443962D02*
D03*
X647392Y621762D02*
D03*
Y443962D02*
D03*
X774392Y570962D02*
D03*
Y545562D02*
D03*
Y494762D02*
D03*
Y520162D02*
D03*
X1079108Y520162D02*
D03*
Y494762D02*
D03*
Y545562D02*
D03*
Y570962D02*
D03*
X952108Y443962D02*
D03*
Y621762D02*
D03*
X1079108Y443962D02*
D03*
Y596362D02*
D03*
X952108D02*
D03*
Y570962D02*
D03*
Y545562D02*
D03*
Y520162D02*
D03*
Y494762D02*
D03*
Y469362D02*
D03*
X1079108D02*
D03*
Y621762D02*
D03*
X1231508D02*
D03*
Y469362D02*
D03*
X1104508D02*
D03*
Y494762D02*
D03*
Y520162D02*
D03*
Y545562D02*
D03*
Y570962D02*
D03*
Y596362D02*
D03*
X1231508D02*
D03*
Y443962D02*
D03*
X1104508Y621762D02*
D03*
Y443962D02*
D03*
X1231508Y570962D02*
D03*
Y545562D02*
D03*
Y494762D02*
D03*
Y520162D02*
D03*
X621992Y520162D02*
D03*
Y494762D02*
D03*
Y545562D02*
D03*
Y570962D02*
D03*
X494992Y443962D02*
D03*
Y621762D02*
D03*
X621992Y443962D02*
D03*
Y596362D02*
D03*
X494992D02*
D03*
Y570962D02*
D03*
Y545562D02*
D03*
Y520162D02*
D03*
Y494762D02*
D03*
Y469362D02*
D03*
X621992D02*
D03*
Y621762D02*
D03*
X926792D02*
D03*
Y469362D02*
D03*
X799792D02*
D03*
Y494762D02*
D03*
Y520162D02*
D03*
Y545562D02*
D03*
Y570962D02*
D03*
Y596362D02*
D03*
X926792D02*
D03*
Y443962D02*
D03*
X799792Y621762D02*
D03*
Y443962D02*
D03*
X926792Y570962D02*
D03*
Y545562D02*
D03*
Y494762D02*
D03*
Y520162D02*
D03*
X1383908Y520162D02*
D03*
Y494762D02*
D03*
Y545562D02*
D03*
Y570962D02*
D03*
X1256908Y443962D02*
D03*
Y621762D02*
D03*
X1383908Y443962D02*
D03*
Y596362D02*
D03*
X1256908D02*
D03*
Y570962D02*
D03*
Y545562D02*
D03*
Y520162D02*
D03*
Y494762D02*
D03*
Y469362D02*
D03*
X1383908D02*
D03*
Y621762D02*
D03*
D137*
X1115350Y150040D02*
D03*
X1151950D02*
D03*
X1070650D02*
D03*
X1034050D02*
D03*
X1248450D02*
D03*
X1211850D02*
D03*
X1293150D02*
D03*
X1329750D02*
D03*
D138*
X272326Y27254D02*
D03*
X226606D02*
D03*
X277156Y604038D02*
D03*
X231436D02*
D03*
D139*
X87726Y713248D02*
D03*
X1362748Y36144D02*
D03*
D140*
X1360208Y392252D02*
D03*
X86652Y38430D02*
D03*
D141*
X53018Y113713D02*
D03*
Y157712D02*
D03*
X207810Y430860D02*
D03*
X268482Y119998D02*
D03*
D142*
X1202982Y345770D02*
D03*
X1367066Y190830D02*
D03*
X1347762Y175590D02*
D03*
X1387894Y176352D02*
D03*
X190030Y425526D02*
D03*
X286550Y521284D02*
D03*
X408724Y254584D02*
D03*
X133388Y49860D02*
D03*
D143*
X591731Y180416D02*
D03*
X606018Y154508D02*
D03*
X591731Y193370D02*
D03*
Y154508D02*
D03*
Y206324D02*
D03*
Y167462D02*
D03*
X620306Y154508D02*
D03*
X536486D02*
D03*
X507911Y167462D02*
D03*
Y206324D02*
D03*
X565061Y167462D02*
D03*
Y206324D02*
D03*
X507911Y154508D02*
D03*
Y193370D02*
D03*
X522198Y154508D02*
D03*
X550774D02*
D03*
X565061D02*
D03*
Y193370D02*
D03*
X507911Y180416D02*
D03*
X565061D02*
D03*
X480987Y180162D02*
D03*
X423837D02*
D03*
X480987Y193116D02*
D03*
Y154254D02*
D03*
X466699D02*
D03*
X438125D02*
D03*
X423837Y193116D02*
D03*
Y154254D02*
D03*
X480987Y206070D02*
D03*
Y167208D02*
D03*
X423837Y206070D02*
D03*
Y167208D02*
D03*
X452412Y154254D02*
D03*
X1315314Y245948D02*
D03*
X1329601D02*
D03*
X1343889D02*
D03*
X1358176Y297764D02*
D03*
Y284810D02*
D03*
Y271856D02*
D03*
Y258902D02*
D03*
Y245948D02*
D03*
Y232994D02*
D03*
X1343889D02*
D03*
X1329601D02*
D03*
X1315314D02*
D03*
X1301026D02*
D03*
Y245948D02*
D03*
Y258902D02*
D03*
Y271856D02*
D03*
Y284810D02*
D03*
Y297764D02*
D03*
X1290866Y239344D02*
D03*
Y252362D02*
D03*
Y265379D02*
D03*
Y278397D02*
D03*
Y291414D02*
D03*
X1367066D02*
D03*
Y278397D02*
D03*
Y265379D02*
D03*
Y252362D02*
D03*
Y239344D02*
D03*
M02*
